%TF.GenerationSoftware,KiCad,Pcbnew,7.0.10*%
%TF.CreationDate,2024-03-19T08:54:02-07:00*%
%TF.ProjectId,hd44780_tutorial,68643434-3738-4305-9f74-75746f726961,1.1*%
%TF.SameCoordinates,Original*%
%TF.FileFunction,Legend,Top*%
%TF.FilePolarity,Positive*%
%FSLAX46Y46*%
G04 Gerber Fmt 4.6, Leading zero omitted, Abs format (unit mm)*
G04 Created by KiCad (PCBNEW 7.0.10) date 2024-03-19 08:54:02*
%MOMM*%
%LPD*%
G01*
G04 APERTURE LIST*
%ADD10C,0.300000*%
%ADD11C,0.400000*%
%ADD12C,0.150000*%
%ADD13C,0.200000*%
%ADD14C,0.254000*%
%ADD15C,0.125000*%
%ADD16C,0.127000*%
%ADD17C,0.120000*%
%ADD18C,0.152400*%
%ADD19C,0.100000*%
G04 APERTURE END LIST*
D10*
X199227713Y-70537828D02*
X199227713Y-69037828D01*
X199227713Y-69037828D02*
X199799142Y-69037828D01*
X199799142Y-69037828D02*
X199941999Y-69109257D01*
X199941999Y-69109257D02*
X200013428Y-69180685D01*
X200013428Y-69180685D02*
X200084856Y-69323542D01*
X200084856Y-69323542D02*
X200084856Y-69537828D01*
X200084856Y-69537828D02*
X200013428Y-69680685D01*
X200013428Y-69680685D02*
X199941999Y-69752114D01*
X199941999Y-69752114D02*
X199799142Y-69823542D01*
X199799142Y-69823542D02*
X199227713Y-69823542D01*
X201013428Y-69037828D02*
X201299142Y-69037828D01*
X201299142Y-69037828D02*
X201441999Y-69109257D01*
X201441999Y-69109257D02*
X201584856Y-69252114D01*
X201584856Y-69252114D02*
X201656285Y-69537828D01*
X201656285Y-69537828D02*
X201656285Y-70037828D01*
X201656285Y-70037828D02*
X201584856Y-70323542D01*
X201584856Y-70323542D02*
X201441999Y-70466400D01*
X201441999Y-70466400D02*
X201299142Y-70537828D01*
X201299142Y-70537828D02*
X201013428Y-70537828D01*
X201013428Y-70537828D02*
X200870571Y-70466400D01*
X200870571Y-70466400D02*
X200727713Y-70323542D01*
X200727713Y-70323542D02*
X200656285Y-70037828D01*
X200656285Y-70037828D02*
X200656285Y-69537828D01*
X200656285Y-69537828D02*
X200727713Y-69252114D01*
X200727713Y-69252114D02*
X200870571Y-69109257D01*
X200870571Y-69109257D02*
X201013428Y-69037828D01*
X202156285Y-69037828D02*
X202513428Y-70537828D01*
X202513428Y-70537828D02*
X202799142Y-69466400D01*
X202799142Y-69466400D02*
X203084857Y-70537828D01*
X203084857Y-70537828D02*
X203442000Y-69037828D01*
X204013428Y-69752114D02*
X204513428Y-69752114D01*
X204727714Y-70537828D02*
X204013428Y-70537828D01*
X204013428Y-70537828D02*
X204013428Y-69037828D01*
X204013428Y-69037828D02*
X204727714Y-69037828D01*
X206227714Y-70537828D02*
X205727714Y-69823542D01*
X205370571Y-70537828D02*
X205370571Y-69037828D01*
X205370571Y-69037828D02*
X205942000Y-69037828D01*
X205942000Y-69037828D02*
X206084857Y-69109257D01*
X206084857Y-69109257D02*
X206156286Y-69180685D01*
X206156286Y-69180685D02*
X206227714Y-69323542D01*
X206227714Y-69323542D02*
X206227714Y-69537828D01*
X206227714Y-69537828D02*
X206156286Y-69680685D01*
X206156286Y-69680685D02*
X206084857Y-69752114D01*
X206084857Y-69752114D02*
X205942000Y-69823542D01*
X205942000Y-69823542D02*
X205370571Y-69823542D01*
X200513428Y-71452828D02*
X200799142Y-71452828D01*
X200799142Y-71452828D02*
X200941999Y-71524257D01*
X200941999Y-71524257D02*
X201084856Y-71667114D01*
X201084856Y-71667114D02*
X201156285Y-71952828D01*
X201156285Y-71952828D02*
X201156285Y-72452828D01*
X201156285Y-72452828D02*
X201084856Y-72738542D01*
X201084856Y-72738542D02*
X200941999Y-72881400D01*
X200941999Y-72881400D02*
X200799142Y-72952828D01*
X200799142Y-72952828D02*
X200513428Y-72952828D01*
X200513428Y-72952828D02*
X200370571Y-72881400D01*
X200370571Y-72881400D02*
X200227713Y-72738542D01*
X200227713Y-72738542D02*
X200156285Y-72452828D01*
X200156285Y-72452828D02*
X200156285Y-71952828D01*
X200156285Y-71952828D02*
X200227713Y-71667114D01*
X200227713Y-71667114D02*
X200370571Y-71524257D01*
X200370571Y-71524257D02*
X200513428Y-71452828D01*
X201799142Y-72952828D02*
X201799142Y-71452828D01*
X201799142Y-71452828D02*
X202656285Y-72952828D01*
X202656285Y-72952828D02*
X202656285Y-71452828D01*
X204084857Y-72952828D02*
X203370571Y-72952828D01*
X203370571Y-72952828D02*
X203370571Y-71452828D01*
X204870572Y-72238542D02*
X204870572Y-72952828D01*
X204370572Y-71452828D02*
X204870572Y-72238542D01*
X204870572Y-72238542D02*
X205370572Y-71452828D01*
D11*
X172189347Y-56159438D02*
X172189347Y-54159438D01*
X173998871Y-56159438D02*
X173998871Y-55111819D01*
X173998871Y-55111819D02*
X173903633Y-54921342D01*
X173903633Y-54921342D02*
X173713157Y-54826104D01*
X173713157Y-54826104D02*
X173332204Y-54826104D01*
X173332204Y-54826104D02*
X173141728Y-54921342D01*
X173998871Y-56064200D02*
X173808395Y-56159438D01*
X173808395Y-56159438D02*
X173332204Y-56159438D01*
X173332204Y-56159438D02*
X173141728Y-56064200D01*
X173141728Y-56064200D02*
X173046490Y-55873723D01*
X173046490Y-55873723D02*
X173046490Y-55683247D01*
X173046490Y-55683247D02*
X173141728Y-55492771D01*
X173141728Y-55492771D02*
X173332204Y-55397533D01*
X173332204Y-55397533D02*
X173808395Y-55397533D01*
X173808395Y-55397533D02*
X173998871Y-55302295D01*
X174951252Y-54826104D02*
X174951252Y-56159438D01*
X174951252Y-55016580D02*
X175046490Y-54921342D01*
X175046490Y-54921342D02*
X175236966Y-54826104D01*
X175236966Y-54826104D02*
X175522681Y-54826104D01*
X175522681Y-54826104D02*
X175713157Y-54921342D01*
X175713157Y-54921342D02*
X175808395Y-55111819D01*
X175808395Y-55111819D02*
X175808395Y-56159438D01*
X178094110Y-54159438D02*
X178570300Y-56159438D01*
X178570300Y-56159438D02*
X178951253Y-54730866D01*
X178951253Y-54730866D02*
X179332205Y-56159438D01*
X179332205Y-56159438D02*
X179808396Y-54159438D01*
X181427443Y-56159438D02*
X181427443Y-55111819D01*
X181427443Y-55111819D02*
X181332205Y-54921342D01*
X181332205Y-54921342D02*
X181141729Y-54826104D01*
X181141729Y-54826104D02*
X180760776Y-54826104D01*
X180760776Y-54826104D02*
X180570300Y-54921342D01*
X181427443Y-56064200D02*
X181236967Y-56159438D01*
X181236967Y-56159438D02*
X180760776Y-56159438D01*
X180760776Y-56159438D02*
X180570300Y-56064200D01*
X180570300Y-56064200D02*
X180475062Y-55873723D01*
X180475062Y-55873723D02*
X180475062Y-55683247D01*
X180475062Y-55683247D02*
X180570300Y-55492771D01*
X180570300Y-55492771D02*
X180760776Y-55397533D01*
X180760776Y-55397533D02*
X181236967Y-55397533D01*
X181236967Y-55397533D02*
X181427443Y-55302295D01*
X182379824Y-56159438D02*
X182379824Y-54826104D01*
X182379824Y-55207057D02*
X182475062Y-55016580D01*
X182475062Y-55016580D02*
X182570300Y-54921342D01*
X182570300Y-54921342D02*
X182760776Y-54826104D01*
X182760776Y-54826104D02*
X182951253Y-54826104D01*
X184475062Y-56159438D02*
X184475062Y-54159438D01*
X184475062Y-56064200D02*
X184284586Y-56159438D01*
X184284586Y-56159438D02*
X183903633Y-56159438D01*
X183903633Y-56159438D02*
X183713157Y-56064200D01*
X183713157Y-56064200D02*
X183617919Y-55968961D01*
X183617919Y-55968961D02*
X183522681Y-55778485D01*
X183522681Y-55778485D02*
X183522681Y-55207057D01*
X183522681Y-55207057D02*
X183617919Y-55016580D01*
X183617919Y-55016580D02*
X183713157Y-54921342D01*
X183713157Y-54921342D02*
X183903633Y-54826104D01*
X183903633Y-54826104D02*
X184284586Y-54826104D01*
X184284586Y-54826104D02*
X184475062Y-54921342D01*
X185522681Y-54159438D02*
X185332205Y-54540390D01*
X186284586Y-56064200D02*
X186475062Y-56159438D01*
X186475062Y-56159438D02*
X186856014Y-56159438D01*
X186856014Y-56159438D02*
X187046491Y-56064200D01*
X187046491Y-56064200D02*
X187141729Y-55873723D01*
X187141729Y-55873723D02*
X187141729Y-55778485D01*
X187141729Y-55778485D02*
X187046491Y-55588009D01*
X187046491Y-55588009D02*
X186856014Y-55492771D01*
X186856014Y-55492771D02*
X186570300Y-55492771D01*
X186570300Y-55492771D02*
X186379824Y-55397533D01*
X186379824Y-55397533D02*
X186284586Y-55207057D01*
X186284586Y-55207057D02*
X186284586Y-55111819D01*
X186284586Y-55111819D02*
X186379824Y-54921342D01*
X186379824Y-54921342D02*
X186570300Y-54826104D01*
X186570300Y-54826104D02*
X186856014Y-54826104D01*
X186856014Y-54826104D02*
X187046491Y-54921342D01*
X172189347Y-59379438D02*
X172189347Y-57379438D01*
X172189347Y-58331819D02*
X173332204Y-58331819D01*
X173332204Y-59379438D02*
X173332204Y-57379438D01*
X174284585Y-59379438D02*
X174284585Y-57379438D01*
X174284585Y-57379438D02*
X174760775Y-57379438D01*
X174760775Y-57379438D02*
X175046490Y-57474676D01*
X175046490Y-57474676D02*
X175236966Y-57665152D01*
X175236966Y-57665152D02*
X175332204Y-57855628D01*
X175332204Y-57855628D02*
X175427442Y-58236580D01*
X175427442Y-58236580D02*
X175427442Y-58522295D01*
X175427442Y-58522295D02*
X175332204Y-58903247D01*
X175332204Y-58903247D02*
X175236966Y-59093723D01*
X175236966Y-59093723D02*
X175046490Y-59284200D01*
X175046490Y-59284200D02*
X174760775Y-59379438D01*
X174760775Y-59379438D02*
X174284585Y-59379438D01*
X177141728Y-58046104D02*
X177141728Y-59379438D01*
X176665537Y-57284200D02*
X176189347Y-58712771D01*
X176189347Y-58712771D02*
X177427442Y-58712771D01*
X179046490Y-58046104D02*
X179046490Y-59379438D01*
X178570299Y-57284200D02*
X178094109Y-58712771D01*
X178094109Y-58712771D02*
X179332204Y-58712771D01*
X179903633Y-57379438D02*
X181236966Y-57379438D01*
X181236966Y-57379438D02*
X180379823Y-59379438D01*
X182284585Y-58236580D02*
X182094109Y-58141342D01*
X182094109Y-58141342D02*
X181998871Y-58046104D01*
X181998871Y-58046104D02*
X181903633Y-57855628D01*
X181903633Y-57855628D02*
X181903633Y-57760390D01*
X181903633Y-57760390D02*
X181998871Y-57569914D01*
X181998871Y-57569914D02*
X182094109Y-57474676D01*
X182094109Y-57474676D02*
X182284585Y-57379438D01*
X182284585Y-57379438D02*
X182665538Y-57379438D01*
X182665538Y-57379438D02*
X182856014Y-57474676D01*
X182856014Y-57474676D02*
X182951252Y-57569914D01*
X182951252Y-57569914D02*
X183046490Y-57760390D01*
X183046490Y-57760390D02*
X183046490Y-57855628D01*
X183046490Y-57855628D02*
X182951252Y-58046104D01*
X182951252Y-58046104D02*
X182856014Y-58141342D01*
X182856014Y-58141342D02*
X182665538Y-58236580D01*
X182665538Y-58236580D02*
X182284585Y-58236580D01*
X182284585Y-58236580D02*
X182094109Y-58331819D01*
X182094109Y-58331819D02*
X181998871Y-58427057D01*
X181998871Y-58427057D02*
X181903633Y-58617533D01*
X181903633Y-58617533D02*
X181903633Y-58998485D01*
X181903633Y-58998485D02*
X181998871Y-59188961D01*
X181998871Y-59188961D02*
X182094109Y-59284200D01*
X182094109Y-59284200D02*
X182284585Y-59379438D01*
X182284585Y-59379438D02*
X182665538Y-59379438D01*
X182665538Y-59379438D02*
X182856014Y-59284200D01*
X182856014Y-59284200D02*
X182951252Y-59188961D01*
X182951252Y-59188961D02*
X183046490Y-58998485D01*
X183046490Y-58998485D02*
X183046490Y-58617533D01*
X183046490Y-58617533D02*
X182951252Y-58427057D01*
X182951252Y-58427057D02*
X182856014Y-58331819D01*
X182856014Y-58331819D02*
X182665538Y-58236580D01*
X184284585Y-57379438D02*
X184475062Y-57379438D01*
X184475062Y-57379438D02*
X184665538Y-57474676D01*
X184665538Y-57474676D02*
X184760776Y-57569914D01*
X184760776Y-57569914D02*
X184856014Y-57760390D01*
X184856014Y-57760390D02*
X184951252Y-58141342D01*
X184951252Y-58141342D02*
X184951252Y-58617533D01*
X184951252Y-58617533D02*
X184856014Y-58998485D01*
X184856014Y-58998485D02*
X184760776Y-59188961D01*
X184760776Y-59188961D02*
X184665538Y-59284200D01*
X184665538Y-59284200D02*
X184475062Y-59379438D01*
X184475062Y-59379438D02*
X184284585Y-59379438D01*
X184284585Y-59379438D02*
X184094109Y-59284200D01*
X184094109Y-59284200D02*
X183998871Y-59188961D01*
X183998871Y-59188961D02*
X183903633Y-58998485D01*
X183903633Y-58998485D02*
X183808395Y-58617533D01*
X183808395Y-58617533D02*
X183808395Y-58141342D01*
X183808395Y-58141342D02*
X183903633Y-57760390D01*
X183903633Y-57760390D02*
X183998871Y-57569914D01*
X183998871Y-57569914D02*
X184094109Y-57474676D01*
X184094109Y-57474676D02*
X184284585Y-57379438D01*
X187046491Y-57379438D02*
X188189348Y-57379438D01*
X187617919Y-59379438D02*
X187617919Y-57379438D01*
X189713158Y-58046104D02*
X189713158Y-59379438D01*
X188856015Y-58046104D02*
X188856015Y-59093723D01*
X188856015Y-59093723D02*
X188951253Y-59284200D01*
X188951253Y-59284200D02*
X189141729Y-59379438D01*
X189141729Y-59379438D02*
X189427444Y-59379438D01*
X189427444Y-59379438D02*
X189617920Y-59284200D01*
X189617920Y-59284200D02*
X189713158Y-59188961D01*
X190379825Y-58046104D02*
X191141729Y-58046104D01*
X190665539Y-57379438D02*
X190665539Y-59093723D01*
X190665539Y-59093723D02*
X190760777Y-59284200D01*
X190760777Y-59284200D02*
X190951253Y-59379438D01*
X190951253Y-59379438D02*
X191141729Y-59379438D01*
X192094110Y-59379438D02*
X191903634Y-59284200D01*
X191903634Y-59284200D02*
X191808396Y-59188961D01*
X191808396Y-59188961D02*
X191713158Y-58998485D01*
X191713158Y-58998485D02*
X191713158Y-58427057D01*
X191713158Y-58427057D02*
X191808396Y-58236580D01*
X191808396Y-58236580D02*
X191903634Y-58141342D01*
X191903634Y-58141342D02*
X192094110Y-58046104D01*
X192094110Y-58046104D02*
X192379825Y-58046104D01*
X192379825Y-58046104D02*
X192570301Y-58141342D01*
X192570301Y-58141342D02*
X192665539Y-58236580D01*
X192665539Y-58236580D02*
X192760777Y-58427057D01*
X192760777Y-58427057D02*
X192760777Y-58998485D01*
X192760777Y-58998485D02*
X192665539Y-59188961D01*
X192665539Y-59188961D02*
X192570301Y-59284200D01*
X192570301Y-59284200D02*
X192379825Y-59379438D01*
X192379825Y-59379438D02*
X192094110Y-59379438D01*
X193617920Y-59379438D02*
X193617920Y-58046104D01*
X193617920Y-58427057D02*
X193713158Y-58236580D01*
X193713158Y-58236580D02*
X193808396Y-58141342D01*
X193808396Y-58141342D02*
X193998872Y-58046104D01*
X193998872Y-58046104D02*
X194189349Y-58046104D01*
X194856015Y-59379438D02*
X194856015Y-58046104D01*
X194856015Y-57379438D02*
X194760777Y-57474676D01*
X194760777Y-57474676D02*
X194856015Y-57569914D01*
X194856015Y-57569914D02*
X194951253Y-57474676D01*
X194951253Y-57474676D02*
X194856015Y-57379438D01*
X194856015Y-57379438D02*
X194856015Y-57569914D01*
X196665539Y-59379438D02*
X196665539Y-58331819D01*
X196665539Y-58331819D02*
X196570301Y-58141342D01*
X196570301Y-58141342D02*
X196379825Y-58046104D01*
X196379825Y-58046104D02*
X195998872Y-58046104D01*
X195998872Y-58046104D02*
X195808396Y-58141342D01*
X196665539Y-59284200D02*
X196475063Y-59379438D01*
X196475063Y-59379438D02*
X195998872Y-59379438D01*
X195998872Y-59379438D02*
X195808396Y-59284200D01*
X195808396Y-59284200D02*
X195713158Y-59093723D01*
X195713158Y-59093723D02*
X195713158Y-58903247D01*
X195713158Y-58903247D02*
X195808396Y-58712771D01*
X195808396Y-58712771D02*
X195998872Y-58617533D01*
X195998872Y-58617533D02*
X196475063Y-58617533D01*
X196475063Y-58617533D02*
X196665539Y-58522295D01*
X197903634Y-59379438D02*
X197713158Y-59284200D01*
X197713158Y-59284200D02*
X197617920Y-59093723D01*
X197617920Y-59093723D02*
X197617920Y-57379438D01*
X172475061Y-62599438D02*
X172284585Y-62504200D01*
X172284585Y-62504200D02*
X172189347Y-62408961D01*
X172189347Y-62408961D02*
X172094109Y-62218485D01*
X172094109Y-62218485D02*
X172094109Y-61647057D01*
X172094109Y-61647057D02*
X172189347Y-61456580D01*
X172189347Y-61456580D02*
X172284585Y-61361342D01*
X172284585Y-61361342D02*
X172475061Y-61266104D01*
X172475061Y-61266104D02*
X172760776Y-61266104D01*
X172760776Y-61266104D02*
X172951252Y-61361342D01*
X172951252Y-61361342D02*
X173046490Y-61456580D01*
X173046490Y-61456580D02*
X173141728Y-61647057D01*
X173141728Y-61647057D02*
X173141728Y-62218485D01*
X173141728Y-62218485D02*
X173046490Y-62408961D01*
X173046490Y-62408961D02*
X172951252Y-62504200D01*
X172951252Y-62504200D02*
X172760776Y-62599438D01*
X172760776Y-62599438D02*
X172475061Y-62599438D01*
X173998871Y-61266104D02*
X173998871Y-62599438D01*
X173998871Y-61456580D02*
X174094109Y-61361342D01*
X174094109Y-61361342D02*
X174284585Y-61266104D01*
X174284585Y-61266104D02*
X174570300Y-61266104D01*
X174570300Y-61266104D02*
X174760776Y-61361342D01*
X174760776Y-61361342D02*
X174856014Y-61551819D01*
X174856014Y-61551819D02*
X174856014Y-62599438D01*
X178189348Y-62599438D02*
X178189348Y-61551819D01*
X178189348Y-61551819D02*
X178094110Y-61361342D01*
X178094110Y-61361342D02*
X177903634Y-61266104D01*
X177903634Y-61266104D02*
X177522681Y-61266104D01*
X177522681Y-61266104D02*
X177332205Y-61361342D01*
X178189348Y-62504200D02*
X177998872Y-62599438D01*
X177998872Y-62599438D02*
X177522681Y-62599438D01*
X177522681Y-62599438D02*
X177332205Y-62504200D01*
X177332205Y-62504200D02*
X177236967Y-62313723D01*
X177236967Y-62313723D02*
X177236967Y-62123247D01*
X177236967Y-62123247D02*
X177332205Y-61932771D01*
X177332205Y-61932771D02*
X177522681Y-61837533D01*
X177522681Y-61837533D02*
X177998872Y-61837533D01*
X177998872Y-61837533D02*
X178189348Y-61742295D01*
X180665539Y-62599438D02*
X180665539Y-60599438D01*
X180665539Y-60599438D02*
X181427444Y-60599438D01*
X181427444Y-60599438D02*
X181617920Y-60694676D01*
X181617920Y-60694676D02*
X181713158Y-60789914D01*
X181713158Y-60789914D02*
X181808396Y-60980390D01*
X181808396Y-60980390D02*
X181808396Y-61266104D01*
X181808396Y-61266104D02*
X181713158Y-61456580D01*
X181713158Y-61456580D02*
X181617920Y-61551819D01*
X181617920Y-61551819D02*
X181427444Y-61647057D01*
X181427444Y-61647057D02*
X180665539Y-61647057D01*
X183808396Y-62408961D02*
X183713158Y-62504200D01*
X183713158Y-62504200D02*
X183427444Y-62599438D01*
X183427444Y-62599438D02*
X183236968Y-62599438D01*
X183236968Y-62599438D02*
X182951253Y-62504200D01*
X182951253Y-62504200D02*
X182760777Y-62313723D01*
X182760777Y-62313723D02*
X182665539Y-62123247D01*
X182665539Y-62123247D02*
X182570301Y-61742295D01*
X182570301Y-61742295D02*
X182570301Y-61456580D01*
X182570301Y-61456580D02*
X182665539Y-61075628D01*
X182665539Y-61075628D02*
X182760777Y-60885152D01*
X182760777Y-60885152D02*
X182951253Y-60694676D01*
X182951253Y-60694676D02*
X183236968Y-60599438D01*
X183236968Y-60599438D02*
X183427444Y-60599438D01*
X183427444Y-60599438D02*
X183713158Y-60694676D01*
X183713158Y-60694676D02*
X183808396Y-60789914D01*
X185332206Y-61551819D02*
X185617920Y-61647057D01*
X185617920Y-61647057D02*
X185713158Y-61742295D01*
X185713158Y-61742295D02*
X185808396Y-61932771D01*
X185808396Y-61932771D02*
X185808396Y-62218485D01*
X185808396Y-62218485D02*
X185713158Y-62408961D01*
X185713158Y-62408961D02*
X185617920Y-62504200D01*
X185617920Y-62504200D02*
X185427444Y-62599438D01*
X185427444Y-62599438D02*
X184665539Y-62599438D01*
X184665539Y-62599438D02*
X184665539Y-60599438D01*
X184665539Y-60599438D02*
X185332206Y-60599438D01*
X185332206Y-60599438D02*
X185522682Y-60694676D01*
X185522682Y-60694676D02*
X185617920Y-60789914D01*
X185617920Y-60789914D02*
X185713158Y-60980390D01*
X185713158Y-60980390D02*
X185713158Y-61170866D01*
X185713158Y-61170866D02*
X185617920Y-61361342D01*
X185617920Y-61361342D02*
X185522682Y-61456580D01*
X185522682Y-61456580D02*
X185332206Y-61551819D01*
X185332206Y-61551819D02*
X184665539Y-61551819D01*
D12*
X130061667Y-116712200D02*
X130204524Y-116759819D01*
X130204524Y-116759819D02*
X130442619Y-116759819D01*
X130442619Y-116759819D02*
X130537857Y-116712200D01*
X130537857Y-116712200D02*
X130585476Y-116664580D01*
X130585476Y-116664580D02*
X130633095Y-116569342D01*
X130633095Y-116569342D02*
X130633095Y-116474104D01*
X130633095Y-116474104D02*
X130585476Y-116378866D01*
X130585476Y-116378866D02*
X130537857Y-116331247D01*
X130537857Y-116331247D02*
X130442619Y-116283628D01*
X130442619Y-116283628D02*
X130252143Y-116236009D01*
X130252143Y-116236009D02*
X130156905Y-116188390D01*
X130156905Y-116188390D02*
X130109286Y-116140771D01*
X130109286Y-116140771D02*
X130061667Y-116045533D01*
X130061667Y-116045533D02*
X130061667Y-115950295D01*
X130061667Y-115950295D02*
X130109286Y-115855057D01*
X130109286Y-115855057D02*
X130156905Y-115807438D01*
X130156905Y-115807438D02*
X130252143Y-115759819D01*
X130252143Y-115759819D02*
X130490238Y-115759819D01*
X130490238Y-115759819D02*
X130633095Y-115807438D01*
X130966429Y-115759819D02*
X131204524Y-116759819D01*
X131204524Y-116759819D02*
X131395000Y-116045533D01*
X131395000Y-116045533D02*
X131585476Y-116759819D01*
X131585476Y-116759819D02*
X131823572Y-115759819D01*
X132728333Y-116759819D02*
X132156905Y-116759819D01*
X132442619Y-116759819D02*
X132442619Y-115759819D01*
X132442619Y-115759819D02*
X132347381Y-115902676D01*
X132347381Y-115902676D02*
X132252143Y-115997914D01*
X132252143Y-115997914D02*
X132156905Y-116045533D01*
D13*
X128059523Y-125512219D02*
X127726190Y-125036028D01*
X127488095Y-125512219D02*
X127488095Y-124512219D01*
X127488095Y-124512219D02*
X127869047Y-124512219D01*
X127869047Y-124512219D02*
X127964285Y-124559838D01*
X127964285Y-124559838D02*
X128011904Y-124607457D01*
X128011904Y-124607457D02*
X128059523Y-124702695D01*
X128059523Y-124702695D02*
X128059523Y-124845552D01*
X128059523Y-124845552D02*
X128011904Y-124940790D01*
X128011904Y-124940790D02*
X127964285Y-124988409D01*
X127964285Y-124988409D02*
X127869047Y-125036028D01*
X127869047Y-125036028D02*
X127488095Y-125036028D01*
X128488095Y-124988409D02*
X128821428Y-124988409D01*
X128964285Y-125512219D02*
X128488095Y-125512219D01*
X128488095Y-125512219D02*
X128488095Y-124512219D01*
X128488095Y-124512219D02*
X128964285Y-124512219D01*
X129916666Y-124559838D02*
X129821428Y-124512219D01*
X129821428Y-124512219D02*
X129678571Y-124512219D01*
X129678571Y-124512219D02*
X129535714Y-124559838D01*
X129535714Y-124559838D02*
X129440476Y-124655076D01*
X129440476Y-124655076D02*
X129392857Y-124750314D01*
X129392857Y-124750314D02*
X129345238Y-124940790D01*
X129345238Y-124940790D02*
X129345238Y-125083647D01*
X129345238Y-125083647D02*
X129392857Y-125274123D01*
X129392857Y-125274123D02*
X129440476Y-125369361D01*
X129440476Y-125369361D02*
X129535714Y-125464600D01*
X129535714Y-125464600D02*
X129678571Y-125512219D01*
X129678571Y-125512219D02*
X129773809Y-125512219D01*
X129773809Y-125512219D02*
X129916666Y-125464600D01*
X129916666Y-125464600D02*
X129964285Y-125416980D01*
X129964285Y-125416980D02*
X129964285Y-125083647D01*
X129964285Y-125083647D02*
X129773809Y-125083647D01*
X131107143Y-125464600D02*
X131250000Y-125512219D01*
X131250000Y-125512219D02*
X131488095Y-125512219D01*
X131488095Y-125512219D02*
X131583333Y-125464600D01*
X131583333Y-125464600D02*
X131630952Y-125416980D01*
X131630952Y-125416980D02*
X131678571Y-125321742D01*
X131678571Y-125321742D02*
X131678571Y-125226504D01*
X131678571Y-125226504D02*
X131630952Y-125131266D01*
X131630952Y-125131266D02*
X131583333Y-125083647D01*
X131583333Y-125083647D02*
X131488095Y-125036028D01*
X131488095Y-125036028D02*
X131297619Y-124988409D01*
X131297619Y-124988409D02*
X131202381Y-124940790D01*
X131202381Y-124940790D02*
X131154762Y-124893171D01*
X131154762Y-124893171D02*
X131107143Y-124797933D01*
X131107143Y-124797933D02*
X131107143Y-124702695D01*
X131107143Y-124702695D02*
X131154762Y-124607457D01*
X131154762Y-124607457D02*
X131202381Y-124559838D01*
X131202381Y-124559838D02*
X131297619Y-124512219D01*
X131297619Y-124512219D02*
X131535714Y-124512219D01*
X131535714Y-124512219D02*
X131678571Y-124559838D01*
X132107143Y-124988409D02*
X132440476Y-124988409D01*
X132583333Y-125512219D02*
X132107143Y-125512219D01*
X132107143Y-125512219D02*
X132107143Y-124512219D01*
X132107143Y-124512219D02*
X132583333Y-124512219D01*
X133488095Y-125512219D02*
X133011905Y-125512219D01*
X133011905Y-125512219D02*
X133011905Y-124512219D01*
X133821429Y-124988409D02*
X134154762Y-124988409D01*
X134297619Y-125512219D02*
X133821429Y-125512219D01*
X133821429Y-125512219D02*
X133821429Y-124512219D01*
X133821429Y-124512219D02*
X134297619Y-124512219D01*
X135297619Y-125416980D02*
X135250000Y-125464600D01*
X135250000Y-125464600D02*
X135107143Y-125512219D01*
X135107143Y-125512219D02*
X135011905Y-125512219D01*
X135011905Y-125512219D02*
X134869048Y-125464600D01*
X134869048Y-125464600D02*
X134773810Y-125369361D01*
X134773810Y-125369361D02*
X134726191Y-125274123D01*
X134726191Y-125274123D02*
X134678572Y-125083647D01*
X134678572Y-125083647D02*
X134678572Y-124940790D01*
X134678572Y-124940790D02*
X134726191Y-124750314D01*
X134726191Y-124750314D02*
X134773810Y-124655076D01*
X134773810Y-124655076D02*
X134869048Y-124559838D01*
X134869048Y-124559838D02*
X135011905Y-124512219D01*
X135011905Y-124512219D02*
X135107143Y-124512219D01*
X135107143Y-124512219D02*
X135250000Y-124559838D01*
X135250000Y-124559838D02*
X135297619Y-124607457D01*
X135583334Y-124512219D02*
X136154762Y-124512219D01*
X135869048Y-125512219D02*
X135869048Y-124512219D01*
D12*
X149185333Y-115432819D02*
X148852000Y-114956628D01*
X148613905Y-115432819D02*
X148613905Y-114432819D01*
X148613905Y-114432819D02*
X148994857Y-114432819D01*
X148994857Y-114432819D02*
X149090095Y-114480438D01*
X149090095Y-114480438D02*
X149137714Y-114528057D01*
X149137714Y-114528057D02*
X149185333Y-114623295D01*
X149185333Y-114623295D02*
X149185333Y-114766152D01*
X149185333Y-114766152D02*
X149137714Y-114861390D01*
X149137714Y-114861390D02*
X149090095Y-114909009D01*
X149090095Y-114909009D02*
X148994857Y-114956628D01*
X148994857Y-114956628D02*
X148613905Y-114956628D01*
X150042476Y-114766152D02*
X150042476Y-115432819D01*
X149804381Y-114385200D02*
X149566286Y-115099485D01*
X149566286Y-115099485D02*
X150185333Y-115099485D01*
X148058285Y-117802819D02*
X147486857Y-117802819D01*
X147772571Y-117802819D02*
X147772571Y-116802819D01*
X147772571Y-116802819D02*
X147677333Y-116945676D01*
X147677333Y-116945676D02*
X147582095Y-117040914D01*
X147582095Y-117040914D02*
X147486857Y-117088533D01*
X148486857Y-117802819D02*
X148486857Y-116802819D01*
X149058285Y-117802819D02*
X148629714Y-117231390D01*
X149058285Y-116802819D02*
X148486857Y-117374247D01*
X149439238Y-117802819D02*
X149677333Y-117802819D01*
X149677333Y-117802819D02*
X149677333Y-117612342D01*
X149677333Y-117612342D02*
X149582095Y-117564723D01*
X149582095Y-117564723D02*
X149486857Y-117469485D01*
X149486857Y-117469485D02*
X149439238Y-117326628D01*
X149439238Y-117326628D02*
X149439238Y-117088533D01*
X149439238Y-117088533D02*
X149486857Y-116945676D01*
X149486857Y-116945676D02*
X149582095Y-116850438D01*
X149582095Y-116850438D02*
X149724952Y-116802819D01*
X149724952Y-116802819D02*
X149915428Y-116802819D01*
X149915428Y-116802819D02*
X150058285Y-116850438D01*
X150058285Y-116850438D02*
X150153523Y-116945676D01*
X150153523Y-116945676D02*
X150201142Y-117088533D01*
X150201142Y-117088533D02*
X150201142Y-117326628D01*
X150201142Y-117326628D02*
X150153523Y-117469485D01*
X150153523Y-117469485D02*
X150058285Y-117564723D01*
X150058285Y-117564723D02*
X149963047Y-117612342D01*
X149963047Y-117612342D02*
X149963047Y-117802819D01*
X149963047Y-117802819D02*
X150201142Y-117802819D01*
X78559819Y-115530238D02*
X78083628Y-115863571D01*
X78559819Y-116101666D02*
X77559819Y-116101666D01*
X77559819Y-116101666D02*
X77559819Y-115720714D01*
X77559819Y-115720714D02*
X77607438Y-115625476D01*
X77607438Y-115625476D02*
X77655057Y-115577857D01*
X77655057Y-115577857D02*
X77750295Y-115530238D01*
X77750295Y-115530238D02*
X77893152Y-115530238D01*
X77893152Y-115530238D02*
X77988390Y-115577857D01*
X77988390Y-115577857D02*
X78036009Y-115625476D01*
X78036009Y-115625476D02*
X78083628Y-115720714D01*
X78083628Y-115720714D02*
X78083628Y-116101666D01*
X77559819Y-115244523D02*
X78559819Y-114911190D01*
X78559819Y-114911190D02*
X77559819Y-114577857D01*
X78559819Y-113720714D02*
X78559819Y-114292142D01*
X78559819Y-114006428D02*
X77559819Y-114006428D01*
X77559819Y-114006428D02*
X77702676Y-114101666D01*
X77702676Y-114101666D02*
X77797914Y-114196904D01*
X77797914Y-114196904D02*
X77845533Y-114292142D01*
X82986666Y-118187119D02*
X82510476Y-118187119D01*
X82510476Y-118187119D02*
X82462857Y-118663309D01*
X82462857Y-118663309D02*
X82510476Y-118615690D01*
X82510476Y-118615690D02*
X82605714Y-118568071D01*
X82605714Y-118568071D02*
X82843809Y-118568071D01*
X82843809Y-118568071D02*
X82939047Y-118615690D01*
X82939047Y-118615690D02*
X82986666Y-118663309D01*
X82986666Y-118663309D02*
X83034285Y-118758547D01*
X83034285Y-118758547D02*
X83034285Y-118996642D01*
X83034285Y-118996642D02*
X82986666Y-119091880D01*
X82986666Y-119091880D02*
X82939047Y-119139500D01*
X82939047Y-119139500D02*
X82843809Y-119187119D01*
X82843809Y-119187119D02*
X82605714Y-119187119D01*
X82605714Y-119187119D02*
X82510476Y-119139500D01*
X82510476Y-119139500D02*
X82462857Y-119091880D01*
X83462857Y-119187119D02*
X83462857Y-118187119D01*
X84034285Y-119187119D02*
X83605714Y-118615690D01*
X84034285Y-118187119D02*
X83462857Y-118758547D01*
X84415238Y-119187119D02*
X84653333Y-119187119D01*
X84653333Y-119187119D02*
X84653333Y-118996642D01*
X84653333Y-118996642D02*
X84558095Y-118949023D01*
X84558095Y-118949023D02*
X84462857Y-118853785D01*
X84462857Y-118853785D02*
X84415238Y-118710928D01*
X84415238Y-118710928D02*
X84415238Y-118472833D01*
X84415238Y-118472833D02*
X84462857Y-118329976D01*
X84462857Y-118329976D02*
X84558095Y-118234738D01*
X84558095Y-118234738D02*
X84700952Y-118187119D01*
X84700952Y-118187119D02*
X84891428Y-118187119D01*
X84891428Y-118187119D02*
X85034285Y-118234738D01*
X85034285Y-118234738D02*
X85129523Y-118329976D01*
X85129523Y-118329976D02*
X85177142Y-118472833D01*
X85177142Y-118472833D02*
X85177142Y-118710928D01*
X85177142Y-118710928D02*
X85129523Y-118853785D01*
X85129523Y-118853785D02*
X85034285Y-118949023D01*
X85034285Y-118949023D02*
X84939047Y-118996642D01*
X84939047Y-118996642D02*
X84939047Y-119187119D01*
X84939047Y-119187119D02*
X85177142Y-119187119D01*
D14*
X80130953Y-125548365D02*
X80070477Y-125608842D01*
X80070477Y-125608842D02*
X79889048Y-125669318D01*
X79889048Y-125669318D02*
X79768096Y-125669318D01*
X79768096Y-125669318D02*
X79586667Y-125608842D01*
X79586667Y-125608842D02*
X79465715Y-125487889D01*
X79465715Y-125487889D02*
X79405238Y-125366937D01*
X79405238Y-125366937D02*
X79344762Y-125125032D01*
X79344762Y-125125032D02*
X79344762Y-124943603D01*
X79344762Y-124943603D02*
X79405238Y-124701699D01*
X79405238Y-124701699D02*
X79465715Y-124580746D01*
X79465715Y-124580746D02*
X79586667Y-124459794D01*
X79586667Y-124459794D02*
X79768096Y-124399318D01*
X79768096Y-124399318D02*
X79889048Y-124399318D01*
X79889048Y-124399318D02*
X80070477Y-124459794D01*
X80070477Y-124459794D02*
X80130953Y-124520270D01*
X80917143Y-124399318D02*
X81159048Y-124399318D01*
X81159048Y-124399318D02*
X81280000Y-124459794D01*
X81280000Y-124459794D02*
X81400953Y-124580746D01*
X81400953Y-124580746D02*
X81461429Y-124822651D01*
X81461429Y-124822651D02*
X81461429Y-125245984D01*
X81461429Y-125245984D02*
X81400953Y-125487889D01*
X81400953Y-125487889D02*
X81280000Y-125608842D01*
X81280000Y-125608842D02*
X81159048Y-125669318D01*
X81159048Y-125669318D02*
X80917143Y-125669318D01*
X80917143Y-125669318D02*
X80796191Y-125608842D01*
X80796191Y-125608842D02*
X80675238Y-125487889D01*
X80675238Y-125487889D02*
X80614762Y-125245984D01*
X80614762Y-125245984D02*
X80614762Y-124822651D01*
X80614762Y-124822651D02*
X80675238Y-124580746D01*
X80675238Y-124580746D02*
X80796191Y-124459794D01*
X80796191Y-124459794D02*
X80917143Y-124399318D01*
X82005714Y-125669318D02*
X82005714Y-124399318D01*
X82005714Y-124399318D02*
X82731429Y-125669318D01*
X82731429Y-125669318D02*
X82731429Y-124399318D01*
X83154762Y-124399318D02*
X83880476Y-124399318D01*
X83517619Y-125669318D02*
X83517619Y-124399318D01*
X85029524Y-125669318D02*
X84606190Y-125064556D01*
X84303809Y-125669318D02*
X84303809Y-124399318D01*
X84303809Y-124399318D02*
X84787619Y-124399318D01*
X84787619Y-124399318D02*
X84908571Y-124459794D01*
X84908571Y-124459794D02*
X84969048Y-124520270D01*
X84969048Y-124520270D02*
X85029524Y-124641222D01*
X85029524Y-124641222D02*
X85029524Y-124822651D01*
X85029524Y-124822651D02*
X84969048Y-124943603D01*
X84969048Y-124943603D02*
X84908571Y-125004080D01*
X84908571Y-125004080D02*
X84787619Y-125064556D01*
X84787619Y-125064556D02*
X84303809Y-125064556D01*
X85513333Y-125306461D02*
X86118095Y-125306461D01*
X85392381Y-125669318D02*
X85815714Y-124399318D01*
X85815714Y-124399318D02*
X86239048Y-125669318D01*
X86601904Y-125608842D02*
X86783333Y-125669318D01*
X86783333Y-125669318D02*
X87085714Y-125669318D01*
X87085714Y-125669318D02*
X87206666Y-125608842D01*
X87206666Y-125608842D02*
X87267142Y-125548365D01*
X87267142Y-125548365D02*
X87327619Y-125427413D01*
X87327619Y-125427413D02*
X87327619Y-125306461D01*
X87327619Y-125306461D02*
X87267142Y-125185508D01*
X87267142Y-125185508D02*
X87206666Y-125125032D01*
X87206666Y-125125032D02*
X87085714Y-125064556D01*
X87085714Y-125064556D02*
X86843809Y-125004080D01*
X86843809Y-125004080D02*
X86722857Y-124943603D01*
X86722857Y-124943603D02*
X86662380Y-124883127D01*
X86662380Y-124883127D02*
X86601904Y-124762175D01*
X86601904Y-124762175D02*
X86601904Y-124641222D01*
X86601904Y-124641222D02*
X86662380Y-124520270D01*
X86662380Y-124520270D02*
X86722857Y-124459794D01*
X86722857Y-124459794D02*
X86843809Y-124399318D01*
X86843809Y-124399318D02*
X87146190Y-124399318D01*
X87146190Y-124399318D02*
X87327619Y-124459794D01*
X87690476Y-124399318D02*
X88416190Y-124399318D01*
X88053333Y-125669318D02*
X88053333Y-124399318D01*
D12*
X161678333Y-110552819D02*
X161345000Y-110076628D01*
X161106905Y-110552819D02*
X161106905Y-109552819D01*
X161106905Y-109552819D02*
X161487857Y-109552819D01*
X161487857Y-109552819D02*
X161583095Y-109600438D01*
X161583095Y-109600438D02*
X161630714Y-109648057D01*
X161630714Y-109648057D02*
X161678333Y-109743295D01*
X161678333Y-109743295D02*
X161678333Y-109886152D01*
X161678333Y-109886152D02*
X161630714Y-109981390D01*
X161630714Y-109981390D02*
X161583095Y-110029009D01*
X161583095Y-110029009D02*
X161487857Y-110076628D01*
X161487857Y-110076628D02*
X161106905Y-110076628D01*
X162059286Y-109648057D02*
X162106905Y-109600438D01*
X162106905Y-109600438D02*
X162202143Y-109552819D01*
X162202143Y-109552819D02*
X162440238Y-109552819D01*
X162440238Y-109552819D02*
X162535476Y-109600438D01*
X162535476Y-109600438D02*
X162583095Y-109648057D01*
X162583095Y-109648057D02*
X162630714Y-109743295D01*
X162630714Y-109743295D02*
X162630714Y-109838533D01*
X162630714Y-109838533D02*
X162583095Y-109981390D01*
X162583095Y-109981390D02*
X162011667Y-110552819D01*
X162011667Y-110552819D02*
X162630714Y-110552819D01*
X160929285Y-112602819D02*
X160357857Y-112602819D01*
X160643571Y-112602819D02*
X160643571Y-111602819D01*
X160643571Y-111602819D02*
X160548333Y-111745676D01*
X160548333Y-111745676D02*
X160453095Y-111840914D01*
X160453095Y-111840914D02*
X160357857Y-111888533D01*
X161357857Y-112602819D02*
X161357857Y-111602819D01*
X161929285Y-112602819D02*
X161500714Y-112031390D01*
X161929285Y-111602819D02*
X161357857Y-112174247D01*
X162310238Y-112602819D02*
X162548333Y-112602819D01*
X162548333Y-112602819D02*
X162548333Y-112412342D01*
X162548333Y-112412342D02*
X162453095Y-112364723D01*
X162453095Y-112364723D02*
X162357857Y-112269485D01*
X162357857Y-112269485D02*
X162310238Y-112126628D01*
X162310238Y-112126628D02*
X162310238Y-111888533D01*
X162310238Y-111888533D02*
X162357857Y-111745676D01*
X162357857Y-111745676D02*
X162453095Y-111650438D01*
X162453095Y-111650438D02*
X162595952Y-111602819D01*
X162595952Y-111602819D02*
X162786428Y-111602819D01*
X162786428Y-111602819D02*
X162929285Y-111650438D01*
X162929285Y-111650438D02*
X163024523Y-111745676D01*
X163024523Y-111745676D02*
X163072142Y-111888533D01*
X163072142Y-111888533D02*
X163072142Y-112126628D01*
X163072142Y-112126628D02*
X163024523Y-112269485D01*
X163024523Y-112269485D02*
X162929285Y-112364723D01*
X162929285Y-112364723D02*
X162834047Y-112412342D01*
X162834047Y-112412342D02*
X162834047Y-112602819D01*
X162834047Y-112602819D02*
X163072142Y-112602819D01*
X150818333Y-110437580D02*
X150770714Y-110485200D01*
X150770714Y-110485200D02*
X150627857Y-110532819D01*
X150627857Y-110532819D02*
X150532619Y-110532819D01*
X150532619Y-110532819D02*
X150389762Y-110485200D01*
X150389762Y-110485200D02*
X150294524Y-110389961D01*
X150294524Y-110389961D02*
X150246905Y-110294723D01*
X150246905Y-110294723D02*
X150199286Y-110104247D01*
X150199286Y-110104247D02*
X150199286Y-109961390D01*
X150199286Y-109961390D02*
X150246905Y-109770914D01*
X150246905Y-109770914D02*
X150294524Y-109675676D01*
X150294524Y-109675676D02*
X150389762Y-109580438D01*
X150389762Y-109580438D02*
X150532619Y-109532819D01*
X150532619Y-109532819D02*
X150627857Y-109532819D01*
X150627857Y-109532819D02*
X150770714Y-109580438D01*
X150770714Y-109580438D02*
X150818333Y-109628057D01*
X151770714Y-110532819D02*
X151199286Y-110532819D01*
X151485000Y-110532819D02*
X151485000Y-109532819D01*
X151485000Y-109532819D02*
X151389762Y-109675676D01*
X151389762Y-109675676D02*
X151294524Y-109770914D01*
X151294524Y-109770914D02*
X151199286Y-109818533D01*
X149701666Y-112564104D02*
X149735000Y-112602200D01*
X149735000Y-112602200D02*
X149701666Y-112640295D01*
X149701666Y-112640295D02*
X149668333Y-112602200D01*
X149668333Y-112602200D02*
X149701666Y-112564104D01*
X149701666Y-112564104D02*
X149701666Y-112640295D01*
X150168333Y-111840295D02*
X150234999Y-111840295D01*
X150234999Y-111840295D02*
X150301666Y-111878390D01*
X150301666Y-111878390D02*
X150334999Y-111916485D01*
X150334999Y-111916485D02*
X150368333Y-111992676D01*
X150368333Y-111992676D02*
X150401666Y-112145057D01*
X150401666Y-112145057D02*
X150401666Y-112335533D01*
X150401666Y-112335533D02*
X150368333Y-112487914D01*
X150368333Y-112487914D02*
X150334999Y-112564104D01*
X150334999Y-112564104D02*
X150301666Y-112602200D01*
X150301666Y-112602200D02*
X150234999Y-112640295D01*
X150234999Y-112640295D02*
X150168333Y-112640295D01*
X150168333Y-112640295D02*
X150101666Y-112602200D01*
X150101666Y-112602200D02*
X150068333Y-112564104D01*
X150068333Y-112564104D02*
X150034999Y-112487914D01*
X150034999Y-112487914D02*
X150001666Y-112335533D01*
X150001666Y-112335533D02*
X150001666Y-112145057D01*
X150001666Y-112145057D02*
X150034999Y-111992676D01*
X150034999Y-111992676D02*
X150068333Y-111916485D01*
X150068333Y-111916485D02*
X150101666Y-111878390D01*
X150101666Y-111878390D02*
X150168333Y-111840295D01*
X151068333Y-112640295D02*
X150668333Y-112640295D01*
X150868333Y-112640295D02*
X150868333Y-111840295D01*
X150868333Y-111840295D02*
X150801666Y-111954580D01*
X150801666Y-111954580D02*
X150735000Y-112030771D01*
X150735000Y-112030771D02*
X150668333Y-112068866D01*
X151668333Y-112106961D02*
X151668333Y-112640295D01*
X151368333Y-112106961D02*
X151368333Y-112526009D01*
X151368333Y-112526009D02*
X151401667Y-112602200D01*
X151401667Y-112602200D02*
X151468333Y-112640295D01*
X151468333Y-112640295D02*
X151568333Y-112640295D01*
X151568333Y-112640295D02*
X151635000Y-112602200D01*
X151635000Y-112602200D02*
X151668333Y-112564104D01*
X152235000Y-112221247D02*
X152001666Y-112221247D01*
X152001666Y-112640295D02*
X152001666Y-111840295D01*
X152001666Y-111840295D02*
X152335000Y-111840295D01*
X110381905Y-118779819D02*
X110381905Y-117779819D01*
X110381905Y-117779819D02*
X110620000Y-117779819D01*
X110620000Y-117779819D02*
X110762857Y-117827438D01*
X110762857Y-117827438D02*
X110858095Y-117922676D01*
X110858095Y-117922676D02*
X110905714Y-118017914D01*
X110905714Y-118017914D02*
X110953333Y-118208390D01*
X110953333Y-118208390D02*
X110953333Y-118351247D01*
X110953333Y-118351247D02*
X110905714Y-118541723D01*
X110905714Y-118541723D02*
X110858095Y-118636961D01*
X110858095Y-118636961D02*
X110762857Y-118732200D01*
X110762857Y-118732200D02*
X110620000Y-118779819D01*
X110620000Y-118779819D02*
X110381905Y-118779819D01*
X111905714Y-118779819D02*
X111334286Y-118779819D01*
X111620000Y-118779819D02*
X111620000Y-117779819D01*
X111620000Y-117779819D02*
X111524762Y-117922676D01*
X111524762Y-117922676D02*
X111429524Y-118017914D01*
X111429524Y-118017914D02*
X111334286Y-118065533D01*
X110477142Y-124699819D02*
X110143809Y-124223628D01*
X109905714Y-124699819D02*
X109905714Y-123699819D01*
X109905714Y-123699819D02*
X110286666Y-123699819D01*
X110286666Y-123699819D02*
X110381904Y-123747438D01*
X110381904Y-123747438D02*
X110429523Y-123795057D01*
X110429523Y-123795057D02*
X110477142Y-123890295D01*
X110477142Y-123890295D02*
X110477142Y-124033152D01*
X110477142Y-124033152D02*
X110429523Y-124128390D01*
X110429523Y-124128390D02*
X110381904Y-124176009D01*
X110381904Y-124176009D02*
X110286666Y-124223628D01*
X110286666Y-124223628D02*
X109905714Y-124223628D01*
X110905714Y-124176009D02*
X111239047Y-124176009D01*
X111381904Y-124699819D02*
X110905714Y-124699819D01*
X110905714Y-124699819D02*
X110905714Y-123699819D01*
X110905714Y-123699819D02*
X111381904Y-123699819D01*
X111810476Y-124699819D02*
X111810476Y-123699819D01*
X111810476Y-123699819D02*
X112048571Y-123699819D01*
X112048571Y-123699819D02*
X112191428Y-123747438D01*
X112191428Y-123747438D02*
X112286666Y-123842676D01*
X112286666Y-123842676D02*
X112334285Y-123937914D01*
X112334285Y-123937914D02*
X112381904Y-124128390D01*
X112381904Y-124128390D02*
X112381904Y-124271247D01*
X112381904Y-124271247D02*
X112334285Y-124461723D01*
X112334285Y-124461723D02*
X112286666Y-124556961D01*
X112286666Y-124556961D02*
X112191428Y-124652200D01*
X112191428Y-124652200D02*
X112048571Y-124699819D01*
X112048571Y-124699819D02*
X111810476Y-124699819D01*
X215166905Y-79829819D02*
X215166905Y-78829819D01*
X215166905Y-78829819D02*
X215405000Y-78829819D01*
X215405000Y-78829819D02*
X215547857Y-78877438D01*
X215547857Y-78877438D02*
X215643095Y-78972676D01*
X215643095Y-78972676D02*
X215690714Y-79067914D01*
X215690714Y-79067914D02*
X215738333Y-79258390D01*
X215738333Y-79258390D02*
X215738333Y-79401247D01*
X215738333Y-79401247D02*
X215690714Y-79591723D01*
X215690714Y-79591723D02*
X215643095Y-79686961D01*
X215643095Y-79686961D02*
X215547857Y-79782200D01*
X215547857Y-79782200D02*
X215405000Y-79829819D01*
X215405000Y-79829819D02*
X215166905Y-79829819D01*
X216595476Y-79163152D02*
X216595476Y-79829819D01*
X216357381Y-78782200D02*
X216119286Y-79496485D01*
X216119286Y-79496485D02*
X216738333Y-79496485D01*
X210423333Y-83107438D02*
X210328095Y-83059819D01*
X210328095Y-83059819D02*
X210185238Y-83059819D01*
X210185238Y-83059819D02*
X210042381Y-83107438D01*
X210042381Y-83107438D02*
X209947143Y-83202676D01*
X209947143Y-83202676D02*
X209899524Y-83297914D01*
X209899524Y-83297914D02*
X209851905Y-83488390D01*
X209851905Y-83488390D02*
X209851905Y-83631247D01*
X209851905Y-83631247D02*
X209899524Y-83821723D01*
X209899524Y-83821723D02*
X209947143Y-83916961D01*
X209947143Y-83916961D02*
X210042381Y-84012200D01*
X210042381Y-84012200D02*
X210185238Y-84059819D01*
X210185238Y-84059819D02*
X210280476Y-84059819D01*
X210280476Y-84059819D02*
X210423333Y-84012200D01*
X210423333Y-84012200D02*
X210470952Y-83964580D01*
X210470952Y-83964580D02*
X210470952Y-83631247D01*
X210470952Y-83631247D02*
X210280476Y-83631247D01*
X211470952Y-84059819D02*
X211137619Y-83583628D01*
X210899524Y-84059819D02*
X210899524Y-83059819D01*
X210899524Y-83059819D02*
X211280476Y-83059819D01*
X211280476Y-83059819D02*
X211375714Y-83107438D01*
X211375714Y-83107438D02*
X211423333Y-83155057D01*
X211423333Y-83155057D02*
X211470952Y-83250295D01*
X211470952Y-83250295D02*
X211470952Y-83393152D01*
X211470952Y-83393152D02*
X211423333Y-83488390D01*
X211423333Y-83488390D02*
X211375714Y-83536009D01*
X211375714Y-83536009D02*
X211280476Y-83583628D01*
X211280476Y-83583628D02*
X210899524Y-83583628D01*
X211899524Y-83536009D02*
X212232857Y-83536009D01*
X212375714Y-84059819D02*
X211899524Y-84059819D01*
X211899524Y-84059819D02*
X211899524Y-83059819D01*
X211899524Y-83059819D02*
X212375714Y-83059819D01*
X212804286Y-83536009D02*
X213137619Y-83536009D01*
X213280476Y-84059819D02*
X212804286Y-84059819D01*
X212804286Y-84059819D02*
X212804286Y-83059819D01*
X212804286Y-83059819D02*
X213280476Y-83059819D01*
X213709048Y-84059819D02*
X213709048Y-83059819D01*
X213709048Y-83059819D02*
X214280476Y-84059819D01*
X214280476Y-84059819D02*
X214280476Y-83059819D01*
X87574523Y-48714819D02*
X87241190Y-48238628D01*
X87003095Y-48714819D02*
X87003095Y-47714819D01*
X87003095Y-47714819D02*
X87384047Y-47714819D01*
X87384047Y-47714819D02*
X87479285Y-47762438D01*
X87479285Y-47762438D02*
X87526904Y-47810057D01*
X87526904Y-47810057D02*
X87574523Y-47905295D01*
X87574523Y-47905295D02*
X87574523Y-48048152D01*
X87574523Y-48048152D02*
X87526904Y-48143390D01*
X87526904Y-48143390D02*
X87479285Y-48191009D01*
X87479285Y-48191009D02*
X87384047Y-48238628D01*
X87384047Y-48238628D02*
X87003095Y-48238628D01*
X88003095Y-48714819D02*
X88003095Y-47714819D01*
X88003095Y-47714819D02*
X88574523Y-48714819D01*
X88574523Y-48714819D02*
X88574523Y-47714819D01*
X89003095Y-47810057D02*
X89050714Y-47762438D01*
X89050714Y-47762438D02*
X89145952Y-47714819D01*
X89145952Y-47714819D02*
X89384047Y-47714819D01*
X89384047Y-47714819D02*
X89479285Y-47762438D01*
X89479285Y-47762438D02*
X89526904Y-47810057D01*
X89526904Y-47810057D02*
X89574523Y-47905295D01*
X89574523Y-47905295D02*
X89574523Y-48000533D01*
X89574523Y-48000533D02*
X89526904Y-48143390D01*
X89526904Y-48143390D02*
X88955476Y-48714819D01*
X88955476Y-48714819D02*
X89574523Y-48714819D01*
X115419285Y-48714819D02*
X114847857Y-48714819D01*
X115133571Y-48714819D02*
X115133571Y-47714819D01*
X115133571Y-47714819D02*
X115038333Y-47857676D01*
X115038333Y-47857676D02*
X114943095Y-47952914D01*
X114943095Y-47952914D02*
X114847857Y-48000533D01*
X115847857Y-48714819D02*
X115847857Y-47714819D01*
X116419285Y-48714819D02*
X115990714Y-48143390D01*
X116419285Y-47714819D02*
X115847857Y-48286247D01*
X116800238Y-48714819D02*
X117038333Y-48714819D01*
X117038333Y-48714819D02*
X117038333Y-48524342D01*
X117038333Y-48524342D02*
X116943095Y-48476723D01*
X116943095Y-48476723D02*
X116847857Y-48381485D01*
X116847857Y-48381485D02*
X116800238Y-48238628D01*
X116800238Y-48238628D02*
X116800238Y-48000533D01*
X116800238Y-48000533D02*
X116847857Y-47857676D01*
X116847857Y-47857676D02*
X116943095Y-47762438D01*
X116943095Y-47762438D02*
X117085952Y-47714819D01*
X117085952Y-47714819D02*
X117276428Y-47714819D01*
X117276428Y-47714819D02*
X117419285Y-47762438D01*
X117419285Y-47762438D02*
X117514523Y-47857676D01*
X117514523Y-47857676D02*
X117562142Y-48000533D01*
X117562142Y-48000533D02*
X117562142Y-48238628D01*
X117562142Y-48238628D02*
X117514523Y-48381485D01*
X117514523Y-48381485D02*
X117419285Y-48476723D01*
X117419285Y-48476723D02*
X117324047Y-48524342D01*
X117324047Y-48524342D02*
X117324047Y-48714819D01*
X117324047Y-48714819D02*
X117562142Y-48714819D01*
X73621419Y-52504933D02*
X74335704Y-52504933D01*
X74335704Y-52504933D02*
X74478561Y-52552552D01*
X74478561Y-52552552D02*
X74573800Y-52647790D01*
X74573800Y-52647790D02*
X74621419Y-52790647D01*
X74621419Y-52790647D02*
X74621419Y-52885885D01*
X74621419Y-51504933D02*
X74621419Y-52076361D01*
X74621419Y-51790647D02*
X73621419Y-51790647D01*
X73621419Y-51790647D02*
X73764276Y-51885885D01*
X73764276Y-51885885D02*
X73859514Y-51981123D01*
X73859514Y-51981123D02*
X73907133Y-52076361D01*
X161106667Y-116937200D02*
X161249524Y-116984819D01*
X161249524Y-116984819D02*
X161487619Y-116984819D01*
X161487619Y-116984819D02*
X161582857Y-116937200D01*
X161582857Y-116937200D02*
X161630476Y-116889580D01*
X161630476Y-116889580D02*
X161678095Y-116794342D01*
X161678095Y-116794342D02*
X161678095Y-116699104D01*
X161678095Y-116699104D02*
X161630476Y-116603866D01*
X161630476Y-116603866D02*
X161582857Y-116556247D01*
X161582857Y-116556247D02*
X161487619Y-116508628D01*
X161487619Y-116508628D02*
X161297143Y-116461009D01*
X161297143Y-116461009D02*
X161201905Y-116413390D01*
X161201905Y-116413390D02*
X161154286Y-116365771D01*
X161154286Y-116365771D02*
X161106667Y-116270533D01*
X161106667Y-116270533D02*
X161106667Y-116175295D01*
X161106667Y-116175295D02*
X161154286Y-116080057D01*
X161154286Y-116080057D02*
X161201905Y-116032438D01*
X161201905Y-116032438D02*
X161297143Y-115984819D01*
X161297143Y-115984819D02*
X161535238Y-115984819D01*
X161535238Y-115984819D02*
X161678095Y-116032438D01*
X162011429Y-115984819D02*
X162249524Y-116984819D01*
X162249524Y-116984819D02*
X162440000Y-116270533D01*
X162440000Y-116270533D02*
X162630476Y-116984819D01*
X162630476Y-116984819D02*
X162868572Y-115984819D01*
X163201905Y-116080057D02*
X163249524Y-116032438D01*
X163249524Y-116032438D02*
X163344762Y-115984819D01*
X163344762Y-115984819D02*
X163582857Y-115984819D01*
X163582857Y-115984819D02*
X163678095Y-116032438D01*
X163678095Y-116032438D02*
X163725714Y-116080057D01*
X163725714Y-116080057D02*
X163773333Y-116175295D01*
X163773333Y-116175295D02*
X163773333Y-116270533D01*
X163773333Y-116270533D02*
X163725714Y-116413390D01*
X163725714Y-116413390D02*
X163154286Y-116984819D01*
X163154286Y-116984819D02*
X163773333Y-116984819D01*
D13*
X160666190Y-124498409D02*
X160999523Y-124498409D01*
X161142380Y-125022219D02*
X160666190Y-125022219D01*
X160666190Y-125022219D02*
X160666190Y-124022219D01*
X160666190Y-124022219D02*
X161142380Y-124022219D01*
X161570952Y-125022219D02*
X161570952Y-124022219D01*
X161570952Y-124022219D02*
X162142380Y-125022219D01*
X162142380Y-125022219D02*
X162142380Y-124022219D01*
X162570952Y-124736504D02*
X163047142Y-124736504D01*
X162475714Y-125022219D02*
X162809047Y-124022219D01*
X162809047Y-124022219D02*
X163142380Y-125022219D01*
X163809047Y-124498409D02*
X163951904Y-124546028D01*
X163951904Y-124546028D02*
X163999523Y-124593647D01*
X163999523Y-124593647D02*
X164047142Y-124688885D01*
X164047142Y-124688885D02*
X164047142Y-124831742D01*
X164047142Y-124831742D02*
X163999523Y-124926980D01*
X163999523Y-124926980D02*
X163951904Y-124974600D01*
X163951904Y-124974600D02*
X163856666Y-125022219D01*
X163856666Y-125022219D02*
X163475714Y-125022219D01*
X163475714Y-125022219D02*
X163475714Y-124022219D01*
X163475714Y-124022219D02*
X163809047Y-124022219D01*
X163809047Y-124022219D02*
X163904285Y-124069838D01*
X163904285Y-124069838D02*
X163951904Y-124117457D01*
X163951904Y-124117457D02*
X163999523Y-124212695D01*
X163999523Y-124212695D02*
X163999523Y-124307933D01*
X163999523Y-124307933D02*
X163951904Y-124403171D01*
X163951904Y-124403171D02*
X163904285Y-124450790D01*
X163904285Y-124450790D02*
X163809047Y-124498409D01*
X163809047Y-124498409D02*
X163475714Y-124498409D01*
X164951904Y-125022219D02*
X164475714Y-125022219D01*
X164475714Y-125022219D02*
X164475714Y-124022219D01*
X165285238Y-124498409D02*
X165618571Y-124498409D01*
X165761428Y-125022219D02*
X165285238Y-125022219D01*
X165285238Y-125022219D02*
X165285238Y-124022219D01*
X165285238Y-124022219D02*
X165761428Y-124022219D01*
D12*
X213397666Y-64859819D02*
X213397666Y-65574104D01*
X213397666Y-65574104D02*
X213350047Y-65716961D01*
X213350047Y-65716961D02*
X213254809Y-65812200D01*
X213254809Y-65812200D02*
X213111952Y-65859819D01*
X213111952Y-65859819D02*
X213016714Y-65859819D01*
X213826238Y-64955057D02*
X213873857Y-64907438D01*
X213873857Y-64907438D02*
X213969095Y-64859819D01*
X213969095Y-64859819D02*
X214207190Y-64859819D01*
X214207190Y-64859819D02*
X214302428Y-64907438D01*
X214302428Y-64907438D02*
X214350047Y-64955057D01*
X214350047Y-64955057D02*
X214397666Y-65050295D01*
X214397666Y-65050295D02*
X214397666Y-65145533D01*
X214397666Y-65145533D02*
X214350047Y-65288390D01*
X214350047Y-65288390D02*
X213778619Y-65859819D01*
X213778619Y-65859819D02*
X214397666Y-65859819D01*
D15*
X216850595Y-74846190D02*
X217498214Y-74846190D01*
X217498214Y-74846190D02*
X217574404Y-74822380D01*
X217574404Y-74822380D02*
X217612500Y-74798571D01*
X217612500Y-74798571D02*
X217650595Y-74750952D01*
X217650595Y-74750952D02*
X217650595Y-74655714D01*
X217650595Y-74655714D02*
X217612500Y-74608095D01*
X217612500Y-74608095D02*
X217574404Y-74584285D01*
X217574404Y-74584285D02*
X217498214Y-74560476D01*
X217498214Y-74560476D02*
X216850595Y-74560476D01*
X216850595Y-74179523D02*
X217422023Y-74179523D01*
X217422023Y-74179523D02*
X217536309Y-74203332D01*
X217536309Y-74203332D02*
X217612500Y-74250951D01*
X217612500Y-74250951D02*
X217650595Y-74322380D01*
X217650595Y-74322380D02*
X217650595Y-74369999D01*
X217574404Y-73655714D02*
X217612500Y-73679523D01*
X217612500Y-73679523D02*
X217650595Y-73750952D01*
X217650595Y-73750952D02*
X217650595Y-73798571D01*
X217650595Y-73798571D02*
X217612500Y-73869999D01*
X217612500Y-73869999D02*
X217536309Y-73917618D01*
X217536309Y-73917618D02*
X217460119Y-73941428D01*
X217460119Y-73941428D02*
X217307738Y-73965237D01*
X217307738Y-73965237D02*
X217193452Y-73965237D01*
X217193452Y-73965237D02*
X217041071Y-73941428D01*
X217041071Y-73941428D02*
X216964880Y-73917618D01*
X216964880Y-73917618D02*
X216888690Y-73869999D01*
X216888690Y-73869999D02*
X216850595Y-73798571D01*
X216850595Y-73798571D02*
X216850595Y-73750952D01*
X216850595Y-73750952D02*
X216888690Y-73679523D01*
X216888690Y-73679523D02*
X216926785Y-73655714D01*
X217345833Y-73441428D02*
X217345833Y-73060476D01*
X217650595Y-72822380D02*
X216850595Y-72822380D01*
X217231547Y-72822380D02*
X217231547Y-72536666D01*
X217650595Y-72536666D02*
X216850595Y-72536666D01*
X217650595Y-72298570D02*
X216850595Y-72298570D01*
X216850595Y-72298570D02*
X216850595Y-72108094D01*
X216850595Y-72108094D02*
X216888690Y-72060475D01*
X216888690Y-72060475D02*
X216926785Y-72036665D01*
X216926785Y-72036665D02*
X217002976Y-72012856D01*
X217002976Y-72012856D02*
X217117261Y-72012856D01*
X217117261Y-72012856D02*
X217193452Y-72036665D01*
X217193452Y-72036665D02*
X217231547Y-72060475D01*
X217231547Y-72060475D02*
X217269642Y-72108094D01*
X217269642Y-72108094D02*
X217269642Y-72298570D01*
X217345833Y-71798570D02*
X217345833Y-71417618D01*
X216850595Y-71227141D02*
X216850595Y-70917617D01*
X216850595Y-70917617D02*
X217155357Y-71084284D01*
X217155357Y-71084284D02*
X217155357Y-71012855D01*
X217155357Y-71012855D02*
X217193452Y-70965236D01*
X217193452Y-70965236D02*
X217231547Y-70941427D01*
X217231547Y-70941427D02*
X217307738Y-70917617D01*
X217307738Y-70917617D02*
X217498214Y-70917617D01*
X217498214Y-70917617D02*
X217574404Y-70941427D01*
X217574404Y-70941427D02*
X217612500Y-70965236D01*
X217612500Y-70965236D02*
X217650595Y-71012855D01*
X217650595Y-71012855D02*
X217650595Y-71155712D01*
X217650595Y-71155712D02*
X217612500Y-71203331D01*
X217612500Y-71203331D02*
X217574404Y-71227141D01*
X217345833Y-70703332D02*
X217345833Y-70322380D01*
X217612500Y-70108093D02*
X217650595Y-70036665D01*
X217650595Y-70036665D02*
X217650595Y-69917617D01*
X217650595Y-69917617D02*
X217612500Y-69869998D01*
X217612500Y-69869998D02*
X217574404Y-69846189D01*
X217574404Y-69846189D02*
X217498214Y-69822379D01*
X217498214Y-69822379D02*
X217422023Y-69822379D01*
X217422023Y-69822379D02*
X217345833Y-69846189D01*
X217345833Y-69846189D02*
X217307738Y-69869998D01*
X217307738Y-69869998D02*
X217269642Y-69917617D01*
X217269642Y-69917617D02*
X217231547Y-70012855D01*
X217231547Y-70012855D02*
X217193452Y-70060474D01*
X217193452Y-70060474D02*
X217155357Y-70084284D01*
X217155357Y-70084284D02*
X217079166Y-70108093D01*
X217079166Y-70108093D02*
X217002976Y-70108093D01*
X217002976Y-70108093D02*
X216926785Y-70084284D01*
X216926785Y-70084284D02*
X216888690Y-70060474D01*
X216888690Y-70060474D02*
X216850595Y-70012855D01*
X216850595Y-70012855D02*
X216850595Y-69893808D01*
X216850595Y-69893808D02*
X216888690Y-69822379D01*
X217650595Y-69608094D02*
X216850595Y-69608094D01*
X216850595Y-69608094D02*
X217422023Y-69441427D01*
X217422023Y-69441427D02*
X216850595Y-69274761D01*
X216850595Y-69274761D02*
X217650595Y-69274761D01*
X216850595Y-69108093D02*
X216850595Y-68822379D01*
X217650595Y-68965236D02*
X216850595Y-68965236D01*
X217345833Y-68655713D02*
X217345833Y-68274761D01*
X216850595Y-68108093D02*
X216850595Y-67822379D01*
X217650595Y-67965236D02*
X216850595Y-67965236D01*
X217650595Y-67369999D02*
X217269642Y-67536665D01*
X217650595Y-67655713D02*
X216850595Y-67655713D01*
X216850595Y-67655713D02*
X216850595Y-67465237D01*
X216850595Y-67465237D02*
X216888690Y-67417618D01*
X216888690Y-67417618D02*
X216926785Y-67393808D01*
X216926785Y-67393808D02*
X217002976Y-67369999D01*
X217002976Y-67369999D02*
X217117261Y-67369999D01*
X217117261Y-67369999D02*
X217193452Y-67393808D01*
X217193452Y-67393808D02*
X217231547Y-67417618D01*
X217231547Y-67417618D02*
X217269642Y-67465237D01*
X217269642Y-67465237D02*
X217269642Y-67655713D01*
D12*
X210065333Y-59287580D02*
X210017714Y-59335200D01*
X210017714Y-59335200D02*
X209874857Y-59382819D01*
X209874857Y-59382819D02*
X209779619Y-59382819D01*
X209779619Y-59382819D02*
X209636762Y-59335200D01*
X209636762Y-59335200D02*
X209541524Y-59239961D01*
X209541524Y-59239961D02*
X209493905Y-59144723D01*
X209493905Y-59144723D02*
X209446286Y-58954247D01*
X209446286Y-58954247D02*
X209446286Y-58811390D01*
X209446286Y-58811390D02*
X209493905Y-58620914D01*
X209493905Y-58620914D02*
X209541524Y-58525676D01*
X209541524Y-58525676D02*
X209636762Y-58430438D01*
X209636762Y-58430438D02*
X209779619Y-58382819D01*
X209779619Y-58382819D02*
X209874857Y-58382819D01*
X209874857Y-58382819D02*
X210017714Y-58430438D01*
X210017714Y-58430438D02*
X210065333Y-58478057D01*
X210446286Y-58478057D02*
X210493905Y-58430438D01*
X210493905Y-58430438D02*
X210589143Y-58382819D01*
X210589143Y-58382819D02*
X210827238Y-58382819D01*
X210827238Y-58382819D02*
X210922476Y-58430438D01*
X210922476Y-58430438D02*
X210970095Y-58478057D01*
X210970095Y-58478057D02*
X211017714Y-58573295D01*
X211017714Y-58573295D02*
X211017714Y-58668533D01*
X211017714Y-58668533D02*
X210970095Y-58811390D01*
X210970095Y-58811390D02*
X210398667Y-59382819D01*
X210398667Y-59382819D02*
X211017714Y-59382819D01*
X209028666Y-61639104D02*
X209062000Y-61677200D01*
X209062000Y-61677200D02*
X209028666Y-61715295D01*
X209028666Y-61715295D02*
X208995333Y-61677200D01*
X208995333Y-61677200D02*
X209028666Y-61639104D01*
X209028666Y-61639104D02*
X209028666Y-61715295D01*
X209495333Y-60915295D02*
X209561999Y-60915295D01*
X209561999Y-60915295D02*
X209628666Y-60953390D01*
X209628666Y-60953390D02*
X209661999Y-60991485D01*
X209661999Y-60991485D02*
X209695333Y-61067676D01*
X209695333Y-61067676D02*
X209728666Y-61220057D01*
X209728666Y-61220057D02*
X209728666Y-61410533D01*
X209728666Y-61410533D02*
X209695333Y-61562914D01*
X209695333Y-61562914D02*
X209661999Y-61639104D01*
X209661999Y-61639104D02*
X209628666Y-61677200D01*
X209628666Y-61677200D02*
X209561999Y-61715295D01*
X209561999Y-61715295D02*
X209495333Y-61715295D01*
X209495333Y-61715295D02*
X209428666Y-61677200D01*
X209428666Y-61677200D02*
X209395333Y-61639104D01*
X209395333Y-61639104D02*
X209361999Y-61562914D01*
X209361999Y-61562914D02*
X209328666Y-61410533D01*
X209328666Y-61410533D02*
X209328666Y-61220057D01*
X209328666Y-61220057D02*
X209361999Y-61067676D01*
X209361999Y-61067676D02*
X209395333Y-60991485D01*
X209395333Y-60991485D02*
X209428666Y-60953390D01*
X209428666Y-60953390D02*
X209495333Y-60915295D01*
X210395333Y-61715295D02*
X209995333Y-61715295D01*
X210195333Y-61715295D02*
X210195333Y-60915295D01*
X210195333Y-60915295D02*
X210128666Y-61029580D01*
X210128666Y-61029580D02*
X210062000Y-61105771D01*
X210062000Y-61105771D02*
X209995333Y-61143866D01*
X210995333Y-61181961D02*
X210995333Y-61715295D01*
X210695333Y-61181961D02*
X210695333Y-61601009D01*
X210695333Y-61601009D02*
X210728667Y-61677200D01*
X210728667Y-61677200D02*
X210795333Y-61715295D01*
X210795333Y-61715295D02*
X210895333Y-61715295D01*
X210895333Y-61715295D02*
X210962000Y-61677200D01*
X210962000Y-61677200D02*
X210995333Y-61639104D01*
X211562000Y-61296247D02*
X211328666Y-61296247D01*
X211328666Y-61715295D02*
X211328666Y-60915295D01*
X211328666Y-60915295D02*
X211662000Y-60915295D01*
X171004705Y-86739219D02*
X171004705Y-85739219D01*
X171004705Y-85739219D02*
X171242800Y-85739219D01*
X171242800Y-85739219D02*
X171385657Y-85786838D01*
X171385657Y-85786838D02*
X171480895Y-85882076D01*
X171480895Y-85882076D02*
X171528514Y-85977314D01*
X171528514Y-85977314D02*
X171576133Y-86167790D01*
X171576133Y-86167790D02*
X171576133Y-86310647D01*
X171576133Y-86310647D02*
X171528514Y-86501123D01*
X171528514Y-86501123D02*
X171480895Y-86596361D01*
X171480895Y-86596361D02*
X171385657Y-86691600D01*
X171385657Y-86691600D02*
X171242800Y-86739219D01*
X171242800Y-86739219D02*
X171004705Y-86739219D01*
X171909467Y-85739219D02*
X172528514Y-85739219D01*
X172528514Y-85739219D02*
X172195181Y-86120171D01*
X172195181Y-86120171D02*
X172338038Y-86120171D01*
X172338038Y-86120171D02*
X172433276Y-86167790D01*
X172433276Y-86167790D02*
X172480895Y-86215409D01*
X172480895Y-86215409D02*
X172528514Y-86310647D01*
X172528514Y-86310647D02*
X172528514Y-86548742D01*
X172528514Y-86548742D02*
X172480895Y-86643980D01*
X172480895Y-86643980D02*
X172433276Y-86691600D01*
X172433276Y-86691600D02*
X172338038Y-86739219D01*
X172338038Y-86739219D02*
X172052324Y-86739219D01*
X172052324Y-86739219D02*
X171957086Y-86691600D01*
X171957086Y-86691600D02*
X171909467Y-86643980D01*
X175335685Y-88728190D02*
X175240447Y-88680571D01*
X175240447Y-88680571D02*
X175192828Y-88632952D01*
X175192828Y-88632952D02*
X175145209Y-88537714D01*
X175145209Y-88537714D02*
X175145209Y-88490095D01*
X175145209Y-88490095D02*
X175192828Y-88394857D01*
X175192828Y-88394857D02*
X175240447Y-88347238D01*
X175240447Y-88347238D02*
X175335685Y-88299619D01*
X175335685Y-88299619D02*
X175526161Y-88299619D01*
X175526161Y-88299619D02*
X175621399Y-88347238D01*
X175621399Y-88347238D02*
X175669018Y-88394857D01*
X175669018Y-88394857D02*
X175716637Y-88490095D01*
X175716637Y-88490095D02*
X175716637Y-88537714D01*
X175716637Y-88537714D02*
X175669018Y-88632952D01*
X175669018Y-88632952D02*
X175621399Y-88680571D01*
X175621399Y-88680571D02*
X175526161Y-88728190D01*
X175526161Y-88728190D02*
X175335685Y-88728190D01*
X175335685Y-88728190D02*
X175240447Y-88775809D01*
X175240447Y-88775809D02*
X175192828Y-88823428D01*
X175192828Y-88823428D02*
X175145209Y-88918666D01*
X175145209Y-88918666D02*
X175145209Y-89109142D01*
X175145209Y-89109142D02*
X175192828Y-89204380D01*
X175192828Y-89204380D02*
X175240447Y-89252000D01*
X175240447Y-89252000D02*
X175335685Y-89299619D01*
X175335685Y-89299619D02*
X175526161Y-89299619D01*
X175526161Y-89299619D02*
X175621399Y-89252000D01*
X175621399Y-89252000D02*
X175669018Y-89204380D01*
X175669018Y-89204380D02*
X175716637Y-89109142D01*
X175716637Y-89109142D02*
X175716637Y-88918666D01*
X175716637Y-88918666D02*
X175669018Y-88823428D01*
X175669018Y-88823428D02*
X175621399Y-88775809D01*
X175621399Y-88775809D02*
X175526161Y-88728190D01*
X175907114Y-89394857D02*
X176669018Y-89394857D01*
X176859495Y-89252000D02*
X177002352Y-89299619D01*
X177002352Y-89299619D02*
X177240447Y-89299619D01*
X177240447Y-89299619D02*
X177335685Y-89252000D01*
X177335685Y-89252000D02*
X177383304Y-89204380D01*
X177383304Y-89204380D02*
X177430923Y-89109142D01*
X177430923Y-89109142D02*
X177430923Y-89013904D01*
X177430923Y-89013904D02*
X177383304Y-88918666D01*
X177383304Y-88918666D02*
X177335685Y-88871047D01*
X177335685Y-88871047D02*
X177240447Y-88823428D01*
X177240447Y-88823428D02*
X177049971Y-88775809D01*
X177049971Y-88775809D02*
X176954733Y-88728190D01*
X176954733Y-88728190D02*
X176907114Y-88680571D01*
X176907114Y-88680571D02*
X176859495Y-88585333D01*
X176859495Y-88585333D02*
X176859495Y-88490095D01*
X176859495Y-88490095D02*
X176907114Y-88394857D01*
X176907114Y-88394857D02*
X176954733Y-88347238D01*
X176954733Y-88347238D02*
X177049971Y-88299619D01*
X177049971Y-88299619D02*
X177288066Y-88299619D01*
X177288066Y-88299619D02*
X177430923Y-88347238D01*
X177859495Y-88775809D02*
X178192828Y-88775809D01*
X178335685Y-89299619D02*
X177859495Y-89299619D01*
X177859495Y-89299619D02*
X177859495Y-88299619D01*
X177859495Y-88299619D02*
X178335685Y-88299619D01*
X179288066Y-88347238D02*
X179192828Y-88299619D01*
X179192828Y-88299619D02*
X179049971Y-88299619D01*
X179049971Y-88299619D02*
X178907114Y-88347238D01*
X178907114Y-88347238D02*
X178811876Y-88442476D01*
X178811876Y-88442476D02*
X178764257Y-88537714D01*
X178764257Y-88537714D02*
X178716638Y-88728190D01*
X178716638Y-88728190D02*
X178716638Y-88871047D01*
X178716638Y-88871047D02*
X178764257Y-89061523D01*
X178764257Y-89061523D02*
X178811876Y-89156761D01*
X178811876Y-89156761D02*
X178907114Y-89252000D01*
X178907114Y-89252000D02*
X179049971Y-89299619D01*
X179049971Y-89299619D02*
X179145209Y-89299619D01*
X179145209Y-89299619D02*
X179288066Y-89252000D01*
X179288066Y-89252000D02*
X179335685Y-89204380D01*
X179335685Y-89204380D02*
X179335685Y-88871047D01*
X179335685Y-88871047D02*
X179145209Y-88871047D01*
X179526162Y-89394857D02*
X180288066Y-89394857D01*
X181002352Y-89299619D02*
X180526162Y-89299619D01*
X180526162Y-89299619D02*
X180526162Y-88299619D01*
X181335686Y-88775809D02*
X181669019Y-88775809D01*
X181811876Y-89299619D02*
X181335686Y-89299619D01*
X181335686Y-89299619D02*
X181335686Y-88299619D01*
X181335686Y-88299619D02*
X181811876Y-88299619D01*
X182240448Y-89299619D02*
X182240448Y-88299619D01*
X182240448Y-88299619D02*
X182478543Y-88299619D01*
X182478543Y-88299619D02*
X182621400Y-88347238D01*
X182621400Y-88347238D02*
X182716638Y-88442476D01*
X182716638Y-88442476D02*
X182764257Y-88537714D01*
X182764257Y-88537714D02*
X182811876Y-88728190D01*
X182811876Y-88728190D02*
X182811876Y-88871047D01*
X182811876Y-88871047D02*
X182764257Y-89061523D01*
X182764257Y-89061523D02*
X182716638Y-89156761D01*
X182716638Y-89156761D02*
X182621400Y-89252000D01*
X182621400Y-89252000D02*
X182478543Y-89299619D01*
X182478543Y-89299619D02*
X182240448Y-89299619D01*
X185097591Y-88775809D02*
X185240448Y-88823428D01*
X185240448Y-88823428D02*
X185288067Y-88871047D01*
X185288067Y-88871047D02*
X185335686Y-88966285D01*
X185335686Y-88966285D02*
X185335686Y-89109142D01*
X185335686Y-89109142D02*
X185288067Y-89204380D01*
X185288067Y-89204380D02*
X185240448Y-89252000D01*
X185240448Y-89252000D02*
X185145210Y-89299619D01*
X185145210Y-89299619D02*
X184764258Y-89299619D01*
X184764258Y-89299619D02*
X184764258Y-88299619D01*
X184764258Y-88299619D02*
X185097591Y-88299619D01*
X185097591Y-88299619D02*
X185192829Y-88347238D01*
X185192829Y-88347238D02*
X185240448Y-88394857D01*
X185240448Y-88394857D02*
X185288067Y-88490095D01*
X185288067Y-88490095D02*
X185288067Y-88585333D01*
X185288067Y-88585333D02*
X185240448Y-88680571D01*
X185240448Y-88680571D02*
X185192829Y-88728190D01*
X185192829Y-88728190D02*
X185097591Y-88775809D01*
X185097591Y-88775809D02*
X184764258Y-88775809D01*
X185716639Y-89013904D02*
X186192829Y-89013904D01*
X185621401Y-89299619D02*
X185954734Y-88299619D01*
X185954734Y-88299619D02*
X186288067Y-89299619D01*
X187192829Y-89299619D02*
X186859496Y-88823428D01*
X186621401Y-89299619D02*
X186621401Y-88299619D01*
X186621401Y-88299619D02*
X187002353Y-88299619D01*
X187002353Y-88299619D02*
X187097591Y-88347238D01*
X187097591Y-88347238D02*
X187145210Y-88394857D01*
X187145210Y-88394857D02*
X187192829Y-88490095D01*
X187192829Y-88490095D02*
X187192829Y-88632952D01*
X187192829Y-88632952D02*
X187145210Y-88728190D01*
X187145210Y-88728190D02*
X187097591Y-88775809D01*
X187097591Y-88775809D02*
X187002353Y-88823428D01*
X187002353Y-88823428D02*
X186621401Y-88823428D01*
X187383306Y-89394857D02*
X188145210Y-89394857D01*
X188907115Y-88347238D02*
X188811877Y-88299619D01*
X188811877Y-88299619D02*
X188669020Y-88299619D01*
X188669020Y-88299619D02*
X188526163Y-88347238D01*
X188526163Y-88347238D02*
X188430925Y-88442476D01*
X188430925Y-88442476D02*
X188383306Y-88537714D01*
X188383306Y-88537714D02*
X188335687Y-88728190D01*
X188335687Y-88728190D02*
X188335687Y-88871047D01*
X188335687Y-88871047D02*
X188383306Y-89061523D01*
X188383306Y-89061523D02*
X188430925Y-89156761D01*
X188430925Y-89156761D02*
X188526163Y-89252000D01*
X188526163Y-89252000D02*
X188669020Y-89299619D01*
X188669020Y-89299619D02*
X188764258Y-89299619D01*
X188764258Y-89299619D02*
X188907115Y-89252000D01*
X188907115Y-89252000D02*
X188954734Y-89204380D01*
X188954734Y-89204380D02*
X188954734Y-88871047D01*
X188954734Y-88871047D02*
X188764258Y-88871047D01*
X189954734Y-89299619D02*
X189621401Y-88823428D01*
X189383306Y-89299619D02*
X189383306Y-88299619D01*
X189383306Y-88299619D02*
X189764258Y-88299619D01*
X189764258Y-88299619D02*
X189859496Y-88347238D01*
X189859496Y-88347238D02*
X189907115Y-88394857D01*
X189907115Y-88394857D02*
X189954734Y-88490095D01*
X189954734Y-88490095D02*
X189954734Y-88632952D01*
X189954734Y-88632952D02*
X189907115Y-88728190D01*
X189907115Y-88728190D02*
X189859496Y-88775809D01*
X189859496Y-88775809D02*
X189764258Y-88823428D01*
X189764258Y-88823428D02*
X189383306Y-88823428D01*
X190335687Y-89013904D02*
X190811877Y-89013904D01*
X190240449Y-89299619D02*
X190573782Y-88299619D01*
X190573782Y-88299619D02*
X190907115Y-89299619D01*
X191240449Y-89299619D02*
X191240449Y-88299619D01*
X191240449Y-88299619D02*
X191621401Y-88299619D01*
X191621401Y-88299619D02*
X191716639Y-88347238D01*
X191716639Y-88347238D02*
X191764258Y-88394857D01*
X191764258Y-88394857D02*
X191811877Y-88490095D01*
X191811877Y-88490095D02*
X191811877Y-88632952D01*
X191811877Y-88632952D02*
X191764258Y-88728190D01*
X191764258Y-88728190D02*
X191716639Y-88775809D01*
X191716639Y-88775809D02*
X191621401Y-88823428D01*
X191621401Y-88823428D02*
X191240449Y-88823428D01*
X192240449Y-89299619D02*
X192240449Y-88299619D01*
X192240449Y-88775809D02*
X192811877Y-88775809D01*
X192811877Y-89299619D02*
X192811877Y-88299619D01*
X144041905Y-120342819D02*
X144041905Y-119342819D01*
X144041905Y-119342819D02*
X144280000Y-119342819D01*
X144280000Y-119342819D02*
X144422857Y-119390438D01*
X144422857Y-119390438D02*
X144518095Y-119485676D01*
X144518095Y-119485676D02*
X144565714Y-119580914D01*
X144565714Y-119580914D02*
X144613333Y-119771390D01*
X144613333Y-119771390D02*
X144613333Y-119914247D01*
X144613333Y-119914247D02*
X144565714Y-120104723D01*
X144565714Y-120104723D02*
X144518095Y-120199961D01*
X144518095Y-120199961D02*
X144422857Y-120295200D01*
X144422857Y-120295200D02*
X144280000Y-120342819D01*
X144280000Y-120342819D02*
X144041905Y-120342819D01*
X144994286Y-119438057D02*
X145041905Y-119390438D01*
X145041905Y-119390438D02*
X145137143Y-119342819D01*
X145137143Y-119342819D02*
X145375238Y-119342819D01*
X145375238Y-119342819D02*
X145470476Y-119390438D01*
X145470476Y-119390438D02*
X145518095Y-119438057D01*
X145518095Y-119438057D02*
X145565714Y-119533295D01*
X145565714Y-119533295D02*
X145565714Y-119628533D01*
X145565714Y-119628533D02*
X145518095Y-119771390D01*
X145518095Y-119771390D02*
X144946667Y-120342819D01*
X144946667Y-120342819D02*
X145565714Y-120342819D01*
X143470476Y-125915009D02*
X143613333Y-125962628D01*
X143613333Y-125962628D02*
X143660952Y-126010247D01*
X143660952Y-126010247D02*
X143708571Y-126105485D01*
X143708571Y-126105485D02*
X143708571Y-126248342D01*
X143708571Y-126248342D02*
X143660952Y-126343580D01*
X143660952Y-126343580D02*
X143613333Y-126391200D01*
X143613333Y-126391200D02*
X143518095Y-126438819D01*
X143518095Y-126438819D02*
X143137143Y-126438819D01*
X143137143Y-126438819D02*
X143137143Y-125438819D01*
X143137143Y-125438819D02*
X143470476Y-125438819D01*
X143470476Y-125438819D02*
X143565714Y-125486438D01*
X143565714Y-125486438D02*
X143613333Y-125534057D01*
X143613333Y-125534057D02*
X143660952Y-125629295D01*
X143660952Y-125629295D02*
X143660952Y-125724533D01*
X143660952Y-125724533D02*
X143613333Y-125819771D01*
X143613333Y-125819771D02*
X143565714Y-125867390D01*
X143565714Y-125867390D02*
X143470476Y-125915009D01*
X143470476Y-125915009D02*
X143137143Y-125915009D01*
X144613333Y-126438819D02*
X144137143Y-126438819D01*
X144137143Y-126438819D02*
X144137143Y-125438819D01*
X144946667Y-125438819D02*
X144946667Y-126248342D01*
X144946667Y-126248342D02*
X144994286Y-126343580D01*
X144994286Y-126343580D02*
X145041905Y-126391200D01*
X145041905Y-126391200D02*
X145137143Y-126438819D01*
X145137143Y-126438819D02*
X145327619Y-126438819D01*
X145327619Y-126438819D02*
X145422857Y-126391200D01*
X145422857Y-126391200D02*
X145470476Y-126343580D01*
X145470476Y-126343580D02*
X145518095Y-126248342D01*
X145518095Y-126248342D02*
X145518095Y-125438819D01*
X145994286Y-125915009D02*
X146327619Y-125915009D01*
X146470476Y-126438819D02*
X145994286Y-126438819D01*
X145994286Y-126438819D02*
X145994286Y-125438819D01*
X145994286Y-125438819D02*
X146470476Y-125438819D01*
X120533333Y-117959819D02*
X120200000Y-117483628D01*
X119961905Y-117959819D02*
X119961905Y-116959819D01*
X119961905Y-116959819D02*
X120342857Y-116959819D01*
X120342857Y-116959819D02*
X120438095Y-117007438D01*
X120438095Y-117007438D02*
X120485714Y-117055057D01*
X120485714Y-117055057D02*
X120533333Y-117150295D01*
X120533333Y-117150295D02*
X120533333Y-117293152D01*
X120533333Y-117293152D02*
X120485714Y-117388390D01*
X120485714Y-117388390D02*
X120438095Y-117436009D01*
X120438095Y-117436009D02*
X120342857Y-117483628D01*
X120342857Y-117483628D02*
X119961905Y-117483628D01*
X121485714Y-117959819D02*
X120914286Y-117959819D01*
X121200000Y-117959819D02*
X121200000Y-116959819D01*
X121200000Y-116959819D02*
X121104762Y-117102676D01*
X121104762Y-117102676D02*
X121009524Y-117197914D01*
X121009524Y-117197914D02*
X120914286Y-117245533D01*
X118732857Y-119509819D02*
X119351904Y-119509819D01*
X119351904Y-119509819D02*
X119018571Y-119890771D01*
X119018571Y-119890771D02*
X119161428Y-119890771D01*
X119161428Y-119890771D02*
X119256666Y-119938390D01*
X119256666Y-119938390D02*
X119304285Y-119986009D01*
X119304285Y-119986009D02*
X119351904Y-120081247D01*
X119351904Y-120081247D02*
X119351904Y-120319342D01*
X119351904Y-120319342D02*
X119304285Y-120414580D01*
X119304285Y-120414580D02*
X119256666Y-120462200D01*
X119256666Y-120462200D02*
X119161428Y-120509819D01*
X119161428Y-120509819D02*
X118875714Y-120509819D01*
X118875714Y-120509819D02*
X118780476Y-120462200D01*
X118780476Y-120462200D02*
X118732857Y-120414580D01*
X119685238Y-119509819D02*
X120304285Y-119509819D01*
X120304285Y-119509819D02*
X119970952Y-119890771D01*
X119970952Y-119890771D02*
X120113809Y-119890771D01*
X120113809Y-119890771D02*
X120209047Y-119938390D01*
X120209047Y-119938390D02*
X120256666Y-119986009D01*
X120256666Y-119986009D02*
X120304285Y-120081247D01*
X120304285Y-120081247D02*
X120304285Y-120319342D01*
X120304285Y-120319342D02*
X120256666Y-120414580D01*
X120256666Y-120414580D02*
X120209047Y-120462200D01*
X120209047Y-120462200D02*
X120113809Y-120509819D01*
X120113809Y-120509819D02*
X119828095Y-120509819D01*
X119828095Y-120509819D02*
X119732857Y-120462200D01*
X119732857Y-120462200D02*
X119685238Y-120414580D01*
X120923333Y-119509819D02*
X121018571Y-119509819D01*
X121018571Y-119509819D02*
X121113809Y-119557438D01*
X121113809Y-119557438D02*
X121161428Y-119605057D01*
X121161428Y-119605057D02*
X121209047Y-119700295D01*
X121209047Y-119700295D02*
X121256666Y-119890771D01*
X121256666Y-119890771D02*
X121256666Y-120128866D01*
X121256666Y-120128866D02*
X121209047Y-120319342D01*
X121209047Y-120319342D02*
X121161428Y-120414580D01*
X121161428Y-120414580D02*
X121113809Y-120462200D01*
X121113809Y-120462200D02*
X121018571Y-120509819D01*
X121018571Y-120509819D02*
X120923333Y-120509819D01*
X120923333Y-120509819D02*
X120828095Y-120462200D01*
X120828095Y-120462200D02*
X120780476Y-120414580D01*
X120780476Y-120414580D02*
X120732857Y-120319342D01*
X120732857Y-120319342D02*
X120685238Y-120128866D01*
X120685238Y-120128866D02*
X120685238Y-119890771D01*
X120685238Y-119890771D02*
X120732857Y-119700295D01*
X120732857Y-119700295D02*
X120780476Y-119605057D01*
X120780476Y-119605057D02*
X120828095Y-119557438D01*
X120828095Y-119557438D02*
X120923333Y-119509819D01*
X121637619Y-120509819D02*
X121875714Y-120509819D01*
X121875714Y-120509819D02*
X121875714Y-120319342D01*
X121875714Y-120319342D02*
X121780476Y-120271723D01*
X121780476Y-120271723D02*
X121685238Y-120176485D01*
X121685238Y-120176485D02*
X121637619Y-120033628D01*
X121637619Y-120033628D02*
X121637619Y-119795533D01*
X121637619Y-119795533D02*
X121685238Y-119652676D01*
X121685238Y-119652676D02*
X121780476Y-119557438D01*
X121780476Y-119557438D02*
X121923333Y-119509819D01*
X121923333Y-119509819D02*
X122113809Y-119509819D01*
X122113809Y-119509819D02*
X122256666Y-119557438D01*
X122256666Y-119557438D02*
X122351904Y-119652676D01*
X122351904Y-119652676D02*
X122399523Y-119795533D01*
X122399523Y-119795533D02*
X122399523Y-120033628D01*
X122399523Y-120033628D02*
X122351904Y-120176485D01*
X122351904Y-120176485D02*
X122256666Y-120271723D01*
X122256666Y-120271723D02*
X122161428Y-120319342D01*
X122161428Y-120319342D02*
X122161428Y-120509819D01*
X122161428Y-120509819D02*
X122399523Y-120509819D01*
X198123333Y-97454819D02*
X197790000Y-96978628D01*
X197551905Y-97454819D02*
X197551905Y-96454819D01*
X197551905Y-96454819D02*
X197932857Y-96454819D01*
X197932857Y-96454819D02*
X198028095Y-96502438D01*
X198028095Y-96502438D02*
X198075714Y-96550057D01*
X198075714Y-96550057D02*
X198123333Y-96645295D01*
X198123333Y-96645295D02*
X198123333Y-96788152D01*
X198123333Y-96788152D02*
X198075714Y-96883390D01*
X198075714Y-96883390D02*
X198028095Y-96931009D01*
X198028095Y-96931009D02*
X197932857Y-96978628D01*
X197932857Y-96978628D02*
X197551905Y-96978628D01*
X199028095Y-96454819D02*
X198551905Y-96454819D01*
X198551905Y-96454819D02*
X198504286Y-96931009D01*
X198504286Y-96931009D02*
X198551905Y-96883390D01*
X198551905Y-96883390D02*
X198647143Y-96835771D01*
X198647143Y-96835771D02*
X198885238Y-96835771D01*
X198885238Y-96835771D02*
X198980476Y-96883390D01*
X198980476Y-96883390D02*
X199028095Y-96931009D01*
X199028095Y-96931009D02*
X199075714Y-97026247D01*
X199075714Y-97026247D02*
X199075714Y-97264342D01*
X199075714Y-97264342D02*
X199028095Y-97359580D01*
X199028095Y-97359580D02*
X198980476Y-97407200D01*
X198980476Y-97407200D02*
X198885238Y-97454819D01*
X198885238Y-97454819D02*
X198647143Y-97454819D01*
X198647143Y-97454819D02*
X198551905Y-97407200D01*
X198551905Y-97407200D02*
X198504286Y-97359580D01*
X196642857Y-99034819D02*
X197261904Y-99034819D01*
X197261904Y-99034819D02*
X196928571Y-99415771D01*
X196928571Y-99415771D02*
X197071428Y-99415771D01*
X197071428Y-99415771D02*
X197166666Y-99463390D01*
X197166666Y-99463390D02*
X197214285Y-99511009D01*
X197214285Y-99511009D02*
X197261904Y-99606247D01*
X197261904Y-99606247D02*
X197261904Y-99844342D01*
X197261904Y-99844342D02*
X197214285Y-99939580D01*
X197214285Y-99939580D02*
X197166666Y-99987200D01*
X197166666Y-99987200D02*
X197071428Y-100034819D01*
X197071428Y-100034819D02*
X196785714Y-100034819D01*
X196785714Y-100034819D02*
X196690476Y-99987200D01*
X196690476Y-99987200D02*
X196642857Y-99939580D01*
X197595238Y-99034819D02*
X198214285Y-99034819D01*
X198214285Y-99034819D02*
X197880952Y-99415771D01*
X197880952Y-99415771D02*
X198023809Y-99415771D01*
X198023809Y-99415771D02*
X198119047Y-99463390D01*
X198119047Y-99463390D02*
X198166666Y-99511009D01*
X198166666Y-99511009D02*
X198214285Y-99606247D01*
X198214285Y-99606247D02*
X198214285Y-99844342D01*
X198214285Y-99844342D02*
X198166666Y-99939580D01*
X198166666Y-99939580D02*
X198119047Y-99987200D01*
X198119047Y-99987200D02*
X198023809Y-100034819D01*
X198023809Y-100034819D02*
X197738095Y-100034819D01*
X197738095Y-100034819D02*
X197642857Y-99987200D01*
X197642857Y-99987200D02*
X197595238Y-99939580D01*
X198833333Y-99034819D02*
X198928571Y-99034819D01*
X198928571Y-99034819D02*
X199023809Y-99082438D01*
X199023809Y-99082438D02*
X199071428Y-99130057D01*
X199071428Y-99130057D02*
X199119047Y-99225295D01*
X199119047Y-99225295D02*
X199166666Y-99415771D01*
X199166666Y-99415771D02*
X199166666Y-99653866D01*
X199166666Y-99653866D02*
X199119047Y-99844342D01*
X199119047Y-99844342D02*
X199071428Y-99939580D01*
X199071428Y-99939580D02*
X199023809Y-99987200D01*
X199023809Y-99987200D02*
X198928571Y-100034819D01*
X198928571Y-100034819D02*
X198833333Y-100034819D01*
X198833333Y-100034819D02*
X198738095Y-99987200D01*
X198738095Y-99987200D02*
X198690476Y-99939580D01*
X198690476Y-99939580D02*
X198642857Y-99844342D01*
X198642857Y-99844342D02*
X198595238Y-99653866D01*
X198595238Y-99653866D02*
X198595238Y-99415771D01*
X198595238Y-99415771D02*
X198642857Y-99225295D01*
X198642857Y-99225295D02*
X198690476Y-99130057D01*
X198690476Y-99130057D02*
X198738095Y-99082438D01*
X198738095Y-99082438D02*
X198833333Y-99034819D01*
X199547619Y-100034819D02*
X199785714Y-100034819D01*
X199785714Y-100034819D02*
X199785714Y-99844342D01*
X199785714Y-99844342D02*
X199690476Y-99796723D01*
X199690476Y-99796723D02*
X199595238Y-99701485D01*
X199595238Y-99701485D02*
X199547619Y-99558628D01*
X199547619Y-99558628D02*
X199547619Y-99320533D01*
X199547619Y-99320533D02*
X199595238Y-99177676D01*
X199595238Y-99177676D02*
X199690476Y-99082438D01*
X199690476Y-99082438D02*
X199833333Y-99034819D01*
X199833333Y-99034819D02*
X200023809Y-99034819D01*
X200023809Y-99034819D02*
X200166666Y-99082438D01*
X200166666Y-99082438D02*
X200261904Y-99177676D01*
X200261904Y-99177676D02*
X200309523Y-99320533D01*
X200309523Y-99320533D02*
X200309523Y-99558628D01*
X200309523Y-99558628D02*
X200261904Y-99701485D01*
X200261904Y-99701485D02*
X200166666Y-99796723D01*
X200166666Y-99796723D02*
X200071428Y-99844342D01*
X200071428Y-99844342D02*
X200071428Y-100034819D01*
X200071428Y-100034819D02*
X200309523Y-100034819D01*
X197381905Y-102369819D02*
X197381905Y-101369819D01*
X197381905Y-101369819D02*
X197620000Y-101369819D01*
X197620000Y-101369819D02*
X197762857Y-101417438D01*
X197762857Y-101417438D02*
X197858095Y-101512676D01*
X197858095Y-101512676D02*
X197905714Y-101607914D01*
X197905714Y-101607914D02*
X197953333Y-101798390D01*
X197953333Y-101798390D02*
X197953333Y-101941247D01*
X197953333Y-101941247D02*
X197905714Y-102131723D01*
X197905714Y-102131723D02*
X197858095Y-102226961D01*
X197858095Y-102226961D02*
X197762857Y-102322200D01*
X197762857Y-102322200D02*
X197620000Y-102369819D01*
X197620000Y-102369819D02*
X197381905Y-102369819D01*
X198810476Y-101369819D02*
X198620000Y-101369819D01*
X198620000Y-101369819D02*
X198524762Y-101417438D01*
X198524762Y-101417438D02*
X198477143Y-101465057D01*
X198477143Y-101465057D02*
X198381905Y-101607914D01*
X198381905Y-101607914D02*
X198334286Y-101798390D01*
X198334286Y-101798390D02*
X198334286Y-102179342D01*
X198334286Y-102179342D02*
X198381905Y-102274580D01*
X198381905Y-102274580D02*
X198429524Y-102322200D01*
X198429524Y-102322200D02*
X198524762Y-102369819D01*
X198524762Y-102369819D02*
X198715238Y-102369819D01*
X198715238Y-102369819D02*
X198810476Y-102322200D01*
X198810476Y-102322200D02*
X198858095Y-102274580D01*
X198858095Y-102274580D02*
X198905714Y-102179342D01*
X198905714Y-102179342D02*
X198905714Y-101941247D01*
X198905714Y-101941247D02*
X198858095Y-101846009D01*
X198858095Y-101846009D02*
X198810476Y-101798390D01*
X198810476Y-101798390D02*
X198715238Y-101750771D01*
X198715238Y-101750771D02*
X198524762Y-101750771D01*
X198524762Y-101750771D02*
X198429524Y-101798390D01*
X198429524Y-101798390D02*
X198381905Y-101846009D01*
X198381905Y-101846009D02*
X198334286Y-101941247D01*
X195762857Y-107713628D02*
X195762857Y-108189819D01*
X195429524Y-107189819D02*
X195762857Y-107713628D01*
X195762857Y-107713628D02*
X196096190Y-107189819D01*
X196429524Y-107666009D02*
X196762857Y-107666009D01*
X196905714Y-108189819D02*
X196429524Y-108189819D01*
X196429524Y-108189819D02*
X196429524Y-107189819D01*
X196429524Y-107189819D02*
X196905714Y-107189819D01*
X197810476Y-108189819D02*
X197334286Y-108189819D01*
X197334286Y-108189819D02*
X197334286Y-107189819D01*
X198620000Y-108189819D02*
X198143810Y-108189819D01*
X198143810Y-108189819D02*
X198143810Y-107189819D01*
X199143810Y-107189819D02*
X199334286Y-107189819D01*
X199334286Y-107189819D02*
X199429524Y-107237438D01*
X199429524Y-107237438D02*
X199524762Y-107332676D01*
X199524762Y-107332676D02*
X199572381Y-107523152D01*
X199572381Y-107523152D02*
X199572381Y-107856485D01*
X199572381Y-107856485D02*
X199524762Y-108046961D01*
X199524762Y-108046961D02*
X199429524Y-108142200D01*
X199429524Y-108142200D02*
X199334286Y-108189819D01*
X199334286Y-108189819D02*
X199143810Y-108189819D01*
X199143810Y-108189819D02*
X199048572Y-108142200D01*
X199048572Y-108142200D02*
X198953334Y-108046961D01*
X198953334Y-108046961D02*
X198905715Y-107856485D01*
X198905715Y-107856485D02*
X198905715Y-107523152D01*
X198905715Y-107523152D02*
X198953334Y-107332676D01*
X198953334Y-107332676D02*
X199048572Y-107237438D01*
X199048572Y-107237438D02*
X199143810Y-107189819D01*
X199905715Y-107189819D02*
X200143810Y-108189819D01*
X200143810Y-108189819D02*
X200334286Y-107475533D01*
X200334286Y-107475533D02*
X200524762Y-108189819D01*
X200524762Y-108189819D02*
X200762858Y-107189819D01*
X199223333Y-63954819D02*
X198890000Y-63478628D01*
X198651905Y-63954819D02*
X198651905Y-62954819D01*
X198651905Y-62954819D02*
X199032857Y-62954819D01*
X199032857Y-62954819D02*
X199128095Y-63002438D01*
X199128095Y-63002438D02*
X199175714Y-63050057D01*
X199175714Y-63050057D02*
X199223333Y-63145295D01*
X199223333Y-63145295D02*
X199223333Y-63288152D01*
X199223333Y-63288152D02*
X199175714Y-63383390D01*
X199175714Y-63383390D02*
X199128095Y-63431009D01*
X199128095Y-63431009D02*
X199032857Y-63478628D01*
X199032857Y-63478628D02*
X198651905Y-63478628D01*
X199794762Y-63383390D02*
X199699524Y-63335771D01*
X199699524Y-63335771D02*
X199651905Y-63288152D01*
X199651905Y-63288152D02*
X199604286Y-63192914D01*
X199604286Y-63192914D02*
X199604286Y-63145295D01*
X199604286Y-63145295D02*
X199651905Y-63050057D01*
X199651905Y-63050057D02*
X199699524Y-63002438D01*
X199699524Y-63002438D02*
X199794762Y-62954819D01*
X199794762Y-62954819D02*
X199985238Y-62954819D01*
X199985238Y-62954819D02*
X200080476Y-63002438D01*
X200080476Y-63002438D02*
X200128095Y-63050057D01*
X200128095Y-63050057D02*
X200175714Y-63145295D01*
X200175714Y-63145295D02*
X200175714Y-63192914D01*
X200175714Y-63192914D02*
X200128095Y-63288152D01*
X200128095Y-63288152D02*
X200080476Y-63335771D01*
X200080476Y-63335771D02*
X199985238Y-63383390D01*
X199985238Y-63383390D02*
X199794762Y-63383390D01*
X199794762Y-63383390D02*
X199699524Y-63431009D01*
X199699524Y-63431009D02*
X199651905Y-63478628D01*
X199651905Y-63478628D02*
X199604286Y-63573866D01*
X199604286Y-63573866D02*
X199604286Y-63764342D01*
X199604286Y-63764342D02*
X199651905Y-63859580D01*
X199651905Y-63859580D02*
X199699524Y-63907200D01*
X199699524Y-63907200D02*
X199794762Y-63954819D01*
X199794762Y-63954819D02*
X199985238Y-63954819D01*
X199985238Y-63954819D02*
X200080476Y-63907200D01*
X200080476Y-63907200D02*
X200128095Y-63859580D01*
X200128095Y-63859580D02*
X200175714Y-63764342D01*
X200175714Y-63764342D02*
X200175714Y-63573866D01*
X200175714Y-63573866D02*
X200128095Y-63478628D01*
X200128095Y-63478628D02*
X200080476Y-63431009D01*
X200080476Y-63431009D02*
X199985238Y-63383390D01*
X202223809Y-65494819D02*
X201747619Y-65494819D01*
X201747619Y-65494819D02*
X201700000Y-65971009D01*
X201700000Y-65971009D02*
X201747619Y-65923390D01*
X201747619Y-65923390D02*
X201842857Y-65875771D01*
X201842857Y-65875771D02*
X202080952Y-65875771D01*
X202080952Y-65875771D02*
X202176190Y-65923390D01*
X202176190Y-65923390D02*
X202223809Y-65971009D01*
X202223809Y-65971009D02*
X202271428Y-66066247D01*
X202271428Y-66066247D02*
X202271428Y-66304342D01*
X202271428Y-66304342D02*
X202223809Y-66399580D01*
X202223809Y-66399580D02*
X202176190Y-66447200D01*
X202176190Y-66447200D02*
X202080952Y-66494819D01*
X202080952Y-66494819D02*
X201842857Y-66494819D01*
X201842857Y-66494819D02*
X201747619Y-66447200D01*
X201747619Y-66447200D02*
X201700000Y-66399580D01*
X202700000Y-66399580D02*
X202747619Y-66447200D01*
X202747619Y-66447200D02*
X202700000Y-66494819D01*
X202700000Y-66494819D02*
X202652381Y-66447200D01*
X202652381Y-66447200D02*
X202700000Y-66399580D01*
X202700000Y-66399580D02*
X202700000Y-66494819D01*
X203699999Y-66494819D02*
X203128571Y-66494819D01*
X203414285Y-66494819D02*
X203414285Y-65494819D01*
X203414285Y-65494819D02*
X203319047Y-65637676D01*
X203319047Y-65637676D02*
X203223809Y-65732914D01*
X203223809Y-65732914D02*
X203128571Y-65780533D01*
X204128571Y-66494819D02*
X204128571Y-65494819D01*
X204699999Y-66494819D02*
X204271428Y-65923390D01*
X204699999Y-65494819D02*
X204128571Y-66066247D01*
X91259819Y-115530238D02*
X90783628Y-115863571D01*
X91259819Y-116101666D02*
X90259819Y-116101666D01*
X90259819Y-116101666D02*
X90259819Y-115720714D01*
X90259819Y-115720714D02*
X90307438Y-115625476D01*
X90307438Y-115625476D02*
X90355057Y-115577857D01*
X90355057Y-115577857D02*
X90450295Y-115530238D01*
X90450295Y-115530238D02*
X90593152Y-115530238D01*
X90593152Y-115530238D02*
X90688390Y-115577857D01*
X90688390Y-115577857D02*
X90736009Y-115625476D01*
X90736009Y-115625476D02*
X90783628Y-115720714D01*
X90783628Y-115720714D02*
X90783628Y-116101666D01*
X90259819Y-115244523D02*
X91259819Y-114911190D01*
X91259819Y-114911190D02*
X90259819Y-114577857D01*
X90355057Y-114292142D02*
X90307438Y-114244523D01*
X90307438Y-114244523D02*
X90259819Y-114149285D01*
X90259819Y-114149285D02*
X90259819Y-113911190D01*
X90259819Y-113911190D02*
X90307438Y-113815952D01*
X90307438Y-113815952D02*
X90355057Y-113768333D01*
X90355057Y-113768333D02*
X90450295Y-113720714D01*
X90450295Y-113720714D02*
X90545533Y-113720714D01*
X90545533Y-113720714D02*
X90688390Y-113768333D01*
X90688390Y-113768333D02*
X91259819Y-114339761D01*
X91259819Y-114339761D02*
X91259819Y-113720714D01*
X95686666Y-118187119D02*
X95210476Y-118187119D01*
X95210476Y-118187119D02*
X95162857Y-118663309D01*
X95162857Y-118663309D02*
X95210476Y-118615690D01*
X95210476Y-118615690D02*
X95305714Y-118568071D01*
X95305714Y-118568071D02*
X95543809Y-118568071D01*
X95543809Y-118568071D02*
X95639047Y-118615690D01*
X95639047Y-118615690D02*
X95686666Y-118663309D01*
X95686666Y-118663309D02*
X95734285Y-118758547D01*
X95734285Y-118758547D02*
X95734285Y-118996642D01*
X95734285Y-118996642D02*
X95686666Y-119091880D01*
X95686666Y-119091880D02*
X95639047Y-119139500D01*
X95639047Y-119139500D02*
X95543809Y-119187119D01*
X95543809Y-119187119D02*
X95305714Y-119187119D01*
X95305714Y-119187119D02*
X95210476Y-119139500D01*
X95210476Y-119139500D02*
X95162857Y-119091880D01*
X96162857Y-119187119D02*
X96162857Y-118187119D01*
X96734285Y-119187119D02*
X96305714Y-118615690D01*
X96734285Y-118187119D02*
X96162857Y-118758547D01*
X97115238Y-119187119D02*
X97353333Y-119187119D01*
X97353333Y-119187119D02*
X97353333Y-118996642D01*
X97353333Y-118996642D02*
X97258095Y-118949023D01*
X97258095Y-118949023D02*
X97162857Y-118853785D01*
X97162857Y-118853785D02*
X97115238Y-118710928D01*
X97115238Y-118710928D02*
X97115238Y-118472833D01*
X97115238Y-118472833D02*
X97162857Y-118329976D01*
X97162857Y-118329976D02*
X97258095Y-118234738D01*
X97258095Y-118234738D02*
X97400952Y-118187119D01*
X97400952Y-118187119D02*
X97591428Y-118187119D01*
X97591428Y-118187119D02*
X97734285Y-118234738D01*
X97734285Y-118234738D02*
X97829523Y-118329976D01*
X97829523Y-118329976D02*
X97877142Y-118472833D01*
X97877142Y-118472833D02*
X97877142Y-118710928D01*
X97877142Y-118710928D02*
X97829523Y-118853785D01*
X97829523Y-118853785D02*
X97734285Y-118949023D01*
X97734285Y-118949023D02*
X97639047Y-118996642D01*
X97639047Y-118996642D02*
X97639047Y-119187119D01*
X97639047Y-119187119D02*
X97877142Y-119187119D01*
D14*
X91440000Y-125004080D02*
X91621428Y-125064556D01*
X91621428Y-125064556D02*
X91681905Y-125125032D01*
X91681905Y-125125032D02*
X91742381Y-125245984D01*
X91742381Y-125245984D02*
X91742381Y-125427413D01*
X91742381Y-125427413D02*
X91681905Y-125548365D01*
X91681905Y-125548365D02*
X91621428Y-125608842D01*
X91621428Y-125608842D02*
X91500476Y-125669318D01*
X91500476Y-125669318D02*
X91016666Y-125669318D01*
X91016666Y-125669318D02*
X91016666Y-124399318D01*
X91016666Y-124399318D02*
X91440000Y-124399318D01*
X91440000Y-124399318D02*
X91560952Y-124459794D01*
X91560952Y-124459794D02*
X91621428Y-124520270D01*
X91621428Y-124520270D02*
X91681905Y-124641222D01*
X91681905Y-124641222D02*
X91681905Y-124762175D01*
X91681905Y-124762175D02*
X91621428Y-124883127D01*
X91621428Y-124883127D02*
X91560952Y-124943603D01*
X91560952Y-124943603D02*
X91440000Y-125004080D01*
X91440000Y-125004080D02*
X91016666Y-125004080D01*
X93012381Y-125669318D02*
X92589047Y-125064556D01*
X92286666Y-125669318D02*
X92286666Y-124399318D01*
X92286666Y-124399318D02*
X92770476Y-124399318D01*
X92770476Y-124399318D02*
X92891428Y-124459794D01*
X92891428Y-124459794D02*
X92951905Y-124520270D01*
X92951905Y-124520270D02*
X93012381Y-124641222D01*
X93012381Y-124641222D02*
X93012381Y-124822651D01*
X93012381Y-124822651D02*
X92951905Y-124943603D01*
X92951905Y-124943603D02*
X92891428Y-125004080D01*
X92891428Y-125004080D02*
X92770476Y-125064556D01*
X92770476Y-125064556D02*
X92286666Y-125064556D01*
X93556666Y-125669318D02*
X93556666Y-124399318D01*
X94826667Y-124459794D02*
X94705714Y-124399318D01*
X94705714Y-124399318D02*
X94524286Y-124399318D01*
X94524286Y-124399318D02*
X94342857Y-124459794D01*
X94342857Y-124459794D02*
X94221905Y-124580746D01*
X94221905Y-124580746D02*
X94161428Y-124701699D01*
X94161428Y-124701699D02*
X94100952Y-124943603D01*
X94100952Y-124943603D02*
X94100952Y-125125032D01*
X94100952Y-125125032D02*
X94161428Y-125366937D01*
X94161428Y-125366937D02*
X94221905Y-125487889D01*
X94221905Y-125487889D02*
X94342857Y-125608842D01*
X94342857Y-125608842D02*
X94524286Y-125669318D01*
X94524286Y-125669318D02*
X94645238Y-125669318D01*
X94645238Y-125669318D02*
X94826667Y-125608842D01*
X94826667Y-125608842D02*
X94887143Y-125548365D01*
X94887143Y-125548365D02*
X94887143Y-125125032D01*
X94887143Y-125125032D02*
X94645238Y-125125032D01*
X95431428Y-125669318D02*
X95431428Y-124399318D01*
X95431428Y-125004080D02*
X96157143Y-125004080D01*
X96157143Y-125669318D02*
X96157143Y-124399318D01*
X96580476Y-124399318D02*
X97306190Y-124399318D01*
X96943333Y-125669318D02*
X96943333Y-124399318D01*
X97729523Y-125669318D02*
X97729523Y-124399318D01*
X97729523Y-124399318D02*
X98455238Y-125669318D01*
X98455238Y-125669318D02*
X98455238Y-124399318D01*
X99059999Y-125004080D02*
X99483333Y-125004080D01*
X99664761Y-125669318D02*
X99059999Y-125669318D01*
X99059999Y-125669318D02*
X99059999Y-124399318D01*
X99059999Y-124399318D02*
X99664761Y-124399318D01*
X100148571Y-125608842D02*
X100330000Y-125669318D01*
X100330000Y-125669318D02*
X100632381Y-125669318D01*
X100632381Y-125669318D02*
X100753333Y-125608842D01*
X100753333Y-125608842D02*
X100813809Y-125548365D01*
X100813809Y-125548365D02*
X100874286Y-125427413D01*
X100874286Y-125427413D02*
X100874286Y-125306461D01*
X100874286Y-125306461D02*
X100813809Y-125185508D01*
X100813809Y-125185508D02*
X100753333Y-125125032D01*
X100753333Y-125125032D02*
X100632381Y-125064556D01*
X100632381Y-125064556D02*
X100390476Y-125004080D01*
X100390476Y-125004080D02*
X100269524Y-124943603D01*
X100269524Y-124943603D02*
X100209047Y-124883127D01*
X100209047Y-124883127D02*
X100148571Y-124762175D01*
X100148571Y-124762175D02*
X100148571Y-124641222D01*
X100148571Y-124641222D02*
X100209047Y-124520270D01*
X100209047Y-124520270D02*
X100269524Y-124459794D01*
X100269524Y-124459794D02*
X100390476Y-124399318D01*
X100390476Y-124399318D02*
X100692857Y-124399318D01*
X100692857Y-124399318D02*
X100874286Y-124459794D01*
X101358095Y-125608842D02*
X101539524Y-125669318D01*
X101539524Y-125669318D02*
X101841905Y-125669318D01*
X101841905Y-125669318D02*
X101962857Y-125608842D01*
X101962857Y-125608842D02*
X102023333Y-125548365D01*
X102023333Y-125548365D02*
X102083810Y-125427413D01*
X102083810Y-125427413D02*
X102083810Y-125306461D01*
X102083810Y-125306461D02*
X102023333Y-125185508D01*
X102023333Y-125185508D02*
X101962857Y-125125032D01*
X101962857Y-125125032D02*
X101841905Y-125064556D01*
X101841905Y-125064556D02*
X101600000Y-125004080D01*
X101600000Y-125004080D02*
X101479048Y-124943603D01*
X101479048Y-124943603D02*
X101418571Y-124883127D01*
X101418571Y-124883127D02*
X101358095Y-124762175D01*
X101358095Y-124762175D02*
X101358095Y-124641222D01*
X101358095Y-124641222D02*
X101418571Y-124520270D01*
X101418571Y-124520270D02*
X101479048Y-124459794D01*
X101479048Y-124459794D02*
X101600000Y-124399318D01*
X101600000Y-124399318D02*
X101902381Y-124399318D01*
X101902381Y-124399318D02*
X102083810Y-124459794D01*
D12*
X174406667Y-107437200D02*
X174549524Y-107484819D01*
X174549524Y-107484819D02*
X174787619Y-107484819D01*
X174787619Y-107484819D02*
X174882857Y-107437200D01*
X174882857Y-107437200D02*
X174930476Y-107389580D01*
X174930476Y-107389580D02*
X174978095Y-107294342D01*
X174978095Y-107294342D02*
X174978095Y-107199104D01*
X174978095Y-107199104D02*
X174930476Y-107103866D01*
X174930476Y-107103866D02*
X174882857Y-107056247D01*
X174882857Y-107056247D02*
X174787619Y-107008628D01*
X174787619Y-107008628D02*
X174597143Y-106961009D01*
X174597143Y-106961009D02*
X174501905Y-106913390D01*
X174501905Y-106913390D02*
X174454286Y-106865771D01*
X174454286Y-106865771D02*
X174406667Y-106770533D01*
X174406667Y-106770533D02*
X174406667Y-106675295D01*
X174406667Y-106675295D02*
X174454286Y-106580057D01*
X174454286Y-106580057D02*
X174501905Y-106532438D01*
X174501905Y-106532438D02*
X174597143Y-106484819D01*
X174597143Y-106484819D02*
X174835238Y-106484819D01*
X174835238Y-106484819D02*
X174978095Y-106532438D01*
X175311429Y-106484819D02*
X175549524Y-107484819D01*
X175549524Y-107484819D02*
X175740000Y-106770533D01*
X175740000Y-106770533D02*
X175930476Y-107484819D01*
X175930476Y-107484819D02*
X176168572Y-106484819D01*
X176454286Y-106484819D02*
X177073333Y-106484819D01*
X177073333Y-106484819D02*
X176740000Y-106865771D01*
X176740000Y-106865771D02*
X176882857Y-106865771D01*
X176882857Y-106865771D02*
X176978095Y-106913390D01*
X176978095Y-106913390D02*
X177025714Y-106961009D01*
X177025714Y-106961009D02*
X177073333Y-107056247D01*
X177073333Y-107056247D02*
X177073333Y-107294342D01*
X177073333Y-107294342D02*
X177025714Y-107389580D01*
X177025714Y-107389580D02*
X176978095Y-107437200D01*
X176978095Y-107437200D02*
X176882857Y-107484819D01*
X176882857Y-107484819D02*
X176597143Y-107484819D01*
X176597143Y-107484819D02*
X176501905Y-107437200D01*
X176501905Y-107437200D02*
X176454286Y-107389580D01*
X175888095Y-114119819D02*
X175888095Y-113119819D01*
X175888095Y-113119819D02*
X176126190Y-113119819D01*
X176126190Y-113119819D02*
X176269047Y-113167438D01*
X176269047Y-113167438D02*
X176364285Y-113262676D01*
X176364285Y-113262676D02*
X176411904Y-113357914D01*
X176411904Y-113357914D02*
X176459523Y-113548390D01*
X176459523Y-113548390D02*
X176459523Y-113691247D01*
X176459523Y-113691247D02*
X176411904Y-113881723D01*
X176411904Y-113881723D02*
X176364285Y-113976961D01*
X176364285Y-113976961D02*
X176269047Y-114072200D01*
X176269047Y-114072200D02*
X176126190Y-114119819D01*
X176126190Y-114119819D02*
X175888095Y-114119819D01*
X176840476Y-114072200D02*
X176983333Y-114119819D01*
X176983333Y-114119819D02*
X177221428Y-114119819D01*
X177221428Y-114119819D02*
X177316666Y-114072200D01*
X177316666Y-114072200D02*
X177364285Y-114024580D01*
X177364285Y-114024580D02*
X177411904Y-113929342D01*
X177411904Y-113929342D02*
X177411904Y-113834104D01*
X177411904Y-113834104D02*
X177364285Y-113738866D01*
X177364285Y-113738866D02*
X177316666Y-113691247D01*
X177316666Y-113691247D02*
X177221428Y-113643628D01*
X177221428Y-113643628D02*
X177030952Y-113596009D01*
X177030952Y-113596009D02*
X176935714Y-113548390D01*
X176935714Y-113548390D02*
X176888095Y-113500771D01*
X176888095Y-113500771D02*
X176840476Y-113405533D01*
X176840476Y-113405533D02*
X176840476Y-113310295D01*
X176840476Y-113310295D02*
X176888095Y-113215057D01*
X176888095Y-113215057D02*
X176935714Y-113167438D01*
X176935714Y-113167438D02*
X177030952Y-113119819D01*
X177030952Y-113119819D02*
X177269047Y-113119819D01*
X177269047Y-113119819D02*
X177411904Y-113167438D01*
X178030952Y-113119819D02*
X178126190Y-113119819D01*
X178126190Y-113119819D02*
X178221428Y-113167438D01*
X178221428Y-113167438D02*
X178269047Y-113215057D01*
X178269047Y-113215057D02*
X178316666Y-113310295D01*
X178316666Y-113310295D02*
X178364285Y-113500771D01*
X178364285Y-113500771D02*
X178364285Y-113738866D01*
X178364285Y-113738866D02*
X178316666Y-113929342D01*
X178316666Y-113929342D02*
X178269047Y-114024580D01*
X178269047Y-114024580D02*
X178221428Y-114072200D01*
X178221428Y-114072200D02*
X178126190Y-114119819D01*
X178126190Y-114119819D02*
X178030952Y-114119819D01*
X178030952Y-114119819D02*
X177935714Y-114072200D01*
X177935714Y-114072200D02*
X177888095Y-114024580D01*
X177888095Y-114024580D02*
X177840476Y-113929342D01*
X177840476Y-113929342D02*
X177792857Y-113738866D01*
X177792857Y-113738866D02*
X177792857Y-113500771D01*
X177792857Y-113500771D02*
X177840476Y-113310295D01*
X177840476Y-113310295D02*
X177888095Y-113215057D01*
X177888095Y-113215057D02*
X177935714Y-113167438D01*
X177935714Y-113167438D02*
X178030952Y-113119819D01*
X178745238Y-113215057D02*
X178792857Y-113167438D01*
X178792857Y-113167438D02*
X178888095Y-113119819D01*
X178888095Y-113119819D02*
X179126190Y-113119819D01*
X179126190Y-113119819D02*
X179221428Y-113167438D01*
X179221428Y-113167438D02*
X179269047Y-113215057D01*
X179269047Y-113215057D02*
X179316666Y-113310295D01*
X179316666Y-113310295D02*
X179316666Y-113405533D01*
X179316666Y-113405533D02*
X179269047Y-113548390D01*
X179269047Y-113548390D02*
X178697619Y-114119819D01*
X178697619Y-114119819D02*
X179316666Y-114119819D01*
X180316666Y-114024580D02*
X180269047Y-114072200D01*
X180269047Y-114072200D02*
X180126190Y-114119819D01*
X180126190Y-114119819D02*
X180030952Y-114119819D01*
X180030952Y-114119819D02*
X179888095Y-114072200D01*
X179888095Y-114072200D02*
X179792857Y-113976961D01*
X179792857Y-113976961D02*
X179745238Y-113881723D01*
X179745238Y-113881723D02*
X179697619Y-113691247D01*
X179697619Y-113691247D02*
X179697619Y-113548390D01*
X179697619Y-113548390D02*
X179745238Y-113357914D01*
X179745238Y-113357914D02*
X179792857Y-113262676D01*
X179792857Y-113262676D02*
X179888095Y-113167438D01*
X179888095Y-113167438D02*
X180030952Y-113119819D01*
X180030952Y-113119819D02*
X180126190Y-113119819D01*
X180126190Y-113119819D02*
X180269047Y-113167438D01*
X180269047Y-113167438D02*
X180316666Y-113215057D01*
X180745238Y-113738866D02*
X181507143Y-113738866D01*
X181935714Y-113215057D02*
X181983333Y-113167438D01*
X181983333Y-113167438D02*
X182078571Y-113119819D01*
X182078571Y-113119819D02*
X182316666Y-113119819D01*
X182316666Y-113119819D02*
X182411904Y-113167438D01*
X182411904Y-113167438D02*
X182459523Y-113215057D01*
X182459523Y-113215057D02*
X182507142Y-113310295D01*
X182507142Y-113310295D02*
X182507142Y-113405533D01*
X182507142Y-113405533D02*
X182459523Y-113548390D01*
X182459523Y-113548390D02*
X181888095Y-114119819D01*
X181888095Y-114119819D02*
X182507142Y-114119819D01*
X183411904Y-113119819D02*
X182935714Y-113119819D01*
X182935714Y-113119819D02*
X182888095Y-113596009D01*
X182888095Y-113596009D02*
X182935714Y-113548390D01*
X182935714Y-113548390D02*
X183030952Y-113500771D01*
X183030952Y-113500771D02*
X183269047Y-113500771D01*
X183269047Y-113500771D02*
X183364285Y-113548390D01*
X183364285Y-113548390D02*
X183411904Y-113596009D01*
X183411904Y-113596009D02*
X183459523Y-113691247D01*
X183459523Y-113691247D02*
X183459523Y-113929342D01*
X183459523Y-113929342D02*
X183411904Y-114024580D01*
X183411904Y-114024580D02*
X183364285Y-114072200D01*
X183364285Y-114072200D02*
X183269047Y-114119819D01*
X183269047Y-114119819D02*
X183030952Y-114119819D01*
X183030952Y-114119819D02*
X182935714Y-114072200D01*
X182935714Y-114072200D02*
X182888095Y-114024580D01*
X184316666Y-113453152D02*
X184316666Y-114119819D01*
X184078571Y-113072200D02*
X183840476Y-113786485D01*
X183840476Y-113786485D02*
X184459523Y-113786485D01*
X184840476Y-113738866D02*
X185602381Y-113738866D01*
X186602380Y-114119819D02*
X186030952Y-114119819D01*
X186316666Y-114119819D02*
X186316666Y-113119819D01*
X186316666Y-113119819D02*
X186221428Y-113262676D01*
X186221428Y-113262676D02*
X186126190Y-113357914D01*
X186126190Y-113357914D02*
X186030952Y-113405533D01*
X187507142Y-114119819D02*
X187030952Y-114119819D01*
X187030952Y-114119819D02*
X187030952Y-113119819D01*
X187840476Y-113738866D02*
X188602381Y-113738866D01*
X189269047Y-113119819D02*
X189364285Y-113119819D01*
X189364285Y-113119819D02*
X189459523Y-113167438D01*
X189459523Y-113167438D02*
X189507142Y-113215057D01*
X189507142Y-113215057D02*
X189554761Y-113310295D01*
X189554761Y-113310295D02*
X189602380Y-113500771D01*
X189602380Y-113500771D02*
X189602380Y-113738866D01*
X189602380Y-113738866D02*
X189554761Y-113929342D01*
X189554761Y-113929342D02*
X189507142Y-114024580D01*
X189507142Y-114024580D02*
X189459523Y-114072200D01*
X189459523Y-114072200D02*
X189364285Y-114119819D01*
X189364285Y-114119819D02*
X189269047Y-114119819D01*
X189269047Y-114119819D02*
X189173809Y-114072200D01*
X189173809Y-114072200D02*
X189126190Y-114024580D01*
X189126190Y-114024580D02*
X189078571Y-113929342D01*
X189078571Y-113929342D02*
X189030952Y-113738866D01*
X189030952Y-113738866D02*
X189030952Y-113500771D01*
X189030952Y-113500771D02*
X189078571Y-113310295D01*
X189078571Y-113310295D02*
X189126190Y-113215057D01*
X189126190Y-113215057D02*
X189173809Y-113167438D01*
X189173809Y-113167438D02*
X189269047Y-113119819D01*
X190173809Y-113548390D02*
X190078571Y-113500771D01*
X190078571Y-113500771D02*
X190030952Y-113453152D01*
X190030952Y-113453152D02*
X189983333Y-113357914D01*
X189983333Y-113357914D02*
X189983333Y-113310295D01*
X189983333Y-113310295D02*
X190030952Y-113215057D01*
X190030952Y-113215057D02*
X190078571Y-113167438D01*
X190078571Y-113167438D02*
X190173809Y-113119819D01*
X190173809Y-113119819D02*
X190364285Y-113119819D01*
X190364285Y-113119819D02*
X190459523Y-113167438D01*
X190459523Y-113167438D02*
X190507142Y-113215057D01*
X190507142Y-113215057D02*
X190554761Y-113310295D01*
X190554761Y-113310295D02*
X190554761Y-113357914D01*
X190554761Y-113357914D02*
X190507142Y-113453152D01*
X190507142Y-113453152D02*
X190459523Y-113500771D01*
X190459523Y-113500771D02*
X190364285Y-113548390D01*
X190364285Y-113548390D02*
X190173809Y-113548390D01*
X190173809Y-113548390D02*
X190078571Y-113596009D01*
X190078571Y-113596009D02*
X190030952Y-113643628D01*
X190030952Y-113643628D02*
X189983333Y-113738866D01*
X189983333Y-113738866D02*
X189983333Y-113929342D01*
X189983333Y-113929342D02*
X190030952Y-114024580D01*
X190030952Y-114024580D02*
X190078571Y-114072200D01*
X190078571Y-114072200D02*
X190173809Y-114119819D01*
X190173809Y-114119819D02*
X190364285Y-114119819D01*
X190364285Y-114119819D02*
X190459523Y-114072200D01*
X190459523Y-114072200D02*
X190507142Y-114024580D01*
X190507142Y-114024580D02*
X190554761Y-113929342D01*
X190554761Y-113929342D02*
X190554761Y-113738866D01*
X190554761Y-113738866D02*
X190507142Y-113643628D01*
X190507142Y-113643628D02*
X190459523Y-113596009D01*
X190459523Y-113596009D02*
X190364285Y-113548390D01*
X191316666Y-113596009D02*
X191459523Y-113643628D01*
X191459523Y-113643628D02*
X191507142Y-113691247D01*
X191507142Y-113691247D02*
X191554761Y-113786485D01*
X191554761Y-113786485D02*
X191554761Y-113929342D01*
X191554761Y-113929342D02*
X191507142Y-114024580D01*
X191507142Y-114024580D02*
X191459523Y-114072200D01*
X191459523Y-114072200D02*
X191364285Y-114119819D01*
X191364285Y-114119819D02*
X190983333Y-114119819D01*
X190983333Y-114119819D02*
X190983333Y-113119819D01*
X190983333Y-113119819D02*
X191316666Y-113119819D01*
X191316666Y-113119819D02*
X191411904Y-113167438D01*
X191411904Y-113167438D02*
X191459523Y-113215057D01*
X191459523Y-113215057D02*
X191507142Y-113310295D01*
X191507142Y-113310295D02*
X191507142Y-113405533D01*
X191507142Y-113405533D02*
X191459523Y-113500771D01*
X191459523Y-113500771D02*
X191411904Y-113548390D01*
X191411904Y-113548390D02*
X191316666Y-113596009D01*
X191316666Y-113596009D02*
X190983333Y-113596009D01*
X191983333Y-113596009D02*
X192316666Y-113596009D01*
X192459523Y-114119819D02*
X191983333Y-114119819D01*
X191983333Y-114119819D02*
X191983333Y-113119819D01*
X191983333Y-113119819D02*
X192459523Y-113119819D01*
X152741333Y-121358819D02*
X152408000Y-120882628D01*
X152169905Y-121358819D02*
X152169905Y-120358819D01*
X152169905Y-120358819D02*
X152550857Y-120358819D01*
X152550857Y-120358819D02*
X152646095Y-120406438D01*
X152646095Y-120406438D02*
X152693714Y-120454057D01*
X152693714Y-120454057D02*
X152741333Y-120549295D01*
X152741333Y-120549295D02*
X152741333Y-120692152D01*
X152741333Y-120692152D02*
X152693714Y-120787390D01*
X152693714Y-120787390D02*
X152646095Y-120835009D01*
X152646095Y-120835009D02*
X152550857Y-120882628D01*
X152550857Y-120882628D02*
X152169905Y-120882628D01*
X153217524Y-121358819D02*
X153408000Y-121358819D01*
X153408000Y-121358819D02*
X153503238Y-121311200D01*
X153503238Y-121311200D02*
X153550857Y-121263580D01*
X153550857Y-121263580D02*
X153646095Y-121120723D01*
X153646095Y-121120723D02*
X153693714Y-120930247D01*
X153693714Y-120930247D02*
X153693714Y-120549295D01*
X153693714Y-120549295D02*
X153646095Y-120454057D01*
X153646095Y-120454057D02*
X153598476Y-120406438D01*
X153598476Y-120406438D02*
X153503238Y-120358819D01*
X153503238Y-120358819D02*
X153312762Y-120358819D01*
X153312762Y-120358819D02*
X153217524Y-120406438D01*
X153217524Y-120406438D02*
X153169905Y-120454057D01*
X153169905Y-120454057D02*
X153122286Y-120549295D01*
X153122286Y-120549295D02*
X153122286Y-120787390D01*
X153122286Y-120787390D02*
X153169905Y-120882628D01*
X153169905Y-120882628D02*
X153217524Y-120930247D01*
X153217524Y-120930247D02*
X153312762Y-120977866D01*
X153312762Y-120977866D02*
X153503238Y-120977866D01*
X153503238Y-120977866D02*
X153598476Y-120930247D01*
X153598476Y-120930247D02*
X153646095Y-120882628D01*
X153646095Y-120882628D02*
X153693714Y-120787390D01*
X150796857Y-122898819D02*
X151415904Y-122898819D01*
X151415904Y-122898819D02*
X151082571Y-123279771D01*
X151082571Y-123279771D02*
X151225428Y-123279771D01*
X151225428Y-123279771D02*
X151320666Y-123327390D01*
X151320666Y-123327390D02*
X151368285Y-123375009D01*
X151368285Y-123375009D02*
X151415904Y-123470247D01*
X151415904Y-123470247D02*
X151415904Y-123708342D01*
X151415904Y-123708342D02*
X151368285Y-123803580D01*
X151368285Y-123803580D02*
X151320666Y-123851200D01*
X151320666Y-123851200D02*
X151225428Y-123898819D01*
X151225428Y-123898819D02*
X150939714Y-123898819D01*
X150939714Y-123898819D02*
X150844476Y-123851200D01*
X150844476Y-123851200D02*
X150796857Y-123803580D01*
X151749238Y-122898819D02*
X152368285Y-122898819D01*
X152368285Y-122898819D02*
X152034952Y-123279771D01*
X152034952Y-123279771D02*
X152177809Y-123279771D01*
X152177809Y-123279771D02*
X152273047Y-123327390D01*
X152273047Y-123327390D02*
X152320666Y-123375009D01*
X152320666Y-123375009D02*
X152368285Y-123470247D01*
X152368285Y-123470247D02*
X152368285Y-123708342D01*
X152368285Y-123708342D02*
X152320666Y-123803580D01*
X152320666Y-123803580D02*
X152273047Y-123851200D01*
X152273047Y-123851200D02*
X152177809Y-123898819D01*
X152177809Y-123898819D02*
X151892095Y-123898819D01*
X151892095Y-123898819D02*
X151796857Y-123851200D01*
X151796857Y-123851200D02*
X151749238Y-123803580D01*
X152987333Y-122898819D02*
X153082571Y-122898819D01*
X153082571Y-122898819D02*
X153177809Y-122946438D01*
X153177809Y-122946438D02*
X153225428Y-122994057D01*
X153225428Y-122994057D02*
X153273047Y-123089295D01*
X153273047Y-123089295D02*
X153320666Y-123279771D01*
X153320666Y-123279771D02*
X153320666Y-123517866D01*
X153320666Y-123517866D02*
X153273047Y-123708342D01*
X153273047Y-123708342D02*
X153225428Y-123803580D01*
X153225428Y-123803580D02*
X153177809Y-123851200D01*
X153177809Y-123851200D02*
X153082571Y-123898819D01*
X153082571Y-123898819D02*
X152987333Y-123898819D01*
X152987333Y-123898819D02*
X152892095Y-123851200D01*
X152892095Y-123851200D02*
X152844476Y-123803580D01*
X152844476Y-123803580D02*
X152796857Y-123708342D01*
X152796857Y-123708342D02*
X152749238Y-123517866D01*
X152749238Y-123517866D02*
X152749238Y-123279771D01*
X152749238Y-123279771D02*
X152796857Y-123089295D01*
X152796857Y-123089295D02*
X152844476Y-122994057D01*
X152844476Y-122994057D02*
X152892095Y-122946438D01*
X152892095Y-122946438D02*
X152987333Y-122898819D01*
X153701619Y-123898819D02*
X153939714Y-123898819D01*
X153939714Y-123898819D02*
X153939714Y-123708342D01*
X153939714Y-123708342D02*
X153844476Y-123660723D01*
X153844476Y-123660723D02*
X153749238Y-123565485D01*
X153749238Y-123565485D02*
X153701619Y-123422628D01*
X153701619Y-123422628D02*
X153701619Y-123184533D01*
X153701619Y-123184533D02*
X153749238Y-123041676D01*
X153749238Y-123041676D02*
X153844476Y-122946438D01*
X153844476Y-122946438D02*
X153987333Y-122898819D01*
X153987333Y-122898819D02*
X154177809Y-122898819D01*
X154177809Y-122898819D02*
X154320666Y-122946438D01*
X154320666Y-122946438D02*
X154415904Y-123041676D01*
X154415904Y-123041676D02*
X154463523Y-123184533D01*
X154463523Y-123184533D02*
X154463523Y-123422628D01*
X154463523Y-123422628D02*
X154415904Y-123565485D01*
X154415904Y-123565485D02*
X154320666Y-123660723D01*
X154320666Y-123660723D02*
X154225428Y-123708342D01*
X154225428Y-123708342D02*
X154225428Y-123898819D01*
X154225428Y-123898819D02*
X154463523Y-123898819D01*
X199223333Y-74749819D02*
X198890000Y-74273628D01*
X198651905Y-74749819D02*
X198651905Y-73749819D01*
X198651905Y-73749819D02*
X199032857Y-73749819D01*
X199032857Y-73749819D02*
X199128095Y-73797438D01*
X199128095Y-73797438D02*
X199175714Y-73845057D01*
X199175714Y-73845057D02*
X199223333Y-73940295D01*
X199223333Y-73940295D02*
X199223333Y-74083152D01*
X199223333Y-74083152D02*
X199175714Y-74178390D01*
X199175714Y-74178390D02*
X199128095Y-74226009D01*
X199128095Y-74226009D02*
X199032857Y-74273628D01*
X199032857Y-74273628D02*
X198651905Y-74273628D01*
X199556667Y-73749819D02*
X200223333Y-73749819D01*
X200223333Y-73749819D02*
X199794762Y-74749819D01*
X202223809Y-76289819D02*
X201747619Y-76289819D01*
X201747619Y-76289819D02*
X201700000Y-76766009D01*
X201700000Y-76766009D02*
X201747619Y-76718390D01*
X201747619Y-76718390D02*
X201842857Y-76670771D01*
X201842857Y-76670771D02*
X202080952Y-76670771D01*
X202080952Y-76670771D02*
X202176190Y-76718390D01*
X202176190Y-76718390D02*
X202223809Y-76766009D01*
X202223809Y-76766009D02*
X202271428Y-76861247D01*
X202271428Y-76861247D02*
X202271428Y-77099342D01*
X202271428Y-77099342D02*
X202223809Y-77194580D01*
X202223809Y-77194580D02*
X202176190Y-77242200D01*
X202176190Y-77242200D02*
X202080952Y-77289819D01*
X202080952Y-77289819D02*
X201842857Y-77289819D01*
X201842857Y-77289819D02*
X201747619Y-77242200D01*
X201747619Y-77242200D02*
X201700000Y-77194580D01*
X202700000Y-77194580D02*
X202747619Y-77242200D01*
X202747619Y-77242200D02*
X202700000Y-77289819D01*
X202700000Y-77289819D02*
X202652381Y-77242200D01*
X202652381Y-77242200D02*
X202700000Y-77194580D01*
X202700000Y-77194580D02*
X202700000Y-77289819D01*
X203699999Y-77289819D02*
X203128571Y-77289819D01*
X203414285Y-77289819D02*
X203414285Y-76289819D01*
X203414285Y-76289819D02*
X203319047Y-76432676D01*
X203319047Y-76432676D02*
X203223809Y-76527914D01*
X203223809Y-76527914D02*
X203128571Y-76575533D01*
X204128571Y-77289819D02*
X204128571Y-76289819D01*
X204699999Y-77289819D02*
X204271428Y-76718390D01*
X204699999Y-76289819D02*
X204128571Y-76861247D01*
X120483333Y-112939819D02*
X120150000Y-112463628D01*
X119911905Y-112939819D02*
X119911905Y-111939819D01*
X119911905Y-111939819D02*
X120292857Y-111939819D01*
X120292857Y-111939819D02*
X120388095Y-111987438D01*
X120388095Y-111987438D02*
X120435714Y-112035057D01*
X120435714Y-112035057D02*
X120483333Y-112130295D01*
X120483333Y-112130295D02*
X120483333Y-112273152D01*
X120483333Y-112273152D02*
X120435714Y-112368390D01*
X120435714Y-112368390D02*
X120388095Y-112416009D01*
X120388095Y-112416009D02*
X120292857Y-112463628D01*
X120292857Y-112463628D02*
X119911905Y-112463628D01*
X120816667Y-111939819D02*
X121435714Y-111939819D01*
X121435714Y-111939819D02*
X121102381Y-112320771D01*
X121102381Y-112320771D02*
X121245238Y-112320771D01*
X121245238Y-112320771D02*
X121340476Y-112368390D01*
X121340476Y-112368390D02*
X121388095Y-112416009D01*
X121388095Y-112416009D02*
X121435714Y-112511247D01*
X121435714Y-112511247D02*
X121435714Y-112749342D01*
X121435714Y-112749342D02*
X121388095Y-112844580D01*
X121388095Y-112844580D02*
X121340476Y-112892200D01*
X121340476Y-112892200D02*
X121245238Y-112939819D01*
X121245238Y-112939819D02*
X120959524Y-112939819D01*
X120959524Y-112939819D02*
X120864286Y-112892200D01*
X120864286Y-112892200D02*
X120816667Y-112844580D01*
X119794285Y-115179819D02*
X119222857Y-115179819D01*
X119508571Y-115179819D02*
X119508571Y-114179819D01*
X119508571Y-114179819D02*
X119413333Y-114322676D01*
X119413333Y-114322676D02*
X119318095Y-114417914D01*
X119318095Y-114417914D02*
X119222857Y-114465533D01*
X120222857Y-115179819D02*
X120222857Y-114179819D01*
X120794285Y-115179819D02*
X120365714Y-114608390D01*
X120794285Y-114179819D02*
X120222857Y-114751247D01*
X121175238Y-115179819D02*
X121413333Y-115179819D01*
X121413333Y-115179819D02*
X121413333Y-114989342D01*
X121413333Y-114989342D02*
X121318095Y-114941723D01*
X121318095Y-114941723D02*
X121222857Y-114846485D01*
X121222857Y-114846485D02*
X121175238Y-114703628D01*
X121175238Y-114703628D02*
X121175238Y-114465533D01*
X121175238Y-114465533D02*
X121222857Y-114322676D01*
X121222857Y-114322676D02*
X121318095Y-114227438D01*
X121318095Y-114227438D02*
X121460952Y-114179819D01*
X121460952Y-114179819D02*
X121651428Y-114179819D01*
X121651428Y-114179819D02*
X121794285Y-114227438D01*
X121794285Y-114227438D02*
X121889523Y-114322676D01*
X121889523Y-114322676D02*
X121937142Y-114465533D01*
X121937142Y-114465533D02*
X121937142Y-114703628D01*
X121937142Y-114703628D02*
X121889523Y-114846485D01*
X121889523Y-114846485D02*
X121794285Y-114941723D01*
X121794285Y-114941723D02*
X121699047Y-114989342D01*
X121699047Y-114989342D02*
X121699047Y-115179819D01*
X121699047Y-115179819D02*
X121937142Y-115179819D01*
X172029523Y-81099819D02*
X171696190Y-80623628D01*
X171458095Y-81099819D02*
X171458095Y-80099819D01*
X171458095Y-80099819D02*
X171839047Y-80099819D01*
X171839047Y-80099819D02*
X171934285Y-80147438D01*
X171934285Y-80147438D02*
X171981904Y-80195057D01*
X171981904Y-80195057D02*
X172029523Y-80290295D01*
X172029523Y-80290295D02*
X172029523Y-80433152D01*
X172029523Y-80433152D02*
X171981904Y-80528390D01*
X171981904Y-80528390D02*
X171934285Y-80576009D01*
X171934285Y-80576009D02*
X171839047Y-80623628D01*
X171839047Y-80623628D02*
X171458095Y-80623628D01*
X172458095Y-81099819D02*
X172458095Y-80099819D01*
X172458095Y-80099819D02*
X173029523Y-81099819D01*
X173029523Y-81099819D02*
X173029523Y-80099819D01*
X174029523Y-81099819D02*
X173458095Y-81099819D01*
X173743809Y-81099819D02*
X173743809Y-80099819D01*
X173743809Y-80099819D02*
X173648571Y-80242676D01*
X173648571Y-80242676D02*
X173553333Y-80337914D01*
X173553333Y-80337914D02*
X173458095Y-80385533D01*
X189801666Y-80433152D02*
X189801666Y-81099819D01*
X189563571Y-80052200D02*
X189325476Y-80766485D01*
X189325476Y-80766485D02*
X189944523Y-80766485D01*
X190230238Y-80099819D02*
X190896904Y-80099819D01*
X190896904Y-80099819D02*
X190468333Y-81099819D01*
X191468333Y-80099819D02*
X191563571Y-80099819D01*
X191563571Y-80099819D02*
X191658809Y-80147438D01*
X191658809Y-80147438D02*
X191706428Y-80195057D01*
X191706428Y-80195057D02*
X191754047Y-80290295D01*
X191754047Y-80290295D02*
X191801666Y-80480771D01*
X191801666Y-80480771D02*
X191801666Y-80718866D01*
X191801666Y-80718866D02*
X191754047Y-80909342D01*
X191754047Y-80909342D02*
X191706428Y-81004580D01*
X191706428Y-81004580D02*
X191658809Y-81052200D01*
X191658809Y-81052200D02*
X191563571Y-81099819D01*
X191563571Y-81099819D02*
X191468333Y-81099819D01*
X191468333Y-81099819D02*
X191373095Y-81052200D01*
X191373095Y-81052200D02*
X191325476Y-81004580D01*
X191325476Y-81004580D02*
X191277857Y-80909342D01*
X191277857Y-80909342D02*
X191230238Y-80718866D01*
X191230238Y-80718866D02*
X191230238Y-80480771D01*
X191230238Y-80480771D02*
X191277857Y-80290295D01*
X191277857Y-80290295D02*
X191325476Y-80195057D01*
X191325476Y-80195057D02*
X191373095Y-80147438D01*
X191373095Y-80147438D02*
X191468333Y-80099819D01*
X192182619Y-81099819D02*
X192420714Y-81099819D01*
X192420714Y-81099819D02*
X192420714Y-80909342D01*
X192420714Y-80909342D02*
X192325476Y-80861723D01*
X192325476Y-80861723D02*
X192230238Y-80766485D01*
X192230238Y-80766485D02*
X192182619Y-80623628D01*
X192182619Y-80623628D02*
X192182619Y-80385533D01*
X192182619Y-80385533D02*
X192230238Y-80242676D01*
X192230238Y-80242676D02*
X192325476Y-80147438D01*
X192325476Y-80147438D02*
X192468333Y-80099819D01*
X192468333Y-80099819D02*
X192658809Y-80099819D01*
X192658809Y-80099819D02*
X192801666Y-80147438D01*
X192801666Y-80147438D02*
X192896904Y-80242676D01*
X192896904Y-80242676D02*
X192944523Y-80385533D01*
X192944523Y-80385533D02*
X192944523Y-80623628D01*
X192944523Y-80623628D02*
X192896904Y-80766485D01*
X192896904Y-80766485D02*
X192801666Y-80861723D01*
X192801666Y-80861723D02*
X192706428Y-80909342D01*
X192706428Y-80909342D02*
X192706428Y-81099819D01*
X192706428Y-81099819D02*
X192944523Y-81099819D01*
X199223333Y-79829819D02*
X198890000Y-79353628D01*
X198651905Y-79829819D02*
X198651905Y-78829819D01*
X198651905Y-78829819D02*
X199032857Y-78829819D01*
X199032857Y-78829819D02*
X199128095Y-78877438D01*
X199128095Y-78877438D02*
X199175714Y-78925057D01*
X199175714Y-78925057D02*
X199223333Y-79020295D01*
X199223333Y-79020295D02*
X199223333Y-79163152D01*
X199223333Y-79163152D02*
X199175714Y-79258390D01*
X199175714Y-79258390D02*
X199128095Y-79306009D01*
X199128095Y-79306009D02*
X199032857Y-79353628D01*
X199032857Y-79353628D02*
X198651905Y-79353628D01*
X200080476Y-78829819D02*
X199890000Y-78829819D01*
X199890000Y-78829819D02*
X199794762Y-78877438D01*
X199794762Y-78877438D02*
X199747143Y-78925057D01*
X199747143Y-78925057D02*
X199651905Y-79067914D01*
X199651905Y-79067914D02*
X199604286Y-79258390D01*
X199604286Y-79258390D02*
X199604286Y-79639342D01*
X199604286Y-79639342D02*
X199651905Y-79734580D01*
X199651905Y-79734580D02*
X199699524Y-79782200D01*
X199699524Y-79782200D02*
X199794762Y-79829819D01*
X199794762Y-79829819D02*
X199985238Y-79829819D01*
X199985238Y-79829819D02*
X200080476Y-79782200D01*
X200080476Y-79782200D02*
X200128095Y-79734580D01*
X200128095Y-79734580D02*
X200175714Y-79639342D01*
X200175714Y-79639342D02*
X200175714Y-79401247D01*
X200175714Y-79401247D02*
X200128095Y-79306009D01*
X200128095Y-79306009D02*
X200080476Y-79258390D01*
X200080476Y-79258390D02*
X199985238Y-79210771D01*
X199985238Y-79210771D02*
X199794762Y-79210771D01*
X199794762Y-79210771D02*
X199699524Y-79258390D01*
X199699524Y-79258390D02*
X199651905Y-79306009D01*
X199651905Y-79306009D02*
X199604286Y-79401247D01*
X201342857Y-81369819D02*
X201961904Y-81369819D01*
X201961904Y-81369819D02*
X201628571Y-81750771D01*
X201628571Y-81750771D02*
X201771428Y-81750771D01*
X201771428Y-81750771D02*
X201866666Y-81798390D01*
X201866666Y-81798390D02*
X201914285Y-81846009D01*
X201914285Y-81846009D02*
X201961904Y-81941247D01*
X201961904Y-81941247D02*
X201961904Y-82179342D01*
X201961904Y-82179342D02*
X201914285Y-82274580D01*
X201914285Y-82274580D02*
X201866666Y-82322200D01*
X201866666Y-82322200D02*
X201771428Y-82369819D01*
X201771428Y-82369819D02*
X201485714Y-82369819D01*
X201485714Y-82369819D02*
X201390476Y-82322200D01*
X201390476Y-82322200D02*
X201342857Y-82274580D01*
X202295238Y-81369819D02*
X202914285Y-81369819D01*
X202914285Y-81369819D02*
X202580952Y-81750771D01*
X202580952Y-81750771D02*
X202723809Y-81750771D01*
X202723809Y-81750771D02*
X202819047Y-81798390D01*
X202819047Y-81798390D02*
X202866666Y-81846009D01*
X202866666Y-81846009D02*
X202914285Y-81941247D01*
X202914285Y-81941247D02*
X202914285Y-82179342D01*
X202914285Y-82179342D02*
X202866666Y-82274580D01*
X202866666Y-82274580D02*
X202819047Y-82322200D01*
X202819047Y-82322200D02*
X202723809Y-82369819D01*
X202723809Y-82369819D02*
X202438095Y-82369819D01*
X202438095Y-82369819D02*
X202342857Y-82322200D01*
X202342857Y-82322200D02*
X202295238Y-82274580D01*
X203533333Y-81369819D02*
X203628571Y-81369819D01*
X203628571Y-81369819D02*
X203723809Y-81417438D01*
X203723809Y-81417438D02*
X203771428Y-81465057D01*
X203771428Y-81465057D02*
X203819047Y-81560295D01*
X203819047Y-81560295D02*
X203866666Y-81750771D01*
X203866666Y-81750771D02*
X203866666Y-81988866D01*
X203866666Y-81988866D02*
X203819047Y-82179342D01*
X203819047Y-82179342D02*
X203771428Y-82274580D01*
X203771428Y-82274580D02*
X203723809Y-82322200D01*
X203723809Y-82322200D02*
X203628571Y-82369819D01*
X203628571Y-82369819D02*
X203533333Y-82369819D01*
X203533333Y-82369819D02*
X203438095Y-82322200D01*
X203438095Y-82322200D02*
X203390476Y-82274580D01*
X203390476Y-82274580D02*
X203342857Y-82179342D01*
X203342857Y-82179342D02*
X203295238Y-81988866D01*
X203295238Y-81988866D02*
X203295238Y-81750771D01*
X203295238Y-81750771D02*
X203342857Y-81560295D01*
X203342857Y-81560295D02*
X203390476Y-81465057D01*
X203390476Y-81465057D02*
X203438095Y-81417438D01*
X203438095Y-81417438D02*
X203533333Y-81369819D01*
X204247619Y-82369819D02*
X204485714Y-82369819D01*
X204485714Y-82369819D02*
X204485714Y-82179342D01*
X204485714Y-82179342D02*
X204390476Y-82131723D01*
X204390476Y-82131723D02*
X204295238Y-82036485D01*
X204295238Y-82036485D02*
X204247619Y-81893628D01*
X204247619Y-81893628D02*
X204247619Y-81655533D01*
X204247619Y-81655533D02*
X204295238Y-81512676D01*
X204295238Y-81512676D02*
X204390476Y-81417438D01*
X204390476Y-81417438D02*
X204533333Y-81369819D01*
X204533333Y-81369819D02*
X204723809Y-81369819D01*
X204723809Y-81369819D02*
X204866666Y-81417438D01*
X204866666Y-81417438D02*
X204961904Y-81512676D01*
X204961904Y-81512676D02*
X205009523Y-81655533D01*
X205009523Y-81655533D02*
X205009523Y-81893628D01*
X205009523Y-81893628D02*
X204961904Y-82036485D01*
X204961904Y-82036485D02*
X204866666Y-82131723D01*
X204866666Y-82131723D02*
X204771428Y-82179342D01*
X204771428Y-82179342D02*
X204771428Y-82369819D01*
X204771428Y-82369819D02*
X205009523Y-82369819D01*
X204343095Y-97562200D02*
X204485952Y-97609819D01*
X204485952Y-97609819D02*
X204724047Y-97609819D01*
X204724047Y-97609819D02*
X204819285Y-97562200D01*
X204819285Y-97562200D02*
X204866904Y-97514580D01*
X204866904Y-97514580D02*
X204914523Y-97419342D01*
X204914523Y-97419342D02*
X204914523Y-97324104D01*
X204914523Y-97324104D02*
X204866904Y-97228866D01*
X204866904Y-97228866D02*
X204819285Y-97181247D01*
X204819285Y-97181247D02*
X204724047Y-97133628D01*
X204724047Y-97133628D02*
X204533571Y-97086009D01*
X204533571Y-97086009D02*
X204438333Y-97038390D01*
X204438333Y-97038390D02*
X204390714Y-96990771D01*
X204390714Y-96990771D02*
X204343095Y-96895533D01*
X204343095Y-96895533D02*
X204343095Y-96800295D01*
X204343095Y-96800295D02*
X204390714Y-96705057D01*
X204390714Y-96705057D02*
X204438333Y-96657438D01*
X204438333Y-96657438D02*
X204533571Y-96609819D01*
X204533571Y-96609819D02*
X204771666Y-96609819D01*
X204771666Y-96609819D02*
X204914523Y-96657438D01*
X205866904Y-97609819D02*
X205295476Y-97609819D01*
X205581190Y-97609819D02*
X205581190Y-96609819D01*
X205581190Y-96609819D02*
X205485952Y-96752676D01*
X205485952Y-96752676D02*
X205390714Y-96847914D01*
X205390714Y-96847914D02*
X205295476Y-96895533D01*
X205724762Y-102154819D02*
X206296190Y-102154819D01*
X206010476Y-103154819D02*
X206010476Y-102154819D01*
X207105714Y-103154819D02*
X206629524Y-103154819D01*
X206629524Y-103154819D02*
X206629524Y-102154819D01*
X207391429Y-102250057D02*
X207439048Y-102202438D01*
X207439048Y-102202438D02*
X207534286Y-102154819D01*
X207534286Y-102154819D02*
X207772381Y-102154819D01*
X207772381Y-102154819D02*
X207867619Y-102202438D01*
X207867619Y-102202438D02*
X207915238Y-102250057D01*
X207915238Y-102250057D02*
X207962857Y-102345295D01*
X207962857Y-102345295D02*
X207962857Y-102440533D01*
X207962857Y-102440533D02*
X207915238Y-102583390D01*
X207915238Y-102583390D02*
X207343810Y-103154819D01*
X207343810Y-103154819D02*
X207962857Y-103154819D01*
X208343810Y-102250057D02*
X208391429Y-102202438D01*
X208391429Y-102202438D02*
X208486667Y-102154819D01*
X208486667Y-102154819D02*
X208724762Y-102154819D01*
X208724762Y-102154819D02*
X208820000Y-102202438D01*
X208820000Y-102202438D02*
X208867619Y-102250057D01*
X208867619Y-102250057D02*
X208915238Y-102345295D01*
X208915238Y-102345295D02*
X208915238Y-102440533D01*
X208915238Y-102440533D02*
X208867619Y-102583390D01*
X208867619Y-102583390D02*
X208296191Y-103154819D01*
X208296191Y-103154819D02*
X208915238Y-103154819D01*
X209248572Y-102154819D02*
X209867619Y-102154819D01*
X209867619Y-102154819D02*
X209534286Y-102535771D01*
X209534286Y-102535771D02*
X209677143Y-102535771D01*
X209677143Y-102535771D02*
X209772381Y-102583390D01*
X209772381Y-102583390D02*
X209820000Y-102631009D01*
X209820000Y-102631009D02*
X209867619Y-102726247D01*
X209867619Y-102726247D02*
X209867619Y-102964342D01*
X209867619Y-102964342D02*
X209820000Y-103059580D01*
X209820000Y-103059580D02*
X209772381Y-103107200D01*
X209772381Y-103107200D02*
X209677143Y-103154819D01*
X209677143Y-103154819D02*
X209391429Y-103154819D01*
X209391429Y-103154819D02*
X209296191Y-103107200D01*
X209296191Y-103107200D02*
X209248572Y-103059580D01*
X210486667Y-102154819D02*
X210581905Y-102154819D01*
X210581905Y-102154819D02*
X210677143Y-102202438D01*
X210677143Y-102202438D02*
X210724762Y-102250057D01*
X210724762Y-102250057D02*
X210772381Y-102345295D01*
X210772381Y-102345295D02*
X210820000Y-102535771D01*
X210820000Y-102535771D02*
X210820000Y-102773866D01*
X210820000Y-102773866D02*
X210772381Y-102964342D01*
X210772381Y-102964342D02*
X210724762Y-103059580D01*
X210724762Y-103059580D02*
X210677143Y-103107200D01*
X210677143Y-103107200D02*
X210581905Y-103154819D01*
X210581905Y-103154819D02*
X210486667Y-103154819D01*
X210486667Y-103154819D02*
X210391429Y-103107200D01*
X210391429Y-103107200D02*
X210343810Y-103059580D01*
X210343810Y-103059580D02*
X210296191Y-102964342D01*
X210296191Y-102964342D02*
X210248572Y-102773866D01*
X210248572Y-102773866D02*
X210248572Y-102535771D01*
X210248572Y-102535771D02*
X210296191Y-102345295D01*
X210296191Y-102345295D02*
X210343810Y-102250057D01*
X210343810Y-102250057D02*
X210391429Y-102202438D01*
X210391429Y-102202438D02*
X210486667Y-102154819D01*
D14*
X202897619Y-112334318D02*
X202474285Y-111729556D01*
X202171904Y-112334318D02*
X202171904Y-111064318D01*
X202171904Y-111064318D02*
X202655714Y-111064318D01*
X202655714Y-111064318D02*
X202776666Y-111124794D01*
X202776666Y-111124794D02*
X202837143Y-111185270D01*
X202837143Y-111185270D02*
X202897619Y-111306222D01*
X202897619Y-111306222D02*
X202897619Y-111487651D01*
X202897619Y-111487651D02*
X202837143Y-111608603D01*
X202837143Y-111608603D02*
X202776666Y-111669080D01*
X202776666Y-111669080D02*
X202655714Y-111729556D01*
X202655714Y-111729556D02*
X202171904Y-111729556D01*
X203441904Y-111669080D02*
X203865238Y-111669080D01*
X204046666Y-112334318D02*
X203441904Y-112334318D01*
X203441904Y-112334318D02*
X203441904Y-111064318D01*
X203441904Y-111064318D02*
X204046666Y-111064318D01*
X204530476Y-111971461D02*
X205135238Y-111971461D01*
X204409524Y-112334318D02*
X204832857Y-111064318D01*
X204832857Y-111064318D02*
X205256191Y-112334318D01*
X205679523Y-112334318D02*
X205679523Y-111064318D01*
X205679523Y-111064318D02*
X205981904Y-111064318D01*
X205981904Y-111064318D02*
X206163333Y-111124794D01*
X206163333Y-111124794D02*
X206284285Y-111245746D01*
X206284285Y-111245746D02*
X206344762Y-111366699D01*
X206344762Y-111366699D02*
X206405238Y-111608603D01*
X206405238Y-111608603D02*
X206405238Y-111790032D01*
X206405238Y-111790032D02*
X206344762Y-112031937D01*
X206344762Y-112031937D02*
X206284285Y-112152889D01*
X206284285Y-112152889D02*
X206163333Y-112273842D01*
X206163333Y-112273842D02*
X205981904Y-112334318D01*
X205981904Y-112334318D02*
X205679523Y-112334318D01*
X208280000Y-112818127D02*
X208219523Y-112757651D01*
X208219523Y-112757651D02*
X208098571Y-112576222D01*
X208098571Y-112576222D02*
X208038095Y-112455270D01*
X208038095Y-112455270D02*
X207977619Y-112273842D01*
X207977619Y-112273842D02*
X207917142Y-111971461D01*
X207917142Y-111971461D02*
X207917142Y-111729556D01*
X207917142Y-111729556D02*
X207977619Y-111427175D01*
X207977619Y-111427175D02*
X208038095Y-111245746D01*
X208038095Y-111245746D02*
X208098571Y-111124794D01*
X208098571Y-111124794D02*
X208219523Y-110943365D01*
X208219523Y-110943365D02*
X208280000Y-110882889D01*
X208763809Y-112334318D02*
X208763809Y-111064318D01*
X208763809Y-111064318D02*
X209066190Y-111064318D01*
X209066190Y-111064318D02*
X209247619Y-111124794D01*
X209247619Y-111124794D02*
X209368571Y-111245746D01*
X209368571Y-111245746D02*
X209429048Y-111366699D01*
X209429048Y-111366699D02*
X209489524Y-111608603D01*
X209489524Y-111608603D02*
X209489524Y-111790032D01*
X209489524Y-111790032D02*
X209429048Y-112031937D01*
X209429048Y-112031937D02*
X209368571Y-112152889D01*
X209368571Y-112152889D02*
X209247619Y-112273842D01*
X209247619Y-112273842D02*
X209066190Y-112334318D01*
X209066190Y-112334318D02*
X208763809Y-112334318D01*
X210275714Y-111064318D02*
X210517619Y-111064318D01*
X210517619Y-111064318D02*
X210638571Y-111124794D01*
X210638571Y-111124794D02*
X210759524Y-111245746D01*
X210759524Y-111245746D02*
X210820000Y-111487651D01*
X210820000Y-111487651D02*
X210820000Y-111910984D01*
X210820000Y-111910984D02*
X210759524Y-112152889D01*
X210759524Y-112152889D02*
X210638571Y-112273842D01*
X210638571Y-112273842D02*
X210517619Y-112334318D01*
X210517619Y-112334318D02*
X210275714Y-112334318D01*
X210275714Y-112334318D02*
X210154762Y-112273842D01*
X210154762Y-112273842D02*
X210033809Y-112152889D01*
X210033809Y-112152889D02*
X209973333Y-111910984D01*
X209973333Y-111910984D02*
X209973333Y-111487651D01*
X209973333Y-111487651D02*
X210033809Y-111245746D01*
X210033809Y-111245746D02*
X210154762Y-111124794D01*
X210154762Y-111124794D02*
X210275714Y-111064318D01*
X211243333Y-111064318D02*
X211545714Y-112334318D01*
X211545714Y-112334318D02*
X211787619Y-111427175D01*
X211787619Y-111427175D02*
X212029524Y-112334318D01*
X212029524Y-112334318D02*
X212331905Y-111064318D01*
X212815714Y-112334318D02*
X212815714Y-111064318D01*
X212815714Y-111064318D02*
X213541429Y-112334318D01*
X213541429Y-112334318D02*
X213541429Y-111064318D01*
X214025238Y-112818127D02*
X214085714Y-112757651D01*
X214085714Y-112757651D02*
X214206667Y-112576222D01*
X214206667Y-112576222D02*
X214267143Y-112455270D01*
X214267143Y-112455270D02*
X214327619Y-112273842D01*
X214327619Y-112273842D02*
X214388095Y-111971461D01*
X214388095Y-111971461D02*
X214388095Y-111729556D01*
X214388095Y-111729556D02*
X214327619Y-111427175D01*
X214327619Y-111427175D02*
X214267143Y-111245746D01*
X214267143Y-111245746D02*
X214206667Y-111124794D01*
X214206667Y-111124794D02*
X214085714Y-110943365D01*
X214085714Y-110943365D02*
X214025238Y-110882889D01*
X203109285Y-108524318D02*
X203411666Y-109794318D01*
X203411666Y-109794318D02*
X203653571Y-108887175D01*
X203653571Y-108887175D02*
X203895476Y-109794318D01*
X203895476Y-109794318D02*
X204197857Y-108524318D01*
X205407381Y-109794318D02*
X204984047Y-109189556D01*
X204681666Y-109794318D02*
X204681666Y-108524318D01*
X204681666Y-108524318D02*
X205165476Y-108524318D01*
X205165476Y-108524318D02*
X205286428Y-108584794D01*
X205286428Y-108584794D02*
X205346905Y-108645270D01*
X205346905Y-108645270D02*
X205407381Y-108766222D01*
X205407381Y-108766222D02*
X205407381Y-108947651D01*
X205407381Y-108947651D02*
X205346905Y-109068603D01*
X205346905Y-109068603D02*
X205286428Y-109129080D01*
X205286428Y-109129080D02*
X205165476Y-109189556D01*
X205165476Y-109189556D02*
X204681666Y-109189556D01*
X205951666Y-109794318D02*
X205951666Y-108524318D01*
X206375000Y-108524318D02*
X207100714Y-108524318D01*
X206737857Y-109794318D02*
X206737857Y-108524318D01*
X207524047Y-109129080D02*
X207947381Y-109129080D01*
X208128809Y-109794318D02*
X207524047Y-109794318D01*
X207524047Y-109794318D02*
X207524047Y-108524318D01*
X207524047Y-108524318D02*
X208128809Y-108524318D01*
X210003572Y-110278127D02*
X209943095Y-110217651D01*
X209943095Y-110217651D02*
X209822143Y-110036222D01*
X209822143Y-110036222D02*
X209761667Y-109915270D01*
X209761667Y-109915270D02*
X209701191Y-109733842D01*
X209701191Y-109733842D02*
X209640714Y-109431461D01*
X209640714Y-109431461D02*
X209640714Y-109189556D01*
X209640714Y-109189556D02*
X209701191Y-108887175D01*
X209701191Y-108887175D02*
X209761667Y-108705746D01*
X209761667Y-108705746D02*
X209822143Y-108584794D01*
X209822143Y-108584794D02*
X209943095Y-108403365D01*
X209943095Y-108403365D02*
X210003572Y-108342889D01*
X210487381Y-108524318D02*
X210487381Y-109552413D01*
X210487381Y-109552413D02*
X210547858Y-109673365D01*
X210547858Y-109673365D02*
X210608334Y-109733842D01*
X210608334Y-109733842D02*
X210729286Y-109794318D01*
X210729286Y-109794318D02*
X210971191Y-109794318D01*
X210971191Y-109794318D02*
X211092143Y-109733842D01*
X211092143Y-109733842D02*
X211152620Y-109673365D01*
X211152620Y-109673365D02*
X211213096Y-109552413D01*
X211213096Y-109552413D02*
X211213096Y-108524318D01*
X211817857Y-109794318D02*
X211817857Y-108524318D01*
X211817857Y-108524318D02*
X212301667Y-108524318D01*
X212301667Y-108524318D02*
X212422619Y-108584794D01*
X212422619Y-108584794D02*
X212483096Y-108645270D01*
X212483096Y-108645270D02*
X212543572Y-108766222D01*
X212543572Y-108766222D02*
X212543572Y-108947651D01*
X212543572Y-108947651D02*
X212483096Y-109068603D01*
X212483096Y-109068603D02*
X212422619Y-109129080D01*
X212422619Y-109129080D02*
X212301667Y-109189556D01*
X212301667Y-109189556D02*
X211817857Y-109189556D01*
X212966905Y-110278127D02*
X213027381Y-110217651D01*
X213027381Y-110217651D02*
X213148334Y-110036222D01*
X213148334Y-110036222D02*
X213208810Y-109915270D01*
X213208810Y-109915270D02*
X213269286Y-109733842D01*
X213269286Y-109733842D02*
X213329762Y-109431461D01*
X213329762Y-109431461D02*
X213329762Y-109189556D01*
X213329762Y-109189556D02*
X213269286Y-108887175D01*
X213269286Y-108887175D02*
X213208810Y-108705746D01*
X213208810Y-108705746D02*
X213148334Y-108584794D01*
X213148334Y-108584794D02*
X213027381Y-108403365D01*
X213027381Y-108403365D02*
X212966905Y-108342889D01*
D16*
%TO.C,SW1*%
X128445000Y-121475000D02*
X128445000Y-119135000D01*
X129275000Y-123305000D02*
X133615000Y-123305000D01*
X133615000Y-117305000D02*
X129275000Y-117305000D01*
X134445000Y-119135000D02*
X134445000Y-121475000D01*
D13*
X126315000Y-117993000D02*
G75*
G03*
X126115000Y-117993000I-100000J0D01*
G01*
X126115000Y-117993000D02*
G75*
G03*
X126315000Y-117993000I100000J0D01*
G01*
D17*
%TO.C,R4*%
X145574000Y-115978000D02*
X152114000Y-115978000D01*
X145574000Y-116308000D02*
X145574000Y-115978000D01*
X145574000Y-118388000D02*
X145574000Y-118718000D01*
X145574000Y-118718000D02*
X152114000Y-118718000D01*
X152114000Y-115978000D02*
X152114000Y-116308000D01*
X152114000Y-118718000D02*
X152114000Y-118388000D01*
D18*
%TO.C,RV1*%
X78930500Y-113842800D02*
X88709500Y-113842800D01*
X78930500Y-123621800D02*
X78930500Y-113842800D01*
X88709500Y-113842800D02*
X88709500Y-123621800D01*
X88709500Y-123621800D02*
X78930500Y-123621800D01*
X81407000Y-119761000D02*
G75*
G03*
X81153000Y-119761000I-127000J0D01*
G01*
X81153000Y-119761000D02*
G75*
G03*
X81407000Y-119761000I127000J0D01*
G01*
D17*
%TO.C,R2*%
X165195000Y-113638000D02*
X158655000Y-113638000D01*
X165195000Y-113308000D02*
X165195000Y-113638000D01*
X165195000Y-111228000D02*
X165195000Y-110898000D01*
X165195000Y-110898000D02*
X158655000Y-110898000D01*
X158655000Y-113638000D02*
X158655000Y-113308000D01*
X158655000Y-110898000D02*
X158655000Y-111228000D01*
%TO.C,C1*%
X153495000Y-113638000D02*
X153495000Y-113323000D01*
X153495000Y-113638000D02*
X148555000Y-113638000D01*
X153495000Y-111213000D02*
X153495000Y-110898000D01*
X153495000Y-110898000D02*
X148555000Y-110898000D01*
X148555000Y-113638000D02*
X148555000Y-113323000D01*
X148555000Y-111213000D02*
X148555000Y-110898000D01*
%TO.C,D1*%
X109560000Y-120049000D02*
X109560000Y-120205000D01*
X109560000Y-122365000D02*
X109560000Y-122521000D01*
X112792334Y-120206392D02*
G75*
G03*
X109560001Y-120049485I-1672334J-1078608D01*
G01*
X112161129Y-120205164D02*
G75*
G03*
X110079040Y-120205001I-1041129J-1079836D01*
G01*
X110079040Y-122364999D02*
G75*
G03*
X112161129Y-122364836I1040960J1079999D01*
G01*
X109560001Y-122520515D02*
G75*
G03*
X112792334Y-122363608I1559999J1235515D01*
G01*
%TO.C,D4*%
X210530000Y-79409000D02*
X210530000Y-79565000D01*
X210530000Y-81725000D02*
X210530000Y-81881000D01*
X213762334Y-79566392D02*
G75*
G03*
X210530001Y-79409485I-1672334J-1078608D01*
G01*
X213131129Y-79565164D02*
G75*
G03*
X211049040Y-79565001I-1041129J-1079836D01*
G01*
X211049040Y-81724999D02*
G75*
G03*
X213131129Y-81724836I1040960J1079999D01*
G01*
X210530001Y-81880515D02*
G75*
G03*
X213762334Y-81723608I1559999J1235515D01*
G01*
%TO.C,RN2*%
X113835000Y-49660000D02*
X113835000Y-46860000D01*
X113835000Y-46860000D02*
X90635000Y-46860000D01*
X111125000Y-49660000D02*
X111125000Y-46860000D01*
X90635000Y-49660000D02*
X113835000Y-49660000D01*
X90635000Y-46860000D02*
X90635000Y-49660000D01*
%TO.C,J1*%
X78206600Y-53501600D02*
X116366600Y-53501600D01*
X78206600Y-53501600D02*
X78206600Y-50841600D01*
X116366600Y-53501600D02*
X116366600Y-50841600D01*
X75606600Y-52171600D02*
X75606600Y-50841600D01*
X75606600Y-50841600D02*
X76936600Y-50841600D01*
X78206600Y-50841600D02*
X116366600Y-50841600D01*
D16*
%TO.C,SW2*%
X159560000Y-121660000D02*
X159560000Y-119320000D01*
X160390000Y-123490000D02*
X164730000Y-123490000D01*
X164730000Y-117490000D02*
X160390000Y-117490000D01*
X165560000Y-119320000D02*
X165560000Y-121660000D01*
D13*
X157430000Y-118178000D02*
G75*
G03*
X157230000Y-118178000I-100000J0D01*
G01*
X157230000Y-118178000D02*
G75*
G03*
X157430000Y-118178000I100000J0D01*
G01*
D16*
%TO.C,J2*%
X214286000Y-75715000D02*
X213186000Y-75715000D01*
X218236000Y-75715000D02*
X216986000Y-75715000D01*
X218236000Y-75715000D02*
X218236000Y-66775000D01*
X214286000Y-66775000D02*
X213186000Y-66775000D01*
X218236000Y-66775000D02*
X216986000Y-66775000D01*
D17*
%TO.C,C2*%
X212782000Y-62838000D02*
X212782000Y-62523000D01*
X212782000Y-62838000D02*
X207842000Y-62838000D01*
X212782000Y-60413000D02*
X212782000Y-60098000D01*
X212782000Y-60098000D02*
X207842000Y-60098000D01*
X207842000Y-62838000D02*
X207842000Y-62523000D01*
X207842000Y-60413000D02*
X207842000Y-60098000D01*
D19*
%TO.C,D3*%
X173431400Y-96044800D02*
X173931400Y-96044800D01*
X173431400Y-96044800D02*
X173431400Y-95544800D01*
X193269400Y-95660800D02*
X192769400Y-95660800D01*
X193273400Y-95656800D02*
X193273400Y-95156800D01*
X183621400Y-92744800D02*
X183621400Y-91044800D01*
X183221400Y-91044800D02*
X183621400Y-90544800D01*
X183621400Y-91044800D02*
X183221400Y-91044800D01*
X183621400Y-91044800D02*
X184021400Y-91044800D01*
X183621400Y-90544800D02*
X184021400Y-91044800D01*
X183121400Y-90444800D02*
X184021400Y-90444800D01*
X183621400Y-90344800D02*
X183621400Y-88844800D01*
X193273400Y-86008800D02*
X193273400Y-86508800D01*
X193273400Y-86008800D02*
X192773400Y-86008800D01*
X173431400Y-85644800D02*
X173431400Y-86144800D01*
X173431400Y-85644800D02*
X173931400Y-85644800D01*
D17*
%TO.C,D2*%
X146086000Y-123930000D02*
X146086000Y-123774000D01*
X146086000Y-121614000D02*
X146086000Y-121458000D01*
X142853666Y-123772608D02*
G75*
G03*
X146085999Y-123929515I1672334J1078608D01*
G01*
X143484871Y-123773836D02*
G75*
G03*
X145566960Y-123773999I1041129J1079836D01*
G01*
X145566960Y-121614001D02*
G75*
G03*
X143484871Y-121614164I-1040960J-1079999D01*
G01*
X146085999Y-121458485D02*
G75*
G03*
X142853666Y-121615392I-1559999J-1235515D01*
G01*
%TO.C,R1*%
X123920000Y-121385000D02*
X117380000Y-121385000D01*
X123920000Y-121055000D02*
X123920000Y-121385000D01*
X123920000Y-118975000D02*
X123920000Y-118645000D01*
X123920000Y-118645000D02*
X117380000Y-118645000D01*
X117380000Y-121385000D02*
X117380000Y-121055000D01*
X117380000Y-118645000D02*
X117380000Y-118975000D01*
%TO.C,R5*%
X195020000Y-98000000D02*
X201560000Y-98000000D01*
X195020000Y-98330000D02*
X195020000Y-98000000D01*
X195020000Y-100410000D02*
X195020000Y-100740000D01*
X195020000Y-100740000D02*
X201560000Y-100740000D01*
X201560000Y-98000000D02*
X201560000Y-98330000D01*
X201560000Y-100740000D02*
X201560000Y-100410000D01*
%TO.C,D6*%
X196560000Y-103539000D02*
X196560000Y-103695000D01*
X196560000Y-105855000D02*
X196560000Y-106011000D01*
X199792334Y-103696392D02*
G75*
G03*
X196560001Y-103539485I-1672334J-1078608D01*
G01*
X199161129Y-103695164D02*
G75*
G03*
X197079040Y-103695001I-1041129J-1079836D01*
G01*
X197079040Y-105854999D02*
G75*
G03*
X199161129Y-105854836I1040960J1079999D01*
G01*
X196560001Y-106010515D02*
G75*
G03*
X199792334Y-105853608I1559999J1235515D01*
G01*
%TO.C,R8*%
X206470000Y-67410000D02*
X199930000Y-67410000D01*
X206470000Y-67080000D02*
X206470000Y-67410000D01*
X206470000Y-65000000D02*
X206470000Y-64670000D01*
X206470000Y-64670000D02*
X199930000Y-64670000D01*
X199930000Y-67410000D02*
X199930000Y-67080000D01*
X199930000Y-64670000D02*
X199930000Y-65000000D01*
D18*
%TO.C,RV2*%
X91630500Y-113842800D02*
X101409500Y-113842800D01*
X91630500Y-123621800D02*
X91630500Y-113842800D01*
X101409500Y-113842800D02*
X101409500Y-123621800D01*
X101409500Y-123621800D02*
X91630500Y-123621800D01*
X94107000Y-119761000D02*
G75*
G03*
X93853000Y-119761000I-127000J0D01*
G01*
X93853000Y-119761000D02*
G75*
G03*
X94107000Y-119761000I127000J0D01*
G01*
D16*
%TO.C,SW3*%
X172565000Y-108265000D02*
X172565000Y-119065000D01*
X172565000Y-119065000D02*
X194465000Y-119065000D01*
X194465000Y-108265000D02*
X172565000Y-108265000D01*
X194465000Y-119065000D02*
X194465000Y-108265000D01*
D13*
X171865000Y-117365000D02*
G75*
G03*
X171665000Y-117365000I-100000J0D01*
G01*
X171665000Y-117365000D02*
G75*
G03*
X171865000Y-117365000I100000J0D01*
G01*
D17*
%TO.C,R9*%
X149384000Y-122074000D02*
X155924000Y-122074000D01*
X149384000Y-122404000D02*
X149384000Y-122074000D01*
X149384000Y-124484000D02*
X149384000Y-124814000D01*
X149384000Y-124814000D02*
X155924000Y-124814000D01*
X155924000Y-122074000D02*
X155924000Y-122404000D01*
X155924000Y-124814000D02*
X155924000Y-124484000D01*
%TO.C,R7*%
X206470000Y-78205000D02*
X199930000Y-78205000D01*
X206470000Y-77875000D02*
X206470000Y-78205000D01*
X206470000Y-75795000D02*
X206470000Y-75465000D01*
X206470000Y-75465000D02*
X199930000Y-75465000D01*
X199930000Y-78205000D02*
X199930000Y-77875000D01*
X199930000Y-75465000D02*
X199930000Y-75795000D01*
%TO.C,R3*%
X117380000Y-113485000D02*
X123920000Y-113485000D01*
X117380000Y-113815000D02*
X117380000Y-113485000D01*
X117380000Y-115895000D02*
X117380000Y-116225000D01*
X117380000Y-116225000D02*
X123920000Y-116225000D01*
X123920000Y-113485000D02*
X123920000Y-113815000D01*
X123920000Y-116225000D02*
X123920000Y-115895000D01*
%TO.C,RN1*%
X170734600Y-81764400D02*
X170734600Y-84564400D01*
X170734600Y-84564400D02*
X193934600Y-84564400D01*
X173444600Y-81764400D02*
X173444600Y-84564400D01*
X193934600Y-81764400D02*
X170734600Y-81764400D01*
X193934600Y-84564400D02*
X193934600Y-81764400D01*
%TO.C,R6*%
X199930000Y-80545000D02*
X206470000Y-80545000D01*
X199930000Y-80875000D02*
X199930000Y-80545000D01*
X199930000Y-82955000D02*
X199930000Y-83285000D01*
X199930000Y-83285000D02*
X206470000Y-83285000D01*
X206470000Y-80545000D02*
X206470000Y-80875000D01*
X206470000Y-83285000D02*
X206470000Y-82955000D01*
D19*
%TO.C,S1*%
X204820000Y-99200000D02*
X211820000Y-99200000D01*
X204820000Y-106200000D02*
X204820000Y-99200000D01*
D13*
X206220000Y-106700000D02*
X206220000Y-106700000D01*
X206420000Y-106700000D02*
X206420000Y-106700000D01*
D19*
X211820000Y-99200000D02*
X211820000Y-106200000D01*
X211820000Y-106200000D02*
X204820000Y-106200000D01*
D13*
X206420000Y-106700000D02*
G75*
G03*
X206220000Y-106700000I-100000J0D01*
G01*
X206220000Y-106700000D02*
G75*
G03*
X206420000Y-106700000I100000J0D01*
G01*
%TD*%
M02*
