%TF.GenerationSoftware,KiCad,Pcbnew,7.0.10*%
%TF.CreationDate,2024-03-20T22:31:54-07:00*%
%TF.ProjectId,hd44780_tutorial,68643434-3738-4305-9f74-75746f726961,1.1*%
%TF.SameCoordinates,Original*%
%TF.FileFunction,Copper,L1,Top*%
%TF.FilePolarity,Positive*%
%FSLAX46Y46*%
G04 Gerber Fmt 4.6, Leading zero omitted, Abs format (unit mm)*
G04 Created by KiCad (PCBNEW 7.0.10) date 2024-03-20 22:31:54*
%MOMM*%
%LPD*%
G01*
G04 APERTURE LIST*
%TA.AperFunction,SMDPad,CuDef*%
%ADD10R,1.150000X0.700000*%
%TD*%
%TA.AperFunction,SMDPad,CuDef*%
%ADD11R,1.150000X0.800000*%
%TD*%
%TA.AperFunction,SMDPad,CuDef*%
%ADD12R,1.150000X0.900000*%
%TD*%
%TA.AperFunction,ComponentPad*%
%ADD13O,2.000000X1.000000*%
%TD*%
%TA.AperFunction,ComponentPad*%
%ADD14R,1.508000X1.508000*%
%TD*%
%TA.AperFunction,ComponentPad*%
%ADD15C,1.508000*%
%TD*%
%TA.AperFunction,ComponentPad*%
%ADD16C,1.600000*%
%TD*%
%TA.AperFunction,ComponentPad*%
%ADD17O,1.600000X1.600000*%
%TD*%
%TA.AperFunction,ComponentPad*%
%ADD18C,1.320800*%
%TD*%
%TA.AperFunction,ComponentPad*%
%ADD19R,1.320800X1.320800*%
%TD*%
%TA.AperFunction,ComponentPad*%
%ADD20R,1.800000X1.800000*%
%TD*%
%TA.AperFunction,ComponentPad*%
%ADD21C,1.800000*%
%TD*%
%TA.AperFunction,ComponentPad*%
%ADD22R,1.600000X1.600000*%
%TD*%
%TA.AperFunction,ComponentPad*%
%ADD23R,1.700000X1.700000*%
%TD*%
%TA.AperFunction,ComponentPad*%
%ADD24O,1.700000X1.700000*%
%TD*%
%TA.AperFunction,ComponentPad*%
%ADD25C,1.700000*%
%TD*%
%TA.AperFunction,ComponentPad*%
%ADD26C,1.300000*%
%TD*%
%TA.AperFunction,ViaPad*%
%ADD27C,0.800000*%
%TD*%
%TA.AperFunction,Conductor*%
%ADD28C,0.500000*%
%TD*%
%TA.AperFunction,Conductor*%
%ADD29C,0.250000*%
%TD*%
G04 APERTURE END LIST*
D10*
%TO.P,J2,A5,CC1*%
%TO.N,Net-(J2-CC1)*%
X211831000Y-71745000D03*
D11*
%TO.P,J2,A9,V-BUS*%
%TO.N,+5V*%
X211831000Y-69725000D03*
D12*
%TO.P,J2,A12,GND*%
%TO.N,GND*%
X211831000Y-68495000D03*
D10*
%TO.P,J2,B5,CC2*%
%TO.N,Net-(J2-CC2)*%
X211831000Y-70745000D03*
D11*
%TO.P,J2,B9,V-BUS__1*%
%TO.N,+5V*%
X211831000Y-72765000D03*
D12*
%TO.P,J2,B12,GND__1*%
%TO.N,GND*%
X211831000Y-73995000D03*
D13*
%TO.P,J2,S1,SHIELD*%
%TO.N,unconnected-(J2-SHIELD-PadS1)*%
X211836000Y-75565000D03*
%TO.P,J2,S2,SHIELD__1*%
%TO.N,unconnected-(J2-SHIELD__1-PadS2)*%
X211836000Y-66925000D03*
%TO.P,J2,S3,SHIELD__2*%
%TO.N,unconnected-(J2-SHIELD__2-PadS3)*%
X215636000Y-75565000D03*
%TO.P,J2,S4,SHIELD__3*%
%TO.N,unconnected-(J2-SHIELD__3-PadS4)*%
X215636000Y-66925000D03*
%TD*%
D14*
%TO.P,SW1,1*%
%TO.N,GND*%
X128195000Y-118055000D03*
D15*
%TO.P,SW1,2*%
X134695000Y-118055000D03*
%TO.P,SW1,3*%
%TO.N,/RS*%
X128195000Y-122555000D03*
%TO.P,SW1,4*%
X134695000Y-122555000D03*
%TD*%
D16*
%TO.P,R4,1*%
%TO.N,GND*%
X145034000Y-117348000D03*
D17*
%TO.P,R4,2*%
%TO.N,Net-(D2-A)*%
X152654000Y-117348000D03*
%TD*%
D18*
%TO.P,RV1,1,1*%
%TO.N,unconnected-(RV1-Pad1)*%
X81280000Y-118745000D03*
D19*
%TO.P,RV1,2,2*%
%TO.N,/V0*%
X83820000Y-121285000D03*
%TO.P,RV1,3,3*%
%TO.N,GND*%
X86360000Y-118745000D03*
%TD*%
D16*
%TO.P,R2,1*%
%TO.N,Net-(D2-A)*%
X165735000Y-112268000D03*
D17*
%TO.P,R2,2*%
%TO.N,/E*%
X158115000Y-112268000D03*
%TD*%
D16*
%TO.P,C1,1*%
%TO.N,/E*%
X153525000Y-112268000D03*
%TO.P,C1,2*%
%TO.N,GND*%
X148525000Y-112268000D03*
%TD*%
D20*
%TO.P,D1,1,K*%
%TO.N,GND*%
X109850000Y-121285000D03*
D21*
%TO.P,D1,2,A*%
%TO.N,Net-(D1-A)*%
X112390000Y-121285000D03*
%TD*%
D20*
%TO.P,D4,1,K*%
%TO.N,Net-(D4-K)*%
X210820000Y-80645000D03*
D21*
%TO.P,D4,2,A*%
%TO.N,+5V*%
X213360000Y-80645000D03*
%TD*%
D22*
%TO.P,RN2,1,common*%
%TO.N,GND*%
X112395000Y-48260000D03*
D17*
%TO.P,RN2,2,R1*%
%TO.N,/D7*%
X109855000Y-48260000D03*
%TO.P,RN2,3,R2*%
%TO.N,/D6*%
X107315000Y-48260000D03*
%TO.P,RN2,4,R3*%
%TO.N,/D5*%
X104775000Y-48260000D03*
%TO.P,RN2,5,R4*%
%TO.N,/D4*%
X102235000Y-48260000D03*
%TO.P,RN2,6,R5*%
%TO.N,/D3*%
X99695000Y-48260000D03*
%TO.P,RN2,7,R6*%
%TO.N,/D2*%
X97155000Y-48260000D03*
%TO.P,RN2,8,R7*%
%TO.N,/D1*%
X94615000Y-48260000D03*
%TO.P,RN2,9,R8*%
%TO.N,/D0*%
X92075000Y-48260000D03*
%TD*%
D23*
%TO.P,J1,1,Pin_1*%
%TO.N,GND*%
X76936600Y-52171600D03*
D24*
%TO.P,J1,2,Pin_2*%
%TO.N,+5V*%
X79476600Y-52171600D03*
%TO.P,J1,3,Pin_3*%
%TO.N,/V0*%
X82016600Y-52171600D03*
%TO.P,J1,4,Pin_4*%
%TO.N,/RS*%
X84556600Y-52171600D03*
%TO.P,J1,5,Pin_5*%
%TO.N,/RW*%
X87096600Y-52171600D03*
%TO.P,J1,6,Pin_6*%
%TO.N,/E*%
X89636600Y-52171600D03*
%TO.P,J1,7,Pin_7*%
%TO.N,/D0*%
X92176600Y-52171600D03*
%TO.P,J1,8,Pin_8*%
%TO.N,/D1*%
X94716600Y-52171600D03*
%TO.P,J1,9,Pin_9*%
%TO.N,/D2*%
X97256600Y-52171600D03*
%TO.P,J1,10,Pin_10*%
%TO.N,/D3*%
X99796600Y-52171600D03*
%TO.P,J1,11,Pin_11*%
%TO.N,/D4*%
X102336600Y-52171600D03*
%TO.P,J1,12,Pin_12*%
%TO.N,/D5*%
X104876600Y-52171600D03*
%TO.P,J1,13,Pin_13*%
%TO.N,/D6*%
X107416600Y-52171600D03*
%TO.P,J1,14,Pin_14*%
%TO.N,/D7*%
X109956600Y-52171600D03*
%TO.P,J1,15,Pin_15*%
%TO.N,+5V*%
X112496600Y-52171600D03*
%TO.P,J1,16,Pin_16*%
%TO.N,/BLK*%
X115036600Y-52171600D03*
%TD*%
D14*
%TO.P,SW2,1*%
%TO.N,+5V*%
X159310000Y-118240000D03*
D15*
%TO.P,SW2,2*%
X165810000Y-118240000D03*
%TO.P,SW2,3*%
%TO.N,Net-(D2-A)*%
X159310000Y-122740000D03*
%TO.P,SW2,4*%
X165810000Y-122740000D03*
%TD*%
D16*
%TO.P,C2,1*%
%TO.N,+5V*%
X212812000Y-61468000D03*
%TO.P,C2,2*%
%TO.N,GND*%
X207812000Y-61468000D03*
%TD*%
D23*
%TO.P,D3,1*%
%TO.N,/D7*%
X174731400Y-94644800D03*
D25*
%TO.P,D3,2*%
%TO.N,/D6*%
X177271400Y-94644800D03*
%TO.P,D3,3*%
%TO.N,/D5*%
X179811400Y-94644800D03*
%TO.P,D3,4*%
%TO.N,/D4*%
X182351400Y-94644800D03*
%TO.P,D3,5*%
%TO.N,/D3*%
X184891400Y-94644800D03*
%TO.P,D3,6*%
%TO.N,/D2*%
X187431400Y-94644800D03*
%TO.P,D3,7*%
%TO.N,/D1*%
X189971400Y-94644800D03*
%TO.P,D3,8*%
%TO.N,/D0*%
X192511400Y-94644800D03*
%TO.P,D3,9*%
%TO.N,Net-(RN1-R8)*%
X192511400Y-87024800D03*
%TO.P,D3,10*%
%TO.N,Net-(RN1-R7)*%
X189971400Y-87024800D03*
%TO.P,D3,11*%
%TO.N,Net-(RN1-R6)*%
X187431400Y-87024800D03*
%TO.P,D3,12*%
%TO.N,Net-(RN1-R5)*%
X184891400Y-87024800D03*
%TO.P,D3,13*%
%TO.N,Net-(RN1-R4)*%
X182351400Y-87024800D03*
%TO.P,D3,14*%
%TO.N,Net-(RN1-R3)*%
X179811400Y-87024800D03*
%TO.P,D3,15*%
%TO.N,Net-(RN1-R2)*%
X177271400Y-87024800D03*
%TO.P,D3,16*%
%TO.N,Net-(RN1-R1)*%
X174731400Y-87024800D03*
%TD*%
D20*
%TO.P,D2,1,K*%
%TO.N,Net-(D2-K)*%
X145796000Y-122694000D03*
D21*
%TO.P,D2,2,A*%
%TO.N,Net-(D2-A)*%
X143256000Y-122694000D03*
%TD*%
D16*
%TO.P,R1,1*%
%TO.N,/RS*%
X124460000Y-120015000D03*
D17*
%TO.P,R1,2*%
%TO.N,Net-(D1-A)*%
X116840000Y-120015000D03*
%TD*%
D16*
%TO.P,R5,1*%
%TO.N,GND*%
X194480000Y-99370000D03*
D17*
%TO.P,R5,2*%
%TO.N,Net-(D6-K)*%
X202100000Y-99370000D03*
%TD*%
D20*
%TO.P,D6,1,K*%
%TO.N,Net-(D6-K)*%
X196850000Y-104775000D03*
D21*
%TO.P,D6,2,A*%
%TO.N,/RW*%
X199390000Y-104775000D03*
%TD*%
D16*
%TO.P,R8,1*%
%TO.N,Net-(J2-CC2)*%
X207010000Y-66040000D03*
D17*
%TO.P,R8,2*%
%TO.N,GND*%
X199390000Y-66040000D03*
%TD*%
D18*
%TO.P,RV2,1,1*%
%TO.N,unconnected-(RV2-Pad1)*%
X93980000Y-118745000D03*
D19*
%TO.P,RV2,2,2*%
%TO.N,/BLK*%
X96520000Y-121285000D03*
%TO.P,RV2,3,3*%
%TO.N,GND*%
X99060000Y-118745000D03*
%TD*%
D14*
%TO.P,SW3,1A*%
%TO.N,Net-(S1-NC_1)*%
X174625000Y-117475000D03*
D15*
%TO.P,SW3,1B*%
%TO.N,/D7*%
X174625000Y-109855000D03*
%TO.P,SW3,2A*%
%TO.N,Net-(S1-NC_1)*%
X177165000Y-117475000D03*
%TO.P,SW3,2B*%
%TO.N,/D6*%
X177165000Y-109855000D03*
%TO.P,SW3,3A*%
%TO.N,Net-(S1-NC_1)*%
X179705000Y-117475000D03*
%TO.P,SW3,3B*%
%TO.N,/D5*%
X179705000Y-109855000D03*
%TO.P,SW3,4A*%
%TO.N,Net-(S1-NC_1)*%
X182245000Y-117475000D03*
%TO.P,SW3,4B*%
%TO.N,/D4*%
X182245000Y-109855000D03*
%TO.P,SW3,5A*%
%TO.N,Net-(S1-NC_1)*%
X184785000Y-117475000D03*
%TO.P,SW3,5B*%
%TO.N,/D3*%
X184785000Y-109855000D03*
%TO.P,SW3,6A*%
%TO.N,Net-(S1-NC_1)*%
X187325000Y-117475000D03*
%TO.P,SW3,6B*%
%TO.N,/D2*%
X187325000Y-109855000D03*
%TO.P,SW3,7A*%
%TO.N,Net-(S1-NC_1)*%
X189865000Y-117475000D03*
%TO.P,SW3,7B*%
%TO.N,/D1*%
X189865000Y-109855000D03*
%TO.P,SW3,8A*%
%TO.N,Net-(S1-NC_1)*%
X192405000Y-117475000D03*
%TO.P,SW3,8B*%
%TO.N,/D0*%
X192405000Y-109855000D03*
%TD*%
D16*
%TO.P,R9,1*%
%TO.N,Net-(D2-K)*%
X148844000Y-123444000D03*
D17*
%TO.P,R9,2*%
%TO.N,GND*%
X156464000Y-123444000D03*
%TD*%
D16*
%TO.P,R7,1*%
%TO.N,Net-(J2-CC1)*%
X207010000Y-76835000D03*
D17*
%TO.P,R7,2*%
%TO.N,GND*%
X199390000Y-76835000D03*
%TD*%
D16*
%TO.P,R3,1*%
%TO.N,/RS*%
X116840000Y-114855000D03*
D17*
%TO.P,R3,2*%
%TO.N,+5V*%
X124460000Y-114855000D03*
%TD*%
D22*
%TO.P,RN1,1,common*%
%TO.N,GND*%
X172174600Y-83164400D03*
D17*
%TO.P,RN1,2,R1*%
%TO.N,Net-(RN1-R1)*%
X174714600Y-83164400D03*
%TO.P,RN1,3,R2*%
%TO.N,Net-(RN1-R2)*%
X177254600Y-83164400D03*
%TO.P,RN1,4,R3*%
%TO.N,Net-(RN1-R3)*%
X179794600Y-83164400D03*
%TO.P,RN1,5,R4*%
%TO.N,Net-(RN1-R4)*%
X182334600Y-83164400D03*
%TO.P,RN1,6,R5*%
%TO.N,Net-(RN1-R5)*%
X184874600Y-83164400D03*
%TO.P,RN1,7,R6*%
%TO.N,Net-(RN1-R6)*%
X187414600Y-83164400D03*
%TO.P,RN1,8,R7*%
%TO.N,Net-(RN1-R7)*%
X189954600Y-83164400D03*
%TO.P,RN1,9,R8*%
%TO.N,Net-(RN1-R8)*%
X192494600Y-83164400D03*
%TD*%
D16*
%TO.P,R6,1*%
%TO.N,GND*%
X199390000Y-81915000D03*
D17*
%TO.P,R6,2*%
%TO.N,Net-(D4-K)*%
X207010000Y-81915000D03*
%TD*%
D26*
%TO.P,S1,1,NC_1*%
%TO.N,Net-(S1-NC_1)*%
X206320000Y-105200000D03*
%TO.P,S1,2,COM_1*%
%TO.N,+5V*%
X208320000Y-105200000D03*
%TO.P,S1,3,NO_1*%
%TO.N,unconnected-(S1-NO_1-Pad3)*%
X210320000Y-105200000D03*
%TO.P,S1,4,NC_2*%
%TO.N,GND*%
X206320000Y-100200000D03*
%TO.P,S1,5,COM_2*%
%TO.N,/RW*%
X208320000Y-100200000D03*
%TO.P,S1,6,NO_2*%
%TO.N,+5V*%
X210320000Y-100200000D03*
%TD*%
D27*
%TO.N,GND*%
X212852000Y-73660000D03*
X212852000Y-68580000D03*
%TO.N,/D7*%
X174740000Y-90040400D03*
X174673800Y-97284800D03*
%TO.N,/D6*%
X177320000Y-90410000D03*
X177311400Y-97284800D03*
%TO.N,/D5*%
X179790000Y-90860000D03*
X179830000Y-97284800D03*
%TO.N,/D4*%
X182340000Y-91390400D03*
X182371400Y-97284800D03*
%TO.N,/D3*%
X184940000Y-91840400D03*
X184941400Y-97284800D03*
%TO.N,/D2*%
X187481400Y-97284800D03*
X187390000Y-92290000D03*
%TO.N,/D1*%
X190051400Y-97284800D03*
X189960000Y-92740400D03*
%TO.N,/D0*%
X192521400Y-97284800D03*
%TO.N,+5V*%
X208915000Y-72880000D03*
X208915000Y-69850000D03*
%TO.N,/E*%
X93550974Y-55207675D03*
%TD*%
D28*
%TO.N,GND*%
X212517000Y-73995000D02*
X211831000Y-73995000D01*
X212725000Y-68580000D02*
X212640000Y-68495000D01*
X212852000Y-68580000D02*
X212725000Y-68580000D01*
X212640000Y-68495000D02*
X211831000Y-68495000D01*
X212852000Y-73660000D02*
X212517000Y-73995000D01*
D29*
%TO.N,Net-(D1-A)*%
X116840000Y-120015000D02*
X115570000Y-121285000D01*
X115570000Y-121285000D02*
X112390000Y-121285000D01*
%TO.N,/D7*%
X134775172Y-90315400D02*
X109956600Y-65496828D01*
X174465000Y-90315400D02*
X134775172Y-90315400D01*
X109956600Y-65496828D02*
X109956600Y-52171600D01*
X174673800Y-109806200D02*
X174625000Y-109855000D01*
X174740000Y-90040400D02*
X174465000Y-90315400D01*
X174673800Y-97284800D02*
X174673800Y-109806200D01*
%TO.N,/D6*%
X177311400Y-97284800D02*
X177311400Y-109708600D01*
X134588776Y-90765400D02*
X107416600Y-63593224D01*
X177311400Y-109708600D02*
X177165000Y-109855000D01*
X176964600Y-90765400D02*
X134588776Y-90765400D01*
X107416600Y-63593224D02*
X107416600Y-52171600D01*
X177320000Y-90410000D02*
X176964600Y-90765400D01*
%TO.N,/D5*%
X179830000Y-109730000D02*
X179705000Y-109855000D01*
X179434600Y-91215400D02*
X134402380Y-91215400D01*
X104876600Y-61689620D02*
X104876600Y-52171600D01*
X179790000Y-90860000D02*
X179434600Y-91215400D01*
X134402380Y-91215400D02*
X104876600Y-61689620D01*
X179830000Y-97284800D02*
X179830000Y-109730000D01*
%TO.N,/D4*%
X182340000Y-91390400D02*
X182065000Y-91665400D01*
X182371400Y-97284800D02*
X182361400Y-97294800D01*
X102336600Y-59786016D02*
X102336600Y-52171600D01*
X134215984Y-91665400D02*
X102336600Y-59786016D01*
X182361400Y-109738600D02*
X182245000Y-109855000D01*
X182361400Y-97294800D02*
X182361400Y-109738600D01*
X182065000Y-91665400D02*
X134215984Y-91665400D01*
%TO.N,/D3*%
X184931400Y-107614800D02*
X184941400Y-107624800D01*
X184941400Y-107624800D02*
X184941400Y-109698600D01*
X134029588Y-92115400D02*
X99796600Y-57882412D01*
X184940000Y-91840400D02*
X184665000Y-92115400D01*
X184941400Y-97284800D02*
X184941400Y-107604800D01*
X99796600Y-57882412D02*
X99796600Y-52171600D01*
X184941400Y-107604800D02*
X184931400Y-107614800D01*
X184665000Y-92115400D02*
X134029588Y-92115400D01*
X184941400Y-109698600D02*
X184785000Y-109855000D01*
%TO.N,/D2*%
X187325000Y-109855000D02*
X187471400Y-109708600D01*
X187114600Y-92565400D02*
X133843192Y-92565400D01*
X187471400Y-109708600D02*
X187471400Y-97294800D01*
X97256600Y-55978808D02*
X97256600Y-52171600D01*
X133843192Y-92565400D02*
X97256600Y-55978808D01*
X187390000Y-92290000D02*
X187114600Y-92565400D01*
X187471400Y-97294800D02*
X187481400Y-97284800D01*
%TO.N,/D1*%
X190041400Y-109678600D02*
X190041400Y-97294800D01*
X189685000Y-93015400D02*
X133656796Y-93015400D01*
X189960000Y-92740400D02*
X189685000Y-93015400D01*
X189865000Y-109855000D02*
X190041400Y-109678600D01*
X190041400Y-97294800D02*
X190051400Y-97284800D01*
X133656796Y-93015400D02*
X94716600Y-54075204D01*
X94716600Y-54075204D02*
X94716600Y-52171600D01*
%TO.N,/D0*%
X133470400Y-93465400D02*
X191340200Y-93465400D01*
X92176600Y-52171600D02*
X133470400Y-93465400D01*
X191340200Y-93465400D02*
X192520000Y-94645200D01*
X192405000Y-109855000D02*
X192511400Y-109748600D01*
X192511400Y-97294800D02*
X192521400Y-97284800D01*
X192511400Y-109748600D02*
X192511400Y-97294800D01*
%TO.N,Net-(RN1-R8)*%
X192494600Y-86999800D02*
X192520000Y-87025200D01*
X192494600Y-83164400D02*
X192494600Y-86999800D01*
%TO.N,Net-(RN1-R7)*%
X189954600Y-83164400D02*
X189954600Y-86999800D01*
X189954600Y-86999800D02*
X189980000Y-87025200D01*
%TO.N,Net-(RN1-R6)*%
X187414600Y-83164400D02*
X187414600Y-86999800D01*
X187414600Y-86999800D02*
X187440000Y-87025200D01*
%TO.N,Net-(RN1-R5)*%
X184874600Y-83164400D02*
X184874600Y-86999800D01*
X184874600Y-86999800D02*
X184900000Y-87025200D01*
%TO.N,Net-(RN1-R4)*%
X182334600Y-86999800D02*
X182360000Y-87025200D01*
X182334600Y-83164400D02*
X182334600Y-86999800D01*
%TO.N,Net-(RN1-R3)*%
X179794600Y-83164400D02*
X179794600Y-86999800D01*
X179794600Y-86999800D02*
X179820000Y-87025200D01*
%TO.N,Net-(RN1-R2)*%
X177280000Y-83189800D02*
X177254600Y-83164400D01*
X177280000Y-87025200D02*
X177280000Y-83189800D01*
%TO.N,Net-(RN1-R1)*%
X174714600Y-83164400D02*
X174714600Y-86999800D01*
X174714600Y-86999800D02*
X174740000Y-87025200D01*
%TO.N,Net-(D4-K)*%
X207010000Y-81915000D02*
X208275000Y-81915000D01*
X209545000Y-80645000D02*
X210820000Y-80645000D01*
X208275000Y-81915000D02*
X209545000Y-80645000D01*
D28*
%TO.N,+5V*%
X213360000Y-80645000D02*
X213360000Y-88160000D01*
X208915000Y-69850000D02*
X208915000Y-65365000D01*
X213360000Y-88160000D02*
X207540000Y-93980000D01*
X164084000Y-50800000D02*
X80848200Y-50800000D01*
X112496600Y-52171600D02*
X112496600Y-50800000D01*
X208915000Y-72880000D02*
X208915000Y-76200000D01*
X208915000Y-65365000D02*
X212812000Y-61468000D01*
X210320000Y-102735000D02*
X208320000Y-104735000D01*
X209040000Y-69725000D02*
X211831000Y-69725000D01*
X155878000Y-114808000D02*
X159310000Y-118240000D01*
X210320000Y-100200000D02*
X210320000Y-102735000D01*
X209030000Y-72765000D02*
X211831000Y-72765000D01*
X159310000Y-118240000D02*
X165810000Y-118240000D01*
X112496600Y-50800000D02*
X112460800Y-50764200D01*
X124460000Y-114855000D02*
X124507000Y-114808000D01*
X208915000Y-76200000D02*
X213360000Y-80645000D01*
X208320000Y-112355000D02*
X208320000Y-105200000D01*
X210320000Y-97036000D02*
X164084000Y-50800000D01*
X200787000Y-119888000D02*
X208320000Y-112355000D01*
X167640000Y-119888000D02*
X200787000Y-119888000D01*
X165810000Y-118240000D02*
X165992000Y-118240000D01*
X208915000Y-69850000D02*
X209040000Y-69725000D01*
X165992000Y-118240000D02*
X167640000Y-119888000D01*
X80848200Y-50800000D02*
X79476600Y-52171600D01*
X210320000Y-100200000D02*
X210320000Y-97036000D01*
X208915000Y-72880000D02*
X209030000Y-72765000D01*
X124507000Y-114808000D02*
X155878000Y-114808000D01*
X208320000Y-104735000D02*
X208320000Y-105200000D01*
D29*
%TO.N,/RS*%
X128195000Y-122555000D02*
X134695000Y-122555000D01*
X88317675Y-55932675D02*
X84556600Y-52171600D01*
X93904279Y-55932675D02*
X88317675Y-55932675D01*
X116840000Y-114855000D02*
X116840000Y-78868396D01*
X116840000Y-78868396D02*
X93904279Y-55932675D01*
%TO.N,/RW*%
X135588604Y-96220000D02*
X93808604Y-54440000D01*
X200025000Y-104775000D02*
X203835000Y-100965000D01*
X202300000Y-96220000D02*
X204340000Y-96220000D01*
X203835000Y-97755000D02*
X202300000Y-96220000D01*
X199390000Y-104775000D02*
X200025000Y-104775000D01*
X202300000Y-96220000D02*
X135588604Y-96220000D01*
X89365000Y-54440000D02*
X87096600Y-52171600D01*
X204340000Y-96220000D02*
X208320000Y-100200000D01*
X93808604Y-54440000D02*
X89365000Y-54440000D01*
X203835000Y-100965000D02*
X203835000Y-97755000D01*
%TO.N,Net-(J2-CC1)*%
X207010000Y-72898000D02*
X208163000Y-71745000D01*
X207010000Y-76835000D02*
X207010000Y-72898000D01*
X208163000Y-71745000D02*
X211831000Y-71745000D01*
%TO.N,Net-(J2-CC2)*%
X207010000Y-66040000D02*
X207010000Y-69342000D01*
X207010000Y-69342000D02*
X208413000Y-70745000D01*
X208413000Y-70745000D02*
X211831000Y-70745000D01*
%TO.N,Net-(D2-K)*%
X148844000Y-123444000D02*
X146546000Y-123444000D01*
X146546000Y-123444000D02*
X145796000Y-122694000D01*
%TO.N,Net-(D6-K)*%
X202100000Y-99525000D02*
X202100000Y-99370000D01*
X196850000Y-104775000D02*
X202100000Y-99525000D01*
%TO.N,/E*%
X93550974Y-55207675D02*
X93815675Y-55207675D01*
X93815675Y-55207675D02*
X136652000Y-98044000D01*
X153416000Y-112268000D02*
X153525000Y-112268000D01*
X153525000Y-112268000D02*
X158115000Y-112268000D01*
X139192000Y-98044000D02*
X153416000Y-112268000D01*
X136652000Y-98044000D02*
X139192000Y-98044000D01*
%TO.N,Net-(S1-NC_1)*%
X174625000Y-117475000D02*
X196065000Y-117475000D01*
X206320000Y-107220000D02*
X206320000Y-105200000D01*
X196065000Y-117475000D02*
X206320000Y-107220000D01*
%TD*%
M02*
