%TF.GenerationSoftware,KiCad,Pcbnew,7.0.10*%
%TF.CreationDate,2024-03-19T08:54:03-07:00*%
%TF.ProjectId,hd44780_tutorial,68643434-3738-4305-9f74-75746f726961,1.1*%
%TF.SameCoordinates,Original*%
%TF.FileFunction,AssemblyDrawing,Top*%
%FSLAX46Y46*%
G04 Gerber Fmt 4.6, Leading zero omitted, Abs format (unit mm)*
G04 Created by KiCad (PCBNEW 7.0.10) date 2024-03-19 08:54:03*
%MOMM*%
%LPD*%
G01*
G04 APERTURE LIST*
%ADD10C,0.150000*%
%ADD11C,0.141000*%
%ADD12C,0.254000*%
%ADD13C,0.127000*%
%ADD14C,0.200000*%
%ADD15C,0.100000*%
%ADD16C,0.025400*%
G04 APERTURE END LIST*
D10*
X148677333Y-117802819D02*
X148344000Y-117326628D01*
X148105905Y-117802819D02*
X148105905Y-116802819D01*
X148105905Y-116802819D02*
X148486857Y-116802819D01*
X148486857Y-116802819D02*
X148582095Y-116850438D01*
X148582095Y-116850438D02*
X148629714Y-116898057D01*
X148629714Y-116898057D02*
X148677333Y-116993295D01*
X148677333Y-116993295D02*
X148677333Y-117136152D01*
X148677333Y-117136152D02*
X148629714Y-117231390D01*
X148629714Y-117231390D02*
X148582095Y-117279009D01*
X148582095Y-117279009D02*
X148486857Y-117326628D01*
X148486857Y-117326628D02*
X148105905Y-117326628D01*
X149534476Y-117136152D02*
X149534476Y-117802819D01*
X149296381Y-116755200D02*
X149058286Y-117469485D01*
X149058286Y-117469485D02*
X149677333Y-117469485D01*
X83224761Y-119187119D02*
X82891428Y-118710928D01*
X82653333Y-119187119D02*
X82653333Y-118187119D01*
X82653333Y-118187119D02*
X83034285Y-118187119D01*
X83034285Y-118187119D02*
X83129523Y-118234738D01*
X83129523Y-118234738D02*
X83177142Y-118282357D01*
X83177142Y-118282357D02*
X83224761Y-118377595D01*
X83224761Y-118377595D02*
X83224761Y-118520452D01*
X83224761Y-118520452D02*
X83177142Y-118615690D01*
X83177142Y-118615690D02*
X83129523Y-118663309D01*
X83129523Y-118663309D02*
X83034285Y-118710928D01*
X83034285Y-118710928D02*
X82653333Y-118710928D01*
X83510476Y-118187119D02*
X83843809Y-119187119D01*
X83843809Y-119187119D02*
X84177142Y-118187119D01*
X85034285Y-119187119D02*
X84462857Y-119187119D01*
X84748571Y-119187119D02*
X84748571Y-118187119D01*
X84748571Y-118187119D02*
X84653333Y-118329976D01*
X84653333Y-118329976D02*
X84558095Y-118425214D01*
X84558095Y-118425214D02*
X84462857Y-118472833D01*
X161758333Y-112722819D02*
X161425000Y-112246628D01*
X161186905Y-112722819D02*
X161186905Y-111722819D01*
X161186905Y-111722819D02*
X161567857Y-111722819D01*
X161567857Y-111722819D02*
X161663095Y-111770438D01*
X161663095Y-111770438D02*
X161710714Y-111818057D01*
X161710714Y-111818057D02*
X161758333Y-111913295D01*
X161758333Y-111913295D02*
X161758333Y-112056152D01*
X161758333Y-112056152D02*
X161710714Y-112151390D01*
X161710714Y-112151390D02*
X161663095Y-112199009D01*
X161663095Y-112199009D02*
X161567857Y-112246628D01*
X161567857Y-112246628D02*
X161186905Y-112246628D01*
X162139286Y-111818057D02*
X162186905Y-111770438D01*
X162186905Y-111770438D02*
X162282143Y-111722819D01*
X162282143Y-111722819D02*
X162520238Y-111722819D01*
X162520238Y-111722819D02*
X162615476Y-111770438D01*
X162615476Y-111770438D02*
X162663095Y-111818057D01*
X162663095Y-111818057D02*
X162710714Y-111913295D01*
X162710714Y-111913295D02*
X162710714Y-112008533D01*
X162710714Y-112008533D02*
X162663095Y-112151390D01*
X162663095Y-112151390D02*
X162091667Y-112722819D01*
X162091667Y-112722819D02*
X162710714Y-112722819D01*
D11*
X150858333Y-112606006D02*
X150810714Y-112650768D01*
X150810714Y-112650768D02*
X150667857Y-112695529D01*
X150667857Y-112695529D02*
X150572619Y-112695529D01*
X150572619Y-112695529D02*
X150429762Y-112650768D01*
X150429762Y-112650768D02*
X150334524Y-112561244D01*
X150334524Y-112561244D02*
X150286905Y-112471720D01*
X150286905Y-112471720D02*
X150239286Y-112292672D01*
X150239286Y-112292672D02*
X150239286Y-112158387D01*
X150239286Y-112158387D02*
X150286905Y-111979339D01*
X150286905Y-111979339D02*
X150334524Y-111889815D01*
X150334524Y-111889815D02*
X150429762Y-111800291D01*
X150429762Y-111800291D02*
X150572619Y-111755529D01*
X150572619Y-111755529D02*
X150667857Y-111755529D01*
X150667857Y-111755529D02*
X150810714Y-111800291D01*
X150810714Y-111800291D02*
X150858333Y-111845053D01*
X151810714Y-112695529D02*
X151239286Y-112695529D01*
X151525000Y-112695529D02*
X151525000Y-111755529D01*
X151525000Y-111755529D02*
X151429762Y-111889815D01*
X151429762Y-111889815D02*
X151334524Y-111979339D01*
X151334524Y-111979339D02*
X151239286Y-112024101D01*
D10*
X101544523Y-48714819D02*
X101211190Y-48238628D01*
X100973095Y-48714819D02*
X100973095Y-47714819D01*
X100973095Y-47714819D02*
X101354047Y-47714819D01*
X101354047Y-47714819D02*
X101449285Y-47762438D01*
X101449285Y-47762438D02*
X101496904Y-47810057D01*
X101496904Y-47810057D02*
X101544523Y-47905295D01*
X101544523Y-47905295D02*
X101544523Y-48048152D01*
X101544523Y-48048152D02*
X101496904Y-48143390D01*
X101496904Y-48143390D02*
X101449285Y-48191009D01*
X101449285Y-48191009D02*
X101354047Y-48238628D01*
X101354047Y-48238628D02*
X100973095Y-48238628D01*
X101973095Y-48714819D02*
X101973095Y-47714819D01*
X101973095Y-47714819D02*
X102544523Y-48714819D01*
X102544523Y-48714819D02*
X102544523Y-47714819D01*
X102973095Y-47810057D02*
X103020714Y-47762438D01*
X103020714Y-47762438D02*
X103115952Y-47714819D01*
X103115952Y-47714819D02*
X103354047Y-47714819D01*
X103354047Y-47714819D02*
X103449285Y-47762438D01*
X103449285Y-47762438D02*
X103496904Y-47810057D01*
X103496904Y-47810057D02*
X103544523Y-47905295D01*
X103544523Y-47905295D02*
X103544523Y-48000533D01*
X103544523Y-48000533D02*
X103496904Y-48143390D01*
X103496904Y-48143390D02*
X102925476Y-48714819D01*
X102925476Y-48714819D02*
X103544523Y-48714819D01*
X81685265Y-49070419D02*
X81209075Y-49070419D01*
X81209075Y-49070419D02*
X81209075Y-48070419D01*
X82590027Y-48975180D02*
X82542408Y-49022800D01*
X82542408Y-49022800D02*
X82399551Y-49070419D01*
X82399551Y-49070419D02*
X82304313Y-49070419D01*
X82304313Y-49070419D02*
X82161456Y-49022800D01*
X82161456Y-49022800D02*
X82066218Y-48927561D01*
X82066218Y-48927561D02*
X82018599Y-48832323D01*
X82018599Y-48832323D02*
X81970980Y-48641847D01*
X81970980Y-48641847D02*
X81970980Y-48498990D01*
X81970980Y-48498990D02*
X82018599Y-48308514D01*
X82018599Y-48308514D02*
X82066218Y-48213276D01*
X82066218Y-48213276D02*
X82161456Y-48118038D01*
X82161456Y-48118038D02*
X82304313Y-48070419D01*
X82304313Y-48070419D02*
X82399551Y-48070419D01*
X82399551Y-48070419D02*
X82542408Y-48118038D01*
X82542408Y-48118038D02*
X82590027Y-48165657D01*
X83018599Y-49070419D02*
X83018599Y-48070419D01*
X83018599Y-48070419D02*
X83256694Y-48070419D01*
X83256694Y-48070419D02*
X83399551Y-48118038D01*
X83399551Y-48118038D02*
X83494789Y-48213276D01*
X83494789Y-48213276D02*
X83542408Y-48308514D01*
X83542408Y-48308514D02*
X83590027Y-48498990D01*
X83590027Y-48498990D02*
X83590027Y-48641847D01*
X83590027Y-48641847D02*
X83542408Y-48832323D01*
X83542408Y-48832323D02*
X83494789Y-48927561D01*
X83494789Y-48927561D02*
X83399551Y-49022800D01*
X83399551Y-49022800D02*
X83256694Y-49070419D01*
X83256694Y-49070419D02*
X83018599Y-49070419D01*
X83780504Y-49165657D02*
X84542408Y-49165657D01*
X84732885Y-48165657D02*
X84780504Y-48118038D01*
X84780504Y-48118038D02*
X84875742Y-48070419D01*
X84875742Y-48070419D02*
X85113837Y-48070419D01*
X85113837Y-48070419D02*
X85209075Y-48118038D01*
X85209075Y-48118038D02*
X85256694Y-48165657D01*
X85256694Y-48165657D02*
X85304313Y-48260895D01*
X85304313Y-48260895D02*
X85304313Y-48356133D01*
X85304313Y-48356133D02*
X85256694Y-48498990D01*
X85256694Y-48498990D02*
X84685266Y-49070419D01*
X84685266Y-49070419D02*
X85304313Y-49070419D01*
X85923361Y-48070419D02*
X86018599Y-48070419D01*
X86018599Y-48070419D02*
X86113837Y-48118038D01*
X86113837Y-48118038D02*
X86161456Y-48165657D01*
X86161456Y-48165657D02*
X86209075Y-48260895D01*
X86209075Y-48260895D02*
X86256694Y-48451371D01*
X86256694Y-48451371D02*
X86256694Y-48689466D01*
X86256694Y-48689466D02*
X86209075Y-48879942D01*
X86209075Y-48879942D02*
X86161456Y-48975180D01*
X86161456Y-48975180D02*
X86113837Y-49022800D01*
X86113837Y-49022800D02*
X86018599Y-49070419D01*
X86018599Y-49070419D02*
X85923361Y-49070419D01*
X85923361Y-49070419D02*
X85828123Y-49022800D01*
X85828123Y-49022800D02*
X85780504Y-48975180D01*
X85780504Y-48975180D02*
X85732885Y-48879942D01*
X85732885Y-48879942D02*
X85685266Y-48689466D01*
X85685266Y-48689466D02*
X85685266Y-48451371D01*
X85685266Y-48451371D02*
X85732885Y-48260895D01*
X85732885Y-48260895D02*
X85780504Y-48165657D01*
X85780504Y-48165657D02*
X85828123Y-48118038D01*
X85828123Y-48118038D02*
X85923361Y-48070419D01*
X86875742Y-48070419D02*
X86970980Y-48070419D01*
X86970980Y-48070419D02*
X87066218Y-48118038D01*
X87066218Y-48118038D02*
X87113837Y-48165657D01*
X87113837Y-48165657D02*
X87161456Y-48260895D01*
X87161456Y-48260895D02*
X87209075Y-48451371D01*
X87209075Y-48451371D02*
X87209075Y-48689466D01*
X87209075Y-48689466D02*
X87161456Y-48879942D01*
X87161456Y-48879942D02*
X87113837Y-48975180D01*
X87113837Y-48975180D02*
X87066218Y-49022800D01*
X87066218Y-49022800D02*
X86970980Y-49070419D01*
X86970980Y-49070419D02*
X86875742Y-49070419D01*
X86875742Y-49070419D02*
X86780504Y-49022800D01*
X86780504Y-49022800D02*
X86732885Y-48975180D01*
X86732885Y-48975180D02*
X86685266Y-48879942D01*
X86685266Y-48879942D02*
X86637647Y-48689466D01*
X86637647Y-48689466D02*
X86637647Y-48451371D01*
X86637647Y-48451371D02*
X86685266Y-48260895D01*
X86685266Y-48260895D02*
X86732885Y-48165657D01*
X86732885Y-48165657D02*
X86780504Y-48118038D01*
X86780504Y-48118038D02*
X86875742Y-48070419D01*
X88066218Y-48403752D02*
X88066218Y-49070419D01*
X87828123Y-48022800D02*
X87590028Y-48737085D01*
X87590028Y-48737085D02*
X88209075Y-48737085D01*
X88351933Y-49165657D02*
X89113837Y-49165657D01*
X89351933Y-49070419D02*
X89351933Y-48070419D01*
X89351933Y-48070419D02*
X89732885Y-48070419D01*
X89732885Y-48070419D02*
X89828123Y-48118038D01*
X89828123Y-48118038D02*
X89875742Y-48165657D01*
X89875742Y-48165657D02*
X89923361Y-48260895D01*
X89923361Y-48260895D02*
X89923361Y-48403752D01*
X89923361Y-48403752D02*
X89875742Y-48498990D01*
X89875742Y-48498990D02*
X89828123Y-48546609D01*
X89828123Y-48546609D02*
X89732885Y-48594228D01*
X89732885Y-48594228D02*
X89351933Y-48594228D01*
X90351933Y-49070419D02*
X90351933Y-48403752D01*
X90351933Y-48070419D02*
X90304314Y-48118038D01*
X90304314Y-48118038D02*
X90351933Y-48165657D01*
X90351933Y-48165657D02*
X90399552Y-48118038D01*
X90399552Y-48118038D02*
X90351933Y-48070419D01*
X90351933Y-48070419D02*
X90351933Y-48165657D01*
X90828123Y-48403752D02*
X90828123Y-49070419D01*
X90828123Y-48498990D02*
X90875742Y-48451371D01*
X90875742Y-48451371D02*
X90970980Y-48403752D01*
X90970980Y-48403752D02*
X91113837Y-48403752D01*
X91113837Y-48403752D02*
X91209075Y-48451371D01*
X91209075Y-48451371D02*
X91256694Y-48546609D01*
X91256694Y-48546609D02*
X91256694Y-49070419D01*
X91685266Y-49022800D02*
X91828123Y-49070419D01*
X91828123Y-49070419D02*
X92066218Y-49070419D01*
X92066218Y-49070419D02*
X92161456Y-49022800D01*
X92161456Y-49022800D02*
X92209075Y-48975180D01*
X92209075Y-48975180D02*
X92256694Y-48879942D01*
X92256694Y-48879942D02*
X92256694Y-48784704D01*
X92256694Y-48784704D02*
X92209075Y-48689466D01*
X92209075Y-48689466D02*
X92161456Y-48641847D01*
X92161456Y-48641847D02*
X92066218Y-48594228D01*
X92066218Y-48594228D02*
X91875742Y-48546609D01*
X91875742Y-48546609D02*
X91780504Y-48498990D01*
X91780504Y-48498990D02*
X91732885Y-48451371D01*
X91732885Y-48451371D02*
X91685266Y-48356133D01*
X91685266Y-48356133D02*
X91685266Y-48260895D01*
X91685266Y-48260895D02*
X91732885Y-48165657D01*
X91732885Y-48165657D02*
X91780504Y-48118038D01*
X91780504Y-48118038D02*
X91875742Y-48070419D01*
X91875742Y-48070419D02*
X92113837Y-48070419D01*
X92113837Y-48070419D02*
X92256694Y-48118038D01*
X92828123Y-49070419D02*
X92732885Y-49022800D01*
X92732885Y-49022800D02*
X92685266Y-48975180D01*
X92685266Y-48975180D02*
X92637647Y-48879942D01*
X92637647Y-48879942D02*
X92637647Y-48594228D01*
X92637647Y-48594228D02*
X92685266Y-48498990D01*
X92685266Y-48498990D02*
X92732885Y-48451371D01*
X92732885Y-48451371D02*
X92828123Y-48403752D01*
X92828123Y-48403752D02*
X92970980Y-48403752D01*
X92970980Y-48403752D02*
X93066218Y-48451371D01*
X93066218Y-48451371D02*
X93113837Y-48498990D01*
X93113837Y-48498990D02*
X93161456Y-48594228D01*
X93161456Y-48594228D02*
X93161456Y-48879942D01*
X93161456Y-48879942D02*
X93113837Y-48975180D01*
X93113837Y-48975180D02*
X93066218Y-49022800D01*
X93066218Y-49022800D02*
X92970980Y-49070419D01*
X92970980Y-49070419D02*
X92828123Y-49070419D01*
X94018599Y-49022800D02*
X93923361Y-49070419D01*
X93923361Y-49070419D02*
X93732885Y-49070419D01*
X93732885Y-49070419D02*
X93637647Y-49022800D01*
X93637647Y-49022800D02*
X93590028Y-48975180D01*
X93590028Y-48975180D02*
X93542409Y-48879942D01*
X93542409Y-48879942D02*
X93542409Y-48594228D01*
X93542409Y-48594228D02*
X93590028Y-48498990D01*
X93590028Y-48498990D02*
X93637647Y-48451371D01*
X93637647Y-48451371D02*
X93732885Y-48403752D01*
X93732885Y-48403752D02*
X93923361Y-48403752D01*
X93923361Y-48403752D02*
X94018599Y-48451371D01*
X94447171Y-49070419D02*
X94447171Y-48070419D01*
X94542409Y-48689466D02*
X94828123Y-49070419D01*
X94828123Y-48403752D02*
X94447171Y-48784704D01*
X95637647Y-49022800D02*
X95542409Y-49070419D01*
X95542409Y-49070419D02*
X95351933Y-49070419D01*
X95351933Y-49070419D02*
X95256695Y-49022800D01*
X95256695Y-49022800D02*
X95209076Y-48927561D01*
X95209076Y-48927561D02*
X95209076Y-48546609D01*
X95209076Y-48546609D02*
X95256695Y-48451371D01*
X95256695Y-48451371D02*
X95351933Y-48403752D01*
X95351933Y-48403752D02*
X95542409Y-48403752D01*
X95542409Y-48403752D02*
X95637647Y-48451371D01*
X95637647Y-48451371D02*
X95685266Y-48546609D01*
X95685266Y-48546609D02*
X95685266Y-48641847D01*
X95685266Y-48641847D02*
X95209076Y-48737085D01*
X95970981Y-48403752D02*
X96351933Y-48403752D01*
X96113838Y-48070419D02*
X96113838Y-48927561D01*
X96113838Y-48927561D02*
X96161457Y-49022800D01*
X96161457Y-49022800D02*
X96256695Y-49070419D01*
X96256695Y-49070419D02*
X96351933Y-49070419D01*
X96447172Y-49165657D02*
X97209076Y-49165657D01*
X97970981Y-49070419D02*
X97399553Y-49070419D01*
X97685267Y-49070419D02*
X97685267Y-48070419D01*
X97685267Y-48070419D02*
X97590029Y-48213276D01*
X97590029Y-48213276D02*
X97494791Y-48308514D01*
X97494791Y-48308514D02*
X97399553Y-48356133D01*
X98304315Y-49070419D02*
X98828124Y-48403752D01*
X98304315Y-48403752D02*
X98828124Y-49070419D01*
X99732886Y-49070419D02*
X99161458Y-49070419D01*
X99447172Y-49070419D02*
X99447172Y-48070419D01*
X99447172Y-48070419D02*
X99351934Y-48213276D01*
X99351934Y-48213276D02*
X99256696Y-48308514D01*
X99256696Y-48308514D02*
X99161458Y-48356133D01*
X100590029Y-48070419D02*
X100399553Y-48070419D01*
X100399553Y-48070419D02*
X100304315Y-48118038D01*
X100304315Y-48118038D02*
X100256696Y-48165657D01*
X100256696Y-48165657D02*
X100161458Y-48308514D01*
X100161458Y-48308514D02*
X100113839Y-48498990D01*
X100113839Y-48498990D02*
X100113839Y-48879942D01*
X100113839Y-48879942D02*
X100161458Y-48975180D01*
X100161458Y-48975180D02*
X100209077Y-49022800D01*
X100209077Y-49022800D02*
X100304315Y-49070419D01*
X100304315Y-49070419D02*
X100494791Y-49070419D01*
X100494791Y-49070419D02*
X100590029Y-49022800D01*
X100590029Y-49022800D02*
X100637648Y-48975180D01*
X100637648Y-48975180D02*
X100685267Y-48879942D01*
X100685267Y-48879942D02*
X100685267Y-48641847D01*
X100685267Y-48641847D02*
X100637648Y-48546609D01*
X100637648Y-48546609D02*
X100590029Y-48498990D01*
X100590029Y-48498990D02*
X100494791Y-48451371D01*
X100494791Y-48451371D02*
X100304315Y-48451371D01*
X100304315Y-48451371D02*
X100209077Y-48498990D01*
X100209077Y-48498990D02*
X100161458Y-48546609D01*
X100161458Y-48546609D02*
X100113839Y-48641847D01*
X100875744Y-49165657D02*
X101637648Y-49165657D01*
X101875744Y-49070419D02*
X101875744Y-48070419D01*
X101875744Y-48070419D02*
X102256696Y-48070419D01*
X102256696Y-48070419D02*
X102351934Y-48118038D01*
X102351934Y-48118038D02*
X102399553Y-48165657D01*
X102399553Y-48165657D02*
X102447172Y-48260895D01*
X102447172Y-48260895D02*
X102447172Y-48403752D01*
X102447172Y-48403752D02*
X102399553Y-48498990D01*
X102399553Y-48498990D02*
X102351934Y-48546609D01*
X102351934Y-48546609D02*
X102256696Y-48594228D01*
X102256696Y-48594228D02*
X101875744Y-48594228D01*
X102828125Y-48165657D02*
X102875744Y-48118038D01*
X102875744Y-48118038D02*
X102970982Y-48070419D01*
X102970982Y-48070419D02*
X103209077Y-48070419D01*
X103209077Y-48070419D02*
X103304315Y-48118038D01*
X103304315Y-48118038D02*
X103351934Y-48165657D01*
X103351934Y-48165657D02*
X103399553Y-48260895D01*
X103399553Y-48260895D02*
X103399553Y-48356133D01*
X103399553Y-48356133D02*
X103351934Y-48498990D01*
X103351934Y-48498990D02*
X102780506Y-49070419D01*
X102780506Y-49070419D02*
X103399553Y-49070419D01*
X103828125Y-48975180D02*
X103875744Y-49022800D01*
X103875744Y-49022800D02*
X103828125Y-49070419D01*
X103828125Y-49070419D02*
X103780506Y-49022800D01*
X103780506Y-49022800D02*
X103828125Y-48975180D01*
X103828125Y-48975180D02*
X103828125Y-49070419D01*
X104780505Y-48070419D02*
X104304315Y-48070419D01*
X104304315Y-48070419D02*
X104256696Y-48546609D01*
X104256696Y-48546609D02*
X104304315Y-48498990D01*
X104304315Y-48498990D02*
X104399553Y-48451371D01*
X104399553Y-48451371D02*
X104637648Y-48451371D01*
X104637648Y-48451371D02*
X104732886Y-48498990D01*
X104732886Y-48498990D02*
X104780505Y-48546609D01*
X104780505Y-48546609D02*
X104828124Y-48641847D01*
X104828124Y-48641847D02*
X104828124Y-48879942D01*
X104828124Y-48879942D02*
X104780505Y-48975180D01*
X104780505Y-48975180D02*
X104732886Y-49022800D01*
X104732886Y-49022800D02*
X104637648Y-49070419D01*
X104637648Y-49070419D02*
X104399553Y-49070419D01*
X104399553Y-49070419D02*
X104304315Y-49022800D01*
X104304315Y-49022800D02*
X104256696Y-48975180D01*
X105685267Y-48403752D02*
X105685267Y-49070419D01*
X105447172Y-48022800D02*
X105209077Y-48737085D01*
X105209077Y-48737085D02*
X105828124Y-48737085D01*
X106209077Y-49070419D02*
X106209077Y-48403752D01*
X106209077Y-48498990D02*
X106256696Y-48451371D01*
X106256696Y-48451371D02*
X106351934Y-48403752D01*
X106351934Y-48403752D02*
X106494791Y-48403752D01*
X106494791Y-48403752D02*
X106590029Y-48451371D01*
X106590029Y-48451371D02*
X106637648Y-48546609D01*
X106637648Y-48546609D02*
X106637648Y-49070419D01*
X106637648Y-48546609D02*
X106685267Y-48451371D01*
X106685267Y-48451371D02*
X106780505Y-48403752D01*
X106780505Y-48403752D02*
X106923362Y-48403752D01*
X106923362Y-48403752D02*
X107018601Y-48451371D01*
X107018601Y-48451371D02*
X107066220Y-48546609D01*
X107066220Y-48546609D02*
X107066220Y-49070419D01*
X107542410Y-49070419D02*
X107542410Y-48403752D01*
X107542410Y-48498990D02*
X107590029Y-48451371D01*
X107590029Y-48451371D02*
X107685267Y-48403752D01*
X107685267Y-48403752D02*
X107828124Y-48403752D01*
X107828124Y-48403752D02*
X107923362Y-48451371D01*
X107923362Y-48451371D02*
X107970981Y-48546609D01*
X107970981Y-48546609D02*
X107970981Y-49070419D01*
X107970981Y-48546609D02*
X108018600Y-48451371D01*
X108018600Y-48451371D02*
X108113838Y-48403752D01*
X108113838Y-48403752D02*
X108256695Y-48403752D01*
X108256695Y-48403752D02*
X108351934Y-48451371D01*
X108351934Y-48451371D02*
X108399553Y-48546609D01*
X108399553Y-48546609D02*
X108399553Y-49070419D01*
X108637648Y-49165657D02*
X109399552Y-49165657D01*
X109494791Y-48070419D02*
X109828124Y-49070419D01*
X109828124Y-49070419D02*
X110161457Y-48070419D01*
X110875743Y-49022800D02*
X110780505Y-49070419D01*
X110780505Y-49070419D02*
X110590029Y-49070419D01*
X110590029Y-49070419D02*
X110494791Y-49022800D01*
X110494791Y-49022800D02*
X110447172Y-48927561D01*
X110447172Y-48927561D02*
X110447172Y-48546609D01*
X110447172Y-48546609D02*
X110494791Y-48451371D01*
X110494791Y-48451371D02*
X110590029Y-48403752D01*
X110590029Y-48403752D02*
X110780505Y-48403752D01*
X110780505Y-48403752D02*
X110875743Y-48451371D01*
X110875743Y-48451371D02*
X110923362Y-48546609D01*
X110923362Y-48546609D02*
X110923362Y-48641847D01*
X110923362Y-48641847D02*
X110447172Y-48737085D01*
X111351934Y-49070419D02*
X111351934Y-48403752D01*
X111351934Y-48594228D02*
X111399553Y-48498990D01*
X111399553Y-48498990D02*
X111447172Y-48451371D01*
X111447172Y-48451371D02*
X111542410Y-48403752D01*
X111542410Y-48403752D02*
X111637648Y-48403752D01*
X111828125Y-48403752D02*
X112209077Y-48403752D01*
X111970982Y-48070419D02*
X111970982Y-48927561D01*
X111970982Y-48927561D02*
X112018601Y-49022800D01*
X112018601Y-49022800D02*
X112113839Y-49070419D01*
X112113839Y-49070419D02*
X112209077Y-49070419D01*
X112542411Y-49070419D02*
X112542411Y-48403752D01*
X112542411Y-48070419D02*
X112494792Y-48118038D01*
X112494792Y-48118038D02*
X112542411Y-48165657D01*
X112542411Y-48165657D02*
X112590030Y-48118038D01*
X112590030Y-48118038D02*
X112542411Y-48070419D01*
X112542411Y-48070419D02*
X112542411Y-48165657D01*
X113447172Y-49022800D02*
X113351934Y-49070419D01*
X113351934Y-49070419D02*
X113161458Y-49070419D01*
X113161458Y-49070419D02*
X113066220Y-49022800D01*
X113066220Y-49022800D02*
X113018601Y-48975180D01*
X113018601Y-48975180D02*
X112970982Y-48879942D01*
X112970982Y-48879942D02*
X112970982Y-48594228D01*
X112970982Y-48594228D02*
X113018601Y-48498990D01*
X113018601Y-48498990D02*
X113066220Y-48451371D01*
X113066220Y-48451371D02*
X113161458Y-48403752D01*
X113161458Y-48403752D02*
X113351934Y-48403752D01*
X113351934Y-48403752D02*
X113447172Y-48451371D01*
X114304315Y-49070419D02*
X114304315Y-48546609D01*
X114304315Y-48546609D02*
X114256696Y-48451371D01*
X114256696Y-48451371D02*
X114161458Y-48403752D01*
X114161458Y-48403752D02*
X113970982Y-48403752D01*
X113970982Y-48403752D02*
X113875744Y-48451371D01*
X114304315Y-49022800D02*
X114209077Y-49070419D01*
X114209077Y-49070419D02*
X113970982Y-49070419D01*
X113970982Y-49070419D02*
X113875744Y-49022800D01*
X113875744Y-49022800D02*
X113828125Y-48927561D01*
X113828125Y-48927561D02*
X113828125Y-48832323D01*
X113828125Y-48832323D02*
X113875744Y-48737085D01*
X113875744Y-48737085D02*
X113970982Y-48689466D01*
X113970982Y-48689466D02*
X114209077Y-48689466D01*
X114209077Y-48689466D02*
X114304315Y-48641847D01*
X114923363Y-49070419D02*
X114828125Y-49022800D01*
X114828125Y-49022800D02*
X114780506Y-48927561D01*
X114780506Y-48927561D02*
X114780506Y-48070419D01*
X95653266Y-51626419D02*
X95653266Y-52340704D01*
X95653266Y-52340704D02*
X95605647Y-52483561D01*
X95605647Y-52483561D02*
X95510409Y-52578800D01*
X95510409Y-52578800D02*
X95367552Y-52626419D01*
X95367552Y-52626419D02*
X95272314Y-52626419D01*
X96653266Y-52626419D02*
X96081838Y-52626419D01*
X96367552Y-52626419D02*
X96367552Y-51626419D01*
X96367552Y-51626419D02*
X96272314Y-51769276D01*
X96272314Y-51769276D02*
X96177076Y-51864514D01*
X96177076Y-51864514D02*
X96081838Y-51912133D01*
D11*
X210178667Y-61754572D02*
X210140571Y-61792668D01*
X210140571Y-61792668D02*
X210026286Y-61830763D01*
X210026286Y-61830763D02*
X209950095Y-61830763D01*
X209950095Y-61830763D02*
X209835809Y-61792668D01*
X209835809Y-61792668D02*
X209759619Y-61716477D01*
X209759619Y-61716477D02*
X209721524Y-61640287D01*
X209721524Y-61640287D02*
X209683428Y-61487906D01*
X209683428Y-61487906D02*
X209683428Y-61373620D01*
X209683428Y-61373620D02*
X209721524Y-61221239D01*
X209721524Y-61221239D02*
X209759619Y-61145048D01*
X209759619Y-61145048D02*
X209835809Y-61068858D01*
X209835809Y-61068858D02*
X209950095Y-61030763D01*
X209950095Y-61030763D02*
X210026286Y-61030763D01*
X210026286Y-61030763D02*
X210140571Y-61068858D01*
X210140571Y-61068858D02*
X210178667Y-61106953D01*
X210483428Y-61106953D02*
X210521524Y-61068858D01*
X210521524Y-61068858D02*
X210597714Y-61030763D01*
X210597714Y-61030763D02*
X210788190Y-61030763D01*
X210788190Y-61030763D02*
X210864381Y-61068858D01*
X210864381Y-61068858D02*
X210902476Y-61106953D01*
X210902476Y-61106953D02*
X210940571Y-61183144D01*
X210940571Y-61183144D02*
X210940571Y-61259334D01*
X210940571Y-61259334D02*
X210902476Y-61373620D01*
X210902476Y-61373620D02*
X210445333Y-61830763D01*
X210445333Y-61830763D02*
X210940571Y-61830763D01*
D10*
X205228095Y-55334819D02*
X205228095Y-54334819D01*
X205228095Y-54811009D02*
X205799523Y-54811009D01*
X205799523Y-55334819D02*
X205799523Y-54334819D01*
X206228095Y-54430057D02*
X206275714Y-54382438D01*
X206275714Y-54382438D02*
X206370952Y-54334819D01*
X206370952Y-54334819D02*
X206609047Y-54334819D01*
X206609047Y-54334819D02*
X206704285Y-54382438D01*
X206704285Y-54382438D02*
X206751904Y-54430057D01*
X206751904Y-54430057D02*
X206799523Y-54525295D01*
X206799523Y-54525295D02*
X206799523Y-54620533D01*
X206799523Y-54620533D02*
X206751904Y-54763390D01*
X206751904Y-54763390D02*
X206180476Y-55334819D01*
X206180476Y-55334819D02*
X206799523Y-55334819D01*
X204714285Y-56114819D02*
X204714285Y-55114819D01*
X204714285Y-55114819D02*
X205047618Y-55829104D01*
X205047618Y-55829104D02*
X205380951Y-55114819D01*
X205380951Y-55114819D02*
X205380951Y-56114819D01*
X205999999Y-56114819D02*
X205904761Y-56067200D01*
X205904761Y-56067200D02*
X205857142Y-56019580D01*
X205857142Y-56019580D02*
X205809523Y-55924342D01*
X205809523Y-55924342D02*
X205809523Y-55638628D01*
X205809523Y-55638628D02*
X205857142Y-55543390D01*
X205857142Y-55543390D02*
X205904761Y-55495771D01*
X205904761Y-55495771D02*
X205999999Y-55448152D01*
X205999999Y-55448152D02*
X206142856Y-55448152D01*
X206142856Y-55448152D02*
X206238094Y-55495771D01*
X206238094Y-55495771D02*
X206285713Y-55543390D01*
X206285713Y-55543390D02*
X206333332Y-55638628D01*
X206333332Y-55638628D02*
X206333332Y-55924342D01*
X206333332Y-55924342D02*
X206285713Y-56019580D01*
X206285713Y-56019580D02*
X206238094Y-56067200D01*
X206238094Y-56067200D02*
X206142856Y-56114819D01*
X206142856Y-56114819D02*
X205999999Y-56114819D01*
X207190475Y-55448152D02*
X207190475Y-56114819D01*
X206761904Y-55448152D02*
X206761904Y-55971961D01*
X206761904Y-55971961D02*
X206809523Y-56067200D01*
X206809523Y-56067200D02*
X206904761Y-56114819D01*
X206904761Y-56114819D02*
X207047618Y-56114819D01*
X207047618Y-56114819D02*
X207142856Y-56067200D01*
X207142856Y-56067200D02*
X207190475Y-56019580D01*
X207666666Y-55448152D02*
X207666666Y-56114819D01*
X207666666Y-55543390D02*
X207714285Y-55495771D01*
X207714285Y-55495771D02*
X207809523Y-55448152D01*
X207809523Y-55448152D02*
X207952380Y-55448152D01*
X207952380Y-55448152D02*
X208047618Y-55495771D01*
X208047618Y-55495771D02*
X208095237Y-55591009D01*
X208095237Y-55591009D02*
X208095237Y-56114819D01*
X208428571Y-55448152D02*
X208809523Y-55448152D01*
X208571428Y-55114819D02*
X208571428Y-55971961D01*
X208571428Y-55971961D02*
X208619047Y-56067200D01*
X208619047Y-56067200D02*
X208714285Y-56114819D01*
X208714285Y-56114819D02*
X208809523Y-56114819D01*
X209142857Y-56114819D02*
X209142857Y-55448152D01*
X209142857Y-55114819D02*
X209095238Y-55162438D01*
X209095238Y-55162438D02*
X209142857Y-55210057D01*
X209142857Y-55210057D02*
X209190476Y-55162438D01*
X209190476Y-55162438D02*
X209142857Y-55114819D01*
X209142857Y-55114819D02*
X209142857Y-55210057D01*
X209619047Y-55448152D02*
X209619047Y-56114819D01*
X209619047Y-55543390D02*
X209666666Y-55495771D01*
X209666666Y-55495771D02*
X209761904Y-55448152D01*
X209761904Y-55448152D02*
X209904761Y-55448152D01*
X209904761Y-55448152D02*
X209999999Y-55495771D01*
X209999999Y-55495771D02*
X210047618Y-55591009D01*
X210047618Y-55591009D02*
X210047618Y-56114819D01*
X210952380Y-55448152D02*
X210952380Y-56257676D01*
X210952380Y-56257676D02*
X210904761Y-56352914D01*
X210904761Y-56352914D02*
X210857142Y-56400533D01*
X210857142Y-56400533D02*
X210761904Y-56448152D01*
X210761904Y-56448152D02*
X210619047Y-56448152D01*
X210619047Y-56448152D02*
X210523809Y-56400533D01*
X210952380Y-56067200D02*
X210857142Y-56114819D01*
X210857142Y-56114819D02*
X210666666Y-56114819D01*
X210666666Y-56114819D02*
X210571428Y-56067200D01*
X210571428Y-56067200D02*
X210523809Y-56019580D01*
X210523809Y-56019580D02*
X210476190Y-55924342D01*
X210476190Y-55924342D02*
X210476190Y-55638628D01*
X210476190Y-55638628D02*
X210523809Y-55543390D01*
X210523809Y-55543390D02*
X210571428Y-55495771D01*
X210571428Y-55495771D02*
X210666666Y-55448152D01*
X210666666Y-55448152D02*
X210857142Y-55448152D01*
X210857142Y-55448152D02*
X210952380Y-55495771D01*
X211428571Y-56114819D02*
X211428571Y-55114819D01*
X211428571Y-55591009D02*
X211999999Y-55591009D01*
X211999999Y-56114819D02*
X211999999Y-55114819D01*
X212619047Y-56114819D02*
X212523809Y-56067200D01*
X212523809Y-56067200D02*
X212476190Y-56019580D01*
X212476190Y-56019580D02*
X212428571Y-55924342D01*
X212428571Y-55924342D02*
X212428571Y-55638628D01*
X212428571Y-55638628D02*
X212476190Y-55543390D01*
X212476190Y-55543390D02*
X212523809Y-55495771D01*
X212523809Y-55495771D02*
X212619047Y-55448152D01*
X212619047Y-55448152D02*
X212761904Y-55448152D01*
X212761904Y-55448152D02*
X212857142Y-55495771D01*
X212857142Y-55495771D02*
X212904761Y-55543390D01*
X212904761Y-55543390D02*
X212952380Y-55638628D01*
X212952380Y-55638628D02*
X212952380Y-55924342D01*
X212952380Y-55924342D02*
X212904761Y-56019580D01*
X212904761Y-56019580D02*
X212857142Y-56067200D01*
X212857142Y-56067200D02*
X212761904Y-56114819D01*
X212761904Y-56114819D02*
X212619047Y-56114819D01*
X213523809Y-56114819D02*
X213428571Y-56067200D01*
X213428571Y-56067200D02*
X213380952Y-55971961D01*
X213380952Y-55971961D02*
X213380952Y-55114819D01*
X214285714Y-56067200D02*
X214190476Y-56114819D01*
X214190476Y-56114819D02*
X214000000Y-56114819D01*
X214000000Y-56114819D02*
X213904762Y-56067200D01*
X213904762Y-56067200D02*
X213857143Y-55971961D01*
X213857143Y-55971961D02*
X213857143Y-55591009D01*
X213857143Y-55591009D02*
X213904762Y-55495771D01*
X213904762Y-55495771D02*
X214000000Y-55448152D01*
X214000000Y-55448152D02*
X214190476Y-55448152D01*
X214190476Y-55448152D02*
X214285714Y-55495771D01*
X214285714Y-55495771D02*
X214333333Y-55591009D01*
X214333333Y-55591009D02*
X214333333Y-55686247D01*
X214333333Y-55686247D02*
X213857143Y-55781485D01*
X208738095Y-52414819D02*
X208738095Y-51414819D01*
X208738095Y-51891009D02*
X209309523Y-51891009D01*
X209309523Y-52414819D02*
X209309523Y-51414819D01*
X209738095Y-51510057D02*
X209785714Y-51462438D01*
X209785714Y-51462438D02*
X209880952Y-51414819D01*
X209880952Y-51414819D02*
X210119047Y-51414819D01*
X210119047Y-51414819D02*
X210214285Y-51462438D01*
X210214285Y-51462438D02*
X210261904Y-51510057D01*
X210261904Y-51510057D02*
X210309523Y-51605295D01*
X210309523Y-51605295D02*
X210309523Y-51700533D01*
X210309523Y-51700533D02*
X210261904Y-51843390D01*
X210261904Y-51843390D02*
X209690476Y-52414819D01*
X209690476Y-52414819D02*
X210309523Y-52414819D01*
X71728095Y-55834819D02*
X71728095Y-54834819D01*
X71728095Y-55311009D02*
X72299523Y-55311009D01*
X72299523Y-55834819D02*
X72299523Y-54834819D01*
X73299523Y-55834819D02*
X72728095Y-55834819D01*
X73013809Y-55834819D02*
X73013809Y-54834819D01*
X73013809Y-54834819D02*
X72918571Y-54977676D01*
X72918571Y-54977676D02*
X72823333Y-55072914D01*
X72823333Y-55072914D02*
X72728095Y-55120533D01*
X64804285Y-56584819D02*
X64804285Y-55584819D01*
X64804285Y-55584819D02*
X65137618Y-56299104D01*
X65137618Y-56299104D02*
X65470951Y-55584819D01*
X65470951Y-55584819D02*
X65470951Y-56584819D01*
X66089999Y-56584819D02*
X65994761Y-56537200D01*
X65994761Y-56537200D02*
X65947142Y-56489580D01*
X65947142Y-56489580D02*
X65899523Y-56394342D01*
X65899523Y-56394342D02*
X65899523Y-56108628D01*
X65899523Y-56108628D02*
X65947142Y-56013390D01*
X65947142Y-56013390D02*
X65994761Y-55965771D01*
X65994761Y-55965771D02*
X66089999Y-55918152D01*
X66089999Y-55918152D02*
X66232856Y-55918152D01*
X66232856Y-55918152D02*
X66328094Y-55965771D01*
X66328094Y-55965771D02*
X66375713Y-56013390D01*
X66375713Y-56013390D02*
X66423332Y-56108628D01*
X66423332Y-56108628D02*
X66423332Y-56394342D01*
X66423332Y-56394342D02*
X66375713Y-56489580D01*
X66375713Y-56489580D02*
X66328094Y-56537200D01*
X66328094Y-56537200D02*
X66232856Y-56584819D01*
X66232856Y-56584819D02*
X66089999Y-56584819D01*
X67280475Y-55918152D02*
X67280475Y-56584819D01*
X66851904Y-55918152D02*
X66851904Y-56441961D01*
X66851904Y-56441961D02*
X66899523Y-56537200D01*
X66899523Y-56537200D02*
X66994761Y-56584819D01*
X66994761Y-56584819D02*
X67137618Y-56584819D01*
X67137618Y-56584819D02*
X67232856Y-56537200D01*
X67232856Y-56537200D02*
X67280475Y-56489580D01*
X67756666Y-55918152D02*
X67756666Y-56584819D01*
X67756666Y-56013390D02*
X67804285Y-55965771D01*
X67804285Y-55965771D02*
X67899523Y-55918152D01*
X67899523Y-55918152D02*
X68042380Y-55918152D01*
X68042380Y-55918152D02*
X68137618Y-55965771D01*
X68137618Y-55965771D02*
X68185237Y-56061009D01*
X68185237Y-56061009D02*
X68185237Y-56584819D01*
X68518571Y-55918152D02*
X68899523Y-55918152D01*
X68661428Y-55584819D02*
X68661428Y-56441961D01*
X68661428Y-56441961D02*
X68709047Y-56537200D01*
X68709047Y-56537200D02*
X68804285Y-56584819D01*
X68804285Y-56584819D02*
X68899523Y-56584819D01*
X69232857Y-56584819D02*
X69232857Y-55918152D01*
X69232857Y-55584819D02*
X69185238Y-55632438D01*
X69185238Y-55632438D02*
X69232857Y-55680057D01*
X69232857Y-55680057D02*
X69280476Y-55632438D01*
X69280476Y-55632438D02*
X69232857Y-55584819D01*
X69232857Y-55584819D02*
X69232857Y-55680057D01*
X69709047Y-55918152D02*
X69709047Y-56584819D01*
X69709047Y-56013390D02*
X69756666Y-55965771D01*
X69756666Y-55965771D02*
X69851904Y-55918152D01*
X69851904Y-55918152D02*
X69994761Y-55918152D01*
X69994761Y-55918152D02*
X70089999Y-55965771D01*
X70089999Y-55965771D02*
X70137618Y-56061009D01*
X70137618Y-56061009D02*
X70137618Y-56584819D01*
X71042380Y-55918152D02*
X71042380Y-56727676D01*
X71042380Y-56727676D02*
X70994761Y-56822914D01*
X70994761Y-56822914D02*
X70947142Y-56870533D01*
X70947142Y-56870533D02*
X70851904Y-56918152D01*
X70851904Y-56918152D02*
X70709047Y-56918152D01*
X70709047Y-56918152D02*
X70613809Y-56870533D01*
X71042380Y-56537200D02*
X70947142Y-56584819D01*
X70947142Y-56584819D02*
X70756666Y-56584819D01*
X70756666Y-56584819D02*
X70661428Y-56537200D01*
X70661428Y-56537200D02*
X70613809Y-56489580D01*
X70613809Y-56489580D02*
X70566190Y-56394342D01*
X70566190Y-56394342D02*
X70566190Y-56108628D01*
X70566190Y-56108628D02*
X70613809Y-56013390D01*
X70613809Y-56013390D02*
X70661428Y-55965771D01*
X70661428Y-55965771D02*
X70756666Y-55918152D01*
X70756666Y-55918152D02*
X70947142Y-55918152D01*
X70947142Y-55918152D02*
X71042380Y-55965771D01*
X71518571Y-56584819D02*
X71518571Y-55584819D01*
X71518571Y-56061009D02*
X72089999Y-56061009D01*
X72089999Y-56584819D02*
X72089999Y-55584819D01*
X72709047Y-56584819D02*
X72613809Y-56537200D01*
X72613809Y-56537200D02*
X72566190Y-56489580D01*
X72566190Y-56489580D02*
X72518571Y-56394342D01*
X72518571Y-56394342D02*
X72518571Y-56108628D01*
X72518571Y-56108628D02*
X72566190Y-56013390D01*
X72566190Y-56013390D02*
X72613809Y-55965771D01*
X72613809Y-55965771D02*
X72709047Y-55918152D01*
X72709047Y-55918152D02*
X72851904Y-55918152D01*
X72851904Y-55918152D02*
X72947142Y-55965771D01*
X72947142Y-55965771D02*
X72994761Y-56013390D01*
X72994761Y-56013390D02*
X73042380Y-56108628D01*
X73042380Y-56108628D02*
X73042380Y-56394342D01*
X73042380Y-56394342D02*
X72994761Y-56489580D01*
X72994761Y-56489580D02*
X72947142Y-56537200D01*
X72947142Y-56537200D02*
X72851904Y-56584819D01*
X72851904Y-56584819D02*
X72709047Y-56584819D01*
X73613809Y-56584819D02*
X73518571Y-56537200D01*
X73518571Y-56537200D02*
X73470952Y-56441961D01*
X73470952Y-56441961D02*
X73470952Y-55584819D01*
X74375714Y-56537200D02*
X74280476Y-56584819D01*
X74280476Y-56584819D02*
X74090000Y-56584819D01*
X74090000Y-56584819D02*
X73994762Y-56537200D01*
X73994762Y-56537200D02*
X73947143Y-56441961D01*
X73947143Y-56441961D02*
X73947143Y-56061009D01*
X73947143Y-56061009D02*
X73994762Y-55965771D01*
X73994762Y-55965771D02*
X74090000Y-55918152D01*
X74090000Y-55918152D02*
X74280476Y-55918152D01*
X74280476Y-55918152D02*
X74375714Y-55965771D01*
X74375714Y-55965771D02*
X74423333Y-56061009D01*
X74423333Y-56061009D02*
X74423333Y-56156247D01*
X74423333Y-56156247D02*
X73947143Y-56251485D01*
X68828095Y-52884819D02*
X68828095Y-51884819D01*
X68828095Y-52361009D02*
X69399523Y-52361009D01*
X69399523Y-52884819D02*
X69399523Y-51884819D01*
X70399523Y-52884819D02*
X69828095Y-52884819D01*
X70113809Y-52884819D02*
X70113809Y-51884819D01*
X70113809Y-51884819D02*
X70018571Y-52027676D01*
X70018571Y-52027676D02*
X69923333Y-52122914D01*
X69923333Y-52122914D02*
X69828095Y-52170533D01*
X120483333Y-120469819D02*
X120150000Y-119993628D01*
X119911905Y-120469819D02*
X119911905Y-119469819D01*
X119911905Y-119469819D02*
X120292857Y-119469819D01*
X120292857Y-119469819D02*
X120388095Y-119517438D01*
X120388095Y-119517438D02*
X120435714Y-119565057D01*
X120435714Y-119565057D02*
X120483333Y-119660295D01*
X120483333Y-119660295D02*
X120483333Y-119803152D01*
X120483333Y-119803152D02*
X120435714Y-119898390D01*
X120435714Y-119898390D02*
X120388095Y-119946009D01*
X120388095Y-119946009D02*
X120292857Y-119993628D01*
X120292857Y-119993628D02*
X119911905Y-119993628D01*
X121435714Y-120469819D02*
X120864286Y-120469819D01*
X121150000Y-120469819D02*
X121150000Y-119469819D01*
X121150000Y-119469819D02*
X121054762Y-119612676D01*
X121054762Y-119612676D02*
X120959524Y-119707914D01*
X120959524Y-119707914D02*
X120864286Y-119755533D01*
X198123333Y-99824819D02*
X197790000Y-99348628D01*
X197551905Y-99824819D02*
X197551905Y-98824819D01*
X197551905Y-98824819D02*
X197932857Y-98824819D01*
X197932857Y-98824819D02*
X198028095Y-98872438D01*
X198028095Y-98872438D02*
X198075714Y-98920057D01*
X198075714Y-98920057D02*
X198123333Y-99015295D01*
X198123333Y-99015295D02*
X198123333Y-99158152D01*
X198123333Y-99158152D02*
X198075714Y-99253390D01*
X198075714Y-99253390D02*
X198028095Y-99301009D01*
X198028095Y-99301009D02*
X197932857Y-99348628D01*
X197932857Y-99348628D02*
X197551905Y-99348628D01*
X199028095Y-98824819D02*
X198551905Y-98824819D01*
X198551905Y-98824819D02*
X198504286Y-99301009D01*
X198504286Y-99301009D02*
X198551905Y-99253390D01*
X198551905Y-99253390D02*
X198647143Y-99205771D01*
X198647143Y-99205771D02*
X198885238Y-99205771D01*
X198885238Y-99205771D02*
X198980476Y-99253390D01*
X198980476Y-99253390D02*
X199028095Y-99301009D01*
X199028095Y-99301009D02*
X199075714Y-99396247D01*
X199075714Y-99396247D02*
X199075714Y-99634342D01*
X199075714Y-99634342D02*
X199028095Y-99729580D01*
X199028095Y-99729580D02*
X198980476Y-99777200D01*
X198980476Y-99777200D02*
X198885238Y-99824819D01*
X198885238Y-99824819D02*
X198647143Y-99824819D01*
X198647143Y-99824819D02*
X198551905Y-99777200D01*
X198551905Y-99777200D02*
X198504286Y-99729580D01*
X203033333Y-66494819D02*
X202700000Y-66018628D01*
X202461905Y-66494819D02*
X202461905Y-65494819D01*
X202461905Y-65494819D02*
X202842857Y-65494819D01*
X202842857Y-65494819D02*
X202938095Y-65542438D01*
X202938095Y-65542438D02*
X202985714Y-65590057D01*
X202985714Y-65590057D02*
X203033333Y-65685295D01*
X203033333Y-65685295D02*
X203033333Y-65828152D01*
X203033333Y-65828152D02*
X202985714Y-65923390D01*
X202985714Y-65923390D02*
X202938095Y-65971009D01*
X202938095Y-65971009D02*
X202842857Y-66018628D01*
X202842857Y-66018628D02*
X202461905Y-66018628D01*
X203604762Y-65923390D02*
X203509524Y-65875771D01*
X203509524Y-65875771D02*
X203461905Y-65828152D01*
X203461905Y-65828152D02*
X203414286Y-65732914D01*
X203414286Y-65732914D02*
X203414286Y-65685295D01*
X203414286Y-65685295D02*
X203461905Y-65590057D01*
X203461905Y-65590057D02*
X203509524Y-65542438D01*
X203509524Y-65542438D02*
X203604762Y-65494819D01*
X203604762Y-65494819D02*
X203795238Y-65494819D01*
X203795238Y-65494819D02*
X203890476Y-65542438D01*
X203890476Y-65542438D02*
X203938095Y-65590057D01*
X203938095Y-65590057D02*
X203985714Y-65685295D01*
X203985714Y-65685295D02*
X203985714Y-65732914D01*
X203985714Y-65732914D02*
X203938095Y-65828152D01*
X203938095Y-65828152D02*
X203890476Y-65875771D01*
X203890476Y-65875771D02*
X203795238Y-65923390D01*
X203795238Y-65923390D02*
X203604762Y-65923390D01*
X203604762Y-65923390D02*
X203509524Y-65971009D01*
X203509524Y-65971009D02*
X203461905Y-66018628D01*
X203461905Y-66018628D02*
X203414286Y-66113866D01*
X203414286Y-66113866D02*
X203414286Y-66304342D01*
X203414286Y-66304342D02*
X203461905Y-66399580D01*
X203461905Y-66399580D02*
X203509524Y-66447200D01*
X203509524Y-66447200D02*
X203604762Y-66494819D01*
X203604762Y-66494819D02*
X203795238Y-66494819D01*
X203795238Y-66494819D02*
X203890476Y-66447200D01*
X203890476Y-66447200D02*
X203938095Y-66399580D01*
X203938095Y-66399580D02*
X203985714Y-66304342D01*
X203985714Y-66304342D02*
X203985714Y-66113866D01*
X203985714Y-66113866D02*
X203938095Y-66018628D01*
X203938095Y-66018628D02*
X203890476Y-65971009D01*
X203890476Y-65971009D02*
X203795238Y-65923390D01*
X68538095Y-121014819D02*
X68538095Y-120014819D01*
X68538095Y-120491009D02*
X69109523Y-120491009D01*
X69109523Y-121014819D02*
X69109523Y-120014819D01*
X70014285Y-120348152D02*
X70014285Y-121014819D01*
X69776190Y-119967200D02*
X69538095Y-120681485D01*
X69538095Y-120681485D02*
X70157142Y-120681485D01*
X64514285Y-128414819D02*
X64514285Y-127414819D01*
X64514285Y-127414819D02*
X64847618Y-128129104D01*
X64847618Y-128129104D02*
X65180951Y-127414819D01*
X65180951Y-127414819D02*
X65180951Y-128414819D01*
X65799999Y-128414819D02*
X65704761Y-128367200D01*
X65704761Y-128367200D02*
X65657142Y-128319580D01*
X65657142Y-128319580D02*
X65609523Y-128224342D01*
X65609523Y-128224342D02*
X65609523Y-127938628D01*
X65609523Y-127938628D02*
X65657142Y-127843390D01*
X65657142Y-127843390D02*
X65704761Y-127795771D01*
X65704761Y-127795771D02*
X65799999Y-127748152D01*
X65799999Y-127748152D02*
X65942856Y-127748152D01*
X65942856Y-127748152D02*
X66038094Y-127795771D01*
X66038094Y-127795771D02*
X66085713Y-127843390D01*
X66085713Y-127843390D02*
X66133332Y-127938628D01*
X66133332Y-127938628D02*
X66133332Y-128224342D01*
X66133332Y-128224342D02*
X66085713Y-128319580D01*
X66085713Y-128319580D02*
X66038094Y-128367200D01*
X66038094Y-128367200D02*
X65942856Y-128414819D01*
X65942856Y-128414819D02*
X65799999Y-128414819D01*
X66990475Y-127748152D02*
X66990475Y-128414819D01*
X66561904Y-127748152D02*
X66561904Y-128271961D01*
X66561904Y-128271961D02*
X66609523Y-128367200D01*
X66609523Y-128367200D02*
X66704761Y-128414819D01*
X66704761Y-128414819D02*
X66847618Y-128414819D01*
X66847618Y-128414819D02*
X66942856Y-128367200D01*
X66942856Y-128367200D02*
X66990475Y-128319580D01*
X67466666Y-127748152D02*
X67466666Y-128414819D01*
X67466666Y-127843390D02*
X67514285Y-127795771D01*
X67514285Y-127795771D02*
X67609523Y-127748152D01*
X67609523Y-127748152D02*
X67752380Y-127748152D01*
X67752380Y-127748152D02*
X67847618Y-127795771D01*
X67847618Y-127795771D02*
X67895237Y-127891009D01*
X67895237Y-127891009D02*
X67895237Y-128414819D01*
X68228571Y-127748152D02*
X68609523Y-127748152D01*
X68371428Y-127414819D02*
X68371428Y-128271961D01*
X68371428Y-128271961D02*
X68419047Y-128367200D01*
X68419047Y-128367200D02*
X68514285Y-128414819D01*
X68514285Y-128414819D02*
X68609523Y-128414819D01*
X68942857Y-128414819D02*
X68942857Y-127748152D01*
X68942857Y-127414819D02*
X68895238Y-127462438D01*
X68895238Y-127462438D02*
X68942857Y-127510057D01*
X68942857Y-127510057D02*
X68990476Y-127462438D01*
X68990476Y-127462438D02*
X68942857Y-127414819D01*
X68942857Y-127414819D02*
X68942857Y-127510057D01*
X69419047Y-127748152D02*
X69419047Y-128414819D01*
X69419047Y-127843390D02*
X69466666Y-127795771D01*
X69466666Y-127795771D02*
X69561904Y-127748152D01*
X69561904Y-127748152D02*
X69704761Y-127748152D01*
X69704761Y-127748152D02*
X69799999Y-127795771D01*
X69799999Y-127795771D02*
X69847618Y-127891009D01*
X69847618Y-127891009D02*
X69847618Y-128414819D01*
X70752380Y-127748152D02*
X70752380Y-128557676D01*
X70752380Y-128557676D02*
X70704761Y-128652914D01*
X70704761Y-128652914D02*
X70657142Y-128700533D01*
X70657142Y-128700533D02*
X70561904Y-128748152D01*
X70561904Y-128748152D02*
X70419047Y-128748152D01*
X70419047Y-128748152D02*
X70323809Y-128700533D01*
X70752380Y-128367200D02*
X70657142Y-128414819D01*
X70657142Y-128414819D02*
X70466666Y-128414819D01*
X70466666Y-128414819D02*
X70371428Y-128367200D01*
X70371428Y-128367200D02*
X70323809Y-128319580D01*
X70323809Y-128319580D02*
X70276190Y-128224342D01*
X70276190Y-128224342D02*
X70276190Y-127938628D01*
X70276190Y-127938628D02*
X70323809Y-127843390D01*
X70323809Y-127843390D02*
X70371428Y-127795771D01*
X70371428Y-127795771D02*
X70466666Y-127748152D01*
X70466666Y-127748152D02*
X70657142Y-127748152D01*
X70657142Y-127748152D02*
X70752380Y-127795771D01*
X71228571Y-128414819D02*
X71228571Y-127414819D01*
X71228571Y-127891009D02*
X71799999Y-127891009D01*
X71799999Y-128414819D02*
X71799999Y-127414819D01*
X72419047Y-128414819D02*
X72323809Y-128367200D01*
X72323809Y-128367200D02*
X72276190Y-128319580D01*
X72276190Y-128319580D02*
X72228571Y-128224342D01*
X72228571Y-128224342D02*
X72228571Y-127938628D01*
X72228571Y-127938628D02*
X72276190Y-127843390D01*
X72276190Y-127843390D02*
X72323809Y-127795771D01*
X72323809Y-127795771D02*
X72419047Y-127748152D01*
X72419047Y-127748152D02*
X72561904Y-127748152D01*
X72561904Y-127748152D02*
X72657142Y-127795771D01*
X72657142Y-127795771D02*
X72704761Y-127843390D01*
X72704761Y-127843390D02*
X72752380Y-127938628D01*
X72752380Y-127938628D02*
X72752380Y-128224342D01*
X72752380Y-128224342D02*
X72704761Y-128319580D01*
X72704761Y-128319580D02*
X72657142Y-128367200D01*
X72657142Y-128367200D02*
X72561904Y-128414819D01*
X72561904Y-128414819D02*
X72419047Y-128414819D01*
X73323809Y-128414819D02*
X73228571Y-128367200D01*
X73228571Y-128367200D02*
X73180952Y-128271961D01*
X73180952Y-128271961D02*
X73180952Y-127414819D01*
X74085714Y-128367200D02*
X73990476Y-128414819D01*
X73990476Y-128414819D02*
X73800000Y-128414819D01*
X73800000Y-128414819D02*
X73704762Y-128367200D01*
X73704762Y-128367200D02*
X73657143Y-128271961D01*
X73657143Y-128271961D02*
X73657143Y-127891009D01*
X73657143Y-127891009D02*
X73704762Y-127795771D01*
X73704762Y-127795771D02*
X73800000Y-127748152D01*
X73800000Y-127748152D02*
X73990476Y-127748152D01*
X73990476Y-127748152D02*
X74085714Y-127795771D01*
X74085714Y-127795771D02*
X74133333Y-127891009D01*
X74133333Y-127891009D02*
X74133333Y-127986247D01*
X74133333Y-127986247D02*
X73657143Y-128081485D01*
X68538095Y-124714819D02*
X68538095Y-123714819D01*
X68538095Y-124191009D02*
X69109523Y-124191009D01*
X69109523Y-124714819D02*
X69109523Y-123714819D01*
X70014285Y-124048152D02*
X70014285Y-124714819D01*
X69776190Y-123667200D02*
X69538095Y-124381485D01*
X69538095Y-124381485D02*
X70157142Y-124381485D01*
X95924761Y-119187119D02*
X95591428Y-118710928D01*
X95353333Y-119187119D02*
X95353333Y-118187119D01*
X95353333Y-118187119D02*
X95734285Y-118187119D01*
X95734285Y-118187119D02*
X95829523Y-118234738D01*
X95829523Y-118234738D02*
X95877142Y-118282357D01*
X95877142Y-118282357D02*
X95924761Y-118377595D01*
X95924761Y-118377595D02*
X95924761Y-118520452D01*
X95924761Y-118520452D02*
X95877142Y-118615690D01*
X95877142Y-118615690D02*
X95829523Y-118663309D01*
X95829523Y-118663309D02*
X95734285Y-118710928D01*
X95734285Y-118710928D02*
X95353333Y-118710928D01*
X96210476Y-118187119D02*
X96543809Y-119187119D01*
X96543809Y-119187119D02*
X96877142Y-118187119D01*
X97162857Y-118282357D02*
X97210476Y-118234738D01*
X97210476Y-118234738D02*
X97305714Y-118187119D01*
X97305714Y-118187119D02*
X97543809Y-118187119D01*
X97543809Y-118187119D02*
X97639047Y-118234738D01*
X97639047Y-118234738D02*
X97686666Y-118282357D01*
X97686666Y-118282357D02*
X97734285Y-118377595D01*
X97734285Y-118377595D02*
X97734285Y-118472833D01*
X97734285Y-118472833D02*
X97686666Y-118615690D01*
X97686666Y-118615690D02*
X97115238Y-119187119D01*
X97115238Y-119187119D02*
X97734285Y-119187119D01*
X208738095Y-121014819D02*
X208738095Y-120014819D01*
X208738095Y-120491009D02*
X209309523Y-120491009D01*
X209309523Y-121014819D02*
X209309523Y-120014819D01*
X209690476Y-120014819D02*
X210309523Y-120014819D01*
X210309523Y-120014819D02*
X209976190Y-120395771D01*
X209976190Y-120395771D02*
X210119047Y-120395771D01*
X210119047Y-120395771D02*
X210214285Y-120443390D01*
X210214285Y-120443390D02*
X210261904Y-120491009D01*
X210261904Y-120491009D02*
X210309523Y-120586247D01*
X210309523Y-120586247D02*
X210309523Y-120824342D01*
X210309523Y-120824342D02*
X210261904Y-120919580D01*
X210261904Y-120919580D02*
X210214285Y-120967200D01*
X210214285Y-120967200D02*
X210119047Y-121014819D01*
X210119047Y-121014819D02*
X209833333Y-121014819D01*
X209833333Y-121014819D02*
X209738095Y-120967200D01*
X209738095Y-120967200D02*
X209690476Y-120919580D01*
X204714285Y-128414819D02*
X204714285Y-127414819D01*
X204714285Y-127414819D02*
X205047618Y-128129104D01*
X205047618Y-128129104D02*
X205380951Y-127414819D01*
X205380951Y-127414819D02*
X205380951Y-128414819D01*
X205999999Y-128414819D02*
X205904761Y-128367200D01*
X205904761Y-128367200D02*
X205857142Y-128319580D01*
X205857142Y-128319580D02*
X205809523Y-128224342D01*
X205809523Y-128224342D02*
X205809523Y-127938628D01*
X205809523Y-127938628D02*
X205857142Y-127843390D01*
X205857142Y-127843390D02*
X205904761Y-127795771D01*
X205904761Y-127795771D02*
X205999999Y-127748152D01*
X205999999Y-127748152D02*
X206142856Y-127748152D01*
X206142856Y-127748152D02*
X206238094Y-127795771D01*
X206238094Y-127795771D02*
X206285713Y-127843390D01*
X206285713Y-127843390D02*
X206333332Y-127938628D01*
X206333332Y-127938628D02*
X206333332Y-128224342D01*
X206333332Y-128224342D02*
X206285713Y-128319580D01*
X206285713Y-128319580D02*
X206238094Y-128367200D01*
X206238094Y-128367200D02*
X206142856Y-128414819D01*
X206142856Y-128414819D02*
X205999999Y-128414819D01*
X207190475Y-127748152D02*
X207190475Y-128414819D01*
X206761904Y-127748152D02*
X206761904Y-128271961D01*
X206761904Y-128271961D02*
X206809523Y-128367200D01*
X206809523Y-128367200D02*
X206904761Y-128414819D01*
X206904761Y-128414819D02*
X207047618Y-128414819D01*
X207047618Y-128414819D02*
X207142856Y-128367200D01*
X207142856Y-128367200D02*
X207190475Y-128319580D01*
X207666666Y-127748152D02*
X207666666Y-128414819D01*
X207666666Y-127843390D02*
X207714285Y-127795771D01*
X207714285Y-127795771D02*
X207809523Y-127748152D01*
X207809523Y-127748152D02*
X207952380Y-127748152D01*
X207952380Y-127748152D02*
X208047618Y-127795771D01*
X208047618Y-127795771D02*
X208095237Y-127891009D01*
X208095237Y-127891009D02*
X208095237Y-128414819D01*
X208428571Y-127748152D02*
X208809523Y-127748152D01*
X208571428Y-127414819D02*
X208571428Y-128271961D01*
X208571428Y-128271961D02*
X208619047Y-128367200D01*
X208619047Y-128367200D02*
X208714285Y-128414819D01*
X208714285Y-128414819D02*
X208809523Y-128414819D01*
X209142857Y-128414819D02*
X209142857Y-127748152D01*
X209142857Y-127414819D02*
X209095238Y-127462438D01*
X209095238Y-127462438D02*
X209142857Y-127510057D01*
X209142857Y-127510057D02*
X209190476Y-127462438D01*
X209190476Y-127462438D02*
X209142857Y-127414819D01*
X209142857Y-127414819D02*
X209142857Y-127510057D01*
X209619047Y-127748152D02*
X209619047Y-128414819D01*
X209619047Y-127843390D02*
X209666666Y-127795771D01*
X209666666Y-127795771D02*
X209761904Y-127748152D01*
X209761904Y-127748152D02*
X209904761Y-127748152D01*
X209904761Y-127748152D02*
X209999999Y-127795771D01*
X209999999Y-127795771D02*
X210047618Y-127891009D01*
X210047618Y-127891009D02*
X210047618Y-128414819D01*
X210952380Y-127748152D02*
X210952380Y-128557676D01*
X210952380Y-128557676D02*
X210904761Y-128652914D01*
X210904761Y-128652914D02*
X210857142Y-128700533D01*
X210857142Y-128700533D02*
X210761904Y-128748152D01*
X210761904Y-128748152D02*
X210619047Y-128748152D01*
X210619047Y-128748152D02*
X210523809Y-128700533D01*
X210952380Y-128367200D02*
X210857142Y-128414819D01*
X210857142Y-128414819D02*
X210666666Y-128414819D01*
X210666666Y-128414819D02*
X210571428Y-128367200D01*
X210571428Y-128367200D02*
X210523809Y-128319580D01*
X210523809Y-128319580D02*
X210476190Y-128224342D01*
X210476190Y-128224342D02*
X210476190Y-127938628D01*
X210476190Y-127938628D02*
X210523809Y-127843390D01*
X210523809Y-127843390D02*
X210571428Y-127795771D01*
X210571428Y-127795771D02*
X210666666Y-127748152D01*
X210666666Y-127748152D02*
X210857142Y-127748152D01*
X210857142Y-127748152D02*
X210952380Y-127795771D01*
X211428571Y-128414819D02*
X211428571Y-127414819D01*
X211428571Y-127891009D02*
X211999999Y-127891009D01*
X211999999Y-128414819D02*
X211999999Y-127414819D01*
X212619047Y-128414819D02*
X212523809Y-128367200D01*
X212523809Y-128367200D02*
X212476190Y-128319580D01*
X212476190Y-128319580D02*
X212428571Y-128224342D01*
X212428571Y-128224342D02*
X212428571Y-127938628D01*
X212428571Y-127938628D02*
X212476190Y-127843390D01*
X212476190Y-127843390D02*
X212523809Y-127795771D01*
X212523809Y-127795771D02*
X212619047Y-127748152D01*
X212619047Y-127748152D02*
X212761904Y-127748152D01*
X212761904Y-127748152D02*
X212857142Y-127795771D01*
X212857142Y-127795771D02*
X212904761Y-127843390D01*
X212904761Y-127843390D02*
X212952380Y-127938628D01*
X212952380Y-127938628D02*
X212952380Y-128224342D01*
X212952380Y-128224342D02*
X212904761Y-128319580D01*
X212904761Y-128319580D02*
X212857142Y-128367200D01*
X212857142Y-128367200D02*
X212761904Y-128414819D01*
X212761904Y-128414819D02*
X212619047Y-128414819D01*
X213523809Y-128414819D02*
X213428571Y-128367200D01*
X213428571Y-128367200D02*
X213380952Y-128271961D01*
X213380952Y-128271961D02*
X213380952Y-127414819D01*
X214285714Y-128367200D02*
X214190476Y-128414819D01*
X214190476Y-128414819D02*
X214000000Y-128414819D01*
X214000000Y-128414819D02*
X213904762Y-128367200D01*
X213904762Y-128367200D02*
X213857143Y-128271961D01*
X213857143Y-128271961D02*
X213857143Y-127891009D01*
X213857143Y-127891009D02*
X213904762Y-127795771D01*
X213904762Y-127795771D02*
X214000000Y-127748152D01*
X214000000Y-127748152D02*
X214190476Y-127748152D01*
X214190476Y-127748152D02*
X214285714Y-127795771D01*
X214285714Y-127795771D02*
X214333333Y-127891009D01*
X214333333Y-127891009D02*
X214333333Y-127986247D01*
X214333333Y-127986247D02*
X213857143Y-128081485D01*
X208738095Y-124714819D02*
X208738095Y-123714819D01*
X208738095Y-124191009D02*
X209309523Y-124191009D01*
X209309523Y-124714819D02*
X209309523Y-123714819D01*
X209690476Y-123714819D02*
X210309523Y-123714819D01*
X210309523Y-123714819D02*
X209976190Y-124095771D01*
X209976190Y-124095771D02*
X210119047Y-124095771D01*
X210119047Y-124095771D02*
X210214285Y-124143390D01*
X210214285Y-124143390D02*
X210261904Y-124191009D01*
X210261904Y-124191009D02*
X210309523Y-124286247D01*
X210309523Y-124286247D02*
X210309523Y-124524342D01*
X210309523Y-124524342D02*
X210261904Y-124619580D01*
X210261904Y-124619580D02*
X210214285Y-124667200D01*
X210214285Y-124667200D02*
X210119047Y-124714819D01*
X210119047Y-124714819D02*
X209833333Y-124714819D01*
X209833333Y-124714819D02*
X209738095Y-124667200D01*
X209738095Y-124667200D02*
X209690476Y-124619580D01*
X152487333Y-123898819D02*
X152154000Y-123422628D01*
X151915905Y-123898819D02*
X151915905Y-122898819D01*
X151915905Y-122898819D02*
X152296857Y-122898819D01*
X152296857Y-122898819D02*
X152392095Y-122946438D01*
X152392095Y-122946438D02*
X152439714Y-122994057D01*
X152439714Y-122994057D02*
X152487333Y-123089295D01*
X152487333Y-123089295D02*
X152487333Y-123232152D01*
X152487333Y-123232152D02*
X152439714Y-123327390D01*
X152439714Y-123327390D02*
X152392095Y-123375009D01*
X152392095Y-123375009D02*
X152296857Y-123422628D01*
X152296857Y-123422628D02*
X151915905Y-123422628D01*
X152963524Y-123898819D02*
X153154000Y-123898819D01*
X153154000Y-123898819D02*
X153249238Y-123851200D01*
X153249238Y-123851200D02*
X153296857Y-123803580D01*
X153296857Y-123803580D02*
X153392095Y-123660723D01*
X153392095Y-123660723D02*
X153439714Y-123470247D01*
X153439714Y-123470247D02*
X153439714Y-123089295D01*
X153439714Y-123089295D02*
X153392095Y-122994057D01*
X153392095Y-122994057D02*
X153344476Y-122946438D01*
X153344476Y-122946438D02*
X153249238Y-122898819D01*
X153249238Y-122898819D02*
X153058762Y-122898819D01*
X153058762Y-122898819D02*
X152963524Y-122946438D01*
X152963524Y-122946438D02*
X152915905Y-122994057D01*
X152915905Y-122994057D02*
X152868286Y-123089295D01*
X152868286Y-123089295D02*
X152868286Y-123327390D01*
X152868286Y-123327390D02*
X152915905Y-123422628D01*
X152915905Y-123422628D02*
X152963524Y-123470247D01*
X152963524Y-123470247D02*
X153058762Y-123517866D01*
X153058762Y-123517866D02*
X153249238Y-123517866D01*
X153249238Y-123517866D02*
X153344476Y-123470247D01*
X153344476Y-123470247D02*
X153392095Y-123422628D01*
X153392095Y-123422628D02*
X153439714Y-123327390D01*
X203033333Y-77289819D02*
X202700000Y-76813628D01*
X202461905Y-77289819D02*
X202461905Y-76289819D01*
X202461905Y-76289819D02*
X202842857Y-76289819D01*
X202842857Y-76289819D02*
X202938095Y-76337438D01*
X202938095Y-76337438D02*
X202985714Y-76385057D01*
X202985714Y-76385057D02*
X203033333Y-76480295D01*
X203033333Y-76480295D02*
X203033333Y-76623152D01*
X203033333Y-76623152D02*
X202985714Y-76718390D01*
X202985714Y-76718390D02*
X202938095Y-76766009D01*
X202938095Y-76766009D02*
X202842857Y-76813628D01*
X202842857Y-76813628D02*
X202461905Y-76813628D01*
X203366667Y-76289819D02*
X204033333Y-76289819D01*
X204033333Y-76289819D02*
X203604762Y-77289819D01*
X120483333Y-115309819D02*
X120150000Y-114833628D01*
X119911905Y-115309819D02*
X119911905Y-114309819D01*
X119911905Y-114309819D02*
X120292857Y-114309819D01*
X120292857Y-114309819D02*
X120388095Y-114357438D01*
X120388095Y-114357438D02*
X120435714Y-114405057D01*
X120435714Y-114405057D02*
X120483333Y-114500295D01*
X120483333Y-114500295D02*
X120483333Y-114643152D01*
X120483333Y-114643152D02*
X120435714Y-114738390D01*
X120435714Y-114738390D02*
X120388095Y-114786009D01*
X120388095Y-114786009D02*
X120292857Y-114833628D01*
X120292857Y-114833628D02*
X119911905Y-114833628D01*
X120816667Y-114309819D02*
X121435714Y-114309819D01*
X121435714Y-114309819D02*
X121102381Y-114690771D01*
X121102381Y-114690771D02*
X121245238Y-114690771D01*
X121245238Y-114690771D02*
X121340476Y-114738390D01*
X121340476Y-114738390D02*
X121388095Y-114786009D01*
X121388095Y-114786009D02*
X121435714Y-114881247D01*
X121435714Y-114881247D02*
X121435714Y-115119342D01*
X121435714Y-115119342D02*
X121388095Y-115214580D01*
X121388095Y-115214580D02*
X121340476Y-115262200D01*
X121340476Y-115262200D02*
X121245238Y-115309819D01*
X121245238Y-115309819D02*
X120959524Y-115309819D01*
X120959524Y-115309819D02*
X120864286Y-115262200D01*
X120864286Y-115262200D02*
X120816667Y-115214580D01*
X181644123Y-83619219D02*
X181310790Y-83143028D01*
X181072695Y-83619219D02*
X181072695Y-82619219D01*
X181072695Y-82619219D02*
X181453647Y-82619219D01*
X181453647Y-82619219D02*
X181548885Y-82666838D01*
X181548885Y-82666838D02*
X181596504Y-82714457D01*
X181596504Y-82714457D02*
X181644123Y-82809695D01*
X181644123Y-82809695D02*
X181644123Y-82952552D01*
X181644123Y-82952552D02*
X181596504Y-83047790D01*
X181596504Y-83047790D02*
X181548885Y-83095409D01*
X181548885Y-83095409D02*
X181453647Y-83143028D01*
X181453647Y-83143028D02*
X181072695Y-83143028D01*
X182072695Y-83619219D02*
X182072695Y-82619219D01*
X182072695Y-82619219D02*
X182644123Y-83619219D01*
X182644123Y-83619219D02*
X182644123Y-82619219D01*
X183644123Y-83619219D02*
X183072695Y-83619219D01*
X183358409Y-83619219D02*
X183358409Y-82619219D01*
X183358409Y-82619219D02*
X183263171Y-82762076D01*
X183263171Y-82762076D02*
X183167933Y-82857314D01*
X183167933Y-82857314D02*
X183072695Y-82904933D01*
X203033333Y-82369819D02*
X202700000Y-81893628D01*
X202461905Y-82369819D02*
X202461905Y-81369819D01*
X202461905Y-81369819D02*
X202842857Y-81369819D01*
X202842857Y-81369819D02*
X202938095Y-81417438D01*
X202938095Y-81417438D02*
X202985714Y-81465057D01*
X202985714Y-81465057D02*
X203033333Y-81560295D01*
X203033333Y-81560295D02*
X203033333Y-81703152D01*
X203033333Y-81703152D02*
X202985714Y-81798390D01*
X202985714Y-81798390D02*
X202938095Y-81846009D01*
X202938095Y-81846009D02*
X202842857Y-81893628D01*
X202842857Y-81893628D02*
X202461905Y-81893628D01*
X203890476Y-81369819D02*
X203700000Y-81369819D01*
X203700000Y-81369819D02*
X203604762Y-81417438D01*
X203604762Y-81417438D02*
X203557143Y-81465057D01*
X203557143Y-81465057D02*
X203461905Y-81607914D01*
X203461905Y-81607914D02*
X203414286Y-81798390D01*
X203414286Y-81798390D02*
X203414286Y-82179342D01*
X203414286Y-82179342D02*
X203461905Y-82274580D01*
X203461905Y-82274580D02*
X203509524Y-82322200D01*
X203509524Y-82322200D02*
X203604762Y-82369819D01*
X203604762Y-82369819D02*
X203795238Y-82369819D01*
X203795238Y-82369819D02*
X203890476Y-82322200D01*
X203890476Y-82322200D02*
X203938095Y-82274580D01*
X203938095Y-82274580D02*
X203985714Y-82179342D01*
X203985714Y-82179342D02*
X203985714Y-81941247D01*
X203985714Y-81941247D02*
X203938095Y-81846009D01*
X203938095Y-81846009D02*
X203890476Y-81798390D01*
X203890476Y-81798390D02*
X203795238Y-81750771D01*
X203795238Y-81750771D02*
X203604762Y-81750771D01*
X203604762Y-81750771D02*
X203509524Y-81798390D01*
X203509524Y-81798390D02*
X203461905Y-81846009D01*
X203461905Y-81846009D02*
X203414286Y-81941247D01*
D12*
X207352380Y-103213842D02*
X207533809Y-103274318D01*
X207533809Y-103274318D02*
X207836190Y-103274318D01*
X207836190Y-103274318D02*
X207957142Y-103213842D01*
X207957142Y-103213842D02*
X208017618Y-103153365D01*
X208017618Y-103153365D02*
X208078095Y-103032413D01*
X208078095Y-103032413D02*
X208078095Y-102911461D01*
X208078095Y-102911461D02*
X208017618Y-102790508D01*
X208017618Y-102790508D02*
X207957142Y-102730032D01*
X207957142Y-102730032D02*
X207836190Y-102669556D01*
X207836190Y-102669556D02*
X207594285Y-102609080D01*
X207594285Y-102609080D02*
X207473333Y-102548603D01*
X207473333Y-102548603D02*
X207412856Y-102488127D01*
X207412856Y-102488127D02*
X207352380Y-102367175D01*
X207352380Y-102367175D02*
X207352380Y-102246222D01*
X207352380Y-102246222D02*
X207412856Y-102125270D01*
X207412856Y-102125270D02*
X207473333Y-102064794D01*
X207473333Y-102064794D02*
X207594285Y-102004318D01*
X207594285Y-102004318D02*
X207896666Y-102004318D01*
X207896666Y-102004318D02*
X208078095Y-102064794D01*
X209287619Y-103274318D02*
X208561904Y-103274318D01*
X208924761Y-103274318D02*
X208924761Y-102004318D01*
X208924761Y-102004318D02*
X208803809Y-102185746D01*
X208803809Y-102185746D02*
X208682857Y-102306699D01*
X208682857Y-102306699D02*
X208561904Y-102367175D01*
D13*
%TO.C,SW1*%
X128445000Y-117305000D02*
X128445000Y-123305000D01*
X128445000Y-123305000D02*
X134445000Y-123305000D01*
X134445000Y-117305000D02*
X128445000Y-117305000D01*
X134445000Y-123305000D02*
X134445000Y-117305000D01*
D14*
X126315000Y-117993000D02*
G75*
G03*
X126115000Y-117993000I-100000J0D01*
G01*
X126115000Y-117993000D02*
G75*
G03*
X126315000Y-117993000I100000J0D01*
G01*
D15*
%TO.C,R4*%
X145034000Y-117348000D02*
X145694000Y-117348000D01*
X145694000Y-116098000D02*
X145694000Y-118598000D01*
X145694000Y-118598000D02*
X151994000Y-118598000D01*
X151994000Y-116098000D02*
X145694000Y-116098000D01*
X151994000Y-118598000D02*
X151994000Y-116098000D01*
X152654000Y-117348000D02*
X151994000Y-117348000D01*
D16*
%TO.C,RV1*%
X79057500Y-113969800D02*
X88582500Y-113969800D01*
X79057500Y-123494800D02*
X79057500Y-113969800D01*
X88582500Y-113969800D02*
X88582500Y-123494800D01*
X88582500Y-123494800D02*
X79057500Y-123494800D01*
X79692500Y-121285000D02*
G75*
G03*
X79438500Y-121285000I-127000J0D01*
G01*
X79438500Y-121285000D02*
G75*
G03*
X79692500Y-121285000I127000J0D01*
G01*
D15*
%TO.C,R2*%
X165735000Y-112268000D02*
X165075000Y-112268000D01*
X165075000Y-113518000D02*
X165075000Y-111018000D01*
X165075000Y-111018000D02*
X158775000Y-111018000D01*
X158775000Y-113518000D02*
X165075000Y-113518000D01*
X158775000Y-111018000D02*
X158775000Y-113518000D01*
X158115000Y-112268000D02*
X158775000Y-112268000D01*
%TO.C,C1*%
X153375000Y-113518000D02*
X153375000Y-111018000D01*
X153375000Y-111018000D02*
X148675000Y-111018000D01*
X148675000Y-113518000D02*
X153375000Y-113518000D01*
X148675000Y-111018000D02*
X148675000Y-113518000D01*
%TO.C,D1*%
X109620000Y-120118810D02*
X109620000Y-122451190D01*
X109619446Y-122450475D02*
G75*
G03*
X109620001Y-120118810I1500554J1165475D01*
G01*
X112620000Y-121285000D02*
G75*
G03*
X109620000Y-121285000I-1500000J0D01*
G01*
X109620000Y-121285000D02*
G75*
G03*
X112620000Y-121285000I1500000J0D01*
G01*
%TO.C,D4*%
X210590000Y-79478810D02*
X210590000Y-81811190D01*
X210589446Y-81810475D02*
G75*
G03*
X210590001Y-79478810I1500554J1165475D01*
G01*
X213590000Y-80645000D02*
G75*
G03*
X210590000Y-80645000I-1500000J0D01*
G01*
X210590000Y-80645000D02*
G75*
G03*
X213590000Y-80645000I1500000J0D01*
G01*
%TO.C,RN2*%
X113685000Y-49510000D02*
X113685000Y-47010000D01*
X113685000Y-47010000D02*
X90785000Y-47010000D01*
X111125000Y-49510000D02*
X111125000Y-47010000D01*
X90785000Y-49510000D02*
X113685000Y-49510000D01*
X90785000Y-47010000D02*
X90785000Y-49510000D01*
%TO.C,J1*%
X75666600Y-53441600D02*
X75666600Y-51536600D01*
X116306600Y-53441600D02*
X75666600Y-53441600D01*
X75666600Y-51536600D02*
X76301600Y-50901600D01*
X76301600Y-50901600D02*
X116306600Y-50901600D01*
X116306600Y-50901600D02*
X116306600Y-53441600D01*
D13*
%TO.C,SW2*%
X159560000Y-117490000D02*
X159560000Y-123490000D01*
X159560000Y-123490000D02*
X165560000Y-123490000D01*
X165560000Y-117490000D02*
X159560000Y-117490000D01*
X165560000Y-123490000D02*
X165560000Y-117490000D01*
D14*
X157430000Y-118178000D02*
G75*
G03*
X157230000Y-118178000I-100000J0D01*
G01*
X157230000Y-118178000D02*
G75*
G03*
X157430000Y-118178000I100000J0D01*
G01*
D13*
%TO.C,J2*%
X211336000Y-75715000D02*
X218236000Y-75715000D01*
X218236000Y-75715000D02*
X218236000Y-66775000D01*
X211336000Y-66775000D02*
X211336000Y-75715000D01*
X218236000Y-66775000D02*
X211336000Y-66775000D01*
D15*
%TO.C,C2*%
X212662000Y-62718000D02*
X212662000Y-60218000D01*
X212662000Y-60218000D02*
X207962000Y-60218000D01*
X207962000Y-62718000D02*
X212662000Y-62718000D01*
X207962000Y-60218000D02*
X207962000Y-62718000D01*
%TO.C,D3*%
X173531400Y-95944800D02*
X193527400Y-95914800D01*
X173531400Y-95944800D02*
X173531400Y-85784800D01*
X193527400Y-95914800D02*
X193527400Y-85784800D01*
X173531400Y-85784800D02*
X193527400Y-85784800D01*
%TO.C,D2*%
X146026000Y-123860190D02*
X146026000Y-121527810D01*
X146026554Y-121528525D02*
G75*
G03*
X146025999Y-123860190I-1500554J-1165475D01*
G01*
X146026000Y-122694000D02*
G75*
G03*
X143026000Y-122694000I-1500000J0D01*
G01*
X143026000Y-122694000D02*
G75*
G03*
X146026000Y-122694000I1500000J0D01*
G01*
%TO.C,R1*%
X124460000Y-120015000D02*
X123800000Y-120015000D01*
X123800000Y-121265000D02*
X123800000Y-118765000D01*
X123800000Y-118765000D02*
X117500000Y-118765000D01*
X117500000Y-121265000D02*
X123800000Y-121265000D01*
X117500000Y-118765000D02*
X117500000Y-121265000D01*
X116840000Y-120015000D02*
X117500000Y-120015000D01*
%TO.C,R5*%
X194480000Y-99370000D02*
X195140000Y-99370000D01*
X195140000Y-98120000D02*
X195140000Y-100620000D01*
X195140000Y-100620000D02*
X201440000Y-100620000D01*
X201440000Y-98120000D02*
X195140000Y-98120000D01*
X201440000Y-100620000D02*
X201440000Y-98120000D01*
X202100000Y-99370000D02*
X201440000Y-99370000D01*
%TO.C,D6*%
X196620000Y-103608810D02*
X196620000Y-105941190D01*
X196619446Y-105940475D02*
G75*
G03*
X196620001Y-103608810I1500554J1165475D01*
G01*
X199620000Y-104775000D02*
G75*
G03*
X196620000Y-104775000I-1500000J0D01*
G01*
X196620000Y-104775000D02*
G75*
G03*
X199620000Y-104775000I1500000J0D01*
G01*
%TO.C,R8*%
X207010000Y-66040000D02*
X206350000Y-66040000D01*
X206350000Y-67290000D02*
X206350000Y-64790000D01*
X206350000Y-64790000D02*
X200050000Y-64790000D01*
X200050000Y-67290000D02*
X206350000Y-67290000D01*
X200050000Y-64790000D02*
X200050000Y-67290000D01*
X199390000Y-66040000D02*
X200050000Y-66040000D01*
D16*
%TO.C,RV2*%
X91757500Y-113969800D02*
X101282500Y-113969800D01*
X91757500Y-123494800D02*
X91757500Y-113969800D01*
X101282500Y-113969800D02*
X101282500Y-123494800D01*
X101282500Y-123494800D02*
X91757500Y-123494800D01*
X92392500Y-121285000D02*
G75*
G03*
X92138500Y-121285000I-127000J0D01*
G01*
X92138500Y-121285000D02*
G75*
G03*
X92392500Y-121285000I127000J0D01*
G01*
D13*
%TO.C,SW3*%
X172565000Y-108265000D02*
X172565000Y-119065000D01*
X172565000Y-119065000D02*
X194465000Y-119065000D01*
X194465000Y-108265000D02*
X172565000Y-108265000D01*
X194465000Y-119065000D02*
X194465000Y-108265000D01*
D14*
X171865000Y-117365000D02*
G75*
G03*
X171665000Y-117365000I-100000J0D01*
G01*
X171665000Y-117365000D02*
G75*
G03*
X171865000Y-117365000I100000J0D01*
G01*
D15*
%TO.C,R9*%
X148844000Y-123444000D02*
X149504000Y-123444000D01*
X149504000Y-122194000D02*
X149504000Y-124694000D01*
X149504000Y-124694000D02*
X155804000Y-124694000D01*
X155804000Y-122194000D02*
X149504000Y-122194000D01*
X155804000Y-124694000D02*
X155804000Y-122194000D01*
X156464000Y-123444000D02*
X155804000Y-123444000D01*
%TO.C,R7*%
X207010000Y-76835000D02*
X206350000Y-76835000D01*
X206350000Y-78085000D02*
X206350000Y-75585000D01*
X206350000Y-75585000D02*
X200050000Y-75585000D01*
X200050000Y-78085000D02*
X206350000Y-78085000D01*
X200050000Y-75585000D02*
X200050000Y-78085000D01*
X199390000Y-76835000D02*
X200050000Y-76835000D01*
%TO.C,R3*%
X116840000Y-114855000D02*
X117500000Y-114855000D01*
X117500000Y-113605000D02*
X117500000Y-116105000D01*
X117500000Y-116105000D02*
X123800000Y-116105000D01*
X123800000Y-113605000D02*
X117500000Y-113605000D01*
X123800000Y-116105000D02*
X123800000Y-113605000D01*
X124460000Y-114855000D02*
X123800000Y-114855000D01*
%TO.C,RN1*%
X170884600Y-81914400D02*
X170884600Y-84414400D01*
X170884600Y-84414400D02*
X193784600Y-84414400D01*
X173444600Y-81914400D02*
X173444600Y-84414400D01*
X193784600Y-81914400D02*
X170884600Y-81914400D01*
X193784600Y-84414400D02*
X193784600Y-81914400D01*
%TO.C,R6*%
X199390000Y-81915000D02*
X200050000Y-81915000D01*
X200050000Y-80665000D02*
X200050000Y-83165000D01*
X200050000Y-83165000D02*
X206350000Y-83165000D01*
X206350000Y-80665000D02*
X200050000Y-80665000D01*
X206350000Y-83165000D02*
X206350000Y-80665000D01*
X207010000Y-81915000D02*
X206350000Y-81915000D01*
D14*
%TO.C,S1*%
X204820000Y-99200000D02*
X211820000Y-99200000D01*
X204820000Y-106200000D02*
X204820000Y-99200000D01*
X211820000Y-99200000D02*
X211820000Y-106200000D01*
X211820000Y-106200000D02*
X204820000Y-106200000D01*
%TD*%
M02*
