M48
; DRILL file {KiCad 7.0.10} date Fri Mar  1 13:38:32 2024
; FORMAT={-:-/ absolute / inch / decimal}
; #@! TF.CreationDate,2024-03-01T13:38:32-08:00
; #@! TF.GenerationSoftware,Kicad,Pcbnew,7.0.10
; #@! TF.FileFunction,Plated,1,2,PTH
FMAT,2
INCH
; #@! TA.AperFunction,Plated,PTH,ViaDrill
T1C0.0157
; #@! TA.AperFunction,Plated,PTH,ComponentDrill
T2C0.0236
; #@! TA.AperFunction,Plated,PTH,ComponentDrill
T3C0.0276
; #@! TA.AperFunction,Plated,PTH,ComponentDrill
T4C0.0315
; #@! TA.AperFunction,Plated,PTH,ComponentDrill
T5C0.0320
; #@! TA.AperFunction,Plated,PTH,ComponentDrill
T6C0.0354
; #@! TA.AperFunction,Plated,PTH,ComponentDrill
T7C0.0394
%
G90
G05
T1
X3.675Y-2.2533
X4.8673Y-3.3724
X6.8769Y-3.8301
X6.8795Y-3.5449
X6.9808Y-3.8301
X6.9811Y-3.5594
X7.0783Y-3.5772
X7.0799Y-3.8301
X7.1787Y-3.598
X7.18Y-3.8301
X7.2811Y-3.6158
X7.2812Y-3.8301
X7.3776Y-3.6335
X7.3812Y-3.8301
X7.4787Y-3.6512
X7.4823Y-3.8301
X7.5796Y-3.8301
X8.2185Y-2.6943
X8.2185Y-2.8876
T3
X6.8792Y-3.4262
X6.8792Y-3.7262
X6.9792Y-3.4262
X6.9792Y-3.7262
X7.0792Y-3.4262
X7.0792Y-3.7262
X7.1792Y-3.4262
X7.1792Y-3.7262
X7.2792Y-3.4262
X7.2792Y-3.7262
X7.3792Y-3.4262
X7.3792Y-3.7262
X7.4792Y-3.4262
X7.4792Y-3.7262
X7.5792Y-3.4262
X7.5792Y-3.7262
T4
X4.6945Y-4.5819
X4.6945Y-4.8819
X4.8224Y-4.5232
X5.1224Y-4.5232
X5.6937Y-4.4626
X5.8906Y-4.4626
X6.0713Y-4.4618
X6.3713Y-4.4618
X6.478Y-4.6429
X6.478Y-4.9429
X6.7785Y-3.2742
X6.8785Y-3.2742
X6.9785Y-3.2742
X7.0785Y-3.2742
X7.1785Y-3.2742
X7.2785Y-3.2742
X7.3785Y-3.2742
X7.4785Y-3.2742
X7.5785Y-3.2742
X7.6205Y-2.7331
X7.6205Y-2.9299
X7.6567Y-3.9122
X7.7402Y-3.089
X7.7413Y-2.6512
X7.9567Y-3.9122
X8.0402Y-3.089
X8.0413Y-2.6512
X8.1228Y-3.9449
X8.1228Y-4.1417
X8.1655Y-3.087
X8.1655Y-3.387
X8.2016Y-3.9449
X8.2016Y-4.1417
X8.2803Y-3.9449
X8.2803Y-4.1417
T5
X3.2Y-4.675
X3.3Y-4.775
X3.4Y-4.675
X3.7Y-4.675
X3.8Y-4.775
X3.9Y-4.675
T6
X4.9148Y-4.7437
X5.0148Y-4.7437
X5.851Y-4.7449
X5.951Y-4.7449
X7.8055Y-4.122
X7.9055Y-4.122
X8.4309Y-3.128
X8.4309Y-3.228
T7
X3.029Y-2.054
X3.129Y-2.054
X3.229Y-2.054
X3.329Y-2.054
X3.429Y-2.054
X3.529Y-2.054
X3.629Y-2.054
X3.729Y-2.054
X3.829Y-2.054
X3.929Y-2.054
X4.029Y-2.054
X4.129Y-2.054
X4.229Y-2.054
X4.329Y-2.054
X4.429Y-2.054
X4.529Y-2.054
X5.185Y-4.6492
X5.185Y-4.8264
X5.4409Y-4.6492
X5.4409Y-4.8264
X6.0984Y-4.6551
X6.0984Y-4.8323
X6.3543Y-4.6551
X6.3543Y-4.8323
X6.875Y-4.325
X6.875Y-4.625
X6.975Y-4.325
X6.975Y-4.625
X7.075Y-4.325
X7.075Y-4.625
X7.175Y-4.325
X7.175Y-4.625
X7.275Y-4.325
X7.275Y-4.625
X7.375Y-4.325
X7.375Y-4.625
X7.475Y-4.325
X7.475Y-4.625
X7.575Y-4.325
X7.575Y-4.625
T2
G00X8.2913Y-2.6215
M15
G01X8.3346Y-2.6215
M16
G05
G00X8.2913Y-2.9616
M15
G01X8.3346Y-2.9616
M16
G05
G00X8.4657Y-2.6215
M15
G01X8.4894Y-2.6215
M16
G05
G00X8.4657Y-2.9616
M15
G01X8.4894Y-2.9616
M16
G05
M30
