M48
; DRILL file {KiCad 7.0.10} date Sun Mar 17 08:12:10 2024
; FORMAT={-:-/ absolute / inch / decimal}
; #@! TF.CreationDate,2024-03-17T08:12:10-07:00
; #@! TF.GenerationSoftware,Kicad,Pcbnew,7.0.10
; #@! TF.FileFunction,Plated,1,2,PTH
FMAT,2
INCH
; #@! TA.AperFunction,Plated,PTH,ViaDrill
T1C0.0157
; #@! TA.AperFunction,Plated,PTH,ComponentDrill
T2C0.0197
; #@! TA.AperFunction,Plated,PTH,ComponentDrill
T3C0.0276
; #@! TA.AperFunction,Plated,PTH,ComponentDrill
T4C0.0315
; #@! TA.AperFunction,Plated,PTH,ComponentDrill
T5C0.0320
; #@! TA.AperFunction,Plated,PTH,ComponentDrill
T6C0.0354
; #@! TA.AperFunction,Plated,PTH,ComponentDrill
T7C0.0394
%
G90
G05
T1
X3.66Y-2.203
X4.5948Y-3.0852
X6.8769Y-3.8301
X6.8795Y-3.5449
X6.9808Y-3.8301
X6.9811Y-3.5594
X7.0783Y-3.5772
X7.0799Y-3.8301
X7.1787Y-3.598
X7.18Y-3.8301
X7.2811Y-3.6158
X7.2812Y-3.8301
X7.3776Y-3.6335
X7.3812Y-3.8301
X7.4787Y-3.6512
X7.4823Y-3.8301
X7.5796Y-3.8301
X8.225Y-2.75
X8.225Y-2.8693
X8.38Y-2.7
X8.38Y-2.9
T3
X6.8792Y-3.4262
X6.8792Y-3.7262
X6.9792Y-3.4262
X6.9792Y-3.7262
X7.0792Y-3.4262
X7.0792Y-3.7262
X7.1792Y-3.4262
X7.1792Y-3.7262
X7.2792Y-3.4262
X7.2792Y-3.7262
X7.3792Y-3.4262
X7.3792Y-3.7262
X7.4792Y-3.4262
X7.4792Y-3.7262
X7.5792Y-3.4262
X7.5792Y-3.7262
T4
X3.625Y-1.9
X3.725Y-1.9
X3.825Y-1.9
X3.925Y-1.9
X4.025Y-1.9
X4.125Y-1.9
X4.225Y-1.9
X4.325Y-1.9
X4.425Y-1.9
X4.6Y-4.5219
X4.6Y-4.725
X4.9Y-4.5219
X4.9Y-4.725
X5.71Y-4.62
X5.8474Y-4.42
X5.86Y-4.86
X6.01Y-4.62
X6.0443Y-4.42
X6.16Y-4.86
X6.225Y-4.42
X6.525Y-4.42
X6.7785Y-3.2742
X6.8785Y-3.2742
X6.9785Y-3.2742
X7.0785Y-3.2742
X7.1785Y-3.2742
X7.2785Y-3.2742
X7.3785Y-3.2742
X7.4785Y-3.2742
X7.5785Y-3.2742
X7.6567Y-3.9122
X7.85Y-2.6
X7.85Y-3.025
X7.85Y-3.225
X7.9567Y-3.9122
X8.1228Y-3.9449
X8.1228Y-4.1417
X8.15Y-2.6
X8.15Y-3.025
X8.15Y-3.225
X8.1816Y-2.42
X8.2016Y-3.9449
X8.2016Y-4.1417
X8.2803Y-3.9449
X8.2803Y-4.1417
X8.3784Y-2.42
T5
X3.2Y-4.675
X3.3Y-4.775
X3.4Y-4.675
X3.7Y-4.675
X3.8Y-4.775
X3.9Y-4.675
T6
X4.3248Y-4.775
X4.4248Y-4.775
X5.64Y-4.8305
X5.74Y-4.8305
X7.75Y-4.125
X7.85Y-4.125
X8.3Y-3.175
X8.4Y-3.175
T7
X3.029Y-2.054
X3.129Y-2.054
X3.229Y-2.054
X3.329Y-2.054
X3.429Y-2.054
X3.529Y-2.054
X3.629Y-2.054
X3.729Y-2.054
X3.829Y-2.054
X3.929Y-2.054
X4.029Y-2.054
X4.129Y-2.054
X4.229Y-2.054
X4.329Y-2.054
X4.429Y-2.054
X4.529Y-2.054
X5.047Y-4.6478
X5.047Y-4.825
X5.303Y-4.6478
X5.303Y-4.825
X6.272Y-4.6551
X6.272Y-4.8323
X6.528Y-4.6551
X6.528Y-4.8323
X6.875Y-4.325
X6.875Y-4.625
X6.975Y-4.325
X6.975Y-4.625
X7.075Y-4.325
X7.075Y-4.625
X7.175Y-4.325
X7.175Y-4.625
X7.275Y-4.325
X7.275Y-4.625
X7.375Y-4.325
X7.375Y-4.625
X7.475Y-4.325
X7.475Y-4.625
X7.575Y-4.325
X7.575Y-4.625
T2
G00X8.3116Y-2.6348
M15
G01X8.3392Y-2.6348
M16
G05
G00X8.3116Y-2.975
M15
G01X8.3392Y-2.975
M16
G05
G00X8.4612Y-2.6348
M15
G01X8.4888Y-2.6348
M16
G05
G00X8.4612Y-2.975
M15
G01X8.4888Y-2.975
M16
G05
M30
