%TF.GenerationSoftware,KiCad,Pcbnew,7.0.10*%
%TF.CreationDate,2024-03-06T22:35:53-08:00*%
%TF.ProjectId,hd44780_tutorial,68643434-3738-4305-9f74-75746f726961,1.0*%
%TF.SameCoordinates,Original*%
%TF.FileFunction,Other,User*%
%FSLAX46Y46*%
G04 Gerber Fmt 4.6, Leading zero omitted, Abs format (unit mm)*
G04 Created by KiCad (PCBNEW 7.0.10) date 2024-03-06 22:35:53*
%MOMM*%
%LPD*%
G01*
G04 APERTURE LIST*
%ADD10C,0.050000*%
%ADD11C,0.152400*%
%ADD12C,0.100000*%
G04 APERTURE END LIST*
D10*
%TO.C,SW1*%
X127190000Y-117055000D02*
X127190000Y-123555000D01*
X127190000Y-123555000D02*
X135700000Y-123555000D01*
X135700000Y-117055000D02*
X127190000Y-117055000D01*
X135700000Y-123555000D02*
X135700000Y-117055000D01*
D11*
%TO.C,RV1*%
X78803500Y-113715800D02*
X88836500Y-113715800D01*
X78803500Y-123748800D02*
X78803500Y-113715800D01*
X88836500Y-113715800D02*
X88836500Y-123748800D01*
X88836500Y-123748800D02*
X78803500Y-123748800D01*
D10*
%TO.C,C2*%
X195060000Y-68370000D02*
X192060000Y-68370000D01*
X192060000Y-68370000D02*
X192060000Y-75470000D01*
X195060000Y-75470000D02*
X195060000Y-68370000D01*
X192060000Y-75470000D02*
X195060000Y-75470000D01*
%TO.C,R2*%
X162880000Y-114830000D02*
X162880000Y-111830000D01*
X162880000Y-111830000D02*
X153160000Y-111830000D01*
X153160000Y-114830000D02*
X162880000Y-114830000D01*
X153160000Y-111830000D02*
X153160000Y-114830000D01*
%TO.C,C1*%
X150670000Y-114850000D02*
X150670000Y-111850000D01*
X150670000Y-111850000D02*
X143570000Y-111850000D01*
X143570000Y-114850000D02*
X150670000Y-114850000D01*
X143570000Y-111850000D02*
X143570000Y-114850000D01*
%TO.C,J2*%
X209010000Y-76225000D02*
X218430000Y-76225000D01*
X209010000Y-76225000D02*
X209010000Y-65585000D01*
X218430000Y-76225000D02*
X218430000Y-65585000D01*
X209010000Y-65585000D02*
X218430000Y-65585000D01*
%TO.C,R9*%
X166040000Y-116880000D02*
X163040000Y-116880000D01*
X163040000Y-116880000D02*
X163040000Y-126600000D01*
X166040000Y-126600000D02*
X166040000Y-116880000D01*
X163040000Y-126600000D02*
X166040000Y-126600000D01*
%TO.C,D1*%
X108700000Y-119035000D02*
X108700000Y-123535000D01*
X108700000Y-123535000D02*
X113550000Y-123535000D01*
X113550000Y-119035000D02*
X108700000Y-119035000D01*
X113550000Y-123535000D02*
X113550000Y-119035000D01*
%TO.C,R6*%
X208904200Y-77360200D02*
X205904200Y-77360200D01*
X205904200Y-77360200D02*
X205904200Y-87080200D01*
X208904200Y-87080200D02*
X208904200Y-77360200D01*
X205904200Y-87080200D02*
X208904200Y-87080200D01*
%TO.C,D2*%
X142360000Y-119035000D02*
X142360000Y-123535000D01*
X142360000Y-123535000D02*
X147210000Y-123535000D01*
X147210000Y-119035000D02*
X142360000Y-119035000D01*
X147210000Y-123535000D02*
X147210000Y-119035000D01*
%TO.C,R8*%
X205270000Y-79960000D02*
X205270000Y-76960000D01*
X205270000Y-76960000D02*
X195550000Y-76960000D01*
X195550000Y-79960000D02*
X205270000Y-79960000D01*
X195550000Y-76960000D02*
X195550000Y-79960000D01*
%TO.C,J1*%
X75136600Y-53971600D02*
X75136600Y-50421600D01*
X116836600Y-53971600D02*
X75136600Y-53971600D01*
X75136600Y-50421600D02*
X116836600Y-50421600D01*
X116836600Y-50421600D02*
X116836600Y-53971600D01*
%TO.C,SW2*%
X153895000Y-117240000D02*
X153895000Y-123740000D01*
X153895000Y-123740000D02*
X162405000Y-123740000D01*
X162405000Y-117240000D02*
X153895000Y-117240000D01*
X162405000Y-123740000D02*
X162405000Y-117240000D01*
%TO.C,H2*%
X212450000Y-51960000D02*
G75*
G03*
X206550000Y-51960000I-2950000J0D01*
G01*
X206550000Y-51960000D02*
G75*
G03*
X212450000Y-51960000I2950000J0D01*
G01*
%TO.C,H1*%
X72540000Y-52430000D02*
G75*
G03*
X66640000Y-52430000I-2950000J0D01*
G01*
X66640000Y-52430000D02*
G75*
G03*
X72540000Y-52430000I2950000J0D01*
G01*
%TO.C,D3*%
X173181400Y-96194800D02*
X193781400Y-96194800D01*
X173181400Y-96194800D02*
X173281400Y-85534800D01*
X193781400Y-96194800D02*
X193781400Y-85534800D01*
X173281400Y-85534800D02*
X193781400Y-85534800D01*
%TO.C,R1*%
X125510000Y-121515000D02*
X125510000Y-118515000D01*
X125510000Y-118515000D02*
X115790000Y-118515000D01*
X115790000Y-121515000D02*
X125510000Y-121515000D01*
X115790000Y-118515000D02*
X115790000Y-121515000D01*
%TO.C,R5*%
X193430000Y-97870000D02*
X193430000Y-100870000D01*
X193430000Y-100870000D02*
X203150000Y-100870000D01*
X203150000Y-97870000D02*
X193430000Y-97870000D01*
X203150000Y-100870000D02*
X203150000Y-97870000D01*
%TO.C,D6*%
X197110000Y-102450000D02*
X197110000Y-106950000D01*
X197110000Y-106950000D02*
X201960000Y-106950000D01*
X201960000Y-102450000D02*
X197110000Y-102450000D01*
X201960000Y-106950000D02*
X201960000Y-102450000D01*
%TO.C,H4*%
X72250000Y-124260000D02*
G75*
G03*
X66350000Y-124260000I-2950000J0D01*
G01*
X66350000Y-124260000D02*
G75*
G03*
X72250000Y-124260000I2950000J0D01*
G01*
D11*
%TO.C,RV2*%
X91503500Y-113715800D02*
X101536500Y-113715800D01*
X91503500Y-123748800D02*
X91503500Y-113715800D01*
X101536500Y-113715800D02*
X101536500Y-123748800D01*
X101536500Y-123748800D02*
X91503500Y-123748800D01*
D10*
%TO.C,H3*%
X212450000Y-124260000D02*
G75*
G03*
X206550000Y-124260000I-2950000J0D01*
G01*
X206550000Y-124260000D02*
G75*
G03*
X212450000Y-124260000I2950000J0D01*
G01*
%TO.C,SW3*%
X172315000Y-108015000D02*
X194715000Y-108015000D01*
X172315000Y-119315000D02*
X172315000Y-108015000D01*
X194715000Y-108015000D02*
X194715000Y-119315000D01*
X194715000Y-119315000D02*
X172315000Y-119315000D01*
%TO.C,R3*%
X117935000Y-113355000D02*
X117935000Y-116355000D01*
X117935000Y-116355000D02*
X127655000Y-116355000D01*
X127655000Y-113355000D02*
X117935000Y-113355000D01*
X127655000Y-116355000D02*
X127655000Y-113355000D01*
%TO.C,RN1*%
X170474600Y-81514400D02*
X170474600Y-84814400D01*
X170474600Y-84814400D02*
X194224600Y-84814400D01*
X194224600Y-81514400D02*
X170474600Y-81514400D01*
X194224600Y-84814400D02*
X194224600Y-81514400D01*
%TO.C,D4*%
X211894200Y-83140200D02*
X216394200Y-83140200D01*
X216394200Y-83140200D02*
X216394200Y-78290200D01*
X211894200Y-78290200D02*
X211894200Y-83140200D01*
X216394200Y-78290200D02*
X211894200Y-78290200D01*
%TO.C,R7*%
X205300000Y-68840000D02*
X205300000Y-65840000D01*
X205300000Y-65840000D02*
X195580000Y-65840000D01*
X195580000Y-68840000D02*
X205300000Y-68840000D01*
X195580000Y-65840000D02*
X195580000Y-68840000D01*
D12*
%TO.C,S1*%
X203820000Y-98200000D02*
X212820000Y-98200000D01*
X203820000Y-107200000D02*
X203820000Y-98200000D01*
X212820000Y-98200000D02*
X212820000Y-107200000D01*
X212820000Y-107200000D02*
X203820000Y-107200000D01*
%TD*%
M02*
