%TF.GenerationSoftware,KiCad,Pcbnew,7.0.10*%
%TF.CreationDate,2024-03-06T22:35:53-08:00*%
%TF.ProjectId,hd44780_tutorial,68643434-3738-4305-9f74-75746f726961,1.0*%
%TF.SameCoordinates,Original*%
%TF.FileFunction,Soldermask,Top*%
%TF.FilePolarity,Negative*%
%FSLAX46Y46*%
G04 Gerber Fmt 4.6, Leading zero omitted, Abs format (unit mm)*
G04 Created by KiCad (PCBNEW 7.0.10) date 2024-03-06 22:35:53*
%MOMM*%
%LPD*%
G01*
G04 APERTURE LIST*
G04 Aperture macros list*
%AMRoundRect*
0 Rectangle with rounded corners*
0 $1 Rounding radius*
0 $2 $3 $4 $5 $6 $7 $8 $9 X,Y pos of 4 corners*
0 Add a 4 corners polygon primitive as box body*
4,1,4,$2,$3,$4,$5,$6,$7,$8,$9,$2,$3,0*
0 Add four circle primitives for the rounded corners*
1,1,$1+$1,$2,$3*
1,1,$1+$1,$4,$5*
1,1,$1+$1,$6,$7*
1,1,$1+$1,$8,$9*
0 Add four rect primitives between the rounded corners*
20,1,$1+$1,$2,$3,$4,$5,0*
20,1,$1+$1,$4,$5,$6,$7,0*
20,1,$1+$1,$6,$7,$8,$9,0*
20,1,$1+$1,$8,$9,$2,$3,0*%
G04 Aperture macros list end*
%ADD10R,1.508000X1.508000*%
%ADD11C,1.508000*%
%ADD12C,1.320800*%
%ADD13R,1.320800X1.320800*%
%ADD14C,1.600000*%
%ADD15O,1.600000X1.600000*%
%ADD16C,0.650000*%
%ADD17R,1.450000X0.600000*%
%ADD18R,1.450000X0.300000*%
%ADD19O,2.100000X1.000000*%
%ADD20O,1.600000X1.000000*%
%ADD21R,1.800000X1.800000*%
%ADD22C,1.800000*%
%ADD23R,1.700000X1.700000*%
%ADD24O,1.700000X1.700000*%
%ADD25C,2.700000*%
%ADD26C,1.700000*%
%ADD27RoundRect,0.102000X-0.754000X-0.754000X0.754000X-0.754000X0.754000X0.754000X-0.754000X0.754000X0*%
%ADD28C,1.712000*%
%ADD29R,1.600000X1.600000*%
%ADD30C,1.300000*%
G04 APERTURE END LIST*
D10*
%TO.C,SW1*%
X128195000Y-118055000D03*
D11*
X134695000Y-118055000D03*
X128195000Y-122555000D03*
X134695000Y-122555000D03*
%TD*%
D12*
%TO.C,RV1*%
X81280000Y-118745000D03*
D13*
X83820000Y-121285000D03*
X86360000Y-118745000D03*
%TD*%
D14*
%TO.C,C2*%
X193560000Y-69420000D03*
X193560000Y-74420000D03*
%TD*%
%TO.C,R2*%
X161830000Y-113330000D03*
D15*
X154210000Y-113330000D03*
%TD*%
D14*
%TO.C,C1*%
X149620000Y-113350000D03*
X144620000Y-113350000D03*
%TD*%
D16*
%TO.C,J2*%
X211680000Y-73795000D03*
X211680000Y-68015000D03*
D17*
X210235000Y-74155000D03*
X210235000Y-73355000D03*
D18*
X210235000Y-72155000D03*
X210235000Y-71155000D03*
X210235000Y-70655000D03*
X210235000Y-69655000D03*
D17*
X210235000Y-68455000D03*
X210235000Y-67655000D03*
X210235000Y-67655000D03*
X210235000Y-68455000D03*
D18*
X210235000Y-69155000D03*
X210235000Y-70155000D03*
X210235000Y-71655000D03*
X210235000Y-72655000D03*
D17*
X210235000Y-73355000D03*
X210235000Y-74155000D03*
D19*
X211150000Y-75225000D03*
D20*
X215330000Y-75225000D03*
D19*
X211150000Y-66585000D03*
D20*
X215330000Y-66585000D03*
%TD*%
D14*
%TO.C,R9*%
X164540000Y-117930000D03*
D15*
X164540000Y-125550000D03*
%TD*%
D21*
%TO.C,D1*%
X109850000Y-121285000D03*
D22*
X112390000Y-121285000D03*
%TD*%
D14*
%TO.C,R6*%
X207404200Y-78410200D03*
D15*
X207404200Y-86030200D03*
%TD*%
D21*
%TO.C,D2*%
X143510000Y-121285000D03*
D22*
X146050000Y-121285000D03*
%TD*%
D14*
%TO.C,R8*%
X204220000Y-78460000D03*
D15*
X196600000Y-78460000D03*
%TD*%
D23*
%TO.C,J1*%
X76936600Y-52171600D03*
D24*
X79476600Y-52171600D03*
X82016600Y-52171600D03*
X84556600Y-52171600D03*
X87096600Y-52171600D03*
X89636600Y-52171600D03*
X92176600Y-52171600D03*
X94716600Y-52171600D03*
X97256600Y-52171600D03*
X99796600Y-52171600D03*
X102336600Y-52171600D03*
X104876600Y-52171600D03*
X107416600Y-52171600D03*
X109956600Y-52171600D03*
X112496600Y-52171600D03*
X115036600Y-52171600D03*
%TD*%
D10*
%TO.C,SW2*%
X154900000Y-118240000D03*
D11*
X161400000Y-118240000D03*
X154900000Y-122740000D03*
X161400000Y-122740000D03*
%TD*%
D25*
%TO.C,H2*%
X209500000Y-51960000D03*
%TD*%
%TO.C,H1*%
X69590000Y-52430000D03*
%TD*%
D23*
%TO.C,D3*%
X174731400Y-94644800D03*
D26*
X177271400Y-94644800D03*
X179811400Y-94644800D03*
X182351400Y-94644800D03*
X184891400Y-94644800D03*
X187431400Y-94644800D03*
X189971400Y-94644800D03*
X192511400Y-94644800D03*
X192511400Y-87024800D03*
X189971400Y-87024800D03*
X187431400Y-87024800D03*
X184891400Y-87024800D03*
X182351400Y-87024800D03*
X179811400Y-87024800D03*
X177271400Y-87024800D03*
X174731400Y-87024800D03*
%TD*%
D14*
%TO.C,R1*%
X124460000Y-120015000D03*
D15*
X116840000Y-120015000D03*
%TD*%
D14*
%TO.C,R5*%
X194480000Y-99370000D03*
D15*
X202100000Y-99370000D03*
%TD*%
D21*
%TO.C,D6*%
X198260000Y-104700000D03*
D22*
X200800000Y-104700000D03*
%TD*%
D25*
%TO.C,H4*%
X69300000Y-124260000D03*
%TD*%
D12*
%TO.C,RV2*%
X93980000Y-118745000D03*
D13*
X96520000Y-121285000D03*
X99060000Y-118745000D03*
%TD*%
D25*
%TO.C,H3*%
X209500000Y-124260000D03*
%TD*%
D27*
%TO.C,SW3*%
X174625000Y-117475000D03*
D28*
X174625000Y-109855000D03*
X177165000Y-117475000D03*
X177165000Y-109855000D03*
X179705000Y-117475000D03*
X179705000Y-109855000D03*
X182245000Y-117475000D03*
X182245000Y-109855000D03*
X184785000Y-117475000D03*
X184785000Y-109855000D03*
X187325000Y-117475000D03*
X187325000Y-109855000D03*
X189865000Y-117475000D03*
X189865000Y-109855000D03*
X192405000Y-117475000D03*
X192405000Y-109855000D03*
%TD*%
D14*
%TO.C,R3*%
X118985000Y-114855000D03*
D15*
X126605000Y-114855000D03*
%TD*%
D29*
%TO.C,RN1*%
X172174600Y-83164400D03*
D15*
X174714600Y-83164400D03*
X177254600Y-83164400D03*
X179794600Y-83164400D03*
X182334600Y-83164400D03*
X184874600Y-83164400D03*
X187414600Y-83164400D03*
X189954600Y-83164400D03*
X192494600Y-83164400D03*
%TD*%
D21*
%TO.C,D4*%
X214144200Y-81990200D03*
D22*
X214144200Y-79450200D03*
%TD*%
D14*
%TO.C,R7*%
X204250000Y-67340000D03*
D15*
X196630000Y-67340000D03*
%TD*%
D30*
%TO.C,S1*%
X206320000Y-105200000D03*
X208320000Y-105200000D03*
X210320000Y-105200000D03*
X206320000Y-100200000D03*
X208320000Y-100200000D03*
X210320000Y-100200000D03*
%TD*%
M02*
