%TF.GenerationSoftware,KiCad,Pcbnew,7.0.10*%
%TF.CreationDate,2024-03-06T22:35:53-08:00*%
%TF.ProjectId,hd44780_tutorial,68643434-3738-4305-9f74-75746f726961,1.0*%
%TF.SameCoordinates,Original*%
%TF.FileFunction,Legend,Top*%
%TF.FilePolarity,Positive*%
%FSLAX46Y46*%
G04 Gerber Fmt 4.6, Leading zero omitted, Abs format (unit mm)*
G04 Created by KiCad (PCBNEW 7.0.10) date 2024-03-06 22:35:53*
%MOMM*%
%LPD*%
G01*
G04 APERTURE LIST*
%ADD10C,0.300000*%
%ADD11C,0.400000*%
%ADD12C,0.150000*%
%ADD13C,0.200000*%
%ADD14C,0.254000*%
%ADD15C,0.127000*%
%ADD16C,0.152400*%
%ADD17C,0.120000*%
%ADD18C,0.100000*%
G04 APERTURE END LIST*
D10*
X198385713Y-72315828D02*
X198385713Y-70815828D01*
X198385713Y-70815828D02*
X198957142Y-70815828D01*
X198957142Y-70815828D02*
X199099999Y-70887257D01*
X199099999Y-70887257D02*
X199171428Y-70958685D01*
X199171428Y-70958685D02*
X199242856Y-71101542D01*
X199242856Y-71101542D02*
X199242856Y-71315828D01*
X199242856Y-71315828D02*
X199171428Y-71458685D01*
X199171428Y-71458685D02*
X199099999Y-71530114D01*
X199099999Y-71530114D02*
X198957142Y-71601542D01*
X198957142Y-71601542D02*
X198385713Y-71601542D01*
X200171428Y-70815828D02*
X200457142Y-70815828D01*
X200457142Y-70815828D02*
X200599999Y-70887257D01*
X200599999Y-70887257D02*
X200742856Y-71030114D01*
X200742856Y-71030114D02*
X200814285Y-71315828D01*
X200814285Y-71315828D02*
X200814285Y-71815828D01*
X200814285Y-71815828D02*
X200742856Y-72101542D01*
X200742856Y-72101542D02*
X200599999Y-72244400D01*
X200599999Y-72244400D02*
X200457142Y-72315828D01*
X200457142Y-72315828D02*
X200171428Y-72315828D01*
X200171428Y-72315828D02*
X200028571Y-72244400D01*
X200028571Y-72244400D02*
X199885713Y-72101542D01*
X199885713Y-72101542D02*
X199814285Y-71815828D01*
X199814285Y-71815828D02*
X199814285Y-71315828D01*
X199814285Y-71315828D02*
X199885713Y-71030114D01*
X199885713Y-71030114D02*
X200028571Y-70887257D01*
X200028571Y-70887257D02*
X200171428Y-70815828D01*
X201314285Y-70815828D02*
X201671428Y-72315828D01*
X201671428Y-72315828D02*
X201957142Y-71244400D01*
X201957142Y-71244400D02*
X202242857Y-72315828D01*
X202242857Y-72315828D02*
X202600000Y-70815828D01*
X203171428Y-71530114D02*
X203671428Y-71530114D01*
X203885714Y-72315828D02*
X203171428Y-72315828D01*
X203171428Y-72315828D02*
X203171428Y-70815828D01*
X203171428Y-70815828D02*
X203885714Y-70815828D01*
X205385714Y-72315828D02*
X204885714Y-71601542D01*
X204528571Y-72315828D02*
X204528571Y-70815828D01*
X204528571Y-70815828D02*
X205100000Y-70815828D01*
X205100000Y-70815828D02*
X205242857Y-70887257D01*
X205242857Y-70887257D02*
X205314286Y-70958685D01*
X205314286Y-70958685D02*
X205385714Y-71101542D01*
X205385714Y-71101542D02*
X205385714Y-71315828D01*
X205385714Y-71315828D02*
X205314286Y-71458685D01*
X205314286Y-71458685D02*
X205242857Y-71530114D01*
X205242857Y-71530114D02*
X205100000Y-71601542D01*
X205100000Y-71601542D02*
X204528571Y-71601542D01*
X199671428Y-73230828D02*
X199957142Y-73230828D01*
X199957142Y-73230828D02*
X200099999Y-73302257D01*
X200099999Y-73302257D02*
X200242856Y-73445114D01*
X200242856Y-73445114D02*
X200314285Y-73730828D01*
X200314285Y-73730828D02*
X200314285Y-74230828D01*
X200314285Y-74230828D02*
X200242856Y-74516542D01*
X200242856Y-74516542D02*
X200099999Y-74659400D01*
X200099999Y-74659400D02*
X199957142Y-74730828D01*
X199957142Y-74730828D02*
X199671428Y-74730828D01*
X199671428Y-74730828D02*
X199528571Y-74659400D01*
X199528571Y-74659400D02*
X199385713Y-74516542D01*
X199385713Y-74516542D02*
X199314285Y-74230828D01*
X199314285Y-74230828D02*
X199314285Y-73730828D01*
X199314285Y-73730828D02*
X199385713Y-73445114D01*
X199385713Y-73445114D02*
X199528571Y-73302257D01*
X199528571Y-73302257D02*
X199671428Y-73230828D01*
X200957142Y-74730828D02*
X200957142Y-73230828D01*
X200957142Y-73230828D02*
X201814285Y-74730828D01*
X201814285Y-74730828D02*
X201814285Y-73230828D01*
X203242857Y-74730828D02*
X202528571Y-74730828D01*
X202528571Y-74730828D02*
X202528571Y-73230828D01*
X204028572Y-74016542D02*
X204028572Y-74730828D01*
X203528572Y-73230828D02*
X204028572Y-74016542D01*
X204028572Y-74016542D02*
X204528572Y-73230828D01*
D11*
X172189347Y-56159438D02*
X172189347Y-54159438D01*
X173998871Y-56159438D02*
X173998871Y-55111819D01*
X173998871Y-55111819D02*
X173903633Y-54921342D01*
X173903633Y-54921342D02*
X173713157Y-54826104D01*
X173713157Y-54826104D02*
X173332204Y-54826104D01*
X173332204Y-54826104D02*
X173141728Y-54921342D01*
X173998871Y-56064200D02*
X173808395Y-56159438D01*
X173808395Y-56159438D02*
X173332204Y-56159438D01*
X173332204Y-56159438D02*
X173141728Y-56064200D01*
X173141728Y-56064200D02*
X173046490Y-55873723D01*
X173046490Y-55873723D02*
X173046490Y-55683247D01*
X173046490Y-55683247D02*
X173141728Y-55492771D01*
X173141728Y-55492771D02*
X173332204Y-55397533D01*
X173332204Y-55397533D02*
X173808395Y-55397533D01*
X173808395Y-55397533D02*
X173998871Y-55302295D01*
X174951252Y-54826104D02*
X174951252Y-56159438D01*
X174951252Y-55016580D02*
X175046490Y-54921342D01*
X175046490Y-54921342D02*
X175236966Y-54826104D01*
X175236966Y-54826104D02*
X175522681Y-54826104D01*
X175522681Y-54826104D02*
X175713157Y-54921342D01*
X175713157Y-54921342D02*
X175808395Y-55111819D01*
X175808395Y-55111819D02*
X175808395Y-56159438D01*
X178094110Y-54159438D02*
X178570300Y-56159438D01*
X178570300Y-56159438D02*
X178951253Y-54730866D01*
X178951253Y-54730866D02*
X179332205Y-56159438D01*
X179332205Y-56159438D02*
X179808396Y-54159438D01*
X181427443Y-56159438D02*
X181427443Y-55111819D01*
X181427443Y-55111819D02*
X181332205Y-54921342D01*
X181332205Y-54921342D02*
X181141729Y-54826104D01*
X181141729Y-54826104D02*
X180760776Y-54826104D01*
X180760776Y-54826104D02*
X180570300Y-54921342D01*
X181427443Y-56064200D02*
X181236967Y-56159438D01*
X181236967Y-56159438D02*
X180760776Y-56159438D01*
X180760776Y-56159438D02*
X180570300Y-56064200D01*
X180570300Y-56064200D02*
X180475062Y-55873723D01*
X180475062Y-55873723D02*
X180475062Y-55683247D01*
X180475062Y-55683247D02*
X180570300Y-55492771D01*
X180570300Y-55492771D02*
X180760776Y-55397533D01*
X180760776Y-55397533D02*
X181236967Y-55397533D01*
X181236967Y-55397533D02*
X181427443Y-55302295D01*
X182379824Y-56159438D02*
X182379824Y-54826104D01*
X182379824Y-55207057D02*
X182475062Y-55016580D01*
X182475062Y-55016580D02*
X182570300Y-54921342D01*
X182570300Y-54921342D02*
X182760776Y-54826104D01*
X182760776Y-54826104D02*
X182951253Y-54826104D01*
X184475062Y-56159438D02*
X184475062Y-54159438D01*
X184475062Y-56064200D02*
X184284586Y-56159438D01*
X184284586Y-56159438D02*
X183903633Y-56159438D01*
X183903633Y-56159438D02*
X183713157Y-56064200D01*
X183713157Y-56064200D02*
X183617919Y-55968961D01*
X183617919Y-55968961D02*
X183522681Y-55778485D01*
X183522681Y-55778485D02*
X183522681Y-55207057D01*
X183522681Y-55207057D02*
X183617919Y-55016580D01*
X183617919Y-55016580D02*
X183713157Y-54921342D01*
X183713157Y-54921342D02*
X183903633Y-54826104D01*
X183903633Y-54826104D02*
X184284586Y-54826104D01*
X184284586Y-54826104D02*
X184475062Y-54921342D01*
X185522681Y-54159438D02*
X185332205Y-54540390D01*
X186284586Y-56064200D02*
X186475062Y-56159438D01*
X186475062Y-56159438D02*
X186856014Y-56159438D01*
X186856014Y-56159438D02*
X187046491Y-56064200D01*
X187046491Y-56064200D02*
X187141729Y-55873723D01*
X187141729Y-55873723D02*
X187141729Y-55778485D01*
X187141729Y-55778485D02*
X187046491Y-55588009D01*
X187046491Y-55588009D02*
X186856014Y-55492771D01*
X186856014Y-55492771D02*
X186570300Y-55492771D01*
X186570300Y-55492771D02*
X186379824Y-55397533D01*
X186379824Y-55397533D02*
X186284586Y-55207057D01*
X186284586Y-55207057D02*
X186284586Y-55111819D01*
X186284586Y-55111819D02*
X186379824Y-54921342D01*
X186379824Y-54921342D02*
X186570300Y-54826104D01*
X186570300Y-54826104D02*
X186856014Y-54826104D01*
X186856014Y-54826104D02*
X187046491Y-54921342D01*
X172189347Y-59379438D02*
X172189347Y-57379438D01*
X172189347Y-58331819D02*
X173332204Y-58331819D01*
X173332204Y-59379438D02*
X173332204Y-57379438D01*
X174284585Y-59379438D02*
X174284585Y-57379438D01*
X174284585Y-57379438D02*
X174760775Y-57379438D01*
X174760775Y-57379438D02*
X175046490Y-57474676D01*
X175046490Y-57474676D02*
X175236966Y-57665152D01*
X175236966Y-57665152D02*
X175332204Y-57855628D01*
X175332204Y-57855628D02*
X175427442Y-58236580D01*
X175427442Y-58236580D02*
X175427442Y-58522295D01*
X175427442Y-58522295D02*
X175332204Y-58903247D01*
X175332204Y-58903247D02*
X175236966Y-59093723D01*
X175236966Y-59093723D02*
X175046490Y-59284200D01*
X175046490Y-59284200D02*
X174760775Y-59379438D01*
X174760775Y-59379438D02*
X174284585Y-59379438D01*
X177141728Y-58046104D02*
X177141728Y-59379438D01*
X176665537Y-57284200D02*
X176189347Y-58712771D01*
X176189347Y-58712771D02*
X177427442Y-58712771D01*
X179046490Y-58046104D02*
X179046490Y-59379438D01*
X178570299Y-57284200D02*
X178094109Y-58712771D01*
X178094109Y-58712771D02*
X179332204Y-58712771D01*
X179903633Y-57379438D02*
X181236966Y-57379438D01*
X181236966Y-57379438D02*
X180379823Y-59379438D01*
X182284585Y-58236580D02*
X182094109Y-58141342D01*
X182094109Y-58141342D02*
X181998871Y-58046104D01*
X181998871Y-58046104D02*
X181903633Y-57855628D01*
X181903633Y-57855628D02*
X181903633Y-57760390D01*
X181903633Y-57760390D02*
X181998871Y-57569914D01*
X181998871Y-57569914D02*
X182094109Y-57474676D01*
X182094109Y-57474676D02*
X182284585Y-57379438D01*
X182284585Y-57379438D02*
X182665538Y-57379438D01*
X182665538Y-57379438D02*
X182856014Y-57474676D01*
X182856014Y-57474676D02*
X182951252Y-57569914D01*
X182951252Y-57569914D02*
X183046490Y-57760390D01*
X183046490Y-57760390D02*
X183046490Y-57855628D01*
X183046490Y-57855628D02*
X182951252Y-58046104D01*
X182951252Y-58046104D02*
X182856014Y-58141342D01*
X182856014Y-58141342D02*
X182665538Y-58236580D01*
X182665538Y-58236580D02*
X182284585Y-58236580D01*
X182284585Y-58236580D02*
X182094109Y-58331819D01*
X182094109Y-58331819D02*
X181998871Y-58427057D01*
X181998871Y-58427057D02*
X181903633Y-58617533D01*
X181903633Y-58617533D02*
X181903633Y-58998485D01*
X181903633Y-58998485D02*
X181998871Y-59188961D01*
X181998871Y-59188961D02*
X182094109Y-59284200D01*
X182094109Y-59284200D02*
X182284585Y-59379438D01*
X182284585Y-59379438D02*
X182665538Y-59379438D01*
X182665538Y-59379438D02*
X182856014Y-59284200D01*
X182856014Y-59284200D02*
X182951252Y-59188961D01*
X182951252Y-59188961D02*
X183046490Y-58998485D01*
X183046490Y-58998485D02*
X183046490Y-58617533D01*
X183046490Y-58617533D02*
X182951252Y-58427057D01*
X182951252Y-58427057D02*
X182856014Y-58331819D01*
X182856014Y-58331819D02*
X182665538Y-58236580D01*
X184284585Y-57379438D02*
X184475062Y-57379438D01*
X184475062Y-57379438D02*
X184665538Y-57474676D01*
X184665538Y-57474676D02*
X184760776Y-57569914D01*
X184760776Y-57569914D02*
X184856014Y-57760390D01*
X184856014Y-57760390D02*
X184951252Y-58141342D01*
X184951252Y-58141342D02*
X184951252Y-58617533D01*
X184951252Y-58617533D02*
X184856014Y-58998485D01*
X184856014Y-58998485D02*
X184760776Y-59188961D01*
X184760776Y-59188961D02*
X184665538Y-59284200D01*
X184665538Y-59284200D02*
X184475062Y-59379438D01*
X184475062Y-59379438D02*
X184284585Y-59379438D01*
X184284585Y-59379438D02*
X184094109Y-59284200D01*
X184094109Y-59284200D02*
X183998871Y-59188961D01*
X183998871Y-59188961D02*
X183903633Y-58998485D01*
X183903633Y-58998485D02*
X183808395Y-58617533D01*
X183808395Y-58617533D02*
X183808395Y-58141342D01*
X183808395Y-58141342D02*
X183903633Y-57760390D01*
X183903633Y-57760390D02*
X183998871Y-57569914D01*
X183998871Y-57569914D02*
X184094109Y-57474676D01*
X184094109Y-57474676D02*
X184284585Y-57379438D01*
X187046491Y-57379438D02*
X188189348Y-57379438D01*
X187617919Y-59379438D02*
X187617919Y-57379438D01*
X189713158Y-58046104D02*
X189713158Y-59379438D01*
X188856015Y-58046104D02*
X188856015Y-59093723D01*
X188856015Y-59093723D02*
X188951253Y-59284200D01*
X188951253Y-59284200D02*
X189141729Y-59379438D01*
X189141729Y-59379438D02*
X189427444Y-59379438D01*
X189427444Y-59379438D02*
X189617920Y-59284200D01*
X189617920Y-59284200D02*
X189713158Y-59188961D01*
X190379825Y-58046104D02*
X191141729Y-58046104D01*
X190665539Y-57379438D02*
X190665539Y-59093723D01*
X190665539Y-59093723D02*
X190760777Y-59284200D01*
X190760777Y-59284200D02*
X190951253Y-59379438D01*
X190951253Y-59379438D02*
X191141729Y-59379438D01*
X192094110Y-59379438D02*
X191903634Y-59284200D01*
X191903634Y-59284200D02*
X191808396Y-59188961D01*
X191808396Y-59188961D02*
X191713158Y-58998485D01*
X191713158Y-58998485D02*
X191713158Y-58427057D01*
X191713158Y-58427057D02*
X191808396Y-58236580D01*
X191808396Y-58236580D02*
X191903634Y-58141342D01*
X191903634Y-58141342D02*
X192094110Y-58046104D01*
X192094110Y-58046104D02*
X192379825Y-58046104D01*
X192379825Y-58046104D02*
X192570301Y-58141342D01*
X192570301Y-58141342D02*
X192665539Y-58236580D01*
X192665539Y-58236580D02*
X192760777Y-58427057D01*
X192760777Y-58427057D02*
X192760777Y-58998485D01*
X192760777Y-58998485D02*
X192665539Y-59188961D01*
X192665539Y-59188961D02*
X192570301Y-59284200D01*
X192570301Y-59284200D02*
X192379825Y-59379438D01*
X192379825Y-59379438D02*
X192094110Y-59379438D01*
X193617920Y-59379438D02*
X193617920Y-58046104D01*
X193617920Y-58427057D02*
X193713158Y-58236580D01*
X193713158Y-58236580D02*
X193808396Y-58141342D01*
X193808396Y-58141342D02*
X193998872Y-58046104D01*
X193998872Y-58046104D02*
X194189349Y-58046104D01*
X194856015Y-59379438D02*
X194856015Y-58046104D01*
X194856015Y-57379438D02*
X194760777Y-57474676D01*
X194760777Y-57474676D02*
X194856015Y-57569914D01*
X194856015Y-57569914D02*
X194951253Y-57474676D01*
X194951253Y-57474676D02*
X194856015Y-57379438D01*
X194856015Y-57379438D02*
X194856015Y-57569914D01*
X196665539Y-59379438D02*
X196665539Y-58331819D01*
X196665539Y-58331819D02*
X196570301Y-58141342D01*
X196570301Y-58141342D02*
X196379825Y-58046104D01*
X196379825Y-58046104D02*
X195998872Y-58046104D01*
X195998872Y-58046104D02*
X195808396Y-58141342D01*
X196665539Y-59284200D02*
X196475063Y-59379438D01*
X196475063Y-59379438D02*
X195998872Y-59379438D01*
X195998872Y-59379438D02*
X195808396Y-59284200D01*
X195808396Y-59284200D02*
X195713158Y-59093723D01*
X195713158Y-59093723D02*
X195713158Y-58903247D01*
X195713158Y-58903247D02*
X195808396Y-58712771D01*
X195808396Y-58712771D02*
X195998872Y-58617533D01*
X195998872Y-58617533D02*
X196475063Y-58617533D01*
X196475063Y-58617533D02*
X196665539Y-58522295D01*
X197903634Y-59379438D02*
X197713158Y-59284200D01*
X197713158Y-59284200D02*
X197617920Y-59093723D01*
X197617920Y-59093723D02*
X197617920Y-57379438D01*
X172475061Y-62599438D02*
X172284585Y-62504200D01*
X172284585Y-62504200D02*
X172189347Y-62408961D01*
X172189347Y-62408961D02*
X172094109Y-62218485D01*
X172094109Y-62218485D02*
X172094109Y-61647057D01*
X172094109Y-61647057D02*
X172189347Y-61456580D01*
X172189347Y-61456580D02*
X172284585Y-61361342D01*
X172284585Y-61361342D02*
X172475061Y-61266104D01*
X172475061Y-61266104D02*
X172760776Y-61266104D01*
X172760776Y-61266104D02*
X172951252Y-61361342D01*
X172951252Y-61361342D02*
X173046490Y-61456580D01*
X173046490Y-61456580D02*
X173141728Y-61647057D01*
X173141728Y-61647057D02*
X173141728Y-62218485D01*
X173141728Y-62218485D02*
X173046490Y-62408961D01*
X173046490Y-62408961D02*
X172951252Y-62504200D01*
X172951252Y-62504200D02*
X172760776Y-62599438D01*
X172760776Y-62599438D02*
X172475061Y-62599438D01*
X173998871Y-61266104D02*
X173998871Y-62599438D01*
X173998871Y-61456580D02*
X174094109Y-61361342D01*
X174094109Y-61361342D02*
X174284585Y-61266104D01*
X174284585Y-61266104D02*
X174570300Y-61266104D01*
X174570300Y-61266104D02*
X174760776Y-61361342D01*
X174760776Y-61361342D02*
X174856014Y-61551819D01*
X174856014Y-61551819D02*
X174856014Y-62599438D01*
X178189348Y-62599438D02*
X178189348Y-61551819D01*
X178189348Y-61551819D02*
X178094110Y-61361342D01*
X178094110Y-61361342D02*
X177903634Y-61266104D01*
X177903634Y-61266104D02*
X177522681Y-61266104D01*
X177522681Y-61266104D02*
X177332205Y-61361342D01*
X178189348Y-62504200D02*
X177998872Y-62599438D01*
X177998872Y-62599438D02*
X177522681Y-62599438D01*
X177522681Y-62599438D02*
X177332205Y-62504200D01*
X177332205Y-62504200D02*
X177236967Y-62313723D01*
X177236967Y-62313723D02*
X177236967Y-62123247D01*
X177236967Y-62123247D02*
X177332205Y-61932771D01*
X177332205Y-61932771D02*
X177522681Y-61837533D01*
X177522681Y-61837533D02*
X177998872Y-61837533D01*
X177998872Y-61837533D02*
X178189348Y-61742295D01*
X180665539Y-62599438D02*
X180665539Y-60599438D01*
X180665539Y-60599438D02*
X181427444Y-60599438D01*
X181427444Y-60599438D02*
X181617920Y-60694676D01*
X181617920Y-60694676D02*
X181713158Y-60789914D01*
X181713158Y-60789914D02*
X181808396Y-60980390D01*
X181808396Y-60980390D02*
X181808396Y-61266104D01*
X181808396Y-61266104D02*
X181713158Y-61456580D01*
X181713158Y-61456580D02*
X181617920Y-61551819D01*
X181617920Y-61551819D02*
X181427444Y-61647057D01*
X181427444Y-61647057D02*
X180665539Y-61647057D01*
X183808396Y-62408961D02*
X183713158Y-62504200D01*
X183713158Y-62504200D02*
X183427444Y-62599438D01*
X183427444Y-62599438D02*
X183236968Y-62599438D01*
X183236968Y-62599438D02*
X182951253Y-62504200D01*
X182951253Y-62504200D02*
X182760777Y-62313723D01*
X182760777Y-62313723D02*
X182665539Y-62123247D01*
X182665539Y-62123247D02*
X182570301Y-61742295D01*
X182570301Y-61742295D02*
X182570301Y-61456580D01*
X182570301Y-61456580D02*
X182665539Y-61075628D01*
X182665539Y-61075628D02*
X182760777Y-60885152D01*
X182760777Y-60885152D02*
X182951253Y-60694676D01*
X182951253Y-60694676D02*
X183236968Y-60599438D01*
X183236968Y-60599438D02*
X183427444Y-60599438D01*
X183427444Y-60599438D02*
X183713158Y-60694676D01*
X183713158Y-60694676D02*
X183808396Y-60789914D01*
X185332206Y-61551819D02*
X185617920Y-61647057D01*
X185617920Y-61647057D02*
X185713158Y-61742295D01*
X185713158Y-61742295D02*
X185808396Y-61932771D01*
X185808396Y-61932771D02*
X185808396Y-62218485D01*
X185808396Y-62218485D02*
X185713158Y-62408961D01*
X185713158Y-62408961D02*
X185617920Y-62504200D01*
X185617920Y-62504200D02*
X185427444Y-62599438D01*
X185427444Y-62599438D02*
X184665539Y-62599438D01*
X184665539Y-62599438D02*
X184665539Y-60599438D01*
X184665539Y-60599438D02*
X185332206Y-60599438D01*
X185332206Y-60599438D02*
X185522682Y-60694676D01*
X185522682Y-60694676D02*
X185617920Y-60789914D01*
X185617920Y-60789914D02*
X185713158Y-60980390D01*
X185713158Y-60980390D02*
X185713158Y-61170866D01*
X185713158Y-61170866D02*
X185617920Y-61361342D01*
X185617920Y-61361342D02*
X185522682Y-61456580D01*
X185522682Y-61456580D02*
X185332206Y-61551819D01*
X185332206Y-61551819D02*
X184665539Y-61551819D01*
D12*
X130061667Y-116712200D02*
X130204524Y-116759819D01*
X130204524Y-116759819D02*
X130442619Y-116759819D01*
X130442619Y-116759819D02*
X130537857Y-116712200D01*
X130537857Y-116712200D02*
X130585476Y-116664580D01*
X130585476Y-116664580D02*
X130633095Y-116569342D01*
X130633095Y-116569342D02*
X130633095Y-116474104D01*
X130633095Y-116474104D02*
X130585476Y-116378866D01*
X130585476Y-116378866D02*
X130537857Y-116331247D01*
X130537857Y-116331247D02*
X130442619Y-116283628D01*
X130442619Y-116283628D02*
X130252143Y-116236009D01*
X130252143Y-116236009D02*
X130156905Y-116188390D01*
X130156905Y-116188390D02*
X130109286Y-116140771D01*
X130109286Y-116140771D02*
X130061667Y-116045533D01*
X130061667Y-116045533D02*
X130061667Y-115950295D01*
X130061667Y-115950295D02*
X130109286Y-115855057D01*
X130109286Y-115855057D02*
X130156905Y-115807438D01*
X130156905Y-115807438D02*
X130252143Y-115759819D01*
X130252143Y-115759819D02*
X130490238Y-115759819D01*
X130490238Y-115759819D02*
X130633095Y-115807438D01*
X130966429Y-115759819D02*
X131204524Y-116759819D01*
X131204524Y-116759819D02*
X131395000Y-116045533D01*
X131395000Y-116045533D02*
X131585476Y-116759819D01*
X131585476Y-116759819D02*
X131823572Y-115759819D01*
X132728333Y-116759819D02*
X132156905Y-116759819D01*
X132442619Y-116759819D02*
X132442619Y-115759819D01*
X132442619Y-115759819D02*
X132347381Y-115902676D01*
X132347381Y-115902676D02*
X132252143Y-115997914D01*
X132252143Y-115997914D02*
X132156905Y-116045533D01*
D13*
X128059523Y-125512219D02*
X127726190Y-125036028D01*
X127488095Y-125512219D02*
X127488095Y-124512219D01*
X127488095Y-124512219D02*
X127869047Y-124512219D01*
X127869047Y-124512219D02*
X127964285Y-124559838D01*
X127964285Y-124559838D02*
X128011904Y-124607457D01*
X128011904Y-124607457D02*
X128059523Y-124702695D01*
X128059523Y-124702695D02*
X128059523Y-124845552D01*
X128059523Y-124845552D02*
X128011904Y-124940790D01*
X128011904Y-124940790D02*
X127964285Y-124988409D01*
X127964285Y-124988409D02*
X127869047Y-125036028D01*
X127869047Y-125036028D02*
X127488095Y-125036028D01*
X128488095Y-124988409D02*
X128821428Y-124988409D01*
X128964285Y-125512219D02*
X128488095Y-125512219D01*
X128488095Y-125512219D02*
X128488095Y-124512219D01*
X128488095Y-124512219D02*
X128964285Y-124512219D01*
X129916666Y-124559838D02*
X129821428Y-124512219D01*
X129821428Y-124512219D02*
X129678571Y-124512219D01*
X129678571Y-124512219D02*
X129535714Y-124559838D01*
X129535714Y-124559838D02*
X129440476Y-124655076D01*
X129440476Y-124655076D02*
X129392857Y-124750314D01*
X129392857Y-124750314D02*
X129345238Y-124940790D01*
X129345238Y-124940790D02*
X129345238Y-125083647D01*
X129345238Y-125083647D02*
X129392857Y-125274123D01*
X129392857Y-125274123D02*
X129440476Y-125369361D01*
X129440476Y-125369361D02*
X129535714Y-125464600D01*
X129535714Y-125464600D02*
X129678571Y-125512219D01*
X129678571Y-125512219D02*
X129773809Y-125512219D01*
X129773809Y-125512219D02*
X129916666Y-125464600D01*
X129916666Y-125464600D02*
X129964285Y-125416980D01*
X129964285Y-125416980D02*
X129964285Y-125083647D01*
X129964285Y-125083647D02*
X129773809Y-125083647D01*
X131107143Y-125464600D02*
X131250000Y-125512219D01*
X131250000Y-125512219D02*
X131488095Y-125512219D01*
X131488095Y-125512219D02*
X131583333Y-125464600D01*
X131583333Y-125464600D02*
X131630952Y-125416980D01*
X131630952Y-125416980D02*
X131678571Y-125321742D01*
X131678571Y-125321742D02*
X131678571Y-125226504D01*
X131678571Y-125226504D02*
X131630952Y-125131266D01*
X131630952Y-125131266D02*
X131583333Y-125083647D01*
X131583333Y-125083647D02*
X131488095Y-125036028D01*
X131488095Y-125036028D02*
X131297619Y-124988409D01*
X131297619Y-124988409D02*
X131202381Y-124940790D01*
X131202381Y-124940790D02*
X131154762Y-124893171D01*
X131154762Y-124893171D02*
X131107143Y-124797933D01*
X131107143Y-124797933D02*
X131107143Y-124702695D01*
X131107143Y-124702695D02*
X131154762Y-124607457D01*
X131154762Y-124607457D02*
X131202381Y-124559838D01*
X131202381Y-124559838D02*
X131297619Y-124512219D01*
X131297619Y-124512219D02*
X131535714Y-124512219D01*
X131535714Y-124512219D02*
X131678571Y-124559838D01*
X132107143Y-124988409D02*
X132440476Y-124988409D01*
X132583333Y-125512219D02*
X132107143Y-125512219D01*
X132107143Y-125512219D02*
X132107143Y-124512219D01*
X132107143Y-124512219D02*
X132583333Y-124512219D01*
X133488095Y-125512219D02*
X133011905Y-125512219D01*
X133011905Y-125512219D02*
X133011905Y-124512219D01*
X133821429Y-124988409D02*
X134154762Y-124988409D01*
X134297619Y-125512219D02*
X133821429Y-125512219D01*
X133821429Y-125512219D02*
X133821429Y-124512219D01*
X133821429Y-124512219D02*
X134297619Y-124512219D01*
X135297619Y-125416980D02*
X135250000Y-125464600D01*
X135250000Y-125464600D02*
X135107143Y-125512219D01*
X135107143Y-125512219D02*
X135011905Y-125512219D01*
X135011905Y-125512219D02*
X134869048Y-125464600D01*
X134869048Y-125464600D02*
X134773810Y-125369361D01*
X134773810Y-125369361D02*
X134726191Y-125274123D01*
X134726191Y-125274123D02*
X134678572Y-125083647D01*
X134678572Y-125083647D02*
X134678572Y-124940790D01*
X134678572Y-124940790D02*
X134726191Y-124750314D01*
X134726191Y-124750314D02*
X134773810Y-124655076D01*
X134773810Y-124655076D02*
X134869048Y-124559838D01*
X134869048Y-124559838D02*
X135011905Y-124512219D01*
X135011905Y-124512219D02*
X135107143Y-124512219D01*
X135107143Y-124512219D02*
X135250000Y-124559838D01*
X135250000Y-124559838D02*
X135297619Y-124607457D01*
X135583334Y-124512219D02*
X136154762Y-124512219D01*
X135869048Y-125512219D02*
X135869048Y-124512219D01*
D12*
X78559819Y-115530238D02*
X78083628Y-115863571D01*
X78559819Y-116101666D02*
X77559819Y-116101666D01*
X77559819Y-116101666D02*
X77559819Y-115720714D01*
X77559819Y-115720714D02*
X77607438Y-115625476D01*
X77607438Y-115625476D02*
X77655057Y-115577857D01*
X77655057Y-115577857D02*
X77750295Y-115530238D01*
X77750295Y-115530238D02*
X77893152Y-115530238D01*
X77893152Y-115530238D02*
X77988390Y-115577857D01*
X77988390Y-115577857D02*
X78036009Y-115625476D01*
X78036009Y-115625476D02*
X78083628Y-115720714D01*
X78083628Y-115720714D02*
X78083628Y-116101666D01*
X77559819Y-115244523D02*
X78559819Y-114911190D01*
X78559819Y-114911190D02*
X77559819Y-114577857D01*
X78559819Y-113720714D02*
X78559819Y-114292142D01*
X78559819Y-114006428D02*
X77559819Y-114006428D01*
X77559819Y-114006428D02*
X77702676Y-114101666D01*
X77702676Y-114101666D02*
X77797914Y-114196904D01*
X77797914Y-114196904D02*
X77845533Y-114292142D01*
X82986666Y-118187119D02*
X82510476Y-118187119D01*
X82510476Y-118187119D02*
X82462857Y-118663309D01*
X82462857Y-118663309D02*
X82510476Y-118615690D01*
X82510476Y-118615690D02*
X82605714Y-118568071D01*
X82605714Y-118568071D02*
X82843809Y-118568071D01*
X82843809Y-118568071D02*
X82939047Y-118615690D01*
X82939047Y-118615690D02*
X82986666Y-118663309D01*
X82986666Y-118663309D02*
X83034285Y-118758547D01*
X83034285Y-118758547D02*
X83034285Y-118996642D01*
X83034285Y-118996642D02*
X82986666Y-119091880D01*
X82986666Y-119091880D02*
X82939047Y-119139500D01*
X82939047Y-119139500D02*
X82843809Y-119187119D01*
X82843809Y-119187119D02*
X82605714Y-119187119D01*
X82605714Y-119187119D02*
X82510476Y-119139500D01*
X82510476Y-119139500D02*
X82462857Y-119091880D01*
X83462857Y-119187119D02*
X83462857Y-118187119D01*
X84034285Y-119187119D02*
X83605714Y-118615690D01*
X84034285Y-118187119D02*
X83462857Y-118758547D01*
X84415238Y-119187119D02*
X84653333Y-119187119D01*
X84653333Y-119187119D02*
X84653333Y-118996642D01*
X84653333Y-118996642D02*
X84558095Y-118949023D01*
X84558095Y-118949023D02*
X84462857Y-118853785D01*
X84462857Y-118853785D02*
X84415238Y-118710928D01*
X84415238Y-118710928D02*
X84415238Y-118472833D01*
X84415238Y-118472833D02*
X84462857Y-118329976D01*
X84462857Y-118329976D02*
X84558095Y-118234738D01*
X84558095Y-118234738D02*
X84700952Y-118187119D01*
X84700952Y-118187119D02*
X84891428Y-118187119D01*
X84891428Y-118187119D02*
X85034285Y-118234738D01*
X85034285Y-118234738D02*
X85129523Y-118329976D01*
X85129523Y-118329976D02*
X85177142Y-118472833D01*
X85177142Y-118472833D02*
X85177142Y-118710928D01*
X85177142Y-118710928D02*
X85129523Y-118853785D01*
X85129523Y-118853785D02*
X85034285Y-118949023D01*
X85034285Y-118949023D02*
X84939047Y-118996642D01*
X84939047Y-118996642D02*
X84939047Y-119187119D01*
X84939047Y-119187119D02*
X85177142Y-119187119D01*
D14*
X80130953Y-125548365D02*
X80070477Y-125608842D01*
X80070477Y-125608842D02*
X79889048Y-125669318D01*
X79889048Y-125669318D02*
X79768096Y-125669318D01*
X79768096Y-125669318D02*
X79586667Y-125608842D01*
X79586667Y-125608842D02*
X79465715Y-125487889D01*
X79465715Y-125487889D02*
X79405238Y-125366937D01*
X79405238Y-125366937D02*
X79344762Y-125125032D01*
X79344762Y-125125032D02*
X79344762Y-124943603D01*
X79344762Y-124943603D02*
X79405238Y-124701699D01*
X79405238Y-124701699D02*
X79465715Y-124580746D01*
X79465715Y-124580746D02*
X79586667Y-124459794D01*
X79586667Y-124459794D02*
X79768096Y-124399318D01*
X79768096Y-124399318D02*
X79889048Y-124399318D01*
X79889048Y-124399318D02*
X80070477Y-124459794D01*
X80070477Y-124459794D02*
X80130953Y-124520270D01*
X80917143Y-124399318D02*
X81159048Y-124399318D01*
X81159048Y-124399318D02*
X81280000Y-124459794D01*
X81280000Y-124459794D02*
X81400953Y-124580746D01*
X81400953Y-124580746D02*
X81461429Y-124822651D01*
X81461429Y-124822651D02*
X81461429Y-125245984D01*
X81461429Y-125245984D02*
X81400953Y-125487889D01*
X81400953Y-125487889D02*
X81280000Y-125608842D01*
X81280000Y-125608842D02*
X81159048Y-125669318D01*
X81159048Y-125669318D02*
X80917143Y-125669318D01*
X80917143Y-125669318D02*
X80796191Y-125608842D01*
X80796191Y-125608842D02*
X80675238Y-125487889D01*
X80675238Y-125487889D02*
X80614762Y-125245984D01*
X80614762Y-125245984D02*
X80614762Y-124822651D01*
X80614762Y-124822651D02*
X80675238Y-124580746D01*
X80675238Y-124580746D02*
X80796191Y-124459794D01*
X80796191Y-124459794D02*
X80917143Y-124399318D01*
X82005714Y-125669318D02*
X82005714Y-124399318D01*
X82005714Y-124399318D02*
X82731429Y-125669318D01*
X82731429Y-125669318D02*
X82731429Y-124399318D01*
X83154762Y-124399318D02*
X83880476Y-124399318D01*
X83517619Y-125669318D02*
X83517619Y-124399318D01*
X85029524Y-125669318D02*
X84606190Y-125064556D01*
X84303809Y-125669318D02*
X84303809Y-124399318D01*
X84303809Y-124399318D02*
X84787619Y-124399318D01*
X84787619Y-124399318D02*
X84908571Y-124459794D01*
X84908571Y-124459794D02*
X84969048Y-124520270D01*
X84969048Y-124520270D02*
X85029524Y-124641222D01*
X85029524Y-124641222D02*
X85029524Y-124822651D01*
X85029524Y-124822651D02*
X84969048Y-124943603D01*
X84969048Y-124943603D02*
X84908571Y-125004080D01*
X84908571Y-125004080D02*
X84787619Y-125064556D01*
X84787619Y-125064556D02*
X84303809Y-125064556D01*
X85513333Y-125306461D02*
X86118095Y-125306461D01*
X85392381Y-125669318D02*
X85815714Y-124399318D01*
X85815714Y-124399318D02*
X86239048Y-125669318D01*
X86601904Y-125608842D02*
X86783333Y-125669318D01*
X86783333Y-125669318D02*
X87085714Y-125669318D01*
X87085714Y-125669318D02*
X87206666Y-125608842D01*
X87206666Y-125608842D02*
X87267142Y-125548365D01*
X87267142Y-125548365D02*
X87327619Y-125427413D01*
X87327619Y-125427413D02*
X87327619Y-125306461D01*
X87327619Y-125306461D02*
X87267142Y-125185508D01*
X87267142Y-125185508D02*
X87206666Y-125125032D01*
X87206666Y-125125032D02*
X87085714Y-125064556D01*
X87085714Y-125064556D02*
X86843809Y-125004080D01*
X86843809Y-125004080D02*
X86722857Y-124943603D01*
X86722857Y-124943603D02*
X86662380Y-124883127D01*
X86662380Y-124883127D02*
X86601904Y-124762175D01*
X86601904Y-124762175D02*
X86601904Y-124641222D01*
X86601904Y-124641222D02*
X86662380Y-124520270D01*
X86662380Y-124520270D02*
X86722857Y-124459794D01*
X86722857Y-124459794D02*
X86843809Y-124399318D01*
X86843809Y-124399318D02*
X87146190Y-124399318D01*
X87146190Y-124399318D02*
X87327619Y-124459794D01*
X87690476Y-124399318D02*
X88416190Y-124399318D01*
X88053333Y-125669318D02*
X88053333Y-124399318D01*
D12*
X196419580Y-72086666D02*
X196467200Y-72134285D01*
X196467200Y-72134285D02*
X196514819Y-72277142D01*
X196514819Y-72277142D02*
X196514819Y-72372380D01*
X196514819Y-72372380D02*
X196467200Y-72515237D01*
X196467200Y-72515237D02*
X196371961Y-72610475D01*
X196371961Y-72610475D02*
X196276723Y-72658094D01*
X196276723Y-72658094D02*
X196086247Y-72705713D01*
X196086247Y-72705713D02*
X195943390Y-72705713D01*
X195943390Y-72705713D02*
X195752914Y-72658094D01*
X195752914Y-72658094D02*
X195657676Y-72610475D01*
X195657676Y-72610475D02*
X195562438Y-72515237D01*
X195562438Y-72515237D02*
X195514819Y-72372380D01*
X195514819Y-72372380D02*
X195514819Y-72277142D01*
X195514819Y-72277142D02*
X195562438Y-72134285D01*
X195562438Y-72134285D02*
X195610057Y-72086666D01*
X195610057Y-71705713D02*
X195562438Y-71658094D01*
X195562438Y-71658094D02*
X195514819Y-71562856D01*
X195514819Y-71562856D02*
X195514819Y-71324761D01*
X195514819Y-71324761D02*
X195562438Y-71229523D01*
X195562438Y-71229523D02*
X195610057Y-71181904D01*
X195610057Y-71181904D02*
X195705295Y-71134285D01*
X195705295Y-71134285D02*
X195800533Y-71134285D01*
X195800533Y-71134285D02*
X195943390Y-71181904D01*
X195943390Y-71181904D02*
X196514819Y-71753332D01*
X196514819Y-71753332D02*
X196514819Y-71134285D01*
X193786104Y-73233333D02*
X193824200Y-73200000D01*
X193824200Y-73200000D02*
X193862295Y-73233333D01*
X193862295Y-73233333D02*
X193824200Y-73266666D01*
X193824200Y-73266666D02*
X193786104Y-73233333D01*
X193786104Y-73233333D02*
X193862295Y-73233333D01*
X193062295Y-72766667D02*
X193062295Y-72700000D01*
X193062295Y-72700000D02*
X193100390Y-72633333D01*
X193100390Y-72633333D02*
X193138485Y-72600000D01*
X193138485Y-72600000D02*
X193214676Y-72566667D01*
X193214676Y-72566667D02*
X193367057Y-72533333D01*
X193367057Y-72533333D02*
X193557533Y-72533333D01*
X193557533Y-72533333D02*
X193709914Y-72566667D01*
X193709914Y-72566667D02*
X193786104Y-72600000D01*
X193786104Y-72600000D02*
X193824200Y-72633333D01*
X193824200Y-72633333D02*
X193862295Y-72700000D01*
X193862295Y-72700000D02*
X193862295Y-72766667D01*
X193862295Y-72766667D02*
X193824200Y-72833333D01*
X193824200Y-72833333D02*
X193786104Y-72866667D01*
X193786104Y-72866667D02*
X193709914Y-72900000D01*
X193709914Y-72900000D02*
X193557533Y-72933333D01*
X193557533Y-72933333D02*
X193367057Y-72933333D01*
X193367057Y-72933333D02*
X193214676Y-72900000D01*
X193214676Y-72900000D02*
X193138485Y-72866667D01*
X193138485Y-72866667D02*
X193100390Y-72833333D01*
X193100390Y-72833333D02*
X193062295Y-72766667D01*
X193862295Y-71866666D02*
X193862295Y-72266666D01*
X193862295Y-72066666D02*
X193062295Y-72066666D01*
X193062295Y-72066666D02*
X193176580Y-72133333D01*
X193176580Y-72133333D02*
X193252771Y-72200000D01*
X193252771Y-72200000D02*
X193290866Y-72266666D01*
X193328961Y-71266666D02*
X193862295Y-71266666D01*
X193328961Y-71566666D02*
X193748009Y-71566666D01*
X193748009Y-71566666D02*
X193824200Y-71533333D01*
X193824200Y-71533333D02*
X193862295Y-71466666D01*
X193862295Y-71466666D02*
X193862295Y-71366666D01*
X193862295Y-71366666D02*
X193824200Y-71299999D01*
X193824200Y-71299999D02*
X193786104Y-71266666D01*
X193443247Y-70700000D02*
X193443247Y-70933333D01*
X193862295Y-70933333D02*
X193062295Y-70933333D01*
X193062295Y-70933333D02*
X193062295Y-70600000D01*
X157773333Y-111614819D02*
X157440000Y-111138628D01*
X157201905Y-111614819D02*
X157201905Y-110614819D01*
X157201905Y-110614819D02*
X157582857Y-110614819D01*
X157582857Y-110614819D02*
X157678095Y-110662438D01*
X157678095Y-110662438D02*
X157725714Y-110710057D01*
X157725714Y-110710057D02*
X157773333Y-110805295D01*
X157773333Y-110805295D02*
X157773333Y-110948152D01*
X157773333Y-110948152D02*
X157725714Y-111043390D01*
X157725714Y-111043390D02*
X157678095Y-111091009D01*
X157678095Y-111091009D02*
X157582857Y-111138628D01*
X157582857Y-111138628D02*
X157201905Y-111138628D01*
X158154286Y-110710057D02*
X158201905Y-110662438D01*
X158201905Y-110662438D02*
X158297143Y-110614819D01*
X158297143Y-110614819D02*
X158535238Y-110614819D01*
X158535238Y-110614819D02*
X158630476Y-110662438D01*
X158630476Y-110662438D02*
X158678095Y-110710057D01*
X158678095Y-110710057D02*
X158725714Y-110805295D01*
X158725714Y-110805295D02*
X158725714Y-110900533D01*
X158725714Y-110900533D02*
X158678095Y-111043390D01*
X158678095Y-111043390D02*
X158106667Y-111614819D01*
X158106667Y-111614819D02*
X158725714Y-111614819D01*
X157024285Y-113664819D02*
X156452857Y-113664819D01*
X156738571Y-113664819D02*
X156738571Y-112664819D01*
X156738571Y-112664819D02*
X156643333Y-112807676D01*
X156643333Y-112807676D02*
X156548095Y-112902914D01*
X156548095Y-112902914D02*
X156452857Y-112950533D01*
X157452857Y-113664819D02*
X157452857Y-112664819D01*
X158024285Y-113664819D02*
X157595714Y-113093390D01*
X158024285Y-112664819D02*
X157452857Y-113236247D01*
X158405238Y-113664819D02*
X158643333Y-113664819D01*
X158643333Y-113664819D02*
X158643333Y-113474342D01*
X158643333Y-113474342D02*
X158548095Y-113426723D01*
X158548095Y-113426723D02*
X158452857Y-113331485D01*
X158452857Y-113331485D02*
X158405238Y-113188628D01*
X158405238Y-113188628D02*
X158405238Y-112950533D01*
X158405238Y-112950533D02*
X158452857Y-112807676D01*
X158452857Y-112807676D02*
X158548095Y-112712438D01*
X158548095Y-112712438D02*
X158690952Y-112664819D01*
X158690952Y-112664819D02*
X158881428Y-112664819D01*
X158881428Y-112664819D02*
X159024285Y-112712438D01*
X159024285Y-112712438D02*
X159119523Y-112807676D01*
X159119523Y-112807676D02*
X159167142Y-112950533D01*
X159167142Y-112950533D02*
X159167142Y-113188628D01*
X159167142Y-113188628D02*
X159119523Y-113331485D01*
X159119523Y-113331485D02*
X159024285Y-113426723D01*
X159024285Y-113426723D02*
X158929047Y-113474342D01*
X158929047Y-113474342D02*
X158929047Y-113664819D01*
X158929047Y-113664819D02*
X159167142Y-113664819D01*
X146913333Y-111519580D02*
X146865714Y-111567200D01*
X146865714Y-111567200D02*
X146722857Y-111614819D01*
X146722857Y-111614819D02*
X146627619Y-111614819D01*
X146627619Y-111614819D02*
X146484762Y-111567200D01*
X146484762Y-111567200D02*
X146389524Y-111471961D01*
X146389524Y-111471961D02*
X146341905Y-111376723D01*
X146341905Y-111376723D02*
X146294286Y-111186247D01*
X146294286Y-111186247D02*
X146294286Y-111043390D01*
X146294286Y-111043390D02*
X146341905Y-110852914D01*
X146341905Y-110852914D02*
X146389524Y-110757676D01*
X146389524Y-110757676D02*
X146484762Y-110662438D01*
X146484762Y-110662438D02*
X146627619Y-110614819D01*
X146627619Y-110614819D02*
X146722857Y-110614819D01*
X146722857Y-110614819D02*
X146865714Y-110662438D01*
X146865714Y-110662438D02*
X146913333Y-110710057D01*
X147865714Y-111614819D02*
X147294286Y-111614819D01*
X147580000Y-111614819D02*
X147580000Y-110614819D01*
X147580000Y-110614819D02*
X147484762Y-110757676D01*
X147484762Y-110757676D02*
X147389524Y-110852914D01*
X147389524Y-110852914D02*
X147294286Y-110900533D01*
X145796666Y-113646104D02*
X145830000Y-113684200D01*
X145830000Y-113684200D02*
X145796666Y-113722295D01*
X145796666Y-113722295D02*
X145763333Y-113684200D01*
X145763333Y-113684200D02*
X145796666Y-113646104D01*
X145796666Y-113646104D02*
X145796666Y-113722295D01*
X146263333Y-112922295D02*
X146329999Y-112922295D01*
X146329999Y-112922295D02*
X146396666Y-112960390D01*
X146396666Y-112960390D02*
X146429999Y-112998485D01*
X146429999Y-112998485D02*
X146463333Y-113074676D01*
X146463333Y-113074676D02*
X146496666Y-113227057D01*
X146496666Y-113227057D02*
X146496666Y-113417533D01*
X146496666Y-113417533D02*
X146463333Y-113569914D01*
X146463333Y-113569914D02*
X146429999Y-113646104D01*
X146429999Y-113646104D02*
X146396666Y-113684200D01*
X146396666Y-113684200D02*
X146329999Y-113722295D01*
X146329999Y-113722295D02*
X146263333Y-113722295D01*
X146263333Y-113722295D02*
X146196666Y-113684200D01*
X146196666Y-113684200D02*
X146163333Y-113646104D01*
X146163333Y-113646104D02*
X146129999Y-113569914D01*
X146129999Y-113569914D02*
X146096666Y-113417533D01*
X146096666Y-113417533D02*
X146096666Y-113227057D01*
X146096666Y-113227057D02*
X146129999Y-113074676D01*
X146129999Y-113074676D02*
X146163333Y-112998485D01*
X146163333Y-112998485D02*
X146196666Y-112960390D01*
X146196666Y-112960390D02*
X146263333Y-112922295D01*
X147163333Y-113722295D02*
X146763333Y-113722295D01*
X146963333Y-113722295D02*
X146963333Y-112922295D01*
X146963333Y-112922295D02*
X146896666Y-113036580D01*
X146896666Y-113036580D02*
X146830000Y-113112771D01*
X146830000Y-113112771D02*
X146763333Y-113150866D01*
X147763333Y-113188961D02*
X147763333Y-113722295D01*
X147463333Y-113188961D02*
X147463333Y-113608009D01*
X147463333Y-113608009D02*
X147496667Y-113684200D01*
X147496667Y-113684200D02*
X147563333Y-113722295D01*
X147563333Y-113722295D02*
X147663333Y-113722295D01*
X147663333Y-113722295D02*
X147730000Y-113684200D01*
X147730000Y-113684200D02*
X147763333Y-113646104D01*
X148330000Y-113303247D02*
X148096666Y-113303247D01*
X148096666Y-113722295D02*
X148096666Y-112922295D01*
X148096666Y-112922295D02*
X148430000Y-112922295D01*
X213296666Y-64379819D02*
X213296666Y-65094104D01*
X213296666Y-65094104D02*
X213249047Y-65236961D01*
X213249047Y-65236961D02*
X213153809Y-65332200D01*
X213153809Y-65332200D02*
X213010952Y-65379819D01*
X213010952Y-65379819D02*
X212915714Y-65379819D01*
X213725238Y-64475057D02*
X213772857Y-64427438D01*
X213772857Y-64427438D02*
X213868095Y-64379819D01*
X213868095Y-64379819D02*
X214106190Y-64379819D01*
X214106190Y-64379819D02*
X214201428Y-64427438D01*
X214201428Y-64427438D02*
X214249047Y-64475057D01*
X214249047Y-64475057D02*
X214296666Y-64570295D01*
X214296666Y-64570295D02*
X214296666Y-64665533D01*
X214296666Y-64665533D02*
X214249047Y-64808390D01*
X214249047Y-64808390D02*
X213677619Y-65379819D01*
X213677619Y-65379819D02*
X214296666Y-65379819D01*
X216952295Y-74973334D02*
X217599914Y-74973334D01*
X217599914Y-74973334D02*
X217676104Y-74940001D01*
X217676104Y-74940001D02*
X217714200Y-74906667D01*
X217714200Y-74906667D02*
X217752295Y-74840001D01*
X217752295Y-74840001D02*
X217752295Y-74706667D01*
X217752295Y-74706667D02*
X217714200Y-74640001D01*
X217714200Y-74640001D02*
X217676104Y-74606667D01*
X217676104Y-74606667D02*
X217599914Y-74573334D01*
X217599914Y-74573334D02*
X216952295Y-74573334D01*
X217714200Y-74273334D02*
X217752295Y-74173334D01*
X217752295Y-74173334D02*
X217752295Y-74006668D01*
X217752295Y-74006668D02*
X217714200Y-73940001D01*
X217714200Y-73940001D02*
X217676104Y-73906668D01*
X217676104Y-73906668D02*
X217599914Y-73873334D01*
X217599914Y-73873334D02*
X217523723Y-73873334D01*
X217523723Y-73873334D02*
X217447533Y-73906668D01*
X217447533Y-73906668D02*
X217409438Y-73940001D01*
X217409438Y-73940001D02*
X217371342Y-74006668D01*
X217371342Y-74006668D02*
X217333247Y-74140001D01*
X217333247Y-74140001D02*
X217295152Y-74206668D01*
X217295152Y-74206668D02*
X217257057Y-74240001D01*
X217257057Y-74240001D02*
X217180866Y-74273334D01*
X217180866Y-74273334D02*
X217104676Y-74273334D01*
X217104676Y-74273334D02*
X217028485Y-74240001D01*
X217028485Y-74240001D02*
X216990390Y-74206668D01*
X216990390Y-74206668D02*
X216952295Y-74140001D01*
X216952295Y-74140001D02*
X216952295Y-73973334D01*
X216952295Y-73973334D02*
X216990390Y-73873334D01*
X217333247Y-73340001D02*
X217371342Y-73240001D01*
X217371342Y-73240001D02*
X217409438Y-73206667D01*
X217409438Y-73206667D02*
X217485628Y-73173334D01*
X217485628Y-73173334D02*
X217599914Y-73173334D01*
X217599914Y-73173334D02*
X217676104Y-73206667D01*
X217676104Y-73206667D02*
X217714200Y-73240001D01*
X217714200Y-73240001D02*
X217752295Y-73306667D01*
X217752295Y-73306667D02*
X217752295Y-73573334D01*
X217752295Y-73573334D02*
X216952295Y-73573334D01*
X216952295Y-73573334D02*
X216952295Y-73340001D01*
X216952295Y-73340001D02*
X216990390Y-73273334D01*
X216990390Y-73273334D02*
X217028485Y-73240001D01*
X217028485Y-73240001D02*
X217104676Y-73206667D01*
X217104676Y-73206667D02*
X217180866Y-73206667D01*
X217180866Y-73206667D02*
X217257057Y-73240001D01*
X217257057Y-73240001D02*
X217295152Y-73273334D01*
X217295152Y-73273334D02*
X217333247Y-73340001D01*
X217333247Y-73340001D02*
X217333247Y-73573334D01*
X217218961Y-72573334D02*
X217752295Y-72573334D01*
X216914200Y-72740001D02*
X217485628Y-72906667D01*
X217485628Y-72906667D02*
X217485628Y-72473334D01*
X217752295Y-71840000D02*
X217752295Y-72240000D01*
X217752295Y-72040000D02*
X216952295Y-72040000D01*
X216952295Y-72040000D02*
X217066580Y-72106667D01*
X217066580Y-72106667D02*
X217142771Y-72173334D01*
X217142771Y-72173334D02*
X217180866Y-72240000D01*
X216952295Y-71406667D02*
X216952295Y-71340000D01*
X216952295Y-71340000D02*
X216990390Y-71273333D01*
X216990390Y-71273333D02*
X217028485Y-71240000D01*
X217028485Y-71240000D02*
X217104676Y-71206667D01*
X217104676Y-71206667D02*
X217257057Y-71173333D01*
X217257057Y-71173333D02*
X217447533Y-71173333D01*
X217447533Y-71173333D02*
X217599914Y-71206667D01*
X217599914Y-71206667D02*
X217676104Y-71240000D01*
X217676104Y-71240000D02*
X217714200Y-71273333D01*
X217714200Y-71273333D02*
X217752295Y-71340000D01*
X217752295Y-71340000D02*
X217752295Y-71406667D01*
X217752295Y-71406667D02*
X217714200Y-71473333D01*
X217714200Y-71473333D02*
X217676104Y-71506667D01*
X217676104Y-71506667D02*
X217599914Y-71540000D01*
X217599914Y-71540000D02*
X217447533Y-71573333D01*
X217447533Y-71573333D02*
X217257057Y-71573333D01*
X217257057Y-71573333D02*
X217104676Y-71540000D01*
X217104676Y-71540000D02*
X217028485Y-71506667D01*
X217028485Y-71506667D02*
X216990390Y-71473333D01*
X216990390Y-71473333D02*
X216952295Y-71406667D01*
X216952295Y-70540000D02*
X216952295Y-70873333D01*
X216952295Y-70873333D02*
X217333247Y-70906666D01*
X217333247Y-70906666D02*
X217295152Y-70873333D01*
X217295152Y-70873333D02*
X217257057Y-70806666D01*
X217257057Y-70806666D02*
X217257057Y-70640000D01*
X217257057Y-70640000D02*
X217295152Y-70573333D01*
X217295152Y-70573333D02*
X217333247Y-70540000D01*
X217333247Y-70540000D02*
X217409438Y-70506666D01*
X217409438Y-70506666D02*
X217599914Y-70506666D01*
X217599914Y-70506666D02*
X217676104Y-70540000D01*
X217676104Y-70540000D02*
X217714200Y-70573333D01*
X217714200Y-70573333D02*
X217752295Y-70640000D01*
X217752295Y-70640000D02*
X217752295Y-70806666D01*
X217752295Y-70806666D02*
X217714200Y-70873333D01*
X217714200Y-70873333D02*
X217676104Y-70906666D01*
X217447533Y-70206666D02*
X217447533Y-69673333D01*
X216990390Y-68973332D02*
X216952295Y-69039999D01*
X216952295Y-69039999D02*
X216952295Y-69139999D01*
X216952295Y-69139999D02*
X216990390Y-69239999D01*
X216990390Y-69239999D02*
X217066580Y-69306666D01*
X217066580Y-69306666D02*
X217142771Y-69339999D01*
X217142771Y-69339999D02*
X217295152Y-69373332D01*
X217295152Y-69373332D02*
X217409438Y-69373332D01*
X217409438Y-69373332D02*
X217561819Y-69339999D01*
X217561819Y-69339999D02*
X217638009Y-69306666D01*
X217638009Y-69306666D02*
X217714200Y-69239999D01*
X217714200Y-69239999D02*
X217752295Y-69139999D01*
X217752295Y-69139999D02*
X217752295Y-69073332D01*
X217752295Y-69073332D02*
X217714200Y-68973332D01*
X217714200Y-68973332D02*
X217676104Y-68939999D01*
X217676104Y-68939999D02*
X217409438Y-68939999D01*
X217409438Y-68939999D02*
X217409438Y-69073332D01*
X217333247Y-68406666D02*
X217333247Y-68639999D01*
X217752295Y-68639999D02*
X216952295Y-68639999D01*
X216952295Y-68639999D02*
X216952295Y-68306666D01*
X217447533Y-68039999D02*
X217447533Y-67506666D01*
X217523723Y-67206665D02*
X217523723Y-66873332D01*
X217752295Y-67273332D02*
X216952295Y-67039999D01*
X216952295Y-67039999D02*
X217752295Y-66806665D01*
X167364819Y-121906666D02*
X166888628Y-122239999D01*
X167364819Y-122478094D02*
X166364819Y-122478094D01*
X166364819Y-122478094D02*
X166364819Y-122097142D01*
X166364819Y-122097142D02*
X166412438Y-122001904D01*
X166412438Y-122001904D02*
X166460057Y-121954285D01*
X166460057Y-121954285D02*
X166555295Y-121906666D01*
X166555295Y-121906666D02*
X166698152Y-121906666D01*
X166698152Y-121906666D02*
X166793390Y-121954285D01*
X166793390Y-121954285D02*
X166841009Y-122001904D01*
X166841009Y-122001904D02*
X166888628Y-122097142D01*
X166888628Y-122097142D02*
X166888628Y-122478094D01*
X167364819Y-121430475D02*
X167364819Y-121239999D01*
X167364819Y-121239999D02*
X167317200Y-121144761D01*
X167317200Y-121144761D02*
X167269580Y-121097142D01*
X167269580Y-121097142D02*
X167126723Y-121001904D01*
X167126723Y-121001904D02*
X166936247Y-120954285D01*
X166936247Y-120954285D02*
X166555295Y-120954285D01*
X166555295Y-120954285D02*
X166460057Y-121001904D01*
X166460057Y-121001904D02*
X166412438Y-121049523D01*
X166412438Y-121049523D02*
X166364819Y-121144761D01*
X166364819Y-121144761D02*
X166364819Y-121335237D01*
X166364819Y-121335237D02*
X166412438Y-121430475D01*
X166412438Y-121430475D02*
X166460057Y-121478094D01*
X166460057Y-121478094D02*
X166555295Y-121525713D01*
X166555295Y-121525713D02*
X166793390Y-121525713D01*
X166793390Y-121525713D02*
X166888628Y-121478094D01*
X166888628Y-121478094D02*
X166936247Y-121430475D01*
X166936247Y-121430475D02*
X166983866Y-121335237D01*
X166983866Y-121335237D02*
X166983866Y-121144761D01*
X166983866Y-121144761D02*
X166936247Y-121049523D01*
X166936247Y-121049523D02*
X166888628Y-121001904D01*
X166888628Y-121001904D02*
X166793390Y-120954285D01*
X164094819Y-123507142D02*
X164094819Y-122888095D01*
X164094819Y-122888095D02*
X164475771Y-123221428D01*
X164475771Y-123221428D02*
X164475771Y-123078571D01*
X164475771Y-123078571D02*
X164523390Y-122983333D01*
X164523390Y-122983333D02*
X164571009Y-122935714D01*
X164571009Y-122935714D02*
X164666247Y-122888095D01*
X164666247Y-122888095D02*
X164904342Y-122888095D01*
X164904342Y-122888095D02*
X164999580Y-122935714D01*
X164999580Y-122935714D02*
X165047200Y-122983333D01*
X165047200Y-122983333D02*
X165094819Y-123078571D01*
X165094819Y-123078571D02*
X165094819Y-123364285D01*
X165094819Y-123364285D02*
X165047200Y-123459523D01*
X165047200Y-123459523D02*
X164999580Y-123507142D01*
X164094819Y-122554761D02*
X164094819Y-121935714D01*
X164094819Y-121935714D02*
X164475771Y-122269047D01*
X164475771Y-122269047D02*
X164475771Y-122126190D01*
X164475771Y-122126190D02*
X164523390Y-122030952D01*
X164523390Y-122030952D02*
X164571009Y-121983333D01*
X164571009Y-121983333D02*
X164666247Y-121935714D01*
X164666247Y-121935714D02*
X164904342Y-121935714D01*
X164904342Y-121935714D02*
X164999580Y-121983333D01*
X164999580Y-121983333D02*
X165047200Y-122030952D01*
X165047200Y-122030952D02*
X165094819Y-122126190D01*
X165094819Y-122126190D02*
X165094819Y-122411904D01*
X165094819Y-122411904D02*
X165047200Y-122507142D01*
X165047200Y-122507142D02*
X164999580Y-122554761D01*
X164094819Y-121316666D02*
X164094819Y-121221428D01*
X164094819Y-121221428D02*
X164142438Y-121126190D01*
X164142438Y-121126190D02*
X164190057Y-121078571D01*
X164190057Y-121078571D02*
X164285295Y-121030952D01*
X164285295Y-121030952D02*
X164475771Y-120983333D01*
X164475771Y-120983333D02*
X164713866Y-120983333D01*
X164713866Y-120983333D02*
X164904342Y-121030952D01*
X164904342Y-121030952D02*
X164999580Y-121078571D01*
X164999580Y-121078571D02*
X165047200Y-121126190D01*
X165047200Y-121126190D02*
X165094819Y-121221428D01*
X165094819Y-121221428D02*
X165094819Y-121316666D01*
X165094819Y-121316666D02*
X165047200Y-121411904D01*
X165047200Y-121411904D02*
X164999580Y-121459523D01*
X164999580Y-121459523D02*
X164904342Y-121507142D01*
X164904342Y-121507142D02*
X164713866Y-121554761D01*
X164713866Y-121554761D02*
X164475771Y-121554761D01*
X164475771Y-121554761D02*
X164285295Y-121507142D01*
X164285295Y-121507142D02*
X164190057Y-121459523D01*
X164190057Y-121459523D02*
X164142438Y-121411904D01*
X164142438Y-121411904D02*
X164094819Y-121316666D01*
X165094819Y-120602380D02*
X165094819Y-120364285D01*
X165094819Y-120364285D02*
X164904342Y-120364285D01*
X164904342Y-120364285D02*
X164856723Y-120459523D01*
X164856723Y-120459523D02*
X164761485Y-120554761D01*
X164761485Y-120554761D02*
X164618628Y-120602380D01*
X164618628Y-120602380D02*
X164380533Y-120602380D01*
X164380533Y-120602380D02*
X164237676Y-120554761D01*
X164237676Y-120554761D02*
X164142438Y-120459523D01*
X164142438Y-120459523D02*
X164094819Y-120316666D01*
X164094819Y-120316666D02*
X164094819Y-120126190D01*
X164094819Y-120126190D02*
X164142438Y-119983333D01*
X164142438Y-119983333D02*
X164237676Y-119888095D01*
X164237676Y-119888095D02*
X164380533Y-119840476D01*
X164380533Y-119840476D02*
X164618628Y-119840476D01*
X164618628Y-119840476D02*
X164761485Y-119888095D01*
X164761485Y-119888095D02*
X164856723Y-119983333D01*
X164856723Y-119983333D02*
X164904342Y-120078571D01*
X164904342Y-120078571D02*
X165094819Y-120078571D01*
X165094819Y-120078571D02*
X165094819Y-119840476D01*
X110381905Y-118779819D02*
X110381905Y-117779819D01*
X110381905Y-117779819D02*
X110620000Y-117779819D01*
X110620000Y-117779819D02*
X110762857Y-117827438D01*
X110762857Y-117827438D02*
X110858095Y-117922676D01*
X110858095Y-117922676D02*
X110905714Y-118017914D01*
X110905714Y-118017914D02*
X110953333Y-118208390D01*
X110953333Y-118208390D02*
X110953333Y-118351247D01*
X110953333Y-118351247D02*
X110905714Y-118541723D01*
X110905714Y-118541723D02*
X110858095Y-118636961D01*
X110858095Y-118636961D02*
X110762857Y-118732200D01*
X110762857Y-118732200D02*
X110620000Y-118779819D01*
X110620000Y-118779819D02*
X110381905Y-118779819D01*
X111905714Y-118779819D02*
X111334286Y-118779819D01*
X111620000Y-118779819D02*
X111620000Y-117779819D01*
X111620000Y-117779819D02*
X111524762Y-117922676D01*
X111524762Y-117922676D02*
X111429524Y-118017914D01*
X111429524Y-118017914D02*
X111334286Y-118065533D01*
X109810476Y-124176009D02*
X109953333Y-124223628D01*
X109953333Y-124223628D02*
X110000952Y-124271247D01*
X110000952Y-124271247D02*
X110048571Y-124366485D01*
X110048571Y-124366485D02*
X110048571Y-124509342D01*
X110048571Y-124509342D02*
X110000952Y-124604580D01*
X110000952Y-124604580D02*
X109953333Y-124652200D01*
X109953333Y-124652200D02*
X109858095Y-124699819D01*
X109858095Y-124699819D02*
X109477143Y-124699819D01*
X109477143Y-124699819D02*
X109477143Y-123699819D01*
X109477143Y-123699819D02*
X109810476Y-123699819D01*
X109810476Y-123699819D02*
X109905714Y-123747438D01*
X109905714Y-123747438D02*
X109953333Y-123795057D01*
X109953333Y-123795057D02*
X110000952Y-123890295D01*
X110000952Y-123890295D02*
X110000952Y-123985533D01*
X110000952Y-123985533D02*
X109953333Y-124080771D01*
X109953333Y-124080771D02*
X109905714Y-124128390D01*
X109905714Y-124128390D02*
X109810476Y-124176009D01*
X109810476Y-124176009D02*
X109477143Y-124176009D01*
X110953333Y-124699819D02*
X110477143Y-124699819D01*
X110477143Y-124699819D02*
X110477143Y-123699819D01*
X111286667Y-123699819D02*
X111286667Y-124509342D01*
X111286667Y-124509342D02*
X111334286Y-124604580D01*
X111334286Y-124604580D02*
X111381905Y-124652200D01*
X111381905Y-124652200D02*
X111477143Y-124699819D01*
X111477143Y-124699819D02*
X111667619Y-124699819D01*
X111667619Y-124699819D02*
X111762857Y-124652200D01*
X111762857Y-124652200D02*
X111810476Y-124604580D01*
X111810476Y-124604580D02*
X111858095Y-124509342D01*
X111858095Y-124509342D02*
X111858095Y-123699819D01*
X112334286Y-124176009D02*
X112667619Y-124176009D01*
X112810476Y-124699819D02*
X112334286Y-124699819D01*
X112334286Y-124699819D02*
X112334286Y-123699819D01*
X112334286Y-123699819D02*
X112810476Y-123699819D01*
X210534819Y-82926666D02*
X210058628Y-83259999D01*
X210534819Y-83498094D02*
X209534819Y-83498094D01*
X209534819Y-83498094D02*
X209534819Y-83117142D01*
X209534819Y-83117142D02*
X209582438Y-83021904D01*
X209582438Y-83021904D02*
X209630057Y-82974285D01*
X209630057Y-82974285D02*
X209725295Y-82926666D01*
X209725295Y-82926666D02*
X209868152Y-82926666D01*
X209868152Y-82926666D02*
X209963390Y-82974285D01*
X209963390Y-82974285D02*
X210011009Y-83021904D01*
X210011009Y-83021904D02*
X210058628Y-83117142D01*
X210058628Y-83117142D02*
X210058628Y-83498094D01*
X209534819Y-82069523D02*
X209534819Y-82259999D01*
X209534819Y-82259999D02*
X209582438Y-82355237D01*
X209582438Y-82355237D02*
X209630057Y-82402856D01*
X209630057Y-82402856D02*
X209772914Y-82498094D01*
X209772914Y-82498094D02*
X209963390Y-82545713D01*
X209963390Y-82545713D02*
X210344342Y-82545713D01*
X210344342Y-82545713D02*
X210439580Y-82498094D01*
X210439580Y-82498094D02*
X210487200Y-82450475D01*
X210487200Y-82450475D02*
X210534819Y-82355237D01*
X210534819Y-82355237D02*
X210534819Y-82164761D01*
X210534819Y-82164761D02*
X210487200Y-82069523D01*
X210487200Y-82069523D02*
X210439580Y-82021904D01*
X210439580Y-82021904D02*
X210344342Y-81974285D01*
X210344342Y-81974285D02*
X210106247Y-81974285D01*
X210106247Y-81974285D02*
X210011009Y-82021904D01*
X210011009Y-82021904D02*
X209963390Y-82069523D01*
X209963390Y-82069523D02*
X209915771Y-82164761D01*
X209915771Y-82164761D02*
X209915771Y-82355237D01*
X209915771Y-82355237D02*
X209963390Y-82450475D01*
X209963390Y-82450475D02*
X210011009Y-82498094D01*
X210011009Y-82498094D02*
X210106247Y-82545713D01*
X206854819Y-84127142D02*
X206854819Y-83508095D01*
X206854819Y-83508095D02*
X207235771Y-83841428D01*
X207235771Y-83841428D02*
X207235771Y-83698571D01*
X207235771Y-83698571D02*
X207283390Y-83603333D01*
X207283390Y-83603333D02*
X207331009Y-83555714D01*
X207331009Y-83555714D02*
X207426247Y-83508095D01*
X207426247Y-83508095D02*
X207664342Y-83508095D01*
X207664342Y-83508095D02*
X207759580Y-83555714D01*
X207759580Y-83555714D02*
X207807200Y-83603333D01*
X207807200Y-83603333D02*
X207854819Y-83698571D01*
X207854819Y-83698571D02*
X207854819Y-83984285D01*
X207854819Y-83984285D02*
X207807200Y-84079523D01*
X207807200Y-84079523D02*
X207759580Y-84127142D01*
X206854819Y-83174761D02*
X206854819Y-82555714D01*
X206854819Y-82555714D02*
X207235771Y-82889047D01*
X207235771Y-82889047D02*
X207235771Y-82746190D01*
X207235771Y-82746190D02*
X207283390Y-82650952D01*
X207283390Y-82650952D02*
X207331009Y-82603333D01*
X207331009Y-82603333D02*
X207426247Y-82555714D01*
X207426247Y-82555714D02*
X207664342Y-82555714D01*
X207664342Y-82555714D02*
X207759580Y-82603333D01*
X207759580Y-82603333D02*
X207807200Y-82650952D01*
X207807200Y-82650952D02*
X207854819Y-82746190D01*
X207854819Y-82746190D02*
X207854819Y-83031904D01*
X207854819Y-83031904D02*
X207807200Y-83127142D01*
X207807200Y-83127142D02*
X207759580Y-83174761D01*
X206854819Y-81936666D02*
X206854819Y-81841428D01*
X206854819Y-81841428D02*
X206902438Y-81746190D01*
X206902438Y-81746190D02*
X206950057Y-81698571D01*
X206950057Y-81698571D02*
X207045295Y-81650952D01*
X207045295Y-81650952D02*
X207235771Y-81603333D01*
X207235771Y-81603333D02*
X207473866Y-81603333D01*
X207473866Y-81603333D02*
X207664342Y-81650952D01*
X207664342Y-81650952D02*
X207759580Y-81698571D01*
X207759580Y-81698571D02*
X207807200Y-81746190D01*
X207807200Y-81746190D02*
X207854819Y-81841428D01*
X207854819Y-81841428D02*
X207854819Y-81936666D01*
X207854819Y-81936666D02*
X207807200Y-82031904D01*
X207807200Y-82031904D02*
X207759580Y-82079523D01*
X207759580Y-82079523D02*
X207664342Y-82127142D01*
X207664342Y-82127142D02*
X207473866Y-82174761D01*
X207473866Y-82174761D02*
X207235771Y-82174761D01*
X207235771Y-82174761D02*
X207045295Y-82127142D01*
X207045295Y-82127142D02*
X206950057Y-82079523D01*
X206950057Y-82079523D02*
X206902438Y-82031904D01*
X206902438Y-82031904D02*
X206854819Y-81936666D01*
X207854819Y-81222380D02*
X207854819Y-80984285D01*
X207854819Y-80984285D02*
X207664342Y-80984285D01*
X207664342Y-80984285D02*
X207616723Y-81079523D01*
X207616723Y-81079523D02*
X207521485Y-81174761D01*
X207521485Y-81174761D02*
X207378628Y-81222380D01*
X207378628Y-81222380D02*
X207140533Y-81222380D01*
X207140533Y-81222380D02*
X206997676Y-81174761D01*
X206997676Y-81174761D02*
X206902438Y-81079523D01*
X206902438Y-81079523D02*
X206854819Y-80936666D01*
X206854819Y-80936666D02*
X206854819Y-80746190D01*
X206854819Y-80746190D02*
X206902438Y-80603333D01*
X206902438Y-80603333D02*
X206997676Y-80508095D01*
X206997676Y-80508095D02*
X207140533Y-80460476D01*
X207140533Y-80460476D02*
X207378628Y-80460476D01*
X207378628Y-80460476D02*
X207521485Y-80508095D01*
X207521485Y-80508095D02*
X207616723Y-80603333D01*
X207616723Y-80603333D02*
X207664342Y-80698571D01*
X207664342Y-80698571D02*
X207854819Y-80698571D01*
X207854819Y-80698571D02*
X207854819Y-80460476D01*
X144041905Y-118779819D02*
X144041905Y-117779819D01*
X144041905Y-117779819D02*
X144280000Y-117779819D01*
X144280000Y-117779819D02*
X144422857Y-117827438D01*
X144422857Y-117827438D02*
X144518095Y-117922676D01*
X144518095Y-117922676D02*
X144565714Y-118017914D01*
X144565714Y-118017914D02*
X144613333Y-118208390D01*
X144613333Y-118208390D02*
X144613333Y-118351247D01*
X144613333Y-118351247D02*
X144565714Y-118541723D01*
X144565714Y-118541723D02*
X144518095Y-118636961D01*
X144518095Y-118636961D02*
X144422857Y-118732200D01*
X144422857Y-118732200D02*
X144280000Y-118779819D01*
X144280000Y-118779819D02*
X144041905Y-118779819D01*
X144994286Y-117875057D02*
X145041905Y-117827438D01*
X145041905Y-117827438D02*
X145137143Y-117779819D01*
X145137143Y-117779819D02*
X145375238Y-117779819D01*
X145375238Y-117779819D02*
X145470476Y-117827438D01*
X145470476Y-117827438D02*
X145518095Y-117875057D01*
X145518095Y-117875057D02*
X145565714Y-117970295D01*
X145565714Y-117970295D02*
X145565714Y-118065533D01*
X145565714Y-118065533D02*
X145518095Y-118208390D01*
X145518095Y-118208390D02*
X144946667Y-118779819D01*
X144946667Y-118779819D02*
X145565714Y-118779819D01*
X143113333Y-123747438D02*
X143018095Y-123699819D01*
X143018095Y-123699819D02*
X142875238Y-123699819D01*
X142875238Y-123699819D02*
X142732381Y-123747438D01*
X142732381Y-123747438D02*
X142637143Y-123842676D01*
X142637143Y-123842676D02*
X142589524Y-123937914D01*
X142589524Y-123937914D02*
X142541905Y-124128390D01*
X142541905Y-124128390D02*
X142541905Y-124271247D01*
X142541905Y-124271247D02*
X142589524Y-124461723D01*
X142589524Y-124461723D02*
X142637143Y-124556961D01*
X142637143Y-124556961D02*
X142732381Y-124652200D01*
X142732381Y-124652200D02*
X142875238Y-124699819D01*
X142875238Y-124699819D02*
X142970476Y-124699819D01*
X142970476Y-124699819D02*
X143113333Y-124652200D01*
X143113333Y-124652200D02*
X143160952Y-124604580D01*
X143160952Y-124604580D02*
X143160952Y-124271247D01*
X143160952Y-124271247D02*
X142970476Y-124271247D01*
X144160952Y-124699819D02*
X143827619Y-124223628D01*
X143589524Y-124699819D02*
X143589524Y-123699819D01*
X143589524Y-123699819D02*
X143970476Y-123699819D01*
X143970476Y-123699819D02*
X144065714Y-123747438D01*
X144065714Y-123747438D02*
X144113333Y-123795057D01*
X144113333Y-123795057D02*
X144160952Y-123890295D01*
X144160952Y-123890295D02*
X144160952Y-124033152D01*
X144160952Y-124033152D02*
X144113333Y-124128390D01*
X144113333Y-124128390D02*
X144065714Y-124176009D01*
X144065714Y-124176009D02*
X143970476Y-124223628D01*
X143970476Y-124223628D02*
X143589524Y-124223628D01*
X144589524Y-124176009D02*
X144922857Y-124176009D01*
X145065714Y-124699819D02*
X144589524Y-124699819D01*
X144589524Y-124699819D02*
X144589524Y-123699819D01*
X144589524Y-123699819D02*
X145065714Y-123699819D01*
X145494286Y-124176009D02*
X145827619Y-124176009D01*
X145970476Y-124699819D02*
X145494286Y-124699819D01*
X145494286Y-124699819D02*
X145494286Y-123699819D01*
X145494286Y-123699819D02*
X145970476Y-123699819D01*
X146399048Y-124699819D02*
X146399048Y-123699819D01*
X146399048Y-123699819D02*
X146970476Y-124699819D01*
X146970476Y-124699819D02*
X146970476Y-123699819D01*
X200243333Y-81284819D02*
X199910000Y-80808628D01*
X199671905Y-81284819D02*
X199671905Y-80284819D01*
X199671905Y-80284819D02*
X200052857Y-80284819D01*
X200052857Y-80284819D02*
X200148095Y-80332438D01*
X200148095Y-80332438D02*
X200195714Y-80380057D01*
X200195714Y-80380057D02*
X200243333Y-80475295D01*
X200243333Y-80475295D02*
X200243333Y-80618152D01*
X200243333Y-80618152D02*
X200195714Y-80713390D01*
X200195714Y-80713390D02*
X200148095Y-80761009D01*
X200148095Y-80761009D02*
X200052857Y-80808628D01*
X200052857Y-80808628D02*
X199671905Y-80808628D01*
X200814762Y-80713390D02*
X200719524Y-80665771D01*
X200719524Y-80665771D02*
X200671905Y-80618152D01*
X200671905Y-80618152D02*
X200624286Y-80522914D01*
X200624286Y-80522914D02*
X200624286Y-80475295D01*
X200624286Y-80475295D02*
X200671905Y-80380057D01*
X200671905Y-80380057D02*
X200719524Y-80332438D01*
X200719524Y-80332438D02*
X200814762Y-80284819D01*
X200814762Y-80284819D02*
X201005238Y-80284819D01*
X201005238Y-80284819D02*
X201100476Y-80332438D01*
X201100476Y-80332438D02*
X201148095Y-80380057D01*
X201148095Y-80380057D02*
X201195714Y-80475295D01*
X201195714Y-80475295D02*
X201195714Y-80522914D01*
X201195714Y-80522914D02*
X201148095Y-80618152D01*
X201148095Y-80618152D02*
X201100476Y-80665771D01*
X201100476Y-80665771D02*
X201005238Y-80713390D01*
X201005238Y-80713390D02*
X200814762Y-80713390D01*
X200814762Y-80713390D02*
X200719524Y-80761009D01*
X200719524Y-80761009D02*
X200671905Y-80808628D01*
X200671905Y-80808628D02*
X200624286Y-80903866D01*
X200624286Y-80903866D02*
X200624286Y-81094342D01*
X200624286Y-81094342D02*
X200671905Y-81189580D01*
X200671905Y-81189580D02*
X200719524Y-81237200D01*
X200719524Y-81237200D02*
X200814762Y-81284819D01*
X200814762Y-81284819D02*
X201005238Y-81284819D01*
X201005238Y-81284819D02*
X201100476Y-81237200D01*
X201100476Y-81237200D02*
X201148095Y-81189580D01*
X201148095Y-81189580D02*
X201195714Y-81094342D01*
X201195714Y-81094342D02*
X201195714Y-80903866D01*
X201195714Y-80903866D02*
X201148095Y-80808628D01*
X201148095Y-80808628D02*
X201100476Y-80761009D01*
X201100476Y-80761009D02*
X201005238Y-80713390D01*
X199543809Y-77924819D02*
X199067619Y-77924819D01*
X199067619Y-77924819D02*
X199020000Y-78401009D01*
X199020000Y-78401009D02*
X199067619Y-78353390D01*
X199067619Y-78353390D02*
X199162857Y-78305771D01*
X199162857Y-78305771D02*
X199400952Y-78305771D01*
X199400952Y-78305771D02*
X199496190Y-78353390D01*
X199496190Y-78353390D02*
X199543809Y-78401009D01*
X199543809Y-78401009D02*
X199591428Y-78496247D01*
X199591428Y-78496247D02*
X199591428Y-78734342D01*
X199591428Y-78734342D02*
X199543809Y-78829580D01*
X199543809Y-78829580D02*
X199496190Y-78877200D01*
X199496190Y-78877200D02*
X199400952Y-78924819D01*
X199400952Y-78924819D02*
X199162857Y-78924819D01*
X199162857Y-78924819D02*
X199067619Y-78877200D01*
X199067619Y-78877200D02*
X199020000Y-78829580D01*
X200020000Y-78829580D02*
X200067619Y-78877200D01*
X200067619Y-78877200D02*
X200020000Y-78924819D01*
X200020000Y-78924819D02*
X199972381Y-78877200D01*
X199972381Y-78877200D02*
X200020000Y-78829580D01*
X200020000Y-78829580D02*
X200020000Y-78924819D01*
X201019999Y-78924819D02*
X200448571Y-78924819D01*
X200734285Y-78924819D02*
X200734285Y-77924819D01*
X200734285Y-77924819D02*
X200639047Y-78067676D01*
X200639047Y-78067676D02*
X200543809Y-78162914D01*
X200543809Y-78162914D02*
X200448571Y-78210533D01*
X201448571Y-78924819D02*
X201448571Y-77924819D01*
X202019999Y-78924819D02*
X201591428Y-78353390D01*
X202019999Y-77924819D02*
X201448571Y-78496247D01*
X73621419Y-52504933D02*
X74335704Y-52504933D01*
X74335704Y-52504933D02*
X74478561Y-52552552D01*
X74478561Y-52552552D02*
X74573800Y-52647790D01*
X74573800Y-52647790D02*
X74621419Y-52790647D01*
X74621419Y-52790647D02*
X74621419Y-52885885D01*
X74621419Y-51504933D02*
X74621419Y-52076361D01*
X74621419Y-51790647D02*
X73621419Y-51790647D01*
X73621419Y-51790647D02*
X73764276Y-51885885D01*
X73764276Y-51885885D02*
X73859514Y-51981123D01*
X73859514Y-51981123D02*
X73907133Y-52076361D01*
X156696667Y-116937200D02*
X156839524Y-116984819D01*
X156839524Y-116984819D02*
X157077619Y-116984819D01*
X157077619Y-116984819D02*
X157172857Y-116937200D01*
X157172857Y-116937200D02*
X157220476Y-116889580D01*
X157220476Y-116889580D02*
X157268095Y-116794342D01*
X157268095Y-116794342D02*
X157268095Y-116699104D01*
X157268095Y-116699104D02*
X157220476Y-116603866D01*
X157220476Y-116603866D02*
X157172857Y-116556247D01*
X157172857Y-116556247D02*
X157077619Y-116508628D01*
X157077619Y-116508628D02*
X156887143Y-116461009D01*
X156887143Y-116461009D02*
X156791905Y-116413390D01*
X156791905Y-116413390D02*
X156744286Y-116365771D01*
X156744286Y-116365771D02*
X156696667Y-116270533D01*
X156696667Y-116270533D02*
X156696667Y-116175295D01*
X156696667Y-116175295D02*
X156744286Y-116080057D01*
X156744286Y-116080057D02*
X156791905Y-116032438D01*
X156791905Y-116032438D02*
X156887143Y-115984819D01*
X156887143Y-115984819D02*
X157125238Y-115984819D01*
X157125238Y-115984819D02*
X157268095Y-116032438D01*
X157601429Y-115984819D02*
X157839524Y-116984819D01*
X157839524Y-116984819D02*
X158030000Y-116270533D01*
X158030000Y-116270533D02*
X158220476Y-116984819D01*
X158220476Y-116984819D02*
X158458572Y-115984819D01*
X158791905Y-116080057D02*
X158839524Y-116032438D01*
X158839524Y-116032438D02*
X158934762Y-115984819D01*
X158934762Y-115984819D02*
X159172857Y-115984819D01*
X159172857Y-115984819D02*
X159268095Y-116032438D01*
X159268095Y-116032438D02*
X159315714Y-116080057D01*
X159315714Y-116080057D02*
X159363333Y-116175295D01*
X159363333Y-116175295D02*
X159363333Y-116270533D01*
X159363333Y-116270533D02*
X159315714Y-116413390D01*
X159315714Y-116413390D02*
X158744286Y-116984819D01*
X158744286Y-116984819D02*
X159363333Y-116984819D01*
D13*
X156256190Y-124498409D02*
X156589523Y-124498409D01*
X156732380Y-125022219D02*
X156256190Y-125022219D01*
X156256190Y-125022219D02*
X156256190Y-124022219D01*
X156256190Y-124022219D02*
X156732380Y-124022219D01*
X157160952Y-125022219D02*
X157160952Y-124022219D01*
X157160952Y-124022219D02*
X157732380Y-125022219D01*
X157732380Y-125022219D02*
X157732380Y-124022219D01*
X158160952Y-124736504D02*
X158637142Y-124736504D01*
X158065714Y-125022219D02*
X158399047Y-124022219D01*
X158399047Y-124022219D02*
X158732380Y-125022219D01*
X159399047Y-124498409D02*
X159541904Y-124546028D01*
X159541904Y-124546028D02*
X159589523Y-124593647D01*
X159589523Y-124593647D02*
X159637142Y-124688885D01*
X159637142Y-124688885D02*
X159637142Y-124831742D01*
X159637142Y-124831742D02*
X159589523Y-124926980D01*
X159589523Y-124926980D02*
X159541904Y-124974600D01*
X159541904Y-124974600D02*
X159446666Y-125022219D01*
X159446666Y-125022219D02*
X159065714Y-125022219D01*
X159065714Y-125022219D02*
X159065714Y-124022219D01*
X159065714Y-124022219D02*
X159399047Y-124022219D01*
X159399047Y-124022219D02*
X159494285Y-124069838D01*
X159494285Y-124069838D02*
X159541904Y-124117457D01*
X159541904Y-124117457D02*
X159589523Y-124212695D01*
X159589523Y-124212695D02*
X159589523Y-124307933D01*
X159589523Y-124307933D02*
X159541904Y-124403171D01*
X159541904Y-124403171D02*
X159494285Y-124450790D01*
X159494285Y-124450790D02*
X159399047Y-124498409D01*
X159399047Y-124498409D02*
X159065714Y-124498409D01*
X160541904Y-125022219D02*
X160065714Y-125022219D01*
X160065714Y-125022219D02*
X160065714Y-124022219D01*
X160875238Y-124498409D02*
X161208571Y-124498409D01*
X161351428Y-125022219D02*
X160875238Y-125022219D01*
X160875238Y-125022219D02*
X160875238Y-124022219D01*
X160875238Y-124022219D02*
X161351428Y-124022219D01*
D12*
X171004705Y-86739219D02*
X171004705Y-85739219D01*
X171004705Y-85739219D02*
X171242800Y-85739219D01*
X171242800Y-85739219D02*
X171385657Y-85786838D01*
X171385657Y-85786838D02*
X171480895Y-85882076D01*
X171480895Y-85882076D02*
X171528514Y-85977314D01*
X171528514Y-85977314D02*
X171576133Y-86167790D01*
X171576133Y-86167790D02*
X171576133Y-86310647D01*
X171576133Y-86310647D02*
X171528514Y-86501123D01*
X171528514Y-86501123D02*
X171480895Y-86596361D01*
X171480895Y-86596361D02*
X171385657Y-86691600D01*
X171385657Y-86691600D02*
X171242800Y-86739219D01*
X171242800Y-86739219D02*
X171004705Y-86739219D01*
X171909467Y-85739219D02*
X172528514Y-85739219D01*
X172528514Y-85739219D02*
X172195181Y-86120171D01*
X172195181Y-86120171D02*
X172338038Y-86120171D01*
X172338038Y-86120171D02*
X172433276Y-86167790D01*
X172433276Y-86167790D02*
X172480895Y-86215409D01*
X172480895Y-86215409D02*
X172528514Y-86310647D01*
X172528514Y-86310647D02*
X172528514Y-86548742D01*
X172528514Y-86548742D02*
X172480895Y-86643980D01*
X172480895Y-86643980D02*
X172433276Y-86691600D01*
X172433276Y-86691600D02*
X172338038Y-86739219D01*
X172338038Y-86739219D02*
X172052324Y-86739219D01*
X172052324Y-86739219D02*
X171957086Y-86691600D01*
X171957086Y-86691600D02*
X171909467Y-86643980D01*
X175335685Y-88728190D02*
X175240447Y-88680571D01*
X175240447Y-88680571D02*
X175192828Y-88632952D01*
X175192828Y-88632952D02*
X175145209Y-88537714D01*
X175145209Y-88537714D02*
X175145209Y-88490095D01*
X175145209Y-88490095D02*
X175192828Y-88394857D01*
X175192828Y-88394857D02*
X175240447Y-88347238D01*
X175240447Y-88347238D02*
X175335685Y-88299619D01*
X175335685Y-88299619D02*
X175526161Y-88299619D01*
X175526161Y-88299619D02*
X175621399Y-88347238D01*
X175621399Y-88347238D02*
X175669018Y-88394857D01*
X175669018Y-88394857D02*
X175716637Y-88490095D01*
X175716637Y-88490095D02*
X175716637Y-88537714D01*
X175716637Y-88537714D02*
X175669018Y-88632952D01*
X175669018Y-88632952D02*
X175621399Y-88680571D01*
X175621399Y-88680571D02*
X175526161Y-88728190D01*
X175526161Y-88728190D02*
X175335685Y-88728190D01*
X175335685Y-88728190D02*
X175240447Y-88775809D01*
X175240447Y-88775809D02*
X175192828Y-88823428D01*
X175192828Y-88823428D02*
X175145209Y-88918666D01*
X175145209Y-88918666D02*
X175145209Y-89109142D01*
X175145209Y-89109142D02*
X175192828Y-89204380D01*
X175192828Y-89204380D02*
X175240447Y-89252000D01*
X175240447Y-89252000D02*
X175335685Y-89299619D01*
X175335685Y-89299619D02*
X175526161Y-89299619D01*
X175526161Y-89299619D02*
X175621399Y-89252000D01*
X175621399Y-89252000D02*
X175669018Y-89204380D01*
X175669018Y-89204380D02*
X175716637Y-89109142D01*
X175716637Y-89109142D02*
X175716637Y-88918666D01*
X175716637Y-88918666D02*
X175669018Y-88823428D01*
X175669018Y-88823428D02*
X175621399Y-88775809D01*
X175621399Y-88775809D02*
X175526161Y-88728190D01*
X175907114Y-89394857D02*
X176669018Y-89394857D01*
X176859495Y-89252000D02*
X177002352Y-89299619D01*
X177002352Y-89299619D02*
X177240447Y-89299619D01*
X177240447Y-89299619D02*
X177335685Y-89252000D01*
X177335685Y-89252000D02*
X177383304Y-89204380D01*
X177383304Y-89204380D02*
X177430923Y-89109142D01*
X177430923Y-89109142D02*
X177430923Y-89013904D01*
X177430923Y-89013904D02*
X177383304Y-88918666D01*
X177383304Y-88918666D02*
X177335685Y-88871047D01*
X177335685Y-88871047D02*
X177240447Y-88823428D01*
X177240447Y-88823428D02*
X177049971Y-88775809D01*
X177049971Y-88775809D02*
X176954733Y-88728190D01*
X176954733Y-88728190D02*
X176907114Y-88680571D01*
X176907114Y-88680571D02*
X176859495Y-88585333D01*
X176859495Y-88585333D02*
X176859495Y-88490095D01*
X176859495Y-88490095D02*
X176907114Y-88394857D01*
X176907114Y-88394857D02*
X176954733Y-88347238D01*
X176954733Y-88347238D02*
X177049971Y-88299619D01*
X177049971Y-88299619D02*
X177288066Y-88299619D01*
X177288066Y-88299619D02*
X177430923Y-88347238D01*
X177859495Y-88775809D02*
X178192828Y-88775809D01*
X178335685Y-89299619D02*
X177859495Y-89299619D01*
X177859495Y-89299619D02*
X177859495Y-88299619D01*
X177859495Y-88299619D02*
X178335685Y-88299619D01*
X179288066Y-88347238D02*
X179192828Y-88299619D01*
X179192828Y-88299619D02*
X179049971Y-88299619D01*
X179049971Y-88299619D02*
X178907114Y-88347238D01*
X178907114Y-88347238D02*
X178811876Y-88442476D01*
X178811876Y-88442476D02*
X178764257Y-88537714D01*
X178764257Y-88537714D02*
X178716638Y-88728190D01*
X178716638Y-88728190D02*
X178716638Y-88871047D01*
X178716638Y-88871047D02*
X178764257Y-89061523D01*
X178764257Y-89061523D02*
X178811876Y-89156761D01*
X178811876Y-89156761D02*
X178907114Y-89252000D01*
X178907114Y-89252000D02*
X179049971Y-89299619D01*
X179049971Y-89299619D02*
X179145209Y-89299619D01*
X179145209Y-89299619D02*
X179288066Y-89252000D01*
X179288066Y-89252000D02*
X179335685Y-89204380D01*
X179335685Y-89204380D02*
X179335685Y-88871047D01*
X179335685Y-88871047D02*
X179145209Y-88871047D01*
X179526162Y-89394857D02*
X180288066Y-89394857D01*
X181002352Y-89299619D02*
X180526162Y-89299619D01*
X180526162Y-89299619D02*
X180526162Y-88299619D01*
X181335686Y-88775809D02*
X181669019Y-88775809D01*
X181811876Y-89299619D02*
X181335686Y-89299619D01*
X181335686Y-89299619D02*
X181335686Y-88299619D01*
X181335686Y-88299619D02*
X181811876Y-88299619D01*
X182240448Y-89299619D02*
X182240448Y-88299619D01*
X182240448Y-88299619D02*
X182478543Y-88299619D01*
X182478543Y-88299619D02*
X182621400Y-88347238D01*
X182621400Y-88347238D02*
X182716638Y-88442476D01*
X182716638Y-88442476D02*
X182764257Y-88537714D01*
X182764257Y-88537714D02*
X182811876Y-88728190D01*
X182811876Y-88728190D02*
X182811876Y-88871047D01*
X182811876Y-88871047D02*
X182764257Y-89061523D01*
X182764257Y-89061523D02*
X182716638Y-89156761D01*
X182716638Y-89156761D02*
X182621400Y-89252000D01*
X182621400Y-89252000D02*
X182478543Y-89299619D01*
X182478543Y-89299619D02*
X182240448Y-89299619D01*
X185097591Y-88775809D02*
X185240448Y-88823428D01*
X185240448Y-88823428D02*
X185288067Y-88871047D01*
X185288067Y-88871047D02*
X185335686Y-88966285D01*
X185335686Y-88966285D02*
X185335686Y-89109142D01*
X185335686Y-89109142D02*
X185288067Y-89204380D01*
X185288067Y-89204380D02*
X185240448Y-89252000D01*
X185240448Y-89252000D02*
X185145210Y-89299619D01*
X185145210Y-89299619D02*
X184764258Y-89299619D01*
X184764258Y-89299619D02*
X184764258Y-88299619D01*
X184764258Y-88299619D02*
X185097591Y-88299619D01*
X185097591Y-88299619D02*
X185192829Y-88347238D01*
X185192829Y-88347238D02*
X185240448Y-88394857D01*
X185240448Y-88394857D02*
X185288067Y-88490095D01*
X185288067Y-88490095D02*
X185288067Y-88585333D01*
X185288067Y-88585333D02*
X185240448Y-88680571D01*
X185240448Y-88680571D02*
X185192829Y-88728190D01*
X185192829Y-88728190D02*
X185097591Y-88775809D01*
X185097591Y-88775809D02*
X184764258Y-88775809D01*
X185716639Y-89013904D02*
X186192829Y-89013904D01*
X185621401Y-89299619D02*
X185954734Y-88299619D01*
X185954734Y-88299619D02*
X186288067Y-89299619D01*
X187192829Y-89299619D02*
X186859496Y-88823428D01*
X186621401Y-89299619D02*
X186621401Y-88299619D01*
X186621401Y-88299619D02*
X187002353Y-88299619D01*
X187002353Y-88299619D02*
X187097591Y-88347238D01*
X187097591Y-88347238D02*
X187145210Y-88394857D01*
X187145210Y-88394857D02*
X187192829Y-88490095D01*
X187192829Y-88490095D02*
X187192829Y-88632952D01*
X187192829Y-88632952D02*
X187145210Y-88728190D01*
X187145210Y-88728190D02*
X187097591Y-88775809D01*
X187097591Y-88775809D02*
X187002353Y-88823428D01*
X187002353Y-88823428D02*
X186621401Y-88823428D01*
X187383306Y-89394857D02*
X188145210Y-89394857D01*
X188907115Y-88347238D02*
X188811877Y-88299619D01*
X188811877Y-88299619D02*
X188669020Y-88299619D01*
X188669020Y-88299619D02*
X188526163Y-88347238D01*
X188526163Y-88347238D02*
X188430925Y-88442476D01*
X188430925Y-88442476D02*
X188383306Y-88537714D01*
X188383306Y-88537714D02*
X188335687Y-88728190D01*
X188335687Y-88728190D02*
X188335687Y-88871047D01*
X188335687Y-88871047D02*
X188383306Y-89061523D01*
X188383306Y-89061523D02*
X188430925Y-89156761D01*
X188430925Y-89156761D02*
X188526163Y-89252000D01*
X188526163Y-89252000D02*
X188669020Y-89299619D01*
X188669020Y-89299619D02*
X188764258Y-89299619D01*
X188764258Y-89299619D02*
X188907115Y-89252000D01*
X188907115Y-89252000D02*
X188954734Y-89204380D01*
X188954734Y-89204380D02*
X188954734Y-88871047D01*
X188954734Y-88871047D02*
X188764258Y-88871047D01*
X189954734Y-89299619D02*
X189621401Y-88823428D01*
X189383306Y-89299619D02*
X189383306Y-88299619D01*
X189383306Y-88299619D02*
X189764258Y-88299619D01*
X189764258Y-88299619D02*
X189859496Y-88347238D01*
X189859496Y-88347238D02*
X189907115Y-88394857D01*
X189907115Y-88394857D02*
X189954734Y-88490095D01*
X189954734Y-88490095D02*
X189954734Y-88632952D01*
X189954734Y-88632952D02*
X189907115Y-88728190D01*
X189907115Y-88728190D02*
X189859496Y-88775809D01*
X189859496Y-88775809D02*
X189764258Y-88823428D01*
X189764258Y-88823428D02*
X189383306Y-88823428D01*
X190335687Y-89013904D02*
X190811877Y-89013904D01*
X190240449Y-89299619D02*
X190573782Y-88299619D01*
X190573782Y-88299619D02*
X190907115Y-89299619D01*
X191240449Y-89299619D02*
X191240449Y-88299619D01*
X191240449Y-88299619D02*
X191621401Y-88299619D01*
X191621401Y-88299619D02*
X191716639Y-88347238D01*
X191716639Y-88347238D02*
X191764258Y-88394857D01*
X191764258Y-88394857D02*
X191811877Y-88490095D01*
X191811877Y-88490095D02*
X191811877Y-88632952D01*
X191811877Y-88632952D02*
X191764258Y-88728190D01*
X191764258Y-88728190D02*
X191716639Y-88775809D01*
X191716639Y-88775809D02*
X191621401Y-88823428D01*
X191621401Y-88823428D02*
X191240449Y-88823428D01*
X192240449Y-89299619D02*
X192240449Y-88299619D01*
X192240449Y-88775809D02*
X192811877Y-88775809D01*
X192811877Y-89299619D02*
X192811877Y-88299619D01*
X120533333Y-117959819D02*
X120200000Y-117483628D01*
X119961905Y-117959819D02*
X119961905Y-116959819D01*
X119961905Y-116959819D02*
X120342857Y-116959819D01*
X120342857Y-116959819D02*
X120438095Y-117007438D01*
X120438095Y-117007438D02*
X120485714Y-117055057D01*
X120485714Y-117055057D02*
X120533333Y-117150295D01*
X120533333Y-117150295D02*
X120533333Y-117293152D01*
X120533333Y-117293152D02*
X120485714Y-117388390D01*
X120485714Y-117388390D02*
X120438095Y-117436009D01*
X120438095Y-117436009D02*
X120342857Y-117483628D01*
X120342857Y-117483628D02*
X119961905Y-117483628D01*
X121485714Y-117959819D02*
X120914286Y-117959819D01*
X121200000Y-117959819D02*
X121200000Y-116959819D01*
X121200000Y-116959819D02*
X121104762Y-117102676D01*
X121104762Y-117102676D02*
X121009524Y-117197914D01*
X121009524Y-117197914D02*
X120914286Y-117245533D01*
X118732857Y-119509819D02*
X119351904Y-119509819D01*
X119351904Y-119509819D02*
X119018571Y-119890771D01*
X119018571Y-119890771D02*
X119161428Y-119890771D01*
X119161428Y-119890771D02*
X119256666Y-119938390D01*
X119256666Y-119938390D02*
X119304285Y-119986009D01*
X119304285Y-119986009D02*
X119351904Y-120081247D01*
X119351904Y-120081247D02*
X119351904Y-120319342D01*
X119351904Y-120319342D02*
X119304285Y-120414580D01*
X119304285Y-120414580D02*
X119256666Y-120462200D01*
X119256666Y-120462200D02*
X119161428Y-120509819D01*
X119161428Y-120509819D02*
X118875714Y-120509819D01*
X118875714Y-120509819D02*
X118780476Y-120462200D01*
X118780476Y-120462200D02*
X118732857Y-120414580D01*
X119685238Y-119509819D02*
X120304285Y-119509819D01*
X120304285Y-119509819D02*
X119970952Y-119890771D01*
X119970952Y-119890771D02*
X120113809Y-119890771D01*
X120113809Y-119890771D02*
X120209047Y-119938390D01*
X120209047Y-119938390D02*
X120256666Y-119986009D01*
X120256666Y-119986009D02*
X120304285Y-120081247D01*
X120304285Y-120081247D02*
X120304285Y-120319342D01*
X120304285Y-120319342D02*
X120256666Y-120414580D01*
X120256666Y-120414580D02*
X120209047Y-120462200D01*
X120209047Y-120462200D02*
X120113809Y-120509819D01*
X120113809Y-120509819D02*
X119828095Y-120509819D01*
X119828095Y-120509819D02*
X119732857Y-120462200D01*
X119732857Y-120462200D02*
X119685238Y-120414580D01*
X120923333Y-119509819D02*
X121018571Y-119509819D01*
X121018571Y-119509819D02*
X121113809Y-119557438D01*
X121113809Y-119557438D02*
X121161428Y-119605057D01*
X121161428Y-119605057D02*
X121209047Y-119700295D01*
X121209047Y-119700295D02*
X121256666Y-119890771D01*
X121256666Y-119890771D02*
X121256666Y-120128866D01*
X121256666Y-120128866D02*
X121209047Y-120319342D01*
X121209047Y-120319342D02*
X121161428Y-120414580D01*
X121161428Y-120414580D02*
X121113809Y-120462200D01*
X121113809Y-120462200D02*
X121018571Y-120509819D01*
X121018571Y-120509819D02*
X120923333Y-120509819D01*
X120923333Y-120509819D02*
X120828095Y-120462200D01*
X120828095Y-120462200D02*
X120780476Y-120414580D01*
X120780476Y-120414580D02*
X120732857Y-120319342D01*
X120732857Y-120319342D02*
X120685238Y-120128866D01*
X120685238Y-120128866D02*
X120685238Y-119890771D01*
X120685238Y-119890771D02*
X120732857Y-119700295D01*
X120732857Y-119700295D02*
X120780476Y-119605057D01*
X120780476Y-119605057D02*
X120828095Y-119557438D01*
X120828095Y-119557438D02*
X120923333Y-119509819D01*
X121637619Y-120509819D02*
X121875714Y-120509819D01*
X121875714Y-120509819D02*
X121875714Y-120319342D01*
X121875714Y-120319342D02*
X121780476Y-120271723D01*
X121780476Y-120271723D02*
X121685238Y-120176485D01*
X121685238Y-120176485D02*
X121637619Y-120033628D01*
X121637619Y-120033628D02*
X121637619Y-119795533D01*
X121637619Y-119795533D02*
X121685238Y-119652676D01*
X121685238Y-119652676D02*
X121780476Y-119557438D01*
X121780476Y-119557438D02*
X121923333Y-119509819D01*
X121923333Y-119509819D02*
X122113809Y-119509819D01*
X122113809Y-119509819D02*
X122256666Y-119557438D01*
X122256666Y-119557438D02*
X122351904Y-119652676D01*
X122351904Y-119652676D02*
X122399523Y-119795533D01*
X122399523Y-119795533D02*
X122399523Y-120033628D01*
X122399523Y-120033628D02*
X122351904Y-120176485D01*
X122351904Y-120176485D02*
X122256666Y-120271723D01*
X122256666Y-120271723D02*
X122161428Y-120319342D01*
X122161428Y-120319342D02*
X122161428Y-120509819D01*
X122161428Y-120509819D02*
X122399523Y-120509819D01*
X198123333Y-97454819D02*
X197790000Y-96978628D01*
X197551905Y-97454819D02*
X197551905Y-96454819D01*
X197551905Y-96454819D02*
X197932857Y-96454819D01*
X197932857Y-96454819D02*
X198028095Y-96502438D01*
X198028095Y-96502438D02*
X198075714Y-96550057D01*
X198075714Y-96550057D02*
X198123333Y-96645295D01*
X198123333Y-96645295D02*
X198123333Y-96788152D01*
X198123333Y-96788152D02*
X198075714Y-96883390D01*
X198075714Y-96883390D02*
X198028095Y-96931009D01*
X198028095Y-96931009D02*
X197932857Y-96978628D01*
X197932857Y-96978628D02*
X197551905Y-96978628D01*
X199028095Y-96454819D02*
X198551905Y-96454819D01*
X198551905Y-96454819D02*
X198504286Y-96931009D01*
X198504286Y-96931009D02*
X198551905Y-96883390D01*
X198551905Y-96883390D02*
X198647143Y-96835771D01*
X198647143Y-96835771D02*
X198885238Y-96835771D01*
X198885238Y-96835771D02*
X198980476Y-96883390D01*
X198980476Y-96883390D02*
X199028095Y-96931009D01*
X199028095Y-96931009D02*
X199075714Y-97026247D01*
X199075714Y-97026247D02*
X199075714Y-97264342D01*
X199075714Y-97264342D02*
X199028095Y-97359580D01*
X199028095Y-97359580D02*
X198980476Y-97407200D01*
X198980476Y-97407200D02*
X198885238Y-97454819D01*
X198885238Y-97454819D02*
X198647143Y-97454819D01*
X198647143Y-97454819D02*
X198551905Y-97407200D01*
X198551905Y-97407200D02*
X198504286Y-97359580D01*
X196642857Y-99034819D02*
X197261904Y-99034819D01*
X197261904Y-99034819D02*
X196928571Y-99415771D01*
X196928571Y-99415771D02*
X197071428Y-99415771D01*
X197071428Y-99415771D02*
X197166666Y-99463390D01*
X197166666Y-99463390D02*
X197214285Y-99511009D01*
X197214285Y-99511009D02*
X197261904Y-99606247D01*
X197261904Y-99606247D02*
X197261904Y-99844342D01*
X197261904Y-99844342D02*
X197214285Y-99939580D01*
X197214285Y-99939580D02*
X197166666Y-99987200D01*
X197166666Y-99987200D02*
X197071428Y-100034819D01*
X197071428Y-100034819D02*
X196785714Y-100034819D01*
X196785714Y-100034819D02*
X196690476Y-99987200D01*
X196690476Y-99987200D02*
X196642857Y-99939580D01*
X197595238Y-99034819D02*
X198214285Y-99034819D01*
X198214285Y-99034819D02*
X197880952Y-99415771D01*
X197880952Y-99415771D02*
X198023809Y-99415771D01*
X198023809Y-99415771D02*
X198119047Y-99463390D01*
X198119047Y-99463390D02*
X198166666Y-99511009D01*
X198166666Y-99511009D02*
X198214285Y-99606247D01*
X198214285Y-99606247D02*
X198214285Y-99844342D01*
X198214285Y-99844342D02*
X198166666Y-99939580D01*
X198166666Y-99939580D02*
X198119047Y-99987200D01*
X198119047Y-99987200D02*
X198023809Y-100034819D01*
X198023809Y-100034819D02*
X197738095Y-100034819D01*
X197738095Y-100034819D02*
X197642857Y-99987200D01*
X197642857Y-99987200D02*
X197595238Y-99939580D01*
X198833333Y-99034819D02*
X198928571Y-99034819D01*
X198928571Y-99034819D02*
X199023809Y-99082438D01*
X199023809Y-99082438D02*
X199071428Y-99130057D01*
X199071428Y-99130057D02*
X199119047Y-99225295D01*
X199119047Y-99225295D02*
X199166666Y-99415771D01*
X199166666Y-99415771D02*
X199166666Y-99653866D01*
X199166666Y-99653866D02*
X199119047Y-99844342D01*
X199119047Y-99844342D02*
X199071428Y-99939580D01*
X199071428Y-99939580D02*
X199023809Y-99987200D01*
X199023809Y-99987200D02*
X198928571Y-100034819D01*
X198928571Y-100034819D02*
X198833333Y-100034819D01*
X198833333Y-100034819D02*
X198738095Y-99987200D01*
X198738095Y-99987200D02*
X198690476Y-99939580D01*
X198690476Y-99939580D02*
X198642857Y-99844342D01*
X198642857Y-99844342D02*
X198595238Y-99653866D01*
X198595238Y-99653866D02*
X198595238Y-99415771D01*
X198595238Y-99415771D02*
X198642857Y-99225295D01*
X198642857Y-99225295D02*
X198690476Y-99130057D01*
X198690476Y-99130057D02*
X198738095Y-99082438D01*
X198738095Y-99082438D02*
X198833333Y-99034819D01*
X199547619Y-100034819D02*
X199785714Y-100034819D01*
X199785714Y-100034819D02*
X199785714Y-99844342D01*
X199785714Y-99844342D02*
X199690476Y-99796723D01*
X199690476Y-99796723D02*
X199595238Y-99701485D01*
X199595238Y-99701485D02*
X199547619Y-99558628D01*
X199547619Y-99558628D02*
X199547619Y-99320533D01*
X199547619Y-99320533D02*
X199595238Y-99177676D01*
X199595238Y-99177676D02*
X199690476Y-99082438D01*
X199690476Y-99082438D02*
X199833333Y-99034819D01*
X199833333Y-99034819D02*
X200023809Y-99034819D01*
X200023809Y-99034819D02*
X200166666Y-99082438D01*
X200166666Y-99082438D02*
X200261904Y-99177676D01*
X200261904Y-99177676D02*
X200309523Y-99320533D01*
X200309523Y-99320533D02*
X200309523Y-99558628D01*
X200309523Y-99558628D02*
X200261904Y-99701485D01*
X200261904Y-99701485D02*
X200166666Y-99796723D01*
X200166666Y-99796723D02*
X200071428Y-99844342D01*
X200071428Y-99844342D02*
X200071428Y-100034819D01*
X200071428Y-100034819D02*
X200309523Y-100034819D01*
X197191905Y-102294819D02*
X197191905Y-101294819D01*
X197191905Y-101294819D02*
X197430000Y-101294819D01*
X197430000Y-101294819D02*
X197572857Y-101342438D01*
X197572857Y-101342438D02*
X197668095Y-101437676D01*
X197668095Y-101437676D02*
X197715714Y-101532914D01*
X197715714Y-101532914D02*
X197763333Y-101723390D01*
X197763333Y-101723390D02*
X197763333Y-101866247D01*
X197763333Y-101866247D02*
X197715714Y-102056723D01*
X197715714Y-102056723D02*
X197668095Y-102151961D01*
X197668095Y-102151961D02*
X197572857Y-102247200D01*
X197572857Y-102247200D02*
X197430000Y-102294819D01*
X197430000Y-102294819D02*
X197191905Y-102294819D01*
X198620476Y-101294819D02*
X198430000Y-101294819D01*
X198430000Y-101294819D02*
X198334762Y-101342438D01*
X198334762Y-101342438D02*
X198287143Y-101390057D01*
X198287143Y-101390057D02*
X198191905Y-101532914D01*
X198191905Y-101532914D02*
X198144286Y-101723390D01*
X198144286Y-101723390D02*
X198144286Y-102104342D01*
X198144286Y-102104342D02*
X198191905Y-102199580D01*
X198191905Y-102199580D02*
X198239524Y-102247200D01*
X198239524Y-102247200D02*
X198334762Y-102294819D01*
X198334762Y-102294819D02*
X198525238Y-102294819D01*
X198525238Y-102294819D02*
X198620476Y-102247200D01*
X198620476Y-102247200D02*
X198668095Y-102199580D01*
X198668095Y-102199580D02*
X198715714Y-102104342D01*
X198715714Y-102104342D02*
X198715714Y-101866247D01*
X198715714Y-101866247D02*
X198668095Y-101771009D01*
X198668095Y-101771009D02*
X198620476Y-101723390D01*
X198620476Y-101723390D02*
X198525238Y-101675771D01*
X198525238Y-101675771D02*
X198334762Y-101675771D01*
X198334762Y-101675771D02*
X198239524Y-101723390D01*
X198239524Y-101723390D02*
X198191905Y-101771009D01*
X198191905Y-101771009D02*
X198144286Y-101866247D01*
X197172857Y-107638628D02*
X197172857Y-108114819D01*
X196839524Y-107114819D02*
X197172857Y-107638628D01*
X197172857Y-107638628D02*
X197506190Y-107114819D01*
X197839524Y-107591009D02*
X198172857Y-107591009D01*
X198315714Y-108114819D02*
X197839524Y-108114819D01*
X197839524Y-108114819D02*
X197839524Y-107114819D01*
X197839524Y-107114819D02*
X198315714Y-107114819D01*
X199220476Y-108114819D02*
X198744286Y-108114819D01*
X198744286Y-108114819D02*
X198744286Y-107114819D01*
X200030000Y-108114819D02*
X199553810Y-108114819D01*
X199553810Y-108114819D02*
X199553810Y-107114819D01*
X200553810Y-107114819D02*
X200744286Y-107114819D01*
X200744286Y-107114819D02*
X200839524Y-107162438D01*
X200839524Y-107162438D02*
X200934762Y-107257676D01*
X200934762Y-107257676D02*
X200982381Y-107448152D01*
X200982381Y-107448152D02*
X200982381Y-107781485D01*
X200982381Y-107781485D02*
X200934762Y-107971961D01*
X200934762Y-107971961D02*
X200839524Y-108067200D01*
X200839524Y-108067200D02*
X200744286Y-108114819D01*
X200744286Y-108114819D02*
X200553810Y-108114819D01*
X200553810Y-108114819D02*
X200458572Y-108067200D01*
X200458572Y-108067200D02*
X200363334Y-107971961D01*
X200363334Y-107971961D02*
X200315715Y-107781485D01*
X200315715Y-107781485D02*
X200315715Y-107448152D01*
X200315715Y-107448152D02*
X200363334Y-107257676D01*
X200363334Y-107257676D02*
X200458572Y-107162438D01*
X200458572Y-107162438D02*
X200553810Y-107114819D01*
X201315715Y-107114819D02*
X201553810Y-108114819D01*
X201553810Y-108114819D02*
X201744286Y-107400533D01*
X201744286Y-107400533D02*
X201934762Y-108114819D01*
X201934762Y-108114819D02*
X202172858Y-107114819D01*
X91259819Y-115530238D02*
X90783628Y-115863571D01*
X91259819Y-116101666D02*
X90259819Y-116101666D01*
X90259819Y-116101666D02*
X90259819Y-115720714D01*
X90259819Y-115720714D02*
X90307438Y-115625476D01*
X90307438Y-115625476D02*
X90355057Y-115577857D01*
X90355057Y-115577857D02*
X90450295Y-115530238D01*
X90450295Y-115530238D02*
X90593152Y-115530238D01*
X90593152Y-115530238D02*
X90688390Y-115577857D01*
X90688390Y-115577857D02*
X90736009Y-115625476D01*
X90736009Y-115625476D02*
X90783628Y-115720714D01*
X90783628Y-115720714D02*
X90783628Y-116101666D01*
X90259819Y-115244523D02*
X91259819Y-114911190D01*
X91259819Y-114911190D02*
X90259819Y-114577857D01*
X90355057Y-114292142D02*
X90307438Y-114244523D01*
X90307438Y-114244523D02*
X90259819Y-114149285D01*
X90259819Y-114149285D02*
X90259819Y-113911190D01*
X90259819Y-113911190D02*
X90307438Y-113815952D01*
X90307438Y-113815952D02*
X90355057Y-113768333D01*
X90355057Y-113768333D02*
X90450295Y-113720714D01*
X90450295Y-113720714D02*
X90545533Y-113720714D01*
X90545533Y-113720714D02*
X90688390Y-113768333D01*
X90688390Y-113768333D02*
X91259819Y-114339761D01*
X91259819Y-114339761D02*
X91259819Y-113720714D01*
X95686666Y-118187119D02*
X95210476Y-118187119D01*
X95210476Y-118187119D02*
X95162857Y-118663309D01*
X95162857Y-118663309D02*
X95210476Y-118615690D01*
X95210476Y-118615690D02*
X95305714Y-118568071D01*
X95305714Y-118568071D02*
X95543809Y-118568071D01*
X95543809Y-118568071D02*
X95639047Y-118615690D01*
X95639047Y-118615690D02*
X95686666Y-118663309D01*
X95686666Y-118663309D02*
X95734285Y-118758547D01*
X95734285Y-118758547D02*
X95734285Y-118996642D01*
X95734285Y-118996642D02*
X95686666Y-119091880D01*
X95686666Y-119091880D02*
X95639047Y-119139500D01*
X95639047Y-119139500D02*
X95543809Y-119187119D01*
X95543809Y-119187119D02*
X95305714Y-119187119D01*
X95305714Y-119187119D02*
X95210476Y-119139500D01*
X95210476Y-119139500D02*
X95162857Y-119091880D01*
X96162857Y-119187119D02*
X96162857Y-118187119D01*
X96734285Y-119187119D02*
X96305714Y-118615690D01*
X96734285Y-118187119D02*
X96162857Y-118758547D01*
X97115238Y-119187119D02*
X97353333Y-119187119D01*
X97353333Y-119187119D02*
X97353333Y-118996642D01*
X97353333Y-118996642D02*
X97258095Y-118949023D01*
X97258095Y-118949023D02*
X97162857Y-118853785D01*
X97162857Y-118853785D02*
X97115238Y-118710928D01*
X97115238Y-118710928D02*
X97115238Y-118472833D01*
X97115238Y-118472833D02*
X97162857Y-118329976D01*
X97162857Y-118329976D02*
X97258095Y-118234738D01*
X97258095Y-118234738D02*
X97400952Y-118187119D01*
X97400952Y-118187119D02*
X97591428Y-118187119D01*
X97591428Y-118187119D02*
X97734285Y-118234738D01*
X97734285Y-118234738D02*
X97829523Y-118329976D01*
X97829523Y-118329976D02*
X97877142Y-118472833D01*
X97877142Y-118472833D02*
X97877142Y-118710928D01*
X97877142Y-118710928D02*
X97829523Y-118853785D01*
X97829523Y-118853785D02*
X97734285Y-118949023D01*
X97734285Y-118949023D02*
X97639047Y-118996642D01*
X97639047Y-118996642D02*
X97639047Y-119187119D01*
X97639047Y-119187119D02*
X97877142Y-119187119D01*
D14*
X91440000Y-125004080D02*
X91621428Y-125064556D01*
X91621428Y-125064556D02*
X91681905Y-125125032D01*
X91681905Y-125125032D02*
X91742381Y-125245984D01*
X91742381Y-125245984D02*
X91742381Y-125427413D01*
X91742381Y-125427413D02*
X91681905Y-125548365D01*
X91681905Y-125548365D02*
X91621428Y-125608842D01*
X91621428Y-125608842D02*
X91500476Y-125669318D01*
X91500476Y-125669318D02*
X91016666Y-125669318D01*
X91016666Y-125669318D02*
X91016666Y-124399318D01*
X91016666Y-124399318D02*
X91440000Y-124399318D01*
X91440000Y-124399318D02*
X91560952Y-124459794D01*
X91560952Y-124459794D02*
X91621428Y-124520270D01*
X91621428Y-124520270D02*
X91681905Y-124641222D01*
X91681905Y-124641222D02*
X91681905Y-124762175D01*
X91681905Y-124762175D02*
X91621428Y-124883127D01*
X91621428Y-124883127D02*
X91560952Y-124943603D01*
X91560952Y-124943603D02*
X91440000Y-125004080D01*
X91440000Y-125004080D02*
X91016666Y-125004080D01*
X93012381Y-125669318D02*
X92589047Y-125064556D01*
X92286666Y-125669318D02*
X92286666Y-124399318D01*
X92286666Y-124399318D02*
X92770476Y-124399318D01*
X92770476Y-124399318D02*
X92891428Y-124459794D01*
X92891428Y-124459794D02*
X92951905Y-124520270D01*
X92951905Y-124520270D02*
X93012381Y-124641222D01*
X93012381Y-124641222D02*
X93012381Y-124822651D01*
X93012381Y-124822651D02*
X92951905Y-124943603D01*
X92951905Y-124943603D02*
X92891428Y-125004080D01*
X92891428Y-125004080D02*
X92770476Y-125064556D01*
X92770476Y-125064556D02*
X92286666Y-125064556D01*
X93556666Y-125669318D02*
X93556666Y-124399318D01*
X94826667Y-124459794D02*
X94705714Y-124399318D01*
X94705714Y-124399318D02*
X94524286Y-124399318D01*
X94524286Y-124399318D02*
X94342857Y-124459794D01*
X94342857Y-124459794D02*
X94221905Y-124580746D01*
X94221905Y-124580746D02*
X94161428Y-124701699D01*
X94161428Y-124701699D02*
X94100952Y-124943603D01*
X94100952Y-124943603D02*
X94100952Y-125125032D01*
X94100952Y-125125032D02*
X94161428Y-125366937D01*
X94161428Y-125366937D02*
X94221905Y-125487889D01*
X94221905Y-125487889D02*
X94342857Y-125608842D01*
X94342857Y-125608842D02*
X94524286Y-125669318D01*
X94524286Y-125669318D02*
X94645238Y-125669318D01*
X94645238Y-125669318D02*
X94826667Y-125608842D01*
X94826667Y-125608842D02*
X94887143Y-125548365D01*
X94887143Y-125548365D02*
X94887143Y-125125032D01*
X94887143Y-125125032D02*
X94645238Y-125125032D01*
X95431428Y-125669318D02*
X95431428Y-124399318D01*
X95431428Y-125004080D02*
X96157143Y-125004080D01*
X96157143Y-125669318D02*
X96157143Y-124399318D01*
X96580476Y-124399318D02*
X97306190Y-124399318D01*
X96943333Y-125669318D02*
X96943333Y-124399318D01*
X97729523Y-125669318D02*
X97729523Y-124399318D01*
X97729523Y-124399318D02*
X98455238Y-125669318D01*
X98455238Y-125669318D02*
X98455238Y-124399318D01*
X99059999Y-125004080D02*
X99483333Y-125004080D01*
X99664761Y-125669318D02*
X99059999Y-125669318D01*
X99059999Y-125669318D02*
X99059999Y-124399318D01*
X99059999Y-124399318D02*
X99664761Y-124399318D01*
X100148571Y-125608842D02*
X100330000Y-125669318D01*
X100330000Y-125669318D02*
X100632381Y-125669318D01*
X100632381Y-125669318D02*
X100753333Y-125608842D01*
X100753333Y-125608842D02*
X100813809Y-125548365D01*
X100813809Y-125548365D02*
X100874286Y-125427413D01*
X100874286Y-125427413D02*
X100874286Y-125306461D01*
X100874286Y-125306461D02*
X100813809Y-125185508D01*
X100813809Y-125185508D02*
X100753333Y-125125032D01*
X100753333Y-125125032D02*
X100632381Y-125064556D01*
X100632381Y-125064556D02*
X100390476Y-125004080D01*
X100390476Y-125004080D02*
X100269524Y-124943603D01*
X100269524Y-124943603D02*
X100209047Y-124883127D01*
X100209047Y-124883127D02*
X100148571Y-124762175D01*
X100148571Y-124762175D02*
X100148571Y-124641222D01*
X100148571Y-124641222D02*
X100209047Y-124520270D01*
X100209047Y-124520270D02*
X100269524Y-124459794D01*
X100269524Y-124459794D02*
X100390476Y-124399318D01*
X100390476Y-124399318D02*
X100692857Y-124399318D01*
X100692857Y-124399318D02*
X100874286Y-124459794D01*
X101358095Y-125608842D02*
X101539524Y-125669318D01*
X101539524Y-125669318D02*
X101841905Y-125669318D01*
X101841905Y-125669318D02*
X101962857Y-125608842D01*
X101962857Y-125608842D02*
X102023333Y-125548365D01*
X102023333Y-125548365D02*
X102083810Y-125427413D01*
X102083810Y-125427413D02*
X102083810Y-125306461D01*
X102083810Y-125306461D02*
X102023333Y-125185508D01*
X102023333Y-125185508D02*
X101962857Y-125125032D01*
X101962857Y-125125032D02*
X101841905Y-125064556D01*
X101841905Y-125064556D02*
X101600000Y-125004080D01*
X101600000Y-125004080D02*
X101479048Y-124943603D01*
X101479048Y-124943603D02*
X101418571Y-124883127D01*
X101418571Y-124883127D02*
X101358095Y-124762175D01*
X101358095Y-124762175D02*
X101358095Y-124641222D01*
X101358095Y-124641222D02*
X101418571Y-124520270D01*
X101418571Y-124520270D02*
X101479048Y-124459794D01*
X101479048Y-124459794D02*
X101600000Y-124399318D01*
X101600000Y-124399318D02*
X101902381Y-124399318D01*
X101902381Y-124399318D02*
X102083810Y-124459794D01*
D12*
X174406667Y-107437200D02*
X174549524Y-107484819D01*
X174549524Y-107484819D02*
X174787619Y-107484819D01*
X174787619Y-107484819D02*
X174882857Y-107437200D01*
X174882857Y-107437200D02*
X174930476Y-107389580D01*
X174930476Y-107389580D02*
X174978095Y-107294342D01*
X174978095Y-107294342D02*
X174978095Y-107199104D01*
X174978095Y-107199104D02*
X174930476Y-107103866D01*
X174930476Y-107103866D02*
X174882857Y-107056247D01*
X174882857Y-107056247D02*
X174787619Y-107008628D01*
X174787619Y-107008628D02*
X174597143Y-106961009D01*
X174597143Y-106961009D02*
X174501905Y-106913390D01*
X174501905Y-106913390D02*
X174454286Y-106865771D01*
X174454286Y-106865771D02*
X174406667Y-106770533D01*
X174406667Y-106770533D02*
X174406667Y-106675295D01*
X174406667Y-106675295D02*
X174454286Y-106580057D01*
X174454286Y-106580057D02*
X174501905Y-106532438D01*
X174501905Y-106532438D02*
X174597143Y-106484819D01*
X174597143Y-106484819D02*
X174835238Y-106484819D01*
X174835238Y-106484819D02*
X174978095Y-106532438D01*
X175311429Y-106484819D02*
X175549524Y-107484819D01*
X175549524Y-107484819D02*
X175740000Y-106770533D01*
X175740000Y-106770533D02*
X175930476Y-107484819D01*
X175930476Y-107484819D02*
X176168572Y-106484819D01*
X176454286Y-106484819D02*
X177073333Y-106484819D01*
X177073333Y-106484819D02*
X176740000Y-106865771D01*
X176740000Y-106865771D02*
X176882857Y-106865771D01*
X176882857Y-106865771D02*
X176978095Y-106913390D01*
X176978095Y-106913390D02*
X177025714Y-106961009D01*
X177025714Y-106961009D02*
X177073333Y-107056247D01*
X177073333Y-107056247D02*
X177073333Y-107294342D01*
X177073333Y-107294342D02*
X177025714Y-107389580D01*
X177025714Y-107389580D02*
X176978095Y-107437200D01*
X176978095Y-107437200D02*
X176882857Y-107484819D01*
X176882857Y-107484819D02*
X176597143Y-107484819D01*
X176597143Y-107484819D02*
X176501905Y-107437200D01*
X176501905Y-107437200D02*
X176454286Y-107389580D01*
X175888095Y-114119819D02*
X175888095Y-113119819D01*
X175888095Y-113119819D02*
X176126190Y-113119819D01*
X176126190Y-113119819D02*
X176269047Y-113167438D01*
X176269047Y-113167438D02*
X176364285Y-113262676D01*
X176364285Y-113262676D02*
X176411904Y-113357914D01*
X176411904Y-113357914D02*
X176459523Y-113548390D01*
X176459523Y-113548390D02*
X176459523Y-113691247D01*
X176459523Y-113691247D02*
X176411904Y-113881723D01*
X176411904Y-113881723D02*
X176364285Y-113976961D01*
X176364285Y-113976961D02*
X176269047Y-114072200D01*
X176269047Y-114072200D02*
X176126190Y-114119819D01*
X176126190Y-114119819D02*
X175888095Y-114119819D01*
X176840476Y-114072200D02*
X176983333Y-114119819D01*
X176983333Y-114119819D02*
X177221428Y-114119819D01*
X177221428Y-114119819D02*
X177316666Y-114072200D01*
X177316666Y-114072200D02*
X177364285Y-114024580D01*
X177364285Y-114024580D02*
X177411904Y-113929342D01*
X177411904Y-113929342D02*
X177411904Y-113834104D01*
X177411904Y-113834104D02*
X177364285Y-113738866D01*
X177364285Y-113738866D02*
X177316666Y-113691247D01*
X177316666Y-113691247D02*
X177221428Y-113643628D01*
X177221428Y-113643628D02*
X177030952Y-113596009D01*
X177030952Y-113596009D02*
X176935714Y-113548390D01*
X176935714Y-113548390D02*
X176888095Y-113500771D01*
X176888095Y-113500771D02*
X176840476Y-113405533D01*
X176840476Y-113405533D02*
X176840476Y-113310295D01*
X176840476Y-113310295D02*
X176888095Y-113215057D01*
X176888095Y-113215057D02*
X176935714Y-113167438D01*
X176935714Y-113167438D02*
X177030952Y-113119819D01*
X177030952Y-113119819D02*
X177269047Y-113119819D01*
X177269047Y-113119819D02*
X177411904Y-113167438D01*
X178030952Y-113119819D02*
X178126190Y-113119819D01*
X178126190Y-113119819D02*
X178221428Y-113167438D01*
X178221428Y-113167438D02*
X178269047Y-113215057D01*
X178269047Y-113215057D02*
X178316666Y-113310295D01*
X178316666Y-113310295D02*
X178364285Y-113500771D01*
X178364285Y-113500771D02*
X178364285Y-113738866D01*
X178364285Y-113738866D02*
X178316666Y-113929342D01*
X178316666Y-113929342D02*
X178269047Y-114024580D01*
X178269047Y-114024580D02*
X178221428Y-114072200D01*
X178221428Y-114072200D02*
X178126190Y-114119819D01*
X178126190Y-114119819D02*
X178030952Y-114119819D01*
X178030952Y-114119819D02*
X177935714Y-114072200D01*
X177935714Y-114072200D02*
X177888095Y-114024580D01*
X177888095Y-114024580D02*
X177840476Y-113929342D01*
X177840476Y-113929342D02*
X177792857Y-113738866D01*
X177792857Y-113738866D02*
X177792857Y-113500771D01*
X177792857Y-113500771D02*
X177840476Y-113310295D01*
X177840476Y-113310295D02*
X177888095Y-113215057D01*
X177888095Y-113215057D02*
X177935714Y-113167438D01*
X177935714Y-113167438D02*
X178030952Y-113119819D01*
X178745238Y-113215057D02*
X178792857Y-113167438D01*
X178792857Y-113167438D02*
X178888095Y-113119819D01*
X178888095Y-113119819D02*
X179126190Y-113119819D01*
X179126190Y-113119819D02*
X179221428Y-113167438D01*
X179221428Y-113167438D02*
X179269047Y-113215057D01*
X179269047Y-113215057D02*
X179316666Y-113310295D01*
X179316666Y-113310295D02*
X179316666Y-113405533D01*
X179316666Y-113405533D02*
X179269047Y-113548390D01*
X179269047Y-113548390D02*
X178697619Y-114119819D01*
X178697619Y-114119819D02*
X179316666Y-114119819D01*
X180316666Y-114024580D02*
X180269047Y-114072200D01*
X180269047Y-114072200D02*
X180126190Y-114119819D01*
X180126190Y-114119819D02*
X180030952Y-114119819D01*
X180030952Y-114119819D02*
X179888095Y-114072200D01*
X179888095Y-114072200D02*
X179792857Y-113976961D01*
X179792857Y-113976961D02*
X179745238Y-113881723D01*
X179745238Y-113881723D02*
X179697619Y-113691247D01*
X179697619Y-113691247D02*
X179697619Y-113548390D01*
X179697619Y-113548390D02*
X179745238Y-113357914D01*
X179745238Y-113357914D02*
X179792857Y-113262676D01*
X179792857Y-113262676D02*
X179888095Y-113167438D01*
X179888095Y-113167438D02*
X180030952Y-113119819D01*
X180030952Y-113119819D02*
X180126190Y-113119819D01*
X180126190Y-113119819D02*
X180269047Y-113167438D01*
X180269047Y-113167438D02*
X180316666Y-113215057D01*
X180745238Y-113738866D02*
X181507143Y-113738866D01*
X181935714Y-113215057D02*
X181983333Y-113167438D01*
X181983333Y-113167438D02*
X182078571Y-113119819D01*
X182078571Y-113119819D02*
X182316666Y-113119819D01*
X182316666Y-113119819D02*
X182411904Y-113167438D01*
X182411904Y-113167438D02*
X182459523Y-113215057D01*
X182459523Y-113215057D02*
X182507142Y-113310295D01*
X182507142Y-113310295D02*
X182507142Y-113405533D01*
X182507142Y-113405533D02*
X182459523Y-113548390D01*
X182459523Y-113548390D02*
X181888095Y-114119819D01*
X181888095Y-114119819D02*
X182507142Y-114119819D01*
X183411904Y-113119819D02*
X182935714Y-113119819D01*
X182935714Y-113119819D02*
X182888095Y-113596009D01*
X182888095Y-113596009D02*
X182935714Y-113548390D01*
X182935714Y-113548390D02*
X183030952Y-113500771D01*
X183030952Y-113500771D02*
X183269047Y-113500771D01*
X183269047Y-113500771D02*
X183364285Y-113548390D01*
X183364285Y-113548390D02*
X183411904Y-113596009D01*
X183411904Y-113596009D02*
X183459523Y-113691247D01*
X183459523Y-113691247D02*
X183459523Y-113929342D01*
X183459523Y-113929342D02*
X183411904Y-114024580D01*
X183411904Y-114024580D02*
X183364285Y-114072200D01*
X183364285Y-114072200D02*
X183269047Y-114119819D01*
X183269047Y-114119819D02*
X183030952Y-114119819D01*
X183030952Y-114119819D02*
X182935714Y-114072200D01*
X182935714Y-114072200D02*
X182888095Y-114024580D01*
X184316666Y-113453152D02*
X184316666Y-114119819D01*
X184078571Y-113072200D02*
X183840476Y-113786485D01*
X183840476Y-113786485D02*
X184459523Y-113786485D01*
X184840476Y-113738866D02*
X185602381Y-113738866D01*
X186602380Y-114119819D02*
X186030952Y-114119819D01*
X186316666Y-114119819D02*
X186316666Y-113119819D01*
X186316666Y-113119819D02*
X186221428Y-113262676D01*
X186221428Y-113262676D02*
X186126190Y-113357914D01*
X186126190Y-113357914D02*
X186030952Y-113405533D01*
X187507142Y-114119819D02*
X187030952Y-114119819D01*
X187030952Y-114119819D02*
X187030952Y-113119819D01*
X187840476Y-113738866D02*
X188602381Y-113738866D01*
X189269047Y-113119819D02*
X189364285Y-113119819D01*
X189364285Y-113119819D02*
X189459523Y-113167438D01*
X189459523Y-113167438D02*
X189507142Y-113215057D01*
X189507142Y-113215057D02*
X189554761Y-113310295D01*
X189554761Y-113310295D02*
X189602380Y-113500771D01*
X189602380Y-113500771D02*
X189602380Y-113738866D01*
X189602380Y-113738866D02*
X189554761Y-113929342D01*
X189554761Y-113929342D02*
X189507142Y-114024580D01*
X189507142Y-114024580D02*
X189459523Y-114072200D01*
X189459523Y-114072200D02*
X189364285Y-114119819D01*
X189364285Y-114119819D02*
X189269047Y-114119819D01*
X189269047Y-114119819D02*
X189173809Y-114072200D01*
X189173809Y-114072200D02*
X189126190Y-114024580D01*
X189126190Y-114024580D02*
X189078571Y-113929342D01*
X189078571Y-113929342D02*
X189030952Y-113738866D01*
X189030952Y-113738866D02*
X189030952Y-113500771D01*
X189030952Y-113500771D02*
X189078571Y-113310295D01*
X189078571Y-113310295D02*
X189126190Y-113215057D01*
X189126190Y-113215057D02*
X189173809Y-113167438D01*
X189173809Y-113167438D02*
X189269047Y-113119819D01*
X190173809Y-113548390D02*
X190078571Y-113500771D01*
X190078571Y-113500771D02*
X190030952Y-113453152D01*
X190030952Y-113453152D02*
X189983333Y-113357914D01*
X189983333Y-113357914D02*
X189983333Y-113310295D01*
X189983333Y-113310295D02*
X190030952Y-113215057D01*
X190030952Y-113215057D02*
X190078571Y-113167438D01*
X190078571Y-113167438D02*
X190173809Y-113119819D01*
X190173809Y-113119819D02*
X190364285Y-113119819D01*
X190364285Y-113119819D02*
X190459523Y-113167438D01*
X190459523Y-113167438D02*
X190507142Y-113215057D01*
X190507142Y-113215057D02*
X190554761Y-113310295D01*
X190554761Y-113310295D02*
X190554761Y-113357914D01*
X190554761Y-113357914D02*
X190507142Y-113453152D01*
X190507142Y-113453152D02*
X190459523Y-113500771D01*
X190459523Y-113500771D02*
X190364285Y-113548390D01*
X190364285Y-113548390D02*
X190173809Y-113548390D01*
X190173809Y-113548390D02*
X190078571Y-113596009D01*
X190078571Y-113596009D02*
X190030952Y-113643628D01*
X190030952Y-113643628D02*
X189983333Y-113738866D01*
X189983333Y-113738866D02*
X189983333Y-113929342D01*
X189983333Y-113929342D02*
X190030952Y-114024580D01*
X190030952Y-114024580D02*
X190078571Y-114072200D01*
X190078571Y-114072200D02*
X190173809Y-114119819D01*
X190173809Y-114119819D02*
X190364285Y-114119819D01*
X190364285Y-114119819D02*
X190459523Y-114072200D01*
X190459523Y-114072200D02*
X190507142Y-114024580D01*
X190507142Y-114024580D02*
X190554761Y-113929342D01*
X190554761Y-113929342D02*
X190554761Y-113738866D01*
X190554761Y-113738866D02*
X190507142Y-113643628D01*
X190507142Y-113643628D02*
X190459523Y-113596009D01*
X190459523Y-113596009D02*
X190364285Y-113548390D01*
X191316666Y-113596009D02*
X191459523Y-113643628D01*
X191459523Y-113643628D02*
X191507142Y-113691247D01*
X191507142Y-113691247D02*
X191554761Y-113786485D01*
X191554761Y-113786485D02*
X191554761Y-113929342D01*
X191554761Y-113929342D02*
X191507142Y-114024580D01*
X191507142Y-114024580D02*
X191459523Y-114072200D01*
X191459523Y-114072200D02*
X191364285Y-114119819D01*
X191364285Y-114119819D02*
X190983333Y-114119819D01*
X190983333Y-114119819D02*
X190983333Y-113119819D01*
X190983333Y-113119819D02*
X191316666Y-113119819D01*
X191316666Y-113119819D02*
X191411904Y-113167438D01*
X191411904Y-113167438D02*
X191459523Y-113215057D01*
X191459523Y-113215057D02*
X191507142Y-113310295D01*
X191507142Y-113310295D02*
X191507142Y-113405533D01*
X191507142Y-113405533D02*
X191459523Y-113500771D01*
X191459523Y-113500771D02*
X191411904Y-113548390D01*
X191411904Y-113548390D02*
X191316666Y-113596009D01*
X191316666Y-113596009D02*
X190983333Y-113596009D01*
X191983333Y-113596009D02*
X192316666Y-113596009D01*
X192459523Y-114119819D02*
X191983333Y-114119819D01*
X191983333Y-114119819D02*
X191983333Y-113119819D01*
X191983333Y-113119819D02*
X192459523Y-113119819D01*
X122628333Y-112939819D02*
X122295000Y-112463628D01*
X122056905Y-112939819D02*
X122056905Y-111939819D01*
X122056905Y-111939819D02*
X122437857Y-111939819D01*
X122437857Y-111939819D02*
X122533095Y-111987438D01*
X122533095Y-111987438D02*
X122580714Y-112035057D01*
X122580714Y-112035057D02*
X122628333Y-112130295D01*
X122628333Y-112130295D02*
X122628333Y-112273152D01*
X122628333Y-112273152D02*
X122580714Y-112368390D01*
X122580714Y-112368390D02*
X122533095Y-112416009D01*
X122533095Y-112416009D02*
X122437857Y-112463628D01*
X122437857Y-112463628D02*
X122056905Y-112463628D01*
X122961667Y-111939819D02*
X123580714Y-111939819D01*
X123580714Y-111939819D02*
X123247381Y-112320771D01*
X123247381Y-112320771D02*
X123390238Y-112320771D01*
X123390238Y-112320771D02*
X123485476Y-112368390D01*
X123485476Y-112368390D02*
X123533095Y-112416009D01*
X123533095Y-112416009D02*
X123580714Y-112511247D01*
X123580714Y-112511247D02*
X123580714Y-112749342D01*
X123580714Y-112749342D02*
X123533095Y-112844580D01*
X123533095Y-112844580D02*
X123485476Y-112892200D01*
X123485476Y-112892200D02*
X123390238Y-112939819D01*
X123390238Y-112939819D02*
X123104524Y-112939819D01*
X123104524Y-112939819D02*
X123009286Y-112892200D01*
X123009286Y-112892200D02*
X122961667Y-112844580D01*
X121939285Y-115179819D02*
X121367857Y-115179819D01*
X121653571Y-115179819D02*
X121653571Y-114179819D01*
X121653571Y-114179819D02*
X121558333Y-114322676D01*
X121558333Y-114322676D02*
X121463095Y-114417914D01*
X121463095Y-114417914D02*
X121367857Y-114465533D01*
X122367857Y-115179819D02*
X122367857Y-114179819D01*
X122939285Y-115179819D02*
X122510714Y-114608390D01*
X122939285Y-114179819D02*
X122367857Y-114751247D01*
X123320238Y-115179819D02*
X123558333Y-115179819D01*
X123558333Y-115179819D02*
X123558333Y-114989342D01*
X123558333Y-114989342D02*
X123463095Y-114941723D01*
X123463095Y-114941723D02*
X123367857Y-114846485D01*
X123367857Y-114846485D02*
X123320238Y-114703628D01*
X123320238Y-114703628D02*
X123320238Y-114465533D01*
X123320238Y-114465533D02*
X123367857Y-114322676D01*
X123367857Y-114322676D02*
X123463095Y-114227438D01*
X123463095Y-114227438D02*
X123605952Y-114179819D01*
X123605952Y-114179819D02*
X123796428Y-114179819D01*
X123796428Y-114179819D02*
X123939285Y-114227438D01*
X123939285Y-114227438D02*
X124034523Y-114322676D01*
X124034523Y-114322676D02*
X124082142Y-114465533D01*
X124082142Y-114465533D02*
X124082142Y-114703628D01*
X124082142Y-114703628D02*
X124034523Y-114846485D01*
X124034523Y-114846485D02*
X123939285Y-114941723D01*
X123939285Y-114941723D02*
X123844047Y-114989342D01*
X123844047Y-114989342D02*
X123844047Y-115179819D01*
X123844047Y-115179819D02*
X124082142Y-115179819D01*
X172029523Y-81099819D02*
X171696190Y-80623628D01*
X171458095Y-81099819D02*
X171458095Y-80099819D01*
X171458095Y-80099819D02*
X171839047Y-80099819D01*
X171839047Y-80099819D02*
X171934285Y-80147438D01*
X171934285Y-80147438D02*
X171981904Y-80195057D01*
X171981904Y-80195057D02*
X172029523Y-80290295D01*
X172029523Y-80290295D02*
X172029523Y-80433152D01*
X172029523Y-80433152D02*
X171981904Y-80528390D01*
X171981904Y-80528390D02*
X171934285Y-80576009D01*
X171934285Y-80576009D02*
X171839047Y-80623628D01*
X171839047Y-80623628D02*
X171458095Y-80623628D01*
X172458095Y-81099819D02*
X172458095Y-80099819D01*
X172458095Y-80099819D02*
X173029523Y-81099819D01*
X173029523Y-81099819D02*
X173029523Y-80099819D01*
X174029523Y-81099819D02*
X173458095Y-81099819D01*
X173743809Y-81099819D02*
X173743809Y-80099819D01*
X173743809Y-80099819D02*
X173648571Y-80242676D01*
X173648571Y-80242676D02*
X173553333Y-80337914D01*
X173553333Y-80337914D02*
X173458095Y-80385533D01*
X189801666Y-80433152D02*
X189801666Y-81099819D01*
X189563571Y-80052200D02*
X189325476Y-80766485D01*
X189325476Y-80766485D02*
X189944523Y-80766485D01*
X190230238Y-80099819D02*
X190896904Y-80099819D01*
X190896904Y-80099819D02*
X190468333Y-81099819D01*
X191468333Y-80099819D02*
X191563571Y-80099819D01*
X191563571Y-80099819D02*
X191658809Y-80147438D01*
X191658809Y-80147438D02*
X191706428Y-80195057D01*
X191706428Y-80195057D02*
X191754047Y-80290295D01*
X191754047Y-80290295D02*
X191801666Y-80480771D01*
X191801666Y-80480771D02*
X191801666Y-80718866D01*
X191801666Y-80718866D02*
X191754047Y-80909342D01*
X191754047Y-80909342D02*
X191706428Y-81004580D01*
X191706428Y-81004580D02*
X191658809Y-81052200D01*
X191658809Y-81052200D02*
X191563571Y-81099819D01*
X191563571Y-81099819D02*
X191468333Y-81099819D01*
X191468333Y-81099819D02*
X191373095Y-81052200D01*
X191373095Y-81052200D02*
X191325476Y-81004580D01*
X191325476Y-81004580D02*
X191277857Y-80909342D01*
X191277857Y-80909342D02*
X191230238Y-80718866D01*
X191230238Y-80718866D02*
X191230238Y-80480771D01*
X191230238Y-80480771D02*
X191277857Y-80290295D01*
X191277857Y-80290295D02*
X191325476Y-80195057D01*
X191325476Y-80195057D02*
X191373095Y-80147438D01*
X191373095Y-80147438D02*
X191468333Y-80099819D01*
X192182619Y-81099819D02*
X192420714Y-81099819D01*
X192420714Y-81099819D02*
X192420714Y-80909342D01*
X192420714Y-80909342D02*
X192325476Y-80861723D01*
X192325476Y-80861723D02*
X192230238Y-80766485D01*
X192230238Y-80766485D02*
X192182619Y-80623628D01*
X192182619Y-80623628D02*
X192182619Y-80385533D01*
X192182619Y-80385533D02*
X192230238Y-80242676D01*
X192230238Y-80242676D02*
X192325476Y-80147438D01*
X192325476Y-80147438D02*
X192468333Y-80099819D01*
X192468333Y-80099819D02*
X192658809Y-80099819D01*
X192658809Y-80099819D02*
X192801666Y-80147438D01*
X192801666Y-80147438D02*
X192896904Y-80242676D01*
X192896904Y-80242676D02*
X192944523Y-80385533D01*
X192944523Y-80385533D02*
X192944523Y-80623628D01*
X192944523Y-80623628D02*
X192896904Y-80766485D01*
X192896904Y-80766485D02*
X192801666Y-80861723D01*
X192801666Y-80861723D02*
X192706428Y-80909342D01*
X192706428Y-80909342D02*
X192706428Y-81099819D01*
X192706428Y-81099819D02*
X192944523Y-81099819D01*
X213566105Y-78055019D02*
X213566105Y-77055019D01*
X213566105Y-77055019D02*
X213804200Y-77055019D01*
X213804200Y-77055019D02*
X213947057Y-77102638D01*
X213947057Y-77102638D02*
X214042295Y-77197876D01*
X214042295Y-77197876D02*
X214089914Y-77293114D01*
X214089914Y-77293114D02*
X214137533Y-77483590D01*
X214137533Y-77483590D02*
X214137533Y-77626447D01*
X214137533Y-77626447D02*
X214089914Y-77816923D01*
X214089914Y-77816923D02*
X214042295Y-77912161D01*
X214042295Y-77912161D02*
X213947057Y-78007400D01*
X213947057Y-78007400D02*
X213804200Y-78055019D01*
X213804200Y-78055019D02*
X213566105Y-78055019D01*
X214994676Y-77388352D02*
X214994676Y-78055019D01*
X214756581Y-77007400D02*
X214518486Y-77721685D01*
X214518486Y-77721685D02*
X215137533Y-77721685D01*
X213587142Y-84519819D02*
X213253809Y-84043628D01*
X213015714Y-84519819D02*
X213015714Y-83519819D01*
X213015714Y-83519819D02*
X213396666Y-83519819D01*
X213396666Y-83519819D02*
X213491904Y-83567438D01*
X213491904Y-83567438D02*
X213539523Y-83615057D01*
X213539523Y-83615057D02*
X213587142Y-83710295D01*
X213587142Y-83710295D02*
X213587142Y-83853152D01*
X213587142Y-83853152D02*
X213539523Y-83948390D01*
X213539523Y-83948390D02*
X213491904Y-83996009D01*
X213491904Y-83996009D02*
X213396666Y-84043628D01*
X213396666Y-84043628D02*
X213015714Y-84043628D01*
X214015714Y-83996009D02*
X214349047Y-83996009D01*
X214491904Y-84519819D02*
X214015714Y-84519819D01*
X214015714Y-84519819D02*
X214015714Y-83519819D01*
X214015714Y-83519819D02*
X214491904Y-83519819D01*
X214920476Y-84519819D02*
X214920476Y-83519819D01*
X214920476Y-83519819D02*
X215158571Y-83519819D01*
X215158571Y-83519819D02*
X215301428Y-83567438D01*
X215301428Y-83567438D02*
X215396666Y-83662676D01*
X215396666Y-83662676D02*
X215444285Y-83757914D01*
X215444285Y-83757914D02*
X215491904Y-83948390D01*
X215491904Y-83948390D02*
X215491904Y-84091247D01*
X215491904Y-84091247D02*
X215444285Y-84281723D01*
X215444285Y-84281723D02*
X215396666Y-84376961D01*
X215396666Y-84376961D02*
X215301428Y-84472200D01*
X215301428Y-84472200D02*
X215158571Y-84519819D01*
X215158571Y-84519819D02*
X214920476Y-84519819D01*
X200963333Y-65554819D02*
X200630000Y-65078628D01*
X200391905Y-65554819D02*
X200391905Y-64554819D01*
X200391905Y-64554819D02*
X200772857Y-64554819D01*
X200772857Y-64554819D02*
X200868095Y-64602438D01*
X200868095Y-64602438D02*
X200915714Y-64650057D01*
X200915714Y-64650057D02*
X200963333Y-64745295D01*
X200963333Y-64745295D02*
X200963333Y-64888152D01*
X200963333Y-64888152D02*
X200915714Y-64983390D01*
X200915714Y-64983390D02*
X200868095Y-65031009D01*
X200868095Y-65031009D02*
X200772857Y-65078628D01*
X200772857Y-65078628D02*
X200391905Y-65078628D01*
X201296667Y-64554819D02*
X201963333Y-64554819D01*
X201963333Y-64554819D02*
X201534762Y-65554819D01*
X199493809Y-66774819D02*
X199017619Y-66774819D01*
X199017619Y-66774819D02*
X198970000Y-67251009D01*
X198970000Y-67251009D02*
X199017619Y-67203390D01*
X199017619Y-67203390D02*
X199112857Y-67155771D01*
X199112857Y-67155771D02*
X199350952Y-67155771D01*
X199350952Y-67155771D02*
X199446190Y-67203390D01*
X199446190Y-67203390D02*
X199493809Y-67251009D01*
X199493809Y-67251009D02*
X199541428Y-67346247D01*
X199541428Y-67346247D02*
X199541428Y-67584342D01*
X199541428Y-67584342D02*
X199493809Y-67679580D01*
X199493809Y-67679580D02*
X199446190Y-67727200D01*
X199446190Y-67727200D02*
X199350952Y-67774819D01*
X199350952Y-67774819D02*
X199112857Y-67774819D01*
X199112857Y-67774819D02*
X199017619Y-67727200D01*
X199017619Y-67727200D02*
X198970000Y-67679580D01*
X199970000Y-67679580D02*
X200017619Y-67727200D01*
X200017619Y-67727200D02*
X199970000Y-67774819D01*
X199970000Y-67774819D02*
X199922381Y-67727200D01*
X199922381Y-67727200D02*
X199970000Y-67679580D01*
X199970000Y-67679580D02*
X199970000Y-67774819D01*
X200969999Y-67774819D02*
X200398571Y-67774819D01*
X200684285Y-67774819D02*
X200684285Y-66774819D01*
X200684285Y-66774819D02*
X200589047Y-66917676D01*
X200589047Y-66917676D02*
X200493809Y-67012914D01*
X200493809Y-67012914D02*
X200398571Y-67060533D01*
X201398571Y-67774819D02*
X201398571Y-66774819D01*
X201969999Y-67774819D02*
X201541428Y-67203390D01*
X201969999Y-66774819D02*
X201398571Y-67346247D01*
X204343095Y-97562200D02*
X204485952Y-97609819D01*
X204485952Y-97609819D02*
X204724047Y-97609819D01*
X204724047Y-97609819D02*
X204819285Y-97562200D01*
X204819285Y-97562200D02*
X204866904Y-97514580D01*
X204866904Y-97514580D02*
X204914523Y-97419342D01*
X204914523Y-97419342D02*
X204914523Y-97324104D01*
X204914523Y-97324104D02*
X204866904Y-97228866D01*
X204866904Y-97228866D02*
X204819285Y-97181247D01*
X204819285Y-97181247D02*
X204724047Y-97133628D01*
X204724047Y-97133628D02*
X204533571Y-97086009D01*
X204533571Y-97086009D02*
X204438333Y-97038390D01*
X204438333Y-97038390D02*
X204390714Y-96990771D01*
X204390714Y-96990771D02*
X204343095Y-96895533D01*
X204343095Y-96895533D02*
X204343095Y-96800295D01*
X204343095Y-96800295D02*
X204390714Y-96705057D01*
X204390714Y-96705057D02*
X204438333Y-96657438D01*
X204438333Y-96657438D02*
X204533571Y-96609819D01*
X204533571Y-96609819D02*
X204771666Y-96609819D01*
X204771666Y-96609819D02*
X204914523Y-96657438D01*
X205866904Y-97609819D02*
X205295476Y-97609819D01*
X205581190Y-97609819D02*
X205581190Y-96609819D01*
X205581190Y-96609819D02*
X205485952Y-96752676D01*
X205485952Y-96752676D02*
X205390714Y-96847914D01*
X205390714Y-96847914D02*
X205295476Y-96895533D01*
X205724762Y-102154819D02*
X206296190Y-102154819D01*
X206010476Y-103154819D02*
X206010476Y-102154819D01*
X207105714Y-103154819D02*
X206629524Y-103154819D01*
X206629524Y-103154819D02*
X206629524Y-102154819D01*
X207391429Y-102250057D02*
X207439048Y-102202438D01*
X207439048Y-102202438D02*
X207534286Y-102154819D01*
X207534286Y-102154819D02*
X207772381Y-102154819D01*
X207772381Y-102154819D02*
X207867619Y-102202438D01*
X207867619Y-102202438D02*
X207915238Y-102250057D01*
X207915238Y-102250057D02*
X207962857Y-102345295D01*
X207962857Y-102345295D02*
X207962857Y-102440533D01*
X207962857Y-102440533D02*
X207915238Y-102583390D01*
X207915238Y-102583390D02*
X207343810Y-103154819D01*
X207343810Y-103154819D02*
X207962857Y-103154819D01*
X208343810Y-102250057D02*
X208391429Y-102202438D01*
X208391429Y-102202438D02*
X208486667Y-102154819D01*
X208486667Y-102154819D02*
X208724762Y-102154819D01*
X208724762Y-102154819D02*
X208820000Y-102202438D01*
X208820000Y-102202438D02*
X208867619Y-102250057D01*
X208867619Y-102250057D02*
X208915238Y-102345295D01*
X208915238Y-102345295D02*
X208915238Y-102440533D01*
X208915238Y-102440533D02*
X208867619Y-102583390D01*
X208867619Y-102583390D02*
X208296191Y-103154819D01*
X208296191Y-103154819D02*
X208915238Y-103154819D01*
X209248572Y-102154819D02*
X209867619Y-102154819D01*
X209867619Y-102154819D02*
X209534286Y-102535771D01*
X209534286Y-102535771D02*
X209677143Y-102535771D01*
X209677143Y-102535771D02*
X209772381Y-102583390D01*
X209772381Y-102583390D02*
X209820000Y-102631009D01*
X209820000Y-102631009D02*
X209867619Y-102726247D01*
X209867619Y-102726247D02*
X209867619Y-102964342D01*
X209867619Y-102964342D02*
X209820000Y-103059580D01*
X209820000Y-103059580D02*
X209772381Y-103107200D01*
X209772381Y-103107200D02*
X209677143Y-103154819D01*
X209677143Y-103154819D02*
X209391429Y-103154819D01*
X209391429Y-103154819D02*
X209296191Y-103107200D01*
X209296191Y-103107200D02*
X209248572Y-103059580D01*
X210486667Y-102154819D02*
X210581905Y-102154819D01*
X210581905Y-102154819D02*
X210677143Y-102202438D01*
X210677143Y-102202438D02*
X210724762Y-102250057D01*
X210724762Y-102250057D02*
X210772381Y-102345295D01*
X210772381Y-102345295D02*
X210820000Y-102535771D01*
X210820000Y-102535771D02*
X210820000Y-102773866D01*
X210820000Y-102773866D02*
X210772381Y-102964342D01*
X210772381Y-102964342D02*
X210724762Y-103059580D01*
X210724762Y-103059580D02*
X210677143Y-103107200D01*
X210677143Y-103107200D02*
X210581905Y-103154819D01*
X210581905Y-103154819D02*
X210486667Y-103154819D01*
X210486667Y-103154819D02*
X210391429Y-103107200D01*
X210391429Y-103107200D02*
X210343810Y-103059580D01*
X210343810Y-103059580D02*
X210296191Y-102964342D01*
X210296191Y-102964342D02*
X210248572Y-102773866D01*
X210248572Y-102773866D02*
X210248572Y-102535771D01*
X210248572Y-102535771D02*
X210296191Y-102345295D01*
X210296191Y-102345295D02*
X210343810Y-102250057D01*
X210343810Y-102250057D02*
X210391429Y-102202438D01*
X210391429Y-102202438D02*
X210486667Y-102154819D01*
D14*
X202897619Y-112334318D02*
X202474285Y-111729556D01*
X202171904Y-112334318D02*
X202171904Y-111064318D01*
X202171904Y-111064318D02*
X202655714Y-111064318D01*
X202655714Y-111064318D02*
X202776666Y-111124794D01*
X202776666Y-111124794D02*
X202837143Y-111185270D01*
X202837143Y-111185270D02*
X202897619Y-111306222D01*
X202897619Y-111306222D02*
X202897619Y-111487651D01*
X202897619Y-111487651D02*
X202837143Y-111608603D01*
X202837143Y-111608603D02*
X202776666Y-111669080D01*
X202776666Y-111669080D02*
X202655714Y-111729556D01*
X202655714Y-111729556D02*
X202171904Y-111729556D01*
X203441904Y-111669080D02*
X203865238Y-111669080D01*
X204046666Y-112334318D02*
X203441904Y-112334318D01*
X203441904Y-112334318D02*
X203441904Y-111064318D01*
X203441904Y-111064318D02*
X204046666Y-111064318D01*
X204530476Y-111971461D02*
X205135238Y-111971461D01*
X204409524Y-112334318D02*
X204832857Y-111064318D01*
X204832857Y-111064318D02*
X205256191Y-112334318D01*
X205679523Y-112334318D02*
X205679523Y-111064318D01*
X205679523Y-111064318D02*
X205981904Y-111064318D01*
X205981904Y-111064318D02*
X206163333Y-111124794D01*
X206163333Y-111124794D02*
X206284285Y-111245746D01*
X206284285Y-111245746D02*
X206344762Y-111366699D01*
X206344762Y-111366699D02*
X206405238Y-111608603D01*
X206405238Y-111608603D02*
X206405238Y-111790032D01*
X206405238Y-111790032D02*
X206344762Y-112031937D01*
X206344762Y-112031937D02*
X206284285Y-112152889D01*
X206284285Y-112152889D02*
X206163333Y-112273842D01*
X206163333Y-112273842D02*
X205981904Y-112334318D01*
X205981904Y-112334318D02*
X205679523Y-112334318D01*
X208280000Y-112818127D02*
X208219523Y-112757651D01*
X208219523Y-112757651D02*
X208098571Y-112576222D01*
X208098571Y-112576222D02*
X208038095Y-112455270D01*
X208038095Y-112455270D02*
X207977619Y-112273842D01*
X207977619Y-112273842D02*
X207917142Y-111971461D01*
X207917142Y-111971461D02*
X207917142Y-111729556D01*
X207917142Y-111729556D02*
X207977619Y-111427175D01*
X207977619Y-111427175D02*
X208038095Y-111245746D01*
X208038095Y-111245746D02*
X208098571Y-111124794D01*
X208098571Y-111124794D02*
X208219523Y-110943365D01*
X208219523Y-110943365D02*
X208280000Y-110882889D01*
X208763809Y-112334318D02*
X208763809Y-111064318D01*
X208763809Y-111064318D02*
X209066190Y-111064318D01*
X209066190Y-111064318D02*
X209247619Y-111124794D01*
X209247619Y-111124794D02*
X209368571Y-111245746D01*
X209368571Y-111245746D02*
X209429048Y-111366699D01*
X209429048Y-111366699D02*
X209489524Y-111608603D01*
X209489524Y-111608603D02*
X209489524Y-111790032D01*
X209489524Y-111790032D02*
X209429048Y-112031937D01*
X209429048Y-112031937D02*
X209368571Y-112152889D01*
X209368571Y-112152889D02*
X209247619Y-112273842D01*
X209247619Y-112273842D02*
X209066190Y-112334318D01*
X209066190Y-112334318D02*
X208763809Y-112334318D01*
X210275714Y-111064318D02*
X210517619Y-111064318D01*
X210517619Y-111064318D02*
X210638571Y-111124794D01*
X210638571Y-111124794D02*
X210759524Y-111245746D01*
X210759524Y-111245746D02*
X210820000Y-111487651D01*
X210820000Y-111487651D02*
X210820000Y-111910984D01*
X210820000Y-111910984D02*
X210759524Y-112152889D01*
X210759524Y-112152889D02*
X210638571Y-112273842D01*
X210638571Y-112273842D02*
X210517619Y-112334318D01*
X210517619Y-112334318D02*
X210275714Y-112334318D01*
X210275714Y-112334318D02*
X210154762Y-112273842D01*
X210154762Y-112273842D02*
X210033809Y-112152889D01*
X210033809Y-112152889D02*
X209973333Y-111910984D01*
X209973333Y-111910984D02*
X209973333Y-111487651D01*
X209973333Y-111487651D02*
X210033809Y-111245746D01*
X210033809Y-111245746D02*
X210154762Y-111124794D01*
X210154762Y-111124794D02*
X210275714Y-111064318D01*
X211243333Y-111064318D02*
X211545714Y-112334318D01*
X211545714Y-112334318D02*
X211787619Y-111427175D01*
X211787619Y-111427175D02*
X212029524Y-112334318D01*
X212029524Y-112334318D02*
X212331905Y-111064318D01*
X212815714Y-112334318D02*
X212815714Y-111064318D01*
X212815714Y-111064318D02*
X213541429Y-112334318D01*
X213541429Y-112334318D02*
X213541429Y-111064318D01*
X214025238Y-112818127D02*
X214085714Y-112757651D01*
X214085714Y-112757651D02*
X214206667Y-112576222D01*
X214206667Y-112576222D02*
X214267143Y-112455270D01*
X214267143Y-112455270D02*
X214327619Y-112273842D01*
X214327619Y-112273842D02*
X214388095Y-111971461D01*
X214388095Y-111971461D02*
X214388095Y-111729556D01*
X214388095Y-111729556D02*
X214327619Y-111427175D01*
X214327619Y-111427175D02*
X214267143Y-111245746D01*
X214267143Y-111245746D02*
X214206667Y-111124794D01*
X214206667Y-111124794D02*
X214085714Y-110943365D01*
X214085714Y-110943365D02*
X214025238Y-110882889D01*
X203109285Y-108524318D02*
X203411666Y-109794318D01*
X203411666Y-109794318D02*
X203653571Y-108887175D01*
X203653571Y-108887175D02*
X203895476Y-109794318D01*
X203895476Y-109794318D02*
X204197857Y-108524318D01*
X205407381Y-109794318D02*
X204984047Y-109189556D01*
X204681666Y-109794318D02*
X204681666Y-108524318D01*
X204681666Y-108524318D02*
X205165476Y-108524318D01*
X205165476Y-108524318D02*
X205286428Y-108584794D01*
X205286428Y-108584794D02*
X205346905Y-108645270D01*
X205346905Y-108645270D02*
X205407381Y-108766222D01*
X205407381Y-108766222D02*
X205407381Y-108947651D01*
X205407381Y-108947651D02*
X205346905Y-109068603D01*
X205346905Y-109068603D02*
X205286428Y-109129080D01*
X205286428Y-109129080D02*
X205165476Y-109189556D01*
X205165476Y-109189556D02*
X204681666Y-109189556D01*
X205951666Y-109794318D02*
X205951666Y-108524318D01*
X206375000Y-108524318D02*
X207100714Y-108524318D01*
X206737857Y-109794318D02*
X206737857Y-108524318D01*
X207524047Y-109129080D02*
X207947381Y-109129080D01*
X208128809Y-109794318D02*
X207524047Y-109794318D01*
X207524047Y-109794318D02*
X207524047Y-108524318D01*
X207524047Y-108524318D02*
X208128809Y-108524318D01*
X210003572Y-110278127D02*
X209943095Y-110217651D01*
X209943095Y-110217651D02*
X209822143Y-110036222D01*
X209822143Y-110036222D02*
X209761667Y-109915270D01*
X209761667Y-109915270D02*
X209701191Y-109733842D01*
X209701191Y-109733842D02*
X209640714Y-109431461D01*
X209640714Y-109431461D02*
X209640714Y-109189556D01*
X209640714Y-109189556D02*
X209701191Y-108887175D01*
X209701191Y-108887175D02*
X209761667Y-108705746D01*
X209761667Y-108705746D02*
X209822143Y-108584794D01*
X209822143Y-108584794D02*
X209943095Y-108403365D01*
X209943095Y-108403365D02*
X210003572Y-108342889D01*
X210487381Y-108524318D02*
X210487381Y-109552413D01*
X210487381Y-109552413D02*
X210547858Y-109673365D01*
X210547858Y-109673365D02*
X210608334Y-109733842D01*
X210608334Y-109733842D02*
X210729286Y-109794318D01*
X210729286Y-109794318D02*
X210971191Y-109794318D01*
X210971191Y-109794318D02*
X211092143Y-109733842D01*
X211092143Y-109733842D02*
X211152620Y-109673365D01*
X211152620Y-109673365D02*
X211213096Y-109552413D01*
X211213096Y-109552413D02*
X211213096Y-108524318D01*
X211817857Y-109794318D02*
X211817857Y-108524318D01*
X211817857Y-108524318D02*
X212301667Y-108524318D01*
X212301667Y-108524318D02*
X212422619Y-108584794D01*
X212422619Y-108584794D02*
X212483096Y-108645270D01*
X212483096Y-108645270D02*
X212543572Y-108766222D01*
X212543572Y-108766222D02*
X212543572Y-108947651D01*
X212543572Y-108947651D02*
X212483096Y-109068603D01*
X212483096Y-109068603D02*
X212422619Y-109129080D01*
X212422619Y-109129080D02*
X212301667Y-109189556D01*
X212301667Y-109189556D02*
X211817857Y-109189556D01*
X212966905Y-110278127D02*
X213027381Y-110217651D01*
X213027381Y-110217651D02*
X213148334Y-110036222D01*
X213148334Y-110036222D02*
X213208810Y-109915270D01*
X213208810Y-109915270D02*
X213269286Y-109733842D01*
X213269286Y-109733842D02*
X213329762Y-109431461D01*
X213329762Y-109431461D02*
X213329762Y-109189556D01*
X213329762Y-109189556D02*
X213269286Y-108887175D01*
X213269286Y-108887175D02*
X213208810Y-108705746D01*
X213208810Y-108705746D02*
X213148334Y-108584794D01*
X213148334Y-108584794D02*
X213027381Y-108403365D01*
X213027381Y-108403365D02*
X212966905Y-108342889D01*
D15*
%TO.C,SW1*%
X128445000Y-121475000D02*
X128445000Y-119135000D01*
X129275000Y-123305000D02*
X133615000Y-123305000D01*
X133615000Y-117305000D02*
X129275000Y-117305000D01*
X134445000Y-119135000D02*
X134445000Y-121475000D01*
D13*
X126315000Y-117993000D02*
G75*
G03*
X126115000Y-117993000I-100000J0D01*
G01*
X126115000Y-117993000D02*
G75*
G03*
X126315000Y-117993000I100000J0D01*
G01*
D16*
%TO.C,RV1*%
X78930500Y-113842800D02*
X88709500Y-113842800D01*
X78930500Y-123621800D02*
X78930500Y-113842800D01*
X88709500Y-113842800D02*
X88709500Y-123621800D01*
X88709500Y-123621800D02*
X78930500Y-123621800D01*
X81407000Y-119761000D02*
G75*
G03*
X81153000Y-119761000I-127000J0D01*
G01*
X81153000Y-119761000D02*
G75*
G03*
X81407000Y-119761000I127000J0D01*
G01*
D17*
%TO.C,C2*%
X194930000Y-69450000D02*
X194615000Y-69450000D01*
X194930000Y-69450000D02*
X194930000Y-74390000D01*
X192505000Y-69450000D02*
X192190000Y-69450000D01*
X192190000Y-69450000D02*
X192190000Y-74390000D01*
X194930000Y-74390000D02*
X194615000Y-74390000D01*
X192505000Y-74390000D02*
X192190000Y-74390000D01*
%TO.C,R2*%
X161290000Y-114700000D02*
X154750000Y-114700000D01*
X161290000Y-114370000D02*
X161290000Y-114700000D01*
X161290000Y-112290000D02*
X161290000Y-111960000D01*
X161290000Y-111960000D02*
X154750000Y-111960000D01*
X154750000Y-114700000D02*
X154750000Y-114370000D01*
X154750000Y-111960000D02*
X154750000Y-112290000D01*
%TO.C,C1*%
X149590000Y-114720000D02*
X149590000Y-114405000D01*
X149590000Y-114720000D02*
X144650000Y-114720000D01*
X149590000Y-112295000D02*
X149590000Y-111980000D01*
X149590000Y-111980000D02*
X144650000Y-111980000D01*
X144650000Y-114720000D02*
X144650000Y-114405000D01*
X144650000Y-112295000D02*
X144650000Y-111980000D01*
%TO.C,J2*%
X212380000Y-75605000D02*
X214380000Y-75605000D01*
X216280000Y-75605000D02*
X218180000Y-75605000D01*
X218180000Y-75605000D02*
X218180000Y-66205000D01*
X212380000Y-66205000D02*
X214380000Y-66205000D01*
X216280000Y-66205000D02*
X218180000Y-66205000D01*
%TO.C,R9*%
X165910000Y-118470000D02*
X165910000Y-125010000D01*
X165580000Y-118470000D02*
X165910000Y-118470000D01*
X163500000Y-118470000D02*
X163170000Y-118470000D01*
X163170000Y-118470000D02*
X163170000Y-125010000D01*
X165910000Y-125010000D02*
X165580000Y-125010000D01*
X163170000Y-125010000D02*
X163500000Y-125010000D01*
%TO.C,D1*%
X109560000Y-120049000D02*
X109560000Y-120205000D01*
X109560000Y-122365000D02*
X109560000Y-122521000D01*
X112792334Y-120206392D02*
G75*
G03*
X109560001Y-120049485I-1672334J-1078608D01*
G01*
X112161129Y-120205164D02*
G75*
G03*
X110079040Y-120205001I-1041129J-1079836D01*
G01*
X110079040Y-122364999D02*
G75*
G03*
X112161129Y-122364836I1040960J1079999D01*
G01*
X109560001Y-122520515D02*
G75*
G03*
X112792334Y-122363608I1559999J1235515D01*
G01*
%TO.C,R6*%
X208774200Y-78950200D02*
X208774200Y-85490200D01*
X208444200Y-78950200D02*
X208774200Y-78950200D01*
X206364200Y-78950200D02*
X206034200Y-78950200D01*
X206034200Y-78950200D02*
X206034200Y-85490200D01*
X208774200Y-85490200D02*
X208444200Y-85490200D01*
X206034200Y-85490200D02*
X206364200Y-85490200D01*
%TO.C,D2*%
X143220000Y-120049000D02*
X143220000Y-120205000D01*
X143220000Y-122365000D02*
X143220000Y-122521000D01*
X146452334Y-120206392D02*
G75*
G03*
X143220001Y-120049485I-1672334J-1078608D01*
G01*
X145821129Y-120205164D02*
G75*
G03*
X143739040Y-120205001I-1041129J-1079836D01*
G01*
X143739040Y-122364999D02*
G75*
G03*
X145821129Y-122364836I1040960J1079999D01*
G01*
X143220001Y-122520515D02*
G75*
G03*
X146452334Y-122363608I1559999J1235515D01*
G01*
%TO.C,R8*%
X203680000Y-79830000D02*
X197140000Y-79830000D01*
X203680000Y-79500000D02*
X203680000Y-79830000D01*
X203680000Y-77420000D02*
X203680000Y-77090000D01*
X203680000Y-77090000D02*
X197140000Y-77090000D01*
X197140000Y-79830000D02*
X197140000Y-79500000D01*
X197140000Y-77090000D02*
X197140000Y-77420000D01*
%TO.C,J1*%
X78206600Y-53501600D02*
X116366600Y-53501600D01*
X78206600Y-53501600D02*
X78206600Y-50841600D01*
X116366600Y-53501600D02*
X116366600Y-50841600D01*
X75606600Y-52171600D02*
X75606600Y-50841600D01*
X75606600Y-50841600D02*
X76936600Y-50841600D01*
X78206600Y-50841600D02*
X116366600Y-50841600D01*
D15*
%TO.C,SW2*%
X155150000Y-121660000D02*
X155150000Y-119320000D01*
X155980000Y-123490000D02*
X160320000Y-123490000D01*
X160320000Y-117490000D02*
X155980000Y-117490000D01*
X161150000Y-119320000D02*
X161150000Y-121660000D01*
D13*
X153020000Y-118178000D02*
G75*
G03*
X152820000Y-118178000I-100000J0D01*
G01*
X152820000Y-118178000D02*
G75*
G03*
X153020000Y-118178000I100000J0D01*
G01*
D18*
%TO.C,D3*%
X173431400Y-96044800D02*
X173931400Y-96044800D01*
X173431400Y-96044800D02*
X173431400Y-95544800D01*
X193269400Y-95660800D02*
X192769400Y-95660800D01*
X193273400Y-95656800D02*
X193273400Y-95156800D01*
X183621400Y-92744800D02*
X183621400Y-91044800D01*
X183221400Y-91044800D02*
X183621400Y-90544800D01*
X183621400Y-91044800D02*
X183221400Y-91044800D01*
X183621400Y-91044800D02*
X184021400Y-91044800D01*
X183621400Y-90544800D02*
X184021400Y-91044800D01*
X183121400Y-90444800D02*
X184021400Y-90444800D01*
X183621400Y-90344800D02*
X183621400Y-88844800D01*
X193273400Y-86008800D02*
X193273400Y-86508800D01*
X193273400Y-86008800D02*
X192773400Y-86008800D01*
X173431400Y-85644800D02*
X173431400Y-86144800D01*
X173431400Y-85644800D02*
X173931400Y-85644800D01*
D17*
%TO.C,R1*%
X123920000Y-121385000D02*
X117380000Y-121385000D01*
X123920000Y-121055000D02*
X123920000Y-121385000D01*
X123920000Y-118975000D02*
X123920000Y-118645000D01*
X123920000Y-118645000D02*
X117380000Y-118645000D01*
X117380000Y-121385000D02*
X117380000Y-121055000D01*
X117380000Y-118645000D02*
X117380000Y-118975000D01*
%TO.C,R5*%
X195020000Y-98000000D02*
X201560000Y-98000000D01*
X195020000Y-98330000D02*
X195020000Y-98000000D01*
X195020000Y-100410000D02*
X195020000Y-100740000D01*
X195020000Y-100740000D02*
X201560000Y-100740000D01*
X201560000Y-98000000D02*
X201560000Y-98330000D01*
X201560000Y-100740000D02*
X201560000Y-100410000D01*
%TO.C,D6*%
X197970000Y-103464000D02*
X197970000Y-103620000D01*
X197970000Y-105780000D02*
X197970000Y-105936000D01*
X201202334Y-103621392D02*
G75*
G03*
X197970001Y-103464485I-1672334J-1078608D01*
G01*
X200571129Y-103620164D02*
G75*
G03*
X198489040Y-103620001I-1041129J-1079836D01*
G01*
X198489040Y-105779999D02*
G75*
G03*
X200571129Y-105779836I1040960J1079999D01*
G01*
X197970001Y-105935515D02*
G75*
G03*
X201202334Y-105778608I1559999J1235515D01*
G01*
D16*
%TO.C,RV2*%
X91630500Y-113842800D02*
X101409500Y-113842800D01*
X91630500Y-123621800D02*
X91630500Y-113842800D01*
X101409500Y-113842800D02*
X101409500Y-123621800D01*
X101409500Y-123621800D02*
X91630500Y-123621800D01*
X94107000Y-119761000D02*
G75*
G03*
X93853000Y-119761000I-127000J0D01*
G01*
X93853000Y-119761000D02*
G75*
G03*
X94107000Y-119761000I127000J0D01*
G01*
D15*
%TO.C,SW3*%
X172565000Y-108265000D02*
X172565000Y-119065000D01*
X172565000Y-119065000D02*
X194465000Y-119065000D01*
X194465000Y-108265000D02*
X172565000Y-108265000D01*
X194465000Y-119065000D02*
X194465000Y-108265000D01*
D13*
X171865000Y-117365000D02*
G75*
G03*
X171665000Y-117365000I-100000J0D01*
G01*
X171665000Y-117365000D02*
G75*
G03*
X171865000Y-117365000I100000J0D01*
G01*
D17*
%TO.C,R3*%
X119525000Y-113485000D02*
X126065000Y-113485000D01*
X119525000Y-113815000D02*
X119525000Y-113485000D01*
X119525000Y-115895000D02*
X119525000Y-116225000D01*
X119525000Y-116225000D02*
X126065000Y-116225000D01*
X126065000Y-113485000D02*
X126065000Y-113815000D01*
X126065000Y-116225000D02*
X126065000Y-115895000D01*
%TO.C,RN1*%
X170734600Y-81764400D02*
X170734600Y-84564400D01*
X170734600Y-84564400D02*
X193934600Y-84564400D01*
X173444600Y-81764400D02*
X173444600Y-84564400D01*
X193934600Y-81764400D02*
X170734600Y-81764400D01*
X193934600Y-84564400D02*
X193934600Y-81764400D01*
%TO.C,D4*%
X212908200Y-82280200D02*
X213064200Y-82280200D01*
X215224200Y-82280200D02*
X215380200Y-82280200D01*
X213065592Y-79047866D02*
G75*
G03*
X212908685Y-82280199I1078608J-1672334D01*
G01*
X213064364Y-79679071D02*
G75*
G03*
X213064201Y-81761160I1079836J-1041129D01*
G01*
X215224199Y-81761160D02*
G75*
G03*
X215224036Y-79679071I-1079999J1040960D01*
G01*
X215379715Y-82280199D02*
G75*
G03*
X215222808Y-79047866I-1235515J1559999D01*
G01*
%TO.C,R7*%
X203710000Y-68710000D02*
X197170000Y-68710000D01*
X203710000Y-68380000D02*
X203710000Y-68710000D01*
X203710000Y-66300000D02*
X203710000Y-65970000D01*
X203710000Y-65970000D02*
X197170000Y-65970000D01*
X197170000Y-68710000D02*
X197170000Y-68380000D01*
X197170000Y-65970000D02*
X197170000Y-66300000D01*
D18*
%TO.C,S1*%
X204820000Y-99200000D02*
X211820000Y-99200000D01*
X204820000Y-106200000D02*
X204820000Y-99200000D01*
D13*
X206220000Y-106700000D02*
X206220000Y-106700000D01*
X206420000Y-106700000D02*
X206420000Y-106700000D01*
D18*
X211820000Y-99200000D02*
X211820000Y-106200000D01*
X211820000Y-106200000D02*
X204820000Y-106200000D01*
D13*
X206420000Y-106700000D02*
G75*
G03*
X206220000Y-106700000I-100000J0D01*
G01*
X206220000Y-106700000D02*
G75*
G03*
X206420000Y-106700000I100000J0D01*
G01*
%TD*%
M02*
