%TF.GenerationSoftware,KiCad,Pcbnew,7.0.10*%
%TF.CreationDate,2024-03-06T22:35:53-08:00*%
%TF.ProjectId,hd44780_tutorial,68643434-3738-4305-9f74-75746f726961,1.0*%
%TF.SameCoordinates,Original*%
%TF.FileFunction,Copper,L1,Top*%
%TF.FilePolarity,Positive*%
%FSLAX46Y46*%
G04 Gerber Fmt 4.6, Leading zero omitted, Abs format (unit mm)*
G04 Created by KiCad (PCBNEW 7.0.10) date 2024-03-06 22:35:53*
%MOMM*%
%LPD*%
G01*
G04 APERTURE LIST*
%TA.AperFunction,ComponentPad*%
%ADD10R,1.508000X1.508000*%
%TD*%
%TA.AperFunction,ComponentPad*%
%ADD11C,1.508000*%
%TD*%
%TA.AperFunction,ComponentPad*%
%ADD12C,1.320800*%
%TD*%
%TA.AperFunction,ComponentPad*%
%ADD13R,1.320800X1.320800*%
%TD*%
%TA.AperFunction,ComponentPad*%
%ADD14C,1.600000*%
%TD*%
%TA.AperFunction,ComponentPad*%
%ADD15O,1.600000X1.600000*%
%TD*%
%TA.AperFunction,SMDPad,CuDef*%
%ADD16R,1.450000X0.600000*%
%TD*%
%TA.AperFunction,SMDPad,CuDef*%
%ADD17R,1.450000X0.300000*%
%TD*%
%TA.AperFunction,ComponentPad*%
%ADD18O,2.100000X1.000000*%
%TD*%
%TA.AperFunction,ComponentPad*%
%ADD19O,1.600000X1.000000*%
%TD*%
%TA.AperFunction,ComponentPad*%
%ADD20R,1.800000X1.800000*%
%TD*%
%TA.AperFunction,ComponentPad*%
%ADD21C,1.800000*%
%TD*%
%TA.AperFunction,ComponentPad*%
%ADD22R,1.700000X1.700000*%
%TD*%
%TA.AperFunction,ComponentPad*%
%ADD23O,1.700000X1.700000*%
%TD*%
%TA.AperFunction,ComponentPad*%
%ADD24C,1.700000*%
%TD*%
%TA.AperFunction,ComponentPad*%
%ADD25R,1.600000X1.600000*%
%TD*%
%TA.AperFunction,ComponentPad*%
%ADD26C,1.300000*%
%TD*%
%TA.AperFunction,ViaPad*%
%ADD27C,0.800000*%
%TD*%
%TA.AperFunction,Conductor*%
%ADD28C,0.500000*%
%TD*%
%TA.AperFunction,Conductor*%
%ADD29C,0.250000*%
%TD*%
G04 APERTURE END LIST*
D10*
%TO.P,SW1,1*%
%TO.N,GND*%
X128195000Y-118055000D03*
D11*
%TO.P,SW1,2*%
X134695000Y-118055000D03*
%TO.P,SW1,3*%
%TO.N,/RS*%
X128195000Y-122555000D03*
%TO.P,SW1,4*%
X134695000Y-122555000D03*
%TD*%
D12*
%TO.P,RV1,1,1*%
%TO.N,unconnected-(RV1-Pad1)*%
X81280000Y-118745000D03*
D13*
%TO.P,RV1,2,2*%
%TO.N,/V0*%
X83820000Y-121285000D03*
%TO.P,RV1,3,3*%
%TO.N,GND*%
X86360000Y-118745000D03*
%TD*%
D14*
%TO.P,C2,1*%
%TO.N,+5V*%
X193560000Y-69420000D03*
%TO.P,C2,2*%
%TO.N,Net-(C2-Pad2)*%
X193560000Y-74420000D03*
%TD*%
%TO.P,R2,1*%
%TO.N,Net-(R2-Pad1)*%
X161830000Y-113330000D03*
D15*
%TO.P,R2,2*%
%TO.N,/E*%
X154210000Y-113330000D03*
%TD*%
D14*
%TO.P,C1,1*%
%TO.N,/E*%
X149620000Y-113350000D03*
%TO.P,C1,2*%
%TO.N,GND*%
X144620000Y-113350000D03*
%TD*%
D16*
%TO.P,J2,A1*%
%TO.N,GND*%
X210235000Y-74155000D03*
%TO.P,J2,A4*%
%TO.N,+5V*%
X210235000Y-73355000D03*
D17*
%TO.P,J2,A5*%
%TO.N,Net-(J2-PadA5)*%
X210235000Y-72155000D03*
%TO.P,J2,A6*%
%TO.N,unconnected-(J2-PadA6)*%
X210235000Y-71155000D03*
%TO.P,J2,A7*%
%TO.N,unconnected-(J2-PadA7)*%
X210235000Y-70655000D03*
%TO.P,J2,A8*%
%TO.N,unconnected-(J2-PadA8)*%
X210235000Y-69655000D03*
D16*
%TO.P,J2,A9*%
%TO.N,+5V*%
X210235000Y-68455000D03*
%TO.P,J2,A12*%
%TO.N,GND*%
X210235000Y-67655000D03*
%TO.P,J2,B1*%
X210235000Y-67655000D03*
%TO.P,J2,B4*%
%TO.N,+5V*%
X210235000Y-68455000D03*
D17*
%TO.P,J2,B5*%
%TO.N,Net-(C2-Pad2)*%
X210235000Y-69155000D03*
%TO.P,J2,B6*%
%TO.N,unconnected-(J2-PadB6)*%
X210235000Y-70155000D03*
%TO.P,J2,B7*%
%TO.N,unconnected-(J2-PadB7)*%
X210235000Y-71655000D03*
%TO.P,J2,B8*%
%TO.N,unconnected-(J2-PadB8)*%
X210235000Y-72655000D03*
D16*
%TO.P,J2,B9*%
%TO.N,+5V*%
X210235000Y-73355000D03*
%TO.P,J2,B12*%
%TO.N,GND*%
X210235000Y-74155000D03*
D18*
%TO.P,J2,S1*%
X211150000Y-75225000D03*
D19*
X215330000Y-75225000D03*
D18*
X211150000Y-66585000D03*
D19*
X215330000Y-66585000D03*
%TD*%
D14*
%TO.P,R9,1*%
%TO.N,Net-(R2-Pad1)*%
X164540000Y-117930000D03*
D15*
%TO.P,R9,2*%
%TO.N,Net-(D2-A)*%
X164540000Y-125550000D03*
%TD*%
D20*
%TO.P,D1,1,K*%
%TO.N,GND*%
X109850000Y-121285000D03*
D21*
%TO.P,D1,2,A*%
%TO.N,Net-(D1-A)*%
X112390000Y-121285000D03*
%TD*%
D14*
%TO.P,R6,1*%
%TO.N,GND*%
X207404200Y-78410200D03*
D15*
%TO.P,R6,2*%
%TO.N,Net-(D4-K)*%
X207404200Y-86030200D03*
%TD*%
D20*
%TO.P,D2,1,K*%
%TO.N,GND*%
X143510000Y-121285000D03*
D21*
%TO.P,D2,2,A*%
%TO.N,Net-(D2-A)*%
X146050000Y-121285000D03*
%TD*%
D14*
%TO.P,R8,1*%
%TO.N,GND*%
X204220000Y-78460000D03*
D15*
%TO.P,R8,2*%
%TO.N,Net-(J2-PadA5)*%
X196600000Y-78460000D03*
%TD*%
D22*
%TO.P,J1,1,Pin_1*%
%TO.N,GND*%
X76936600Y-52171600D03*
D23*
%TO.P,J1,2,Pin_2*%
%TO.N,+5V*%
X79476600Y-52171600D03*
%TO.P,J1,3,Pin_3*%
%TO.N,/V0*%
X82016600Y-52171600D03*
%TO.P,J1,4,Pin_4*%
%TO.N,/RS*%
X84556600Y-52171600D03*
%TO.P,J1,5,Pin_5*%
%TO.N,/RW*%
X87096600Y-52171600D03*
%TO.P,J1,6,Pin_6*%
%TO.N,/E*%
X89636600Y-52171600D03*
%TO.P,J1,7,Pin_7*%
%TO.N,/D0*%
X92176600Y-52171600D03*
%TO.P,J1,8,Pin_8*%
%TO.N,/D1*%
X94716600Y-52171600D03*
%TO.P,J1,9,Pin_9*%
%TO.N,/D2*%
X97256600Y-52171600D03*
%TO.P,J1,10,Pin_10*%
%TO.N,/D3*%
X99796600Y-52171600D03*
%TO.P,J1,11,Pin_11*%
%TO.N,/D4*%
X102336600Y-52171600D03*
%TO.P,J1,12,Pin_12*%
%TO.N,/D5*%
X104876600Y-52171600D03*
%TO.P,J1,13,Pin_13*%
%TO.N,/D6*%
X107416600Y-52171600D03*
%TO.P,J1,14,Pin_14*%
%TO.N,/D7*%
X109956600Y-52171600D03*
%TO.P,J1,15,Pin_15*%
%TO.N,+5V*%
X112496600Y-52171600D03*
%TO.P,J1,16,Pin_16*%
%TO.N,/BLK*%
X115036600Y-52171600D03*
%TD*%
D10*
%TO.P,SW2,1*%
%TO.N,+5V*%
X154900000Y-118240000D03*
D11*
%TO.P,SW2,2*%
X161400000Y-118240000D03*
%TO.P,SW2,3*%
%TO.N,Net-(R2-Pad1)*%
X154900000Y-122740000D03*
%TO.P,SW2,4*%
X161400000Y-122740000D03*
%TD*%
D22*
%TO.P,D3,1*%
%TO.N,/D7*%
X174731400Y-94644800D03*
D24*
%TO.P,D3,2*%
%TO.N,/D6*%
X177271400Y-94644800D03*
%TO.P,D3,3*%
%TO.N,/D5*%
X179811400Y-94644800D03*
%TO.P,D3,4*%
%TO.N,/D4*%
X182351400Y-94644800D03*
%TO.P,D3,5*%
%TO.N,/D3*%
X184891400Y-94644800D03*
%TO.P,D3,6*%
%TO.N,/D2*%
X187431400Y-94644800D03*
%TO.P,D3,7*%
%TO.N,/D1*%
X189971400Y-94644800D03*
%TO.P,D3,8*%
%TO.N,/D0*%
X192511400Y-94644800D03*
%TO.P,D3,9*%
%TO.N,Net-(RN1-R8)*%
X192511400Y-87024800D03*
%TO.P,D3,10*%
%TO.N,Net-(RN1-R7)*%
X189971400Y-87024800D03*
%TO.P,D3,11*%
%TO.N,Net-(RN1-R6)*%
X187431400Y-87024800D03*
%TO.P,D3,12*%
%TO.N,Net-(RN1-R5)*%
X184891400Y-87024800D03*
%TO.P,D3,13*%
%TO.N,Net-(RN1-R4)*%
X182351400Y-87024800D03*
%TO.P,D3,14*%
%TO.N,Net-(RN1-R3)*%
X179811400Y-87024800D03*
%TO.P,D3,15*%
%TO.N,Net-(RN1-R2)*%
X177271400Y-87024800D03*
%TO.P,D3,16*%
%TO.N,Net-(RN1-R1)*%
X174731400Y-87024800D03*
%TD*%
D14*
%TO.P,R1,1*%
%TO.N,/RS*%
X124460000Y-120015000D03*
D15*
%TO.P,R1,2*%
%TO.N,Net-(D1-A)*%
X116840000Y-120015000D03*
%TD*%
D14*
%TO.P,R5,1*%
%TO.N,GND*%
X194480000Y-99370000D03*
D15*
%TO.P,R5,2*%
%TO.N,Net-(D6-K)*%
X202100000Y-99370000D03*
%TD*%
D20*
%TO.P,D6,1,K*%
%TO.N,Net-(D6-K)*%
X198260000Y-104700000D03*
D21*
%TO.P,D6,2,A*%
%TO.N,/RW*%
X200800000Y-104700000D03*
%TD*%
D12*
%TO.P,RV2,1,1*%
%TO.N,unconnected-(RV2-Pad1)*%
X93980000Y-118745000D03*
D13*
%TO.P,RV2,2,2*%
%TO.N,/BLK*%
X96520000Y-121285000D03*
%TO.P,RV2,3,3*%
%TO.N,GND*%
X99060000Y-118745000D03*
%TD*%
D10*
%TO.P,SW3,1A*%
%TO.N,Net-(S1-NC_1)*%
X174625000Y-117475000D03*
D11*
%TO.P,SW3,1B*%
%TO.N,/D7*%
X174625000Y-109855000D03*
%TO.P,SW3,2A*%
%TO.N,Net-(S1-NC_1)*%
X177165000Y-117475000D03*
%TO.P,SW3,2B*%
%TO.N,/D6*%
X177165000Y-109855000D03*
%TO.P,SW3,3A*%
%TO.N,Net-(S1-NC_1)*%
X179705000Y-117475000D03*
%TO.P,SW3,3B*%
%TO.N,/D5*%
X179705000Y-109855000D03*
%TO.P,SW3,4A*%
%TO.N,Net-(S1-NC_1)*%
X182245000Y-117475000D03*
%TO.P,SW3,4B*%
%TO.N,/D4*%
X182245000Y-109855000D03*
%TO.P,SW3,5A*%
%TO.N,Net-(S1-NC_1)*%
X184785000Y-117475000D03*
%TO.P,SW3,5B*%
%TO.N,/D3*%
X184785000Y-109855000D03*
%TO.P,SW3,6A*%
%TO.N,Net-(S1-NC_1)*%
X187325000Y-117475000D03*
%TO.P,SW3,6B*%
%TO.N,/D2*%
X187325000Y-109855000D03*
%TO.P,SW3,7A*%
%TO.N,Net-(S1-NC_1)*%
X189865000Y-117475000D03*
%TO.P,SW3,7B*%
%TO.N,/D1*%
X189865000Y-109855000D03*
%TO.P,SW3,8A*%
%TO.N,Net-(S1-NC_1)*%
X192405000Y-117475000D03*
%TO.P,SW3,8B*%
%TO.N,/D0*%
X192405000Y-109855000D03*
%TD*%
D14*
%TO.P,R3,1*%
%TO.N,/RS*%
X118985000Y-114855000D03*
D15*
%TO.P,R3,2*%
%TO.N,+5V*%
X126605000Y-114855000D03*
%TD*%
D25*
%TO.P,RN1,1,common*%
%TO.N,GND*%
X172174600Y-83164400D03*
D15*
%TO.P,RN1,2,R1*%
%TO.N,Net-(RN1-R1)*%
X174714600Y-83164400D03*
%TO.P,RN1,3,R2*%
%TO.N,Net-(RN1-R2)*%
X177254600Y-83164400D03*
%TO.P,RN1,4,R3*%
%TO.N,Net-(RN1-R3)*%
X179794600Y-83164400D03*
%TO.P,RN1,5,R4*%
%TO.N,Net-(RN1-R4)*%
X182334600Y-83164400D03*
%TO.P,RN1,6,R5*%
%TO.N,Net-(RN1-R5)*%
X184874600Y-83164400D03*
%TO.P,RN1,7,R6*%
%TO.N,Net-(RN1-R6)*%
X187414600Y-83164400D03*
%TO.P,RN1,8,R7*%
%TO.N,Net-(RN1-R7)*%
X189954600Y-83164400D03*
%TO.P,RN1,9,R8*%
%TO.N,Net-(RN1-R8)*%
X192494600Y-83164400D03*
%TD*%
D20*
%TO.P,D4,1,K*%
%TO.N,Net-(D4-K)*%
X214144200Y-81990200D03*
D21*
%TO.P,D4,2,A*%
%TO.N,+5V*%
X214144200Y-79450200D03*
%TD*%
D14*
%TO.P,R7,1*%
%TO.N,Net-(C2-Pad2)*%
X204250000Y-67340000D03*
D15*
%TO.P,R7,2*%
%TO.N,GND*%
X196630000Y-67340000D03*
%TD*%
D26*
%TO.P,S1,1,NC_1*%
%TO.N,Net-(S1-NC_1)*%
X206320000Y-105200000D03*
%TO.P,S1,2,COM_1*%
%TO.N,+5V*%
X208320000Y-105200000D03*
%TO.P,S1,3,NO_1*%
%TO.N,unconnected-(S1-NO_1-Pad3)*%
X210320000Y-105200000D03*
%TO.P,S1,4,NC_2*%
%TO.N,GND*%
X206320000Y-100200000D03*
%TO.P,S1,5,COM_2*%
%TO.N,/RW*%
X208320000Y-100200000D03*
%TO.P,S1,6,NO_2*%
%TO.N,+5V*%
X210320000Y-100200000D03*
%TD*%
D27*
%TO.N,/D7*%
X174740000Y-90040400D03*
X174673800Y-97284800D03*
%TO.N,/D6*%
X177320000Y-90410000D03*
X177311400Y-97284800D03*
%TO.N,/D5*%
X179790000Y-90860000D03*
X179830000Y-97284800D03*
%TO.N,/D4*%
X182340000Y-91390400D03*
X182371400Y-97284800D03*
%TO.N,/D3*%
X184940000Y-91840400D03*
X184941400Y-97284800D03*
%TO.N,/D2*%
X187481400Y-97284800D03*
X187390000Y-92290000D03*
%TO.N,/D1*%
X190051400Y-97284800D03*
X189960000Y-92740400D03*
%TO.N,/D0*%
X192521400Y-97284800D03*
%TO.N,+5V*%
X208750000Y-73345000D03*
X208750000Y-68435000D03*
%TO.N,/RS*%
X123630000Y-85660000D03*
%TO.N,/E*%
X93345000Y-57235000D03*
%TD*%
D28*
%TO.N,GND*%
X210235000Y-74310000D02*
X211150000Y-75225000D01*
X210235000Y-67500000D02*
X211150000Y-66585000D01*
X210235000Y-67655000D02*
X210235000Y-67500000D01*
D29*
%TO.N,Net-(D1-A)*%
X116840000Y-120015000D02*
X115570000Y-121285000D01*
X115570000Y-121285000D02*
X112390000Y-121285000D01*
%TO.N,Net-(D2-A)*%
X164540000Y-125550000D02*
X154440000Y-125550000D01*
X154440000Y-125550000D02*
X150175000Y-121285000D01*
X150175000Y-121285000D02*
X146050000Y-121285000D01*
%TO.N,/D7*%
X134775172Y-90315400D02*
X109956600Y-65496828D01*
X174465000Y-90315400D02*
X134775172Y-90315400D01*
X109956600Y-65496828D02*
X109956600Y-52171600D01*
X174673800Y-109806200D02*
X174625000Y-109855000D01*
X174740000Y-90040400D02*
X174465000Y-90315400D01*
X174673800Y-97284800D02*
X174673800Y-109806200D01*
%TO.N,/D6*%
X177311400Y-97284800D02*
X177311400Y-109708600D01*
X134588776Y-90765400D02*
X107416600Y-63593224D01*
X177311400Y-109708600D02*
X177165000Y-109855000D01*
X176964600Y-90765400D02*
X134588776Y-90765400D01*
X107416600Y-63593224D02*
X107416600Y-52171600D01*
X177320000Y-90410000D02*
X176964600Y-90765400D01*
%TO.N,/D5*%
X179830000Y-109730000D02*
X179705000Y-109855000D01*
X179434600Y-91215400D02*
X134402380Y-91215400D01*
X104876600Y-61689620D02*
X104876600Y-52171600D01*
X179790000Y-90860000D02*
X179434600Y-91215400D01*
X134402380Y-91215400D02*
X104876600Y-61689620D01*
X179830000Y-97284800D02*
X179830000Y-109730000D01*
%TO.N,/D4*%
X182340000Y-91390400D02*
X182065000Y-91665400D01*
X182371400Y-97284800D02*
X182361400Y-97294800D01*
X102336600Y-59786016D02*
X102336600Y-52171600D01*
X134215984Y-91665400D02*
X102336600Y-59786016D01*
X182361400Y-109738600D02*
X182245000Y-109855000D01*
X182361400Y-97294800D02*
X182361400Y-109738600D01*
X182065000Y-91665400D02*
X134215984Y-91665400D01*
%TO.N,/D3*%
X184931400Y-107614800D02*
X184941400Y-107624800D01*
X184941400Y-107624800D02*
X184941400Y-109698600D01*
X134029588Y-92115400D02*
X99796600Y-57882412D01*
X184940000Y-91840400D02*
X184665000Y-92115400D01*
X184941400Y-97284800D02*
X184941400Y-107604800D01*
X99796600Y-57882412D02*
X99796600Y-52171600D01*
X184941400Y-107604800D02*
X184931400Y-107614800D01*
X184665000Y-92115400D02*
X134029588Y-92115400D01*
X184941400Y-109698600D02*
X184785000Y-109855000D01*
%TO.N,/D2*%
X187325000Y-109855000D02*
X187471400Y-109708600D01*
X187114600Y-92565400D02*
X133843192Y-92565400D01*
X187471400Y-109708600D02*
X187471400Y-97294800D01*
X97256600Y-55978808D02*
X97256600Y-52171600D01*
X133843192Y-92565400D02*
X97256600Y-55978808D01*
X187390000Y-92290000D02*
X187114600Y-92565400D01*
X187471400Y-97294800D02*
X187481400Y-97284800D01*
%TO.N,/D1*%
X190041400Y-109678600D02*
X190041400Y-97294800D01*
X189685000Y-93015400D02*
X133656796Y-93015400D01*
X189960000Y-92740400D02*
X189685000Y-93015400D01*
X189865000Y-109855000D02*
X190041400Y-109678600D01*
X190041400Y-97294800D02*
X190051400Y-97284800D01*
X133656796Y-93015400D02*
X94716600Y-54075204D01*
X94716600Y-54075204D02*
X94716600Y-52171600D01*
%TO.N,/D0*%
X133470400Y-93465400D02*
X191340200Y-93465400D01*
X92176600Y-52171600D02*
X133470400Y-93465400D01*
X191340200Y-93465400D02*
X192520000Y-94645200D01*
X192405000Y-109855000D02*
X192511400Y-109748600D01*
X192511400Y-97294800D02*
X192521400Y-97284800D01*
X192511400Y-109748600D02*
X192511400Y-97294800D01*
%TO.N,Net-(RN1-R8)*%
X192494600Y-86999800D02*
X192520000Y-87025200D01*
X192494600Y-83164400D02*
X192494600Y-86999800D01*
%TO.N,Net-(RN1-R7)*%
X189954600Y-83164400D02*
X189954600Y-86999800D01*
X189954600Y-86999800D02*
X189980000Y-87025200D01*
%TO.N,Net-(RN1-R6)*%
X187414600Y-83164400D02*
X187414600Y-86999800D01*
X187414600Y-86999800D02*
X187440000Y-87025200D01*
%TO.N,Net-(RN1-R5)*%
X184874600Y-83164400D02*
X184874600Y-86999800D01*
X184874600Y-86999800D02*
X184900000Y-87025200D01*
%TO.N,Net-(RN1-R4)*%
X182334600Y-86999800D02*
X182360000Y-87025200D01*
X182334600Y-83164400D02*
X182334600Y-86999800D01*
%TO.N,Net-(RN1-R3)*%
X179794600Y-83164400D02*
X179794600Y-86999800D01*
X179794600Y-86999800D02*
X179820000Y-87025200D01*
%TO.N,Net-(RN1-R2)*%
X177280000Y-83189800D02*
X177254600Y-83164400D01*
X177280000Y-87025200D02*
X177280000Y-83189800D01*
%TO.N,Net-(RN1-R1)*%
X174714600Y-83164400D02*
X174714600Y-86999800D01*
X174714600Y-86999800D02*
X174740000Y-87025200D01*
%TO.N,Net-(D4-K)*%
X207404200Y-86030200D02*
X210104200Y-86030200D01*
X210104200Y-86030200D02*
X214144200Y-81990200D01*
D28*
%TO.N,+5V*%
X216140000Y-85380000D02*
X212305000Y-89215000D01*
X203515000Y-89215000D02*
X163195000Y-48895000D01*
X208320000Y-112355000D02*
X208320000Y-105200000D01*
X216140000Y-80490000D02*
X216140000Y-85380000D01*
X210215000Y-68435000D02*
X210235000Y-68455000D01*
X200025000Y-120650000D02*
X208320000Y-112355000D01*
X215100200Y-79450200D02*
X216140000Y-80490000D01*
X210320000Y-102735000D02*
X208320000Y-104735000D01*
X208750000Y-68435000D02*
X210215000Y-68435000D01*
X126700000Y-114950000D02*
X127320000Y-115570000D01*
X79476600Y-50063400D02*
X80645000Y-48895000D01*
X79476600Y-52171600D02*
X79476600Y-50063400D01*
X112496600Y-50123400D02*
X113725000Y-48895000D01*
X210320000Y-100200000D02*
X210320000Y-102735000D01*
X154900000Y-118240000D02*
X161400000Y-118240000D01*
X210185000Y-91335000D02*
X210185000Y-100065000D01*
X161400000Y-118240000D02*
X163810000Y-120650000D01*
X214144200Y-79450200D02*
X215100200Y-79450200D01*
X127320000Y-115570000D02*
X152200000Y-115570000D01*
X163810000Y-120650000D02*
X200025000Y-120650000D01*
X213481697Y-79450200D02*
X214144200Y-79450200D01*
X210185000Y-100065000D02*
X210320000Y-100200000D01*
X212305000Y-89215000D02*
X203515000Y-89215000D01*
X163195000Y-48895000D02*
X113725000Y-48895000D01*
X212305000Y-89215000D02*
X210185000Y-91335000D01*
X80645000Y-48895000D02*
X113725000Y-48895000D01*
X208760000Y-73355000D02*
X208750000Y-73345000D01*
X152200000Y-115570000D02*
X154900000Y-118270000D01*
X112496600Y-52171600D02*
X112496600Y-50123400D01*
X210235000Y-73355000D02*
X208760000Y-73355000D01*
X208320000Y-104735000D02*
X208320000Y-105200000D01*
D29*
%TO.N,/RS*%
X123630000Y-85660000D02*
X93200000Y-55230000D01*
X128195000Y-122555000D02*
X134695000Y-122555000D01*
X93200000Y-55230000D02*
X87615000Y-55230000D01*
X87615000Y-55230000D02*
X84556600Y-52171600D01*
%TO.N,/RW*%
X135588604Y-96220000D02*
X93808604Y-54440000D01*
X200815000Y-104710000D02*
X203835000Y-101690000D01*
X202300000Y-96220000D02*
X204340000Y-96220000D01*
X202300000Y-96220000D02*
X135588604Y-96220000D01*
X89365000Y-54440000D02*
X87096600Y-52171600D01*
X203835000Y-101690000D02*
X203835000Y-97755000D01*
X204340000Y-96220000D02*
X208320000Y-100200000D01*
X203835000Y-97755000D02*
X202300000Y-96220000D01*
X93808604Y-54440000D02*
X89365000Y-54440000D01*
%TO.N,Net-(J2-PadA5)*%
X196600000Y-78460000D02*
X202905000Y-72155000D01*
X202905000Y-72155000D02*
X210235000Y-72155000D01*
%TO.N,Net-(C2-Pad2)*%
X197170000Y-74420000D02*
X193560000Y-74420000D01*
X206090000Y-69180000D02*
X210210000Y-69180000D01*
X204250000Y-67340000D02*
X197170000Y-74420000D01*
X204250000Y-67340000D02*
X206090000Y-69180000D01*
%TO.N,Net-(R2-Pad1)*%
X164540000Y-117920000D02*
X164540000Y-117930000D01*
X154900000Y-122740000D02*
X161400000Y-122740000D01*
%TO.N,Net-(D6-K)*%
X198415000Y-104710000D02*
X202100000Y-101025000D01*
X198275000Y-104710000D02*
X198415000Y-104710000D01*
X202100000Y-101025000D02*
X202100000Y-99370000D01*
%TO.N,/E*%
X149620000Y-113350000D02*
X149640000Y-113330000D01*
X149620000Y-113330000D02*
X149620000Y-113350000D01*
X93525000Y-57235000D02*
X149620000Y-113330000D01*
X93345000Y-57235000D02*
X93525000Y-57235000D01*
X149640000Y-113330000D02*
X154210000Y-113330000D01*
%TO.N,Net-(S1-NC_1)*%
X174625000Y-117475000D02*
X196065000Y-117475000D01*
X206320000Y-107220000D02*
X206320000Y-105200000D01*
X196065000Y-117475000D02*
X206320000Y-107220000D01*
%TD*%
M02*
